<?xml version="1.0" encoding="utf-8"?>
<!-- Generator: Adobe Illustrator 26.5.0, SVG Export Plug-In . SVG Version: 6.00 Build 0)  -->
<svg version="1.1" id="Layer_1" xmlns="http://www.w3.org/2000/svg" xmlns:xlink="http://www.w3.org/1999/xlink" x="0px" y="0px"
	 viewBox="0 0 29.8 26.6" style="enable-background:new 0 0 29.8 26.6;" xml:space="preserve">
<style type="text/css">
	.st0{fill:none;}
	.st1{fill:#EA4335;}
	.st2{fill:#188038;}
	.st3{fill:#1967D2;}
	.st4{fill:#FBBC04;}
	.st5{fill:#4285F4;}
	.st6{fill:#34A853;}
</style>
<g>
	<path class="st0" d="M-3.1-4.4h36v36h-36V-4.4z"/>
	<g transform="translate(3 4.363636)">
		<path class="st1" d="M17.4,13.7l1.3,4.5l3.4,3.7c0.5-0.3,0.8-0.6,1.1-1.1l3.2-5.5c0.3-0.5,0.4-1,0.4-1.5l-4.8-0.9L17.4,13.7z"/>
		<path class="st2" d="M16.6-4c-0.5-0.3-1-0.4-1.5-0.4H8.7C8.2-4.4,7.7-4.2,7.2-4l1.4,4.6l3.3,3.5l0,0l3.3-3.6L16.6-4z"/>
		<path class="st3" d="M6.4,13.7l-4.8-1.1L-3,13.7c0,0.5,0.1,1.1,0.4,1.5l3.2,5.5c0.3,0.5,0.7,0.9,1.1,1.1L5,18.4L6.4,13.7z"/>
		<path class="st4" d="M22,4.7l-4.3-7.5C17.4-3.3,17-3.7,16.6-4l-4.7,8.1l5.5,9.5h9.4c0-0.5-0.1-1.1-0.4-1.5L22,4.7z"/>
		<path class="st5" d="M17.4,13.7h-11l-4.7,8.1c0.5,0.3,1,0.4,1.5,0.4h17.3c0.5,0,1.1-0.1,1.5-0.4L17.4,13.7z"/>
		<path class="st6" d="M11.9,4.2L7.2-4C6.7-3.7,6.3-3.3,6.1-2.8l-8.7,15c-0.3,0.5-0.4,1-0.4,1.5h9.4L11.9,4.2z"/>
	</g>
</g>
</svg>
