<?xml version="1.0" encoding="utf-8"?>
<!-- Generator: Adobe Illustrator 26.5.0, SVG Export Plug-In . SVG Version: 6.00 Build 0)  -->
<svg version="1.1" id="Layer_1" xmlns="http://www.w3.org/2000/svg" xmlns:xlink="http://www.w3.org/1999/xlink" x="0px" y="0px"
	 viewBox="0 0 256 319" style="enable-background:new 0 0 256 319;" xml:space="preserve">
<style type="text/css">
	.st0{fill:#FF4785;}
	.st1{filter:url(#Adobe_OpacityMaskFilter);}
	.st2{fill:#FFFFFF;}
	.st3{mask:url(#mask-2_00000024722402656483180800000007883814328989642624_);fill:#FFFFFF;}
</style>
<g>
	<g>
		<path id="path-1_00000155857919480494202470000009829823511702251152_" class="st0" d="M9.9,293.3L0,30.6c-0.3-8.7,6.3-16,15-16.6
			L238.5,0c8.8-0.6,16.4,6.2,17,15c0,0.3,0,0.7,0,1v286.3c0,8.8-7.2,16-16,16c-0.2,0-0.5,0-0.7,0l-213.6-9.6
			C16.8,308.3,10.2,301.6,9.9,293.3L9.9,293.3z"/>
	</g>
	<defs>
		<filter id="Adobe_OpacityMaskFilter" filterUnits="userSpaceOnUse" x="65.8" y="0" width="156.4" height="258">
			<feColorMatrix  type="matrix" values="1 0 0 0 0  0 1 0 0 0  0 0 1 0 0  0 0 0 1 0"/>
		</filter>
	</defs>
	
		<mask maskUnits="userSpaceOnUse" x="65.8" y="0" width="156.4" height="258" id="mask-2_00000024722402656483180800000007883814328989642624_">
		<g class="st1">
			<path id="path-1_00000125562303541127834680000016344081952899742901_" class="st2" d="M9.9,293.3L0,30.6
				c-0.3-8.7,6.3-16,15-16.6L238.5,0c8.8-0.6,16.4,6.2,17,15c0,0.3,0,0.7,0,1v286.3c0,8.8-7.2,16-16,16c-0.2,0-0.5,0-0.7,0
				l-213.6-9.6C16.8,308.3,10.2,301.6,9.9,293.3L9.9,293.3z"/>
		</g>
	</mask>
	<path class="st3" d="M188.7,39.1l1.5-36.7L220.9,0l1.3,37.9c0,1.3-1,2.4-2.3,2.5c-0.6,0-1.1-0.2-1.6-0.5l-11.8-9.3l-14,10.6
		c-1.1,0.8-2.5,0.6-3.3-0.5C188.8,40.2,188.6,39.7,188.7,39.1z M149.4,120c0,6.2,41.9,3.2,47.6-1.1c0-42.4-22.8-64.7-64.4-64.7
		s-65,22.6-65,56.6c0,59.1,79.8,60.2,79.8,92.5c0,9.1-4.4,14.4-14.2,14.4c-12.7,0-17.7-6.5-17.1-28.6c0-4.8-48.5-6.3-49.9,0
		c-3.8,53.5,29.5,68.9,67.7,68.9c36.9,0,65.9-19.7,65.9-55.3c0-63.4-81-61.7-81-93.1c0-12.7,9.5-14.4,15.1-14.4
		C139.7,95.2,150.3,96.2,149.4,120z"/>
</g>
</svg>
