<svg width="550" height="550" viewBox="0 0 550 550" fill="none" xmlns="http://www.w3.org/2000/svg">
<g clip-path="url(#clip0_7261_20405)">
<path d="M275.188 550.011C426.962 550.011 550 426.887 550 275.006C550 123.124 426.962 0 275.188 0C123.413 0 0.374969 123.124 0.374969 275.006C0.374969 426.887 123.413 550.011 275.188 550.011Z" fill="#FFF6E8"/>
<path d="M415.544 499.61C410.868 494.853 406.126 490.174 401.428 485.439C400.987 484.998 400.204 484.7 400.424 483.696C402.156 483.641 402.961 485.219 404.262 485.848C409.875 488.585 415.434 491.41 421.256 493.683C424.102 494.798 427.013 495.427 430.101 495.184C432.891 494.964 433.972 492.911 432.439 490.571C432.108 490.075 431.667 489.644 431.248 489.214C428.987 486.896 426.429 484.932 423.76 483.144C416.922 478.553 409.82 474.326 403.479 469.029C397.987 464.449 393.443 459.163 391.447 452.078C391.524 451.758 391.712 451.559 392.043 451.482C396.531 452.089 401.064 452.309 405.552 452.53C413.195 452.894 420.782 454.075 428.458 453.921C428.965 453.921 429.484 453.888 429.969 453.998C434.523 455.024 439.199 454.671 443.798 454.947C450.018 455.311 456.26 456.062 462.524 455.753C462.723 455.753 462.932 455.753 463.131 455.786C468.898 456.9 474.776 456.382 480.599 456.779C480.732 456.779 480.864 456.801 480.996 456.812C493.05 443.128 503.77 428.251 512.945 412.359C507.806 410.02 502.656 407.691 497.506 405.362C491.727 402.747 485.97 400.032 480.103 397.637C466.77 392.208 453.327 387.054 439.486 383.048C431.193 380.642 422.844 378.424 414.342 376.79C409.908 375.94 405.519 374.914 401.031 374.362C400.159 374.252 399.376 373.932 399.531 372.872C400.027 369.385 400.347 365.887 400.667 362.388C401.119 357.488 401.891 352.621 402.299 347.71C402.806 341.696 403.115 335.659 403.457 329.634C403.876 322.284 403.402 314.9 404.141 307.551C404.328 305.696 403.6 303.975 403.567 302.143C403.479 297.11 403.512 292.078 403.104 287.024C402.542 280.093 401.703 273.207 400.347 266.419C398.538 257.414 395.847 248.652 391.282 240.573C386.804 232.638 380.904 226.017 373.515 220.675C367.803 216.548 361.461 213.877 354.745 211.924C347.566 209.827 340.232 208.569 332.81 208.227C324.153 207.829 315.463 207.929 306.805 208.767C306.21 208.823 305.625 209.065 305.03 209.121C302.824 209.33 300.608 209.496 298.27 209.695C298.446 209.209 298.457 208.955 298.589 208.867C299.097 208.536 299.637 208.26 300.166 207.973C308.228 203.559 315.077 197.698 320.734 190.47C327.45 181.895 332.292 172.305 335.721 161.986C337.31 157.207 338.434 152.318 339.295 147.363C339.394 146.767 339.427 146.061 340.177 146.006C340.739 145.962 340.96 146.547 341.18 146.999C341.313 147.275 341.467 147.54 341.622 147.794C343.54 150.939 346.672 151.833 349.959 150.31C354.216 148.323 356.311 144.571 358.043 140.554C360.447 134.959 360.767 129.044 360.557 123.051C360.447 119.928 359.542 117.081 357.943 114.476C355.241 110.084 350.599 109.168 346.882 112.302C344.787 114.068 343.044 116.165 342.294 118.913C342.217 119.354 342.261 119.972 341.577 119.84C341.18 119.762 341.18 119.277 341.214 118.89C341.147 117.478 341.191 116.043 340.982 114.653C339.703 106.232 337.243 98.187 333.086 90.7046C328.531 82.4828 322.896 75.2542 314.768 70.2439C312.242 68.6878 309.937 66.8227 306.585 68.4561C305.35 69.052 303.585 68.4671 302.085 68.6547C295.689 69.4493 289.271 69.9128 282.819 69.8025C280.459 69.7583 278.231 69.2948 276.125 68.2354C273.07 66.6903 269.938 65.2998 266.971 63.6002C263.597 61.6579 260.046 60.9957 256.219 61.2496C253.506 61.4372 251.168 62.2759 249.216 64.2955C246.635 66.9772 245.069 70.1446 244.066 73.6761C242.963 77.5608 241.783 81.4454 238.486 84.1823C236.71 85.6612 234.957 87.1621 233.159 88.6078C230.159 91.0246 227.336 93.6733 224.998 96.6861C218.988 104.444 214.301 112.997 210.904 122.234C210.198 124.155 209.514 124.309 208.356 122.676C207.044 120.822 205.434 119.332 203.504 118.206C200.03 116.187 196.435 116.915 194.174 120.127C193.06 121.705 192.101 123.504 192.035 125.402C191.902 129.816 191.34 134.286 192.586 138.645C194.384 144.946 197.152 150.685 202.247 155.066C205.39 157.77 208.941 158.035 211.974 155.629C213.187 154.658 213.485 154.724 214.124 156.17C214.367 156.722 214.565 157.296 214.709 157.881C216.473 165.065 219.341 171.808 222.803 178.33C225.98 184.312 229.685 189.94 234.251 194.917C239.18 200.281 244.871 204.739 251.333 208.172C252.469 208.105 253.418 208.447 254.322 209.485C252.944 210.191 252.05 209.97 251.322 208.933C242.048 208.734 232.795 207.885 223.498 208.116C220.168 208.205 216.848 208.558 213.573 208.944C208.103 209.573 202.71 210.765 197.372 212.266C186.046 215.433 176.529 221.404 169.019 230.321C162.115 238.52 157.649 248.122 154.98 258.496C153.535 264.124 152.245 269.763 151.715 275.612C151.274 280.501 150.602 285.412 150.216 290.301C149.697 296.724 150.138 303.213 149.554 309.658C149.422 311.126 149.962 312.649 150.017 314.15C150.249 320.595 149.984 327.051 150.546 333.518C151.043 339.323 151.263 345.161 151.826 350.977C152.377 356.782 152.84 362.587 153.645 368.37C153.855 369.86 153.712 371.394 153.734 372.917C153.734 373.91 153.248 374.351 152.256 374.429C148.65 374.738 145.132 375.587 141.58 376.249C129.902 378.424 118.465 381.547 107.139 385.056C99.6401 387.385 92.2512 390.056 84.9284 392.881C68.7831 399.105 53.123 406.422 37.4078 413.639C46.4399 429.09 56.9277 443.58 68.6838 456.922C70.5366 456.867 72.4004 456.856 74.2641 456.956C74.6722 456.978 75.0802 457 75.4772 456.922C81.0465 455.753 86.726 456.371 92.3394 455.951C98.6476 455.477 105 454.815 111.363 455.135C111.661 455.146 111.97 455.135 112.267 455.068C116.833 454.164 121.487 454.351 126.097 454.097C130.618 453.843 135.14 453.479 139.662 453.192C142.661 453.005 145.716 453.071 148.694 452.618C152.984 451.967 157.329 452.166 161.608 451.548C161.928 451.625 162.126 451.813 162.203 452.144C162.181 453.424 161.299 454.384 160.792 455.422C159.501 458.026 158.123 460.609 156.127 462.794C151.208 468.19 145.484 472.572 139.441 476.611C135.272 479.403 130.817 481.787 126.946 484.998C124.807 486.775 122.248 488.143 120.914 490.803C119.734 493.154 120.704 495.074 123.362 495.217C125.479 495.328 127.564 495.25 129.626 494.511C137.246 491.785 144.437 488.143 151.561 484.358C152.134 484.049 152.631 483.376 153.612 484.27C149.708 486.94 146.742 490.516 143.444 493.739C140.555 496.553 137.61 499.312 135.206 502.578C134.192 503.958 133.144 505.326 132.317 506.816C131.71 507.909 131.6 509.189 132.317 510.248C132.956 510.635 133.607 511.01 134.247 511.385C134.743 511.407 135.261 511.275 135.802 511.01C136.794 510.513 137.908 510.226 138.801 509.608C141.702 507.611 144.712 505.779 147.536 503.66C148.705 502.788 149.664 501.453 151.285 501.243C151.396 501.166 151.506 501.088 151.616 501.011C151.528 501.111 151.451 501.221 151.363 501.32C150.855 503.119 149.719 504.51 148.374 505.724C146.113 507.765 144.624 510.414 142.727 512.742C142.22 513.36 142.022 514.795 142.121 515.899C143.113 516.451 144.095 516.991 145.098 517.521C145.584 517.367 146.069 517.124 146.565 516.793C148.23 515.678 149.984 514.718 151.583 513.482C157.307 509.067 162.799 504.388 168.037 499.4C168.622 498.848 169.151 498.219 170.044 498.164C170.375 496.84 171.125 495.968 172.548 495.802C172.636 495.725 172.713 495.637 172.801 495.559C172.79 495.615 172.79 495.681 172.757 495.714C172.702 495.758 172.625 495.78 172.559 495.813C172.371 496.906 172.184 497.998 170.816 498.252C169.449 501.42 167.111 503.98 165.39 506.915C164.221 508.913 162.909 510.844 161.972 512.952C161.343 514.387 160.957 516.285 162.258 517.477C163.736 518.834 165.214 517.576 166.57 516.737C172.382 513.14 177.014 508.273 181.425 503.119C186.212 497.535 190.656 491.697 194.935 485.737C196.622 483.387 198.663 482.769 201.166 483.265C202.578 483.541 203.956 483.641 205.357 483.652C209.503 483.663 213.639 483.663 217.786 483.663C221.017 483.663 224.182 483.056 227.325 482.405C228.637 482.14 229.817 481.533 230.854 480.738C232.574 479.414 232.442 477.394 230.534 476.324C228.781 475.342 226.994 474.426 225.053 473.785C218.646 471.689 212.282 469.481 205.886 467.374C204.43 466.899 203.129 466.149 201.762 465.508C200.824 465.067 200.339 464.427 200.615 463.345C201.839 458.479 203.03 453.601 204.309 448.745C204.596 447.663 205.18 446.703 206.57 446.648C210.981 446.449 215.315 445.5 219.627 444.695C230.071 442.719 240.449 440.424 250.771 437.885C258.766 435.921 266.608 433.394 274.614 431.44C275.948 431.12 276.257 430.039 276.081 428.869C275.971 428.196 275.518 427.578 275.221 426.938C272.629 421.431 269.034 416.553 265.758 411.465C260.729 403.652 254.333 397.13 247.209 391.28C239.037 384.582 229.983 379.373 220.09 375.62C218.072 374.859 217.83 374.517 218.127 372.508C218.635 369.032 219.219 365.556 219.307 362.035C219.318 361.55 219.341 360.678 219.826 360.799C221.623 361.274 222.351 360.049 223.267 358.989C223.454 358.769 223.829 358.791 224.094 359.011C225.935 360.512 227.215 359.552 228.384 358.051C227.656 357.963 226.994 358.206 226.321 358.426C225.605 358.647 225.174 358.206 224.91 357.61C224.535 356.727 225.527 354.332 226.542 353.615C227.49 352.942 228.031 353.824 228.637 354.233C234.879 358.448 241.629 361.572 248.819 363.735C255.954 365.876 263.2 367.421 270.589 368.513C280.062 369.915 289.568 370.61 299.13 370.82C302.185 370.886 305.129 370.058 308.162 370.191C310.897 370.312 313.566 369.672 316.246 369.275C321.727 368.469 327.108 367.266 332.391 365.545C334.233 364.938 334.938 365.556 335.082 367.586C335.181 369.087 335.203 370.577 335.567 372.078C336.118 374.34 335.744 374.793 333.527 375.665C326.844 378.302 320.337 381.337 314.437 385.442C306.309 391.104 298.6 397.317 292.535 405.241C287.131 412.293 282.146 419.632 278.187 427.622C277.525 428.946 277.283 430.26 277.889 431.981C278.926 431.562 279.919 431.584 281.032 431.926C291.289 435.082 301.677 437.698 312.143 440.115C323.557 442.741 335.016 445.114 346.628 446.637C348.051 446.825 348.9 447.409 349.22 449.043C349.86 452.387 350.797 455.675 351.635 458.986C353.223 465.266 353.19 465.144 346.948 467.473C340.629 469.835 334.122 471.6 327.781 473.896C325.973 474.547 324.175 475.242 322.686 476.456C320.723 478.045 320.778 479.767 322.84 481.091C323.756 481.687 324.748 482.184 325.873 482.416C328.928 483.045 332.016 483.574 335.115 483.585C341.357 483.607 347.621 484.115 353.852 483.1C355.197 482.879 356.455 482.912 357.535 484.402C362.597 491.399 367.77 498.307 373.449 504.841C377.386 509.365 381.588 513.438 386.573 516.749C387.444 517.322 388.348 517.731 389.297 517.962C390.598 518.271 391.954 517.256 392.131 515.932C392.263 514.917 392.098 513.956 391.635 512.996C390.708 511.087 389.561 509.31 388.436 507.522C386.617 504.642 384.345 502.038 382.988 498.87C381.886 498.142 381.389 497.06 381.224 495.791L380.981 495.537C380.981 495.537 381.103 495.537 381.136 495.582C381.18 495.637 381.202 495.714 381.235 495.78C382.647 495.946 383.397 496.818 383.727 498.142C388.646 502.744 393.741 507.136 398.968 511.352C401.306 513.239 403.699 515.082 406.302 516.605C407.967 515.689 409.633 514.762 411.276 513.824C411.188 513.592 411.077 513.372 410.945 513.151C410.482 512.378 409.952 511.628 409.379 510.944C406.666 507.71 403.931 504.499 401.196 501.276C400.237 500.603 399.299 499.93 398.825 498.418C400.512 498.528 401.13 499.665 401.869 500.603C404.085 502.313 406.214 504.179 408.552 505.713C411.199 507.445 413.724 509.365 416.647 510.668C418.246 509.697 419.834 508.714 421.422 507.71C421.334 507.522 421.245 507.324 421.157 507.136C419.834 504.256 417.827 501.872 415.632 499.643L415.544 499.61ZM152.675 500.504C152.796 499.124 153.447 498.616 154.748 498.318C154.638 499.709 154.009 500.239 152.675 500.504ZM155.95 497.678C155.95 497.678 156.061 497.634 156.116 497.612C156.038 497.678 155.972 497.756 155.895 497.822C155.917 497.767 155.917 497.7 155.95 497.678ZM156.766 496.983C156.568 497.182 156.358 497.391 156.16 497.59H156.149C156.347 497.369 156.557 497.171 156.755 496.972C156.766 496.972 156.766 496.972 156.777 496.961C156.799 496.928 156.81 496.884 156.833 496.84C156.855 496.796 156.877 496.751 156.888 496.751C157.064 496.784 157.02 496.862 156.777 496.961V496.983H156.766ZM397.59 497.778C397.59 497.778 397.535 497.678 397.513 497.623L397.48 497.59C397.281 497.391 397.072 497.182 396.873 496.983V496.961C396.873 496.961 396.796 496.917 396.752 496.906C396.708 496.884 396.663 496.862 396.663 496.851C396.697 496.707 396.752 496.707 396.818 496.829C396.84 496.862 396.851 496.917 396.873 496.972H396.895C397.094 497.182 397.303 497.391 397.502 497.59C397.502 497.59 397.513 497.623 397.524 497.634L397.755 497.833C397.755 497.833 397.634 497.833 397.601 497.789L397.59 497.778Z" fill="#FFBF7B"/>
<path d="M254.333 209.419C253.429 208.381 252.48 208.039 251.344 208.105C251.344 208.359 251.344 208.613 251.333 208.867C252.072 209.893 252.966 210.125 254.333 209.419Z" fill="#FFBF7B"/>
<path d="M341.566 119.807C342.239 119.939 342.206 119.321 342.283 118.879C341.919 118.879 341.566 118.868 341.202 118.857C341.169 119.244 341.169 119.729 341.566 119.807Z" fill="#FFEAFF"/>
<path d="M228.56 357.731C228.472 357.819 228.384 357.908 228.295 357.996C228.373 357.974 228.45 357.952 228.516 357.897C228.549 357.864 228.549 357.786 228.56 357.731Z" fill="#FFBF7B"/>
<path d="M161.597 451.482C161.795 451.68 161.994 451.879 162.192 452.078C162.115 451.758 161.916 451.559 161.597 451.482Z" fill="#FFEAFF"/>
<path d="M391.447 452.067C391.646 451.868 391.844 451.669 392.043 451.471C391.723 451.548 391.524 451.747 391.447 452.067Z" fill="#FFEAFF"/>
<path d="M172.724 495.67C172.724 495.67 172.757 495.571 172.768 495.515C172.68 495.593 172.603 495.681 172.515 495.758C172.581 495.736 172.658 495.714 172.713 495.67H172.724Z" fill="#FFEAFF"/>
<path d="M381.025 495.56C381.025 495.56 380.926 495.526 380.871 495.515L381.114 495.769C381.081 495.692 381.058 495.615 381.014 495.56H381.025Z" fill="#FFEAFF"/>
<path d="M156.888 496.751C156.888 496.751 156.855 496.785 156.832 496.84C156.81 496.884 156.799 496.928 156.777 496.961C157.031 496.873 157.064 496.785 156.888 496.751Z" fill="#FFEAFF"/>
<path d="M396.663 496.84C396.663 496.84 396.697 496.873 396.752 496.895C396.796 496.917 396.84 496.939 396.873 496.95C396.873 496.95 396.84 496.851 396.818 496.807C396.752 496.685 396.697 496.685 396.663 496.829V496.84Z" fill="#FFEAFF"/>
<path d="M156.744 496.961C156.546 497.16 156.336 497.369 156.138 497.568H156.149C156.347 497.38 156.557 497.182 156.755 496.972H156.744V496.961Z" fill="#FFEAFF"/>
<path d="M397.502 497.568C397.303 497.369 397.094 497.16 396.895 496.961H396.884C397.083 497.182 397.292 497.38 397.491 497.579H397.502V497.568Z" fill="#FFEAFF"/>
<path d="M397.601 497.778C397.601 497.778 397.7 497.811 397.755 497.822L397.524 497.623C397.546 497.678 397.568 497.734 397.601 497.778Z" fill="#FFEAFF"/>
<path d="M397.502 497.568H397.491L397.524 497.612C397.524 497.612 397.513 497.579 397.502 497.568Z" fill="#FFEAFF"/>
<path d="M151.263 501.188L151.34 501.265L151.263 501.188Z" fill="#FFF6E8"/>
<path d="M280.481 441.163C273.092 441.803 265.692 442.521 258.48 444.364C252.105 445.997 245.709 446.77 239.103 446.725C233.214 446.681 226.63 440.998 225.968 435.005C225.77 433.206 225.219 431.485 225.23 429.631C225.241 427.788 223.972 426.485 222.473 425.525C221.105 424.642 219.583 424.035 218.017 423.693C210.761 422.104 208.853 415.527 209.68 410.031C210.694 403.299 211.885 396.589 212.679 389.813C213.253 384.935 213.661 380.035 214.234 375.157C214.576 372.288 214.841 369.363 215.017 366.461C215.271 362.455 216.164 358.515 216.22 354.487C216.22 353.957 216.451 353.538 216.881 353.207C219.374 351.275 221.965 349.984 225.263 351.253C226.586 351.761 227.965 352.224 229.101 353.03C234.835 357.113 240.713 356.661 246.823 353.99C251.344 352.015 255.987 351.993 260.641 353.769C262.384 354.432 263.696 355.69 265.141 356.76C266.354 357.654 267.6 358.504 268.791 359.431C272.827 362.554 277.151 362.698 281.286 359.784C282.356 359.034 283.393 358.239 284.44 357.455C288.113 354.674 292.314 353.88 296.737 354.487C299.472 354.862 301.699 356.639 304.126 357.842C304.478 358.018 304.765 358.349 305.107 358.548C308.327 360.402 309.926 360.292 312.65 357.687C314.503 355.91 316.565 354.542 318.859 353.449C324.484 350.746 333.758 355.005 335.049 359.265C335.225 359.839 335.644 360.424 335.6 360.976C335.369 363.922 336.141 366.781 336.295 369.694C336.482 373.093 336.791 376.492 337.343 379.858C337.684 381.933 337.784 384.052 337.993 386.149C338.865 394.934 340.21 403.652 341.622 412.359C342.052 415.03 342.327 417.723 342.901 420.372C343.287 422.203 342.504 423.815 341.478 425.183C339.901 427.291 338.026 429.145 335.446 430.072C334.872 430.271 334.299 430.458 333.736 430.668C330.593 431.827 328.73 433.67 328.222 437.367C327.263 444.364 322.719 445.478 317.018 444.584C310.687 443.591 304.423 442.267 298.005 441.682C293.164 441.241 288.344 441.395 283.525 441.207C282.51 441.207 281.507 441.207 280.492 441.207L280.481 441.163Z" fill="#4967E5"/>
<path d="M274.548 30.989C275.342 20.2399 283.161 13.3756 292.998 11.8416C304.489 10.0427 314.305 13.6404 321.66 22.8996C326.811 29.3998 328.134 37.0036 326.811 44.9826C323.899 62.4967 313.323 73.8527 297.387 80.695C294.785 81.8097 292.05 82.527 289.248 82.9795C288.708 82.6374 288.212 82.6374 287.782 83.145C277.603 84.5576 268.35 82.4166 260.255 75.9054C258.436 74.4487 256.814 72.8043 255.414 70.9282C254.962 70.3212 254.73 69.4163 253.517 69.2618C253.318 72.7712 252.458 76.1261 251.311 79.3928C248.212 88.2657 243.316 95.8916 235.751 101.619C232.585 104.014 229.123 105.857 225.263 106.883C224.005 107.214 223.509 107.833 223.366 109.157C222.803 114.046 221.293 118.604 218.172 122.521C217.355 123.559 216.484 124.53 215.359 125.247C213.297 126.55 212.216 126.252 211.488 123.945C210.783 121.738 210.319 119.464 210.253 117.125C210.981 115.315 210.959 113.505 210.264 111.684C210.441 110.47 210.606 109.245 210.783 108.031C211.29 107.601 211.323 107.104 211.003 106.563C213.154 95.5605 218.458 86.1358 225.891 77.9471C239.974 62.4415 257.388 53.083 278.264 50.4565C278.661 50.4013 279.069 50.4013 279.466 50.3351C280.393 50.1585 280.624 49.6288 280.161 48.8231C279.908 48.3817 279.621 47.9734 279.323 47.565C277.327 44.8391 276.037 41.7932 275.276 38.5155C275.607 37.9417 275.529 37.445 275 37.0367C274.89 36.3194 274.779 35.591 274.669 34.8736C275.055 33.5714 275.309 32.2692 274.57 30.989H274.548Z" fill="#EF6051"/>
<path d="M210.242 111.684C210.937 113.494 210.948 115.315 210.231 117.125C209.592 115.315 209.581 113.494 210.242 111.684Z" fill="#EF6051"/>
<path d="M274.548 30.989C275.298 32.2692 275.033 33.5714 274.647 34.8737L274.548 30.989Z" fill="#EF6051"/>
<path d="M274.978 37.0366C275.496 37.445 275.584 37.9416 275.254 38.5154C274.846 38.085 274.559 37.6215 274.978 37.0366Z" fill="#EF6051"/>
<path d="M287.76 83.1451C288.201 82.6374 288.697 82.6264 289.226 82.9795C288.774 83.3768 288.3 83.6086 287.76 83.1451Z" fill="#EF6051"/>
<path d="M210.981 106.563C211.301 107.115 211.268 107.612 210.761 108.031C210.308 107.468 210.551 106.994 210.981 106.563Z" fill="#EF6051"/>
<path d="M206.504 105.427C206.504 103.981 206.493 103.164 206.504 102.359C206.559 98.6175 206.029 99.3569 209.625 98.463C213.948 97.3814 218.458 97.3704 222.859 97.8008C228.858 98.3968 234.725 99.8314 240.316 102.204C249.051 105.901 256.803 111.055 263.332 117.93C265.13 119.818 266.519 122.058 268.879 123.404C274.228 126.461 282.345 126.572 287.528 122.069C291.851 118.317 295.656 114.013 300.376 110.636C307.798 105.327 315.838 101.553 324.671 99.5997C329.932 98.4409 335.324 97.5911 340.794 98.8051C342.636 99.2134 344.577 99.0368 346.474 99.401C348.095 99.71 348.338 100.405 348.404 101.796C348.68 107.788 347.786 113.626 346.309 119.409C344.29 127.3 341.059 134.617 336.317 141.272C331.586 147.904 325.741 153.235 318.087 156.17C307.544 160.22 296.825 157.241 289.679 148.224C288.245 146.425 287.142 144.362 285.852 142.452C282.477 137.486 276.136 136.548 272.265 138.811C270.92 139.594 269.872 140.642 269.001 141.901C267.688 143.799 266.475 145.774 265.008 147.584C260.112 153.643 253.936 157.02 246.051 157.185C238.111 157.351 231.615 154.106 225.88 148.953C215.712 139.815 210.419 128.05 207.617 114.929C206.901 111.574 206.239 108.23 206.482 105.416L206.504 105.427Z" fill="#5E85FE"/>
<path d="M217.918 118.714C217.918 116.485 218.028 114.278 218.557 112.092C219.142 109.676 219.296 109.521 221.656 109.124C227.457 108.153 233.126 109.024 238.728 110.415C245.047 111.982 250.947 114.52 256.23 118.394C258.689 120.193 260.895 122.257 262.538 124.861C264.435 127.874 264.876 131.118 263.641 134.429C260.608 142.497 254.421 146.778 246.161 147.926C235.982 149.339 228.295 145.057 222.881 136.548C219.44 131.129 217.951 125.104 217.929 118.703L217.918 118.714Z" fill="#150050"/>
<path d="M308.824 150.608C303.32 150.487 296.957 147.529 292.458 141.117C288.278 135.158 288.741 129.695 293.737 124.398C297.762 120.127 302.747 117.29 308.173 115.183C315.882 112.192 323.789 110.393 332.126 111.541C334.729 111.905 335.093 112.115 335.512 114.587C337.232 124.861 335.324 134.297 328.608 142.452C324.109 147.915 318.065 150.608 308.846 150.597L308.824 150.608Z" fill="#150050"/>
<path d="M214.201 344.642C214.378 323.354 213.429 304.494 211.599 285.666C211.51 284.761 211.455 283.845 211.544 282.951C211.599 282.366 211.918 281.748 212.624 281.66C213.341 281.561 213.749 282.046 213.904 282.675C214.102 283.459 214.268 284.254 214.367 285.048C216.363 300.289 217.311 315.607 217.521 330.98C217.786 349.686 217.19 368.37 215.492 386.999C213.893 404.612 211.4 422.104 207.717 439.408C207.485 440.49 207.22 441.571 206.912 442.631C206.636 443.547 205.919 443.867 205.015 443.757C203.846 443.602 203.934 442.719 204.077 441.914C204.938 436.738 205.787 431.551 206.691 426.386C209.47 410.56 211.466 394.635 212.657 378.611C213.562 366.516 213.915 354.398 214.19 344.653L214.201 344.642Z" fill="#150050"/>
<path d="M341.07 287.575C340.43 292.078 339.758 296.57 339.162 301.083C336.725 319.668 336.052 338.341 336.582 357.069C336.979 370.919 338.081 384.725 339.967 398.454C341.688 411.068 344.026 423.583 346.342 436.098C346.507 436.991 346.672 437.885 346.739 438.79C346.816 439.662 346.54 440.446 345.548 440.611C344.588 440.777 344.015 440.148 343.706 439.364C343.408 438.614 343.199 437.819 343.055 437.036C340.166 421.85 337.365 406.654 335.545 391.292C333.064 370.356 332.49 349.355 333.306 328.309C333.814 315.276 335.071 302.297 337.32 289.429C337.475 288.524 337.607 287.62 338.07 286.825C338.512 286.074 338.798 285.059 339.967 285.147C340.794 285.214 341.213 286.163 341.07 287.575Z" fill="#150050"/>
<path d="M399.332 386.734C398.891 395.309 397.91 403.828 396.763 412.326C395.329 422.921 393.62 433.471 391.469 443.944C391.249 445.026 391.094 446.14 390.741 447.189C390.377 448.259 389.484 448.833 388.359 448.524C387.19 448.204 387.378 447.266 387.565 446.306C389.197 437.786 390.818 429.277 392.164 420.702C394.072 408.541 395.627 396.335 396.741 384.074C396.774 383.677 396.796 383.268 396.829 382.871C396.917 381.955 396.95 380.84 398.207 380.962C399.431 381.072 399.31 382.209 399.321 383.103C399.343 384.317 399.321 385.531 399.321 386.734H399.332Z" fill="#150050"/>
<path d="M153.645 386.061C153.645 385.156 153.623 384.24 153.645 383.335C153.678 382.286 154.175 381.558 155.266 381.525C156.182 381.503 156.777 382.044 156.932 382.971C157.075 383.864 157.229 384.769 157.285 385.674C158.343 402.703 160.218 419.643 162.082 436.594C162.269 438.294 162.38 440.016 162.457 441.726C162.49 442.421 162.479 443.172 162.236 443.801C161.817 444.904 160.549 445.004 159.821 444.077C159.358 443.492 159.292 442.797 159.215 442.079C157.119 423.428 154.991 404.789 153.645 386.05V386.061Z" fill="#150050"/>
<path d="M275.959 215.985C271.008 215.775 266.188 215.389 261.656 213.458C260.542 212.983 258.689 212.641 259.263 210.92C259.902 209.01 261.435 210.235 262.571 210.588C271.614 213.414 280.613 213.237 289.59 210.268C289.778 210.202 289.954 210.103 290.153 210.037C292.193 209.308 293.208 209.43 293.472 210.6C293.869 212.343 292.436 212.752 291.234 213.237C286.304 215.246 281.11 215.764 275.959 215.974V215.985Z" fill="#150050"/>
<path d="M270.269 175.66C266.199 175.594 263.31 174.247 260.752 172.172C259.737 171.345 258.921 170.638 257.697 171.797C257.366 172.117 256.803 172.239 256.318 172.327C255.546 172.47 254.929 172.15 254.587 171.433C254.278 170.793 254.543 170.164 255.028 169.8C256.572 168.619 257.785 167.25 258.634 165.451C259.119 164.414 260.994 164.723 260.917 165.749C260.707 168.542 262.472 169.656 264.446 170.738C266.707 171.974 269.1 172.724 271.692 172.117C272.949 171.819 274.129 171.499 274.724 173.033C275.143 174.126 274.162 175.086 272.287 175.439C271.405 175.605 270.489 175.638 270.28 175.66H270.269Z" fill="#150050"/>
<path d="M283.481 147.772C282.323 146.867 281.132 145.984 280.007 145.024C279.323 144.439 278.661 143.81 278.121 143.092C277.669 142.497 277.713 141.724 278.198 141.117C278.716 140.477 279.555 140.422 280.117 140.841C282.312 142.43 284.484 144.053 286.536 145.807C287.561 146.679 287.484 148.026 286.899 149.173C285.675 151.568 283.47 152.782 281.043 153.599C280.238 153.875 279.422 153.632 279.069 152.694C278.728 151.789 279.147 151.127 279.808 150.586C280.944 149.637 282.609 149.405 283.47 147.772H283.481Z" fill="#150050"/>
<path d="M276.048 348.571C276.235 347.07 277.106 346.243 278.33 346.375C279.511 346.508 280.437 347.865 280.316 349.278C280.194 350.624 279.18 351.54 277.933 351.419C276.588 351.286 275.849 350.16 276.037 348.571H276.048Z" fill="#150050"/>
</g>
<defs>
<clipPath id="clip0_7261_20405">
<rect width="550" height="550" fill="white"/>
</clipPath>
</defs>
</svg>
