<svg width="550" height="550" viewBox="0 0 550 550" fill="none" xmlns="http://www.w3.org/2000/svg">
<g clip-path="url(#clip0_7261_20404)">
<path d="M275 549.923C426.836 549.923 549.923 426.836 549.923 275C549.923 123.164 426.836 0.0771484 275 0.0771484C123.164 0.0771484 0.0772705 123.164 0.0772705 275C0.0772705 426.836 123.164 549.923 275 549.923Z" fill="#FFF6E8"/>
<path d="M213.926 109.347C213.705 102.052 212.855 94.79 212.557 87.484C212.425 84.129 212.8 80.8623 212.778 77.5514C212.778 77.0107 212.899 76.4478 213.043 75.9181C213.893 72.8942 215.548 72.3865 217.855 74.5055C220.514 76.9334 222.203 80.0787 223.615 83.2903C227.589 92.2958 230.215 101.743 232.4 111.333C234.585 120.891 235.998 130.591 237.764 140.215C238.294 143.118 238.603 146.064 239.011 148.989C239.177 150.015 238.503 151.262 239.85 152.267C240.159 150.986 240.413 149.971 239.64 149.011C239.596 145.391 239.872 141.727 239.441 138.151C238.845 133.218 238.89 128.296 239.132 123.396C239.408 117.878 239.331 112.238 241.726 107.018C242.079 106.246 242.476 105.517 242.962 104.855C244.341 102.946 246.03 102.924 247.487 104.833C248.281 105.87 248.723 107.106 249.175 108.331C251.548 114.887 253.325 121.619 255.113 128.34C258.159 139.807 260.487 151.439 262.342 163.159C263.511 170.565 265.112 177.904 266.226 185.32C267.142 191.357 267.76 197.449 268.665 203.486C269.603 209.721 269.979 216.012 270.751 222.258C271.082 224.918 271.104 227.622 271.292 230.303C272.131 241.814 272.274 253.358 271.811 264.869C271.557 271.237 271.193 277.627 270.453 283.995C269.703 290.429 269.085 296.896 268.014 303.275C265.156 320.171 261.194 336.748 253.082 352.033C247.851 361.888 240.975 370.342 231.407 376.268C223.196 381.345 214.235 384.601 204.733 386.388C202.525 386.808 200.307 387.084 198.089 386.94C193.862 386.675 189.778 387.569 185.662 388.231C181.645 388.872 177.606 389.379 173.544 389.777C163.148 390.803 152.73 390.35 142.323 390.174C136.783 390.075 131.243 389.423 125.713 388.794C121.762 388.342 117.789 387.978 113.838 387.448C108.431 386.72 103.012 386.002 97.6704 384.799C96.6219 384.567 96.1915 384.446 96.4233 383.033C96.7875 380.87 96.8096 378.542 96.4564 376.379C95.8936 372.946 96.1032 369.514 95.9818 366.093C95.7501 359.515 95.8163 352.927 96.0812 346.36C96.3019 340.908 96.9089 335.467 97.5159 330.038C98.0566 325.16 98.5864 320.282 99.392 315.437C99.9107 312.336 100.054 309.168 101.092 306.155C101.875 303.904 102.306 303.33 104.943 304.125C112.404 306.376 119.941 308.351 127.556 310.018C134.973 311.64 142.411 313.086 149.993 313.903C155.301 314.465 160.577 314.377 165.863 314.278C169.88 314.212 173.71 313.075 177.308 311.144C180.85 309.234 183.091 306.321 184.525 302.635C187.042 296.212 188.686 289.568 189.845 282.792C190.617 278.234 191.379 273.665 191.953 269.074C192.504 264.571 192.847 260.035 193.222 255.51C193.63 250.621 194.005 245.721 194.314 240.821C194.723 234.332 194.712 227.82 195.01 221.331C195.926 201.609 195.418 181.899 195.286 162.177C195.252 156.714 195.153 151.218 194.822 145.755C194.347 138.063 194.049 130.371 193.663 122.678C193.255 114.434 192.615 106.19 192.593 97.9243C192.593 95.8936 191.964 93.8961 192.14 91.8323C192.471 87.8703 192.482 83.8642 193.233 79.9463C193.608 78.0039 194.016 75.9512 196.246 75.3442C198.486 74.7372 199.844 76.2492 201.113 77.8384C203.894 81.3038 205.505 85.3651 207.127 89.4154C209.721 95.8936 211.641 102.582 213.341 109.336C213.275 110.848 213.65 112.227 214.588 113.463C214.113 112.128 214.93 110.594 213.926 109.358V109.347Z" fill="#EF6051"/>
<path d="M133.174 311.099C132.71 311.099 132.346 311.144 131.993 311.099C127.921 310.481 127.899 310.481 127.667 306.365C127.17 297.514 126.033 288.762 123.837 280.165C123.186 277.638 122.38 275.166 121.31 272.782C120.736 271.502 120.052 270.288 119.158 269.206C117.536 267.242 116.333 267.164 114.501 268.875C113.121 270.166 112.194 271.777 111.322 273.433C107.713 280.342 105.616 287.769 103.895 295.318C100.418 310.603 98.6526 326.131 97.7807 341.769C96.964 356.293 96.9861 370.794 98.3987 385.285C99.2265 393.816 100.407 402.303 103.409 410.403C104.127 412.323 104.932 414.211 106.257 415.811C108.089 418.029 109.314 418.084 111.3 416.065C113.088 414.233 114.203 411.97 115.262 409.697C118.021 403.759 119.82 397.502 121.398 391.178C121.63 390.262 121.321 388.772 122.557 388.596C123.892 388.408 125.316 388.772 126.685 388.982C127.06 389.037 127.225 389.468 127.148 389.876C127.071 390.339 126.983 390.792 126.883 391.244C125.338 397.866 123.517 404.411 120.846 410.679C119.334 414.211 117.491 417.533 114.71 420.247C110.45 424.408 105.705 424.055 102.063 419.309C99.094 415.458 97.6924 410.911 96.5005 406.309C94.1277 397.171 93.0241 387.834 92.4723 378.442C90.8058 350.046 92.5827 321.882 98.6967 294.06C100.297 286.776 102.35 279.624 105.583 272.859C106.952 269.99 108.519 267.253 110.837 265.012C114.953 261.05 119.456 261.238 123.164 265.619C125.614 268.511 126.949 271.998 128.075 275.563C130.492 283.244 131.607 291.157 132.434 299.136C132.732 302.006 132.986 304.875 133.229 307.755C133.317 308.848 133.483 309.952 133.174 311.122V311.099Z" fill="#FACF18"/>
<path d="M426.439 328.515C426.715 330.347 427.09 332.179 427.244 334.022C428.856 352.695 423.9 369.404 411.97 383.905C406.298 390.803 400.515 397.612 395.35 404.918C394.379 406.287 393.154 407.457 391.807 408.461C390.924 409.123 390.052 409.675 389.821 410.966C389.611 412.092 388.353 412.279 387.393 412.577C383.519 413.747 379.513 414.023 375.518 414.067C364.813 414.167 354.394 412.445 344.385 408.56C331.406 403.528 320.833 395.184 311.784 384.777C301.421 372.847 293.927 359.173 287.647 344.782C280.342 328.073 274.051 310.956 267.175 294.071C258.004 271.579 247.928 249.495 237.565 227.533C236.649 225.602 235.722 223.671 234.883 221.706C234.221 220.15 234.497 219.51 235.976 218.826C237.477 218.131 239.011 218.252 240.611 218.594C247.067 219.996 252.906 222.777 258.446 226.286C266.491 231.396 273.852 237.367 280.882 243.768C291.091 253.049 300.438 263.158 309.389 273.643C310.161 274.548 310.956 275.431 311.971 276.589C312.512 275.11 311.872 274.15 311.574 273.19C306.299 256.426 301.487 239.519 297.403 222.424C292.713 202.779 289.016 182.958 286.378 162.939C284.281 147.068 282.648 131.154 281.666 115.185C280.993 104.226 280.43 93.256 281.456 82.275C281.765 78.931 282.174 75.6091 283.167 72.3976C283.84 70.2234 284.745 68.0052 287.372 67.7072C290.009 67.4092 291.367 69.4178 292.503 71.3602C295.251 76.0616 296.675 81.2927 298.187 86.4687C300.096 92.9801 301.608 99.6018 303.186 106.201C303.264 106.544 303.209 106.963 303.893 107.239C303.893 105.881 303.893 104.623 303.893 103.354C303.981 93.3001 304.389 83.2682 306.608 73.4019C307.115 71.1284 307.8 68.9101 308.804 66.7912C309.289 65.7758 309.863 64.8267 310.724 64.0763C312.369 62.6416 314.101 62.6195 315.757 64.0211C316.993 65.0695 317.743 66.4601 318.361 67.9279C320.778 73.6115 322.058 79.6263 323.272 85.641C324.74 92.9359 325.976 100.264 327.334 107.581C327.499 108.453 327.532 109.369 328.161 110.263C328.813 107.625 329.397 105.098 330.071 102.593C330.766 99.977 331.704 97.4497 332.984 95.0659C333.47 94.1609 333.988 93.278 334.728 92.5497C336.56 90.7508 338.679 90.9053 340.169 93.0132C340.985 94.1609 341.416 95.4963 341.802 96.8427C343.215 101.787 343.877 106.864 344.462 111.94C346.68 131.254 348.468 150.611 351.249 169.847C354.737 193.917 359.548 217.667 367.903 240.589C376.577 264.361 388.949 285.937 405.702 304.952C410.69 310.614 415.645 316.275 421.318 321.275C425.181 324.674 429.297 327.676 433.877 330.027L433.932 330.887C431.427 330.269 429.209 328.934 426.781 328.139C426.648 328.051 426.45 327.841 426.395 327.875C426.097 328.062 426.218 328.294 426.406 328.504L426.439 328.515Z" fill="#FACF18"/>
<path d="M433.965 330.898L433.91 330.038C435.102 330.17 435.985 330.887 436.934 331.55C435.808 331.803 434.859 331.472 433.965 330.898Z" fill="#FACF18"/>
<path d="M426.439 328.515C426.24 328.305 426.119 328.084 426.428 327.886C426.483 327.852 426.682 328.051 426.814 328.15C426.693 328.272 426.571 328.393 426.45 328.515H426.439Z" fill="#FACF18"/>
<path d="M118.098 139.233C119.191 139.233 120.173 139.652 121.144 140.105C131.651 145.049 142.146 149.982 152.653 154.926C153.525 155.334 154.385 155.754 155.048 156.482C156.239 157.762 156.515 159.473 155.754 160.897C155.014 162.276 153.359 163.049 151.67 162.685C150.854 162.508 150.048 162.155 149.287 161.791C139.001 156.891 128.715 151.979 118.44 147.057C117.491 146.605 116.509 146.108 115.703 145.435C114.478 144.42 114.192 142.731 114.799 141.352C115.361 140.06 116.608 139.266 118.109 139.233H118.098Z" fill="#150050"/>
<path d="M114.214 190.076C113.055 190.076 111.852 189.966 110.737 189.646C109.115 189.172 108.044 187.494 108.221 185.971C108.42 184.316 109.38 183.212 111.002 182.87C112.139 182.627 113.331 182.55 114.49 182.561C123.76 182.726 133.03 182.947 142.301 183.146C143.581 183.179 144.872 183.168 146.086 183.631C147.797 184.271 148.757 185.64 148.691 187.251C148.624 188.874 147.554 190.165 145.821 190.683C144.784 190.992 143.724 190.948 142.654 190.948C137.964 190.926 133.284 190.948 128.594 190.948C128.594 190.661 119.003 190.121 114.214 190.076Z" fill="#150050"/>
<path d="M150.379 214.566C150.335 216.034 149.496 217.192 148.04 217.877C147.278 218.23 146.428 218.439 145.612 218.649C137.544 220.669 129.477 222.688 121.409 224.675C120.284 224.951 119.103 225.183 117.944 225.183C116.123 225.183 114.821 224.057 114.456 222.457C114.092 220.845 114.788 219.289 116.366 218.439C117.105 218.042 117.944 217.799 118.772 217.59C127.336 215.394 135.911 213.219 144.486 211.023C145.645 210.725 146.77 210.527 147.94 210.957C149.496 211.542 150.368 212.734 150.39 214.555L150.379 214.566Z" fill="#150050"/>
<path d="M417.963 124.731C417.897 126.177 416.617 127.247 415.182 128.252C407.666 133.483 400.173 138.736 392.657 143.978C391.432 144.828 390.229 145.722 388.938 146.45C386.686 147.708 384.7 147.366 383.541 145.667C382.437 144.044 382.857 141.859 384.898 140.369C391.001 135.911 397.193 131.573 403.362 127.192C405.79 125.47 408.229 123.738 410.69 122.06C411.474 121.519 412.301 120.979 413.195 120.681C415.601 119.886 418.073 121.773 417.985 124.731H417.963Z" fill="#150050"/>
<path d="M400.404 173.081C398.23 173.025 396.917 172.109 396.531 170.531C396.144 168.975 396.851 167.353 398.495 166.569C399.731 165.984 401.089 165.587 402.424 165.245C410.878 163.049 419.331 160.886 427.796 158.722C428.712 158.491 429.683 158.248 430.61 158.27C432.398 158.314 433.678 159.429 434.087 161.04C434.495 162.651 433.877 164.229 432.365 165.146C431.736 165.521 431.019 165.786 430.301 165.962C420.987 168.236 411.672 170.498 402.358 172.738C401.64 172.915 400.89 172.981 400.404 173.07V173.081Z" fill="#150050"/>
<path d="M403.494 194.005C404.024 194.115 404.863 194.259 405.68 194.469C412.975 196.389 420.27 198.309 427.553 200.274C428.469 200.516 429.385 200.859 430.191 201.333C431.593 202.172 432.2 203.496 431.88 205.141C431.571 206.752 430.257 207.845 428.502 208.043C427.311 208.176 426.174 207.845 425.059 207.524C418.195 205.626 411.341 203.706 404.499 201.775C403.483 201.488 402.457 201.157 401.519 200.671C399.753 199.777 399.003 198.1 399.488 196.477C399.952 194.965 401.376 194.005 403.494 194.005Z" fill="#150050"/>
<path d="M355.752 439.428C357.838 433.358 361.513 428.238 365.475 423.316C371.567 415.745 377.637 408.141 383.32 400.272C389.512 391.697 395.041 382.702 399.996 373.333C406.176 361.667 411.407 349.627 415.314 337.012C417.621 329.585 419.475 322.058 420.579 314.344C421.671 306.729 422.499 299.092 422.179 291.389C422.102 289.491 422.609 287.714 422.874 285.893C423.051 284.69 423.9 283.807 424.938 283.045C429.573 279.646 434.418 280.419 439.219 282.394C444.064 284.392 448.158 287.625 452.164 290.947C458.267 295.991 463.587 301.862 469.16 307.446C473.685 311.993 477.558 317.081 480.527 322.809C480.991 323.703 481.366 324.685 481.388 325.722C481.465 331.009 481.52 336.273 480.108 341.46C476.951 353.004 473.31 364.382 469.259 375.639C466.335 383.773 462.991 391.697 459.238 399.477C453.069 412.279 446.216 424.684 438.225 436.449C434.374 442.121 430.655 447.882 426.373 453.235C421.163 459.746 415.789 466.147 409.631 471.831C408.075 473.265 406.309 473.983 404.124 474.115C399.003 474.424 394.467 472.46 389.898 470.716C382.658 467.957 375.915 464.238 369.922 459.316C364.614 454.956 359.46 450.409 356.359 444.064C356.072 443.479 355.719 442.916 355.73 442.232C357.297 441.249 357.297 440.422 355.73 439.439L355.752 439.428Z" fill="#5E85FE"/>
<path d="M355.752 439.428C357.319 440.411 357.319 441.238 355.752 442.221C355.752 441.293 355.752 440.355 355.752 439.428Z" fill="#5E85FE"/>
<path d="M218.66 167.485C218.23 161.791 217.832 156.14 217.358 150.49C216.552 141.043 215.349 131.64 213.716 122.292C213.55 121.354 213.804 120.526 214.786 120.317C215.956 120.063 216.486 120.935 216.663 121.917C217.27 125.349 217.844 128.781 218.362 132.225C220.062 143.449 220.79 154.772 221.662 166.084C221.75 167.232 221.938 168.412 221.497 169.538C221.276 170.09 221.596 170.388 221.938 170.73C232.378 181.49 238.007 194.646 240.975 209.114C241.295 210.659 241.483 212.226 241.726 213.793C241.936 215.162 241.306 216.177 240.192 216.31C239.066 216.442 238.459 215.813 238.172 214.378C234.994 198.906 228.825 184.867 218.108 173.059C216.067 170.818 213.782 168.832 211.211 167.21C209.897 166.382 209.577 166.569 209.39 168.092C208.959 171.624 209.82 175.034 210.405 178.455C213.959 199.479 215.691 220.625 214.974 241.947C214.191 265.045 210.515 287.714 204.435 310.007C204.28 310.592 204.026 311.144 203.894 311.74C203.695 312.622 203.066 312.943 202.294 313.053C201.521 313.163 200.958 312.755 200.55 312.137C199.987 311.276 199.866 310.371 200.086 309.345C201.775 301.63 203.508 293.927 205.064 286.18C209.467 264.229 211.034 242.068 210.085 219.709C209.434 204.302 207.381 189.061 204.854 173.864C204.523 171.9 204.236 169.902 204.126 167.916C203.905 163.943 207.227 161.636 210.935 163.137C213.352 164.119 215.504 165.587 217.656 167.055C217.91 167.232 218.119 167.53 218.693 167.496L218.66 167.485Z" fill="#150050"/>
<path d="M256.481 301.465C256.426 315.05 254.749 328.36 249.639 341.063C245.898 350.366 240.611 358.566 232.467 364.68C228.714 367.505 224.565 369.569 220.04 370.827C219.51 370.971 218.947 371.125 218.406 371.125C217.424 371.125 216.696 370.629 216.431 369.668C216.166 368.697 216.563 367.936 217.391 367.406C217.656 367.229 217.976 367.119 218.285 367.031C228.03 364.327 235.115 358.191 240.49 349.858C245.677 341.813 248.635 332.896 250.433 323.57C253.137 309.521 253.226 295.373 251.614 281.202C250.974 275.618 250.202 270.045 249.517 264.46C249.418 263.644 249.01 262.419 250.036 262.165C251.118 261.9 251.261 263.246 251.504 263.997C253.215 269.085 254.131 274.349 254.892 279.635C255.929 286.875 256.47 294.148 256.481 301.465Z" fill="#150050"/>
<path d="M332.333 249.407C332.388 249.97 332.101 250.401 331.561 250.533C330.987 250.676 330.567 250.301 330.347 249.816C329.563 248.138 328.768 246.45 328.062 244.739C320.955 227.379 315.801 209.423 311.585 191.169C308.44 177.54 305.957 163.788 304.125 149.916C303.142 142.5 302.072 135.094 301.752 127.601C301.73 127.016 301.619 126.387 302.326 126.023C302.855 125.747 303.308 125.879 303.782 126.111C304.29 126.354 304.301 126.817 304.389 127.281C305.261 132.324 305.67 137.423 306.277 142.5C308.12 157.818 310.658 173.015 313.98 188.09C318.416 208.198 324.221 227.898 331.682 247.101C331.969 247.829 332.311 248.557 332.322 249.407H332.333Z" fill="#150050"/>
<path d="M323.912 128.263C325.435 128.263 325.678 129.223 325.877 130.371C327.488 139.807 328.349 149.342 329.729 158.822C332.366 176.899 336.096 194.745 341.074 212.325C343.811 221.971 346.868 231.517 350.609 240.821C350.885 241.494 351.315 242.344 350.377 242.763C349.417 243.205 348.954 242.355 348.589 241.649C346.228 237.102 344.517 232.29 342.862 227.467C336.361 208.452 331.649 188.984 328.294 169.174C326.473 158.403 324.972 147.587 323.968 136.716C323.703 133.902 323.703 131.066 323.901 128.274L323.912 128.263Z" fill="#150050"/>
<path d="M248.811 212.822C248.811 213.705 248.844 214.168 248.811 214.632C248.734 215.438 248.381 216.177 247.498 216.144C246.681 216.111 245.997 215.636 245.898 214.687C245.754 213.252 245.588 211.818 245.478 210.383C244.176 193.365 242.046 176.447 238.901 159.661C238.867 159.473 238.812 159.296 238.79 159.12C238.702 158.193 238.945 157.365 239.949 157.189C240.887 157.023 241.406 157.685 241.582 158.546C242.057 160.775 242.543 162.994 242.94 165.234C245.655 180.254 247.387 195.396 248.579 210.604C248.646 211.487 248.756 212.359 248.811 212.833V212.822Z" fill="#150050"/>
<path d="M315.558 278.245C316.419 278.245 316.86 278.885 317.335 279.448C321.076 283.895 324.398 288.652 327.532 293.541C328.228 294.634 328.945 295.726 329.585 296.852C330.038 297.669 330.236 298.651 329.309 299.203C328.426 299.732 327.599 299.225 327.036 298.441C326.627 297.878 326.263 297.282 325.888 296.697C322.577 291.367 318.99 286.235 315.083 281.335C314.763 280.938 314.443 280.518 314.278 280.044C313.925 279.084 314.576 278.223 315.569 278.245H315.558Z" fill="#150050"/>
<path d="M52.5102 206.531C52.2012 206.454 51.9474 206.256 51.9584 205.902C51.9584 205.527 52.2454 205.351 52.5985 205.351C52.9848 205.351 53.1834 205.582 53.1503 205.958C53.1172 206.322 52.9186 206.531 52.5102 206.531Z" fill="#150050"/>
</g>
<defs>
<clipPath id="clip0_7261_20404">
<rect width="550" height="550" fill="white"/>
</clipPath>
</defs>
</svg>
