<svg width="563" height="550" viewBox="0 0 563 550" fill="none" xmlns="http://www.w3.org/2000/svg">
<g opacity="0.9">
<path d="M275 550C426.878 550 550 426.878 550 275C550 123.122 426.878 0 275 0C123.122 0 0 123.122 0 275C0 426.878 123.122 550 275 550Z" fill="#FFF6E8"/>
<path d="M325.235 133.003C325.996 133.003 326.427 132.407 326.957 132.01C338.941 122.817 352.195 116.24 366.972 112.929C371.938 111.815 376.971 111.141 382.058 112.046C386.836 112.896 390.798 114.971 392.299 120.003C393.414 123.744 392.332 127.231 390.544 130.531C386.969 137.119 381.694 142.251 376.143 147.107C367.038 155.075 356.996 161.729 346.468 167.644C345.232 168.339 344.658 169.035 344.603 170.613C344.327 178.36 342.164 185.743 339.758 193.038C334.759 208.256 327.552 222.382 318.525 235.58C317.532 237.037 317.797 237.468 319.254 238.207C335.355 246.274 349.767 256.813 363.242 268.666C383.084 286.102 400.19 305.856 413.786 328.568C421.632 341.667 428.309 355.33 433.065 369.864C437.546 383.559 440.062 397.563 439.212 412.042C438.87 417.814 438.053 423.497 435.515 428.794C431.443 437.281 423.486 439.797 415.254 435.162C409.261 431.785 404.748 426.775 400.422 421.566C399.086 419.955 397.806 418.288 396.393 416.523C395.941 417.251 396.118 417.913 396.129 418.542C396.228 428.21 395.378 437.722 391.67 446.772C388.746 453.912 384.287 459.772 377.18 463.248C369.29 467.1 359.225 465.179 351.93 458.436C346.6 453.525 343.08 447.357 339.946 440.934C335.377 431.575 331.801 421.798 328.027 412.119C321.858 396.294 314.883 380.866 305.382 366.696C299.334 357.669 292.392 349.381 284.645 341.766C283.818 340.95 283.023 340.663 281.853 340.817C274.68 341.778 267.65 343.466 260.576 344.956C254.97 346.137 250.391 349.348 245.645 352.162C232.943 359.711 221.322 368.661 210.96 379.244C202.881 387.499 193.347 393.767 183.194 399.152C174.012 404.019 164.709 408.621 154.887 412.086C150.914 413.488 146.842 414.503 142.715 415.342C139.503 416.004 136.336 415.342 133.157 415.353C132.473 415.353 132.186 414.702 131.866 414.15C130.641 412.053 130.443 409.681 130.145 407.363C128.191 392.421 129.461 377.589 132.22 362.889C139.205 325.665 154.17 292.117 178.592 262.993C190.466 248.834 204.051 236.574 219.777 226.774C220.505 226.321 221.223 225.792 222.006 225.461C228.727 222.636 232.479 216.61 237.114 211.533C238.24 210.297 237.114 210.187 236.32 209.922C227.061 206.744 218.056 202.937 209.293 198.566C184.242 186.074 162.48 169.487 145.496 147.007C140.861 140.872 136.667 134.46 134.14 127.11C133.996 126.713 133.831 126.271 133.544 125.973C131.48 123.81 131.822 121.504 133.069 119.131C135.199 115.07 139.128 113.216 143.63 114.154C146.809 114.816 149.711 116.24 152.581 117.697C169.311 126.194 186.129 134.46 203.786 140.883C221.918 147.482 240.436 152.558 259.572 155.262C260.234 155.361 260.908 155.428 261.592 155.505C261.79 154.766 261.172 154.622 260.863 154.335C258.645 152.261 256.493 150.13 254.893 147.515C251.317 141.677 254.054 136.093 260.896 135.575C266.767 135.122 272.274 136.877 277.693 138.874C281.997 140.463 286.102 142.494 290.097 144.745C290.571 145.01 291.057 145.242 291.719 145.573C291.896 140.32 292.139 135.276 292.735 130.244C294.876 112.212 300.482 95.4927 311.65 80.9365C315.049 76.5001 318.768 72.3286 323.745 69.6028C330.444 65.9279 335.708 68.5874 336.999 76.1469C338.069 82.4042 337.43 88.6175 336.381 94.7975C334.273 107.18 330.422 119.065 325.919 130.752C325.632 131.48 325.136 132.164 325.257 133.025L325.081 133.257L325.246 133.29V133.014L325.235 133.003Z" fill="#FACF18"/>
<path d="M386.285 395.555C385.225 391.295 384.475 386.969 383.305 382.731C380.701 373.329 377.169 364.291 372.965 355.517C361.487 331.547 346.092 310.348 327.354 291.543C316.803 280.959 305.26 271.557 293.099 262.905C292.68 262.607 292.282 262.408 291.752 262.386C280.728 261.868 270.332 258.634 260.212 254.562C247.852 249.596 236.353 243.107 226.299 234.234C224.49 232.634 222.746 230.968 221.267 229.058C219.59 226.895 219.689 225.461 221.675 223.552C223.949 221.366 226.233 219.203 228.573 217.096C231.32 214.612 231.817 214.635 234.753 216.809C245.601 224.876 257.034 231.994 269.162 238.008C279.072 242.919 289.424 246.594 300.129 249.32C301.122 249.574 301.972 250.048 302.711 250.71C304.256 252.09 304.3 253.26 302.821 254.728C301.033 256.515 299.212 258.27 297.038 259.605C295.99 260.245 295.902 260.665 297.049 261.437C321.152 277.583 341.259 297.811 357.89 321.516C370.073 338.875 379.895 357.47 386.218 377.798C387.62 382.29 388.668 386.881 389.198 391.56C389.342 392.774 389.331 394.032 389.231 395.257C389.176 396.04 389.33 397.089 388.061 397.243C386.781 397.398 386.517 396.515 386.285 395.577V395.555Z" fill="#150050"/>
<path d="M270.818 161.111C269.195 160.592 267.893 160.25 266.646 159.754C265.465 159.279 264.571 158.396 265.057 157.028C265.565 155.626 266.767 155.649 268.014 156.046C270.862 156.94 273.819 157.26 276.733 157.789C278.918 158.187 281.114 158.573 283.299 158.959C284.69 159.202 285.937 159.732 285.87 161.354C285.793 163.12 284.347 163.44 282.924 163.506C279.701 163.638 276.523 164.047 273.4 164.841C270.696 165.526 268.015 166.298 265.664 167.865C263.722 169.156 263.678 170.348 265.499 171.794C267.264 173.206 269.339 174.034 271.469 174.729C278.708 177.124 286.179 177.885 293.761 177.852C294.379 177.852 294.997 177.841 295.615 177.863C296.873 177.919 297.811 178.492 297.966 179.784C298.131 181.218 297.16 181.925 295.891 182.19C294.081 182.565 292.238 182.83 290.428 183.216C288.287 183.668 286.301 184.54 284.469 185.721C281.622 187.564 281.633 189.164 284.469 191.007C286.731 192.486 289.258 193.302 291.863 193.909C296.178 194.914 300.548 194.98 304.94 194.77C306.474 194.693 307.909 194.947 309.134 195.907C310.215 196.746 310.138 197.551 308.891 198.125C308.163 198.456 307.379 198.743 306.596 198.82C299.5 199.482 292.514 199.107 285.804 196.448C284.193 195.808 282.648 195.013 281.268 193.943C276.998 190.632 276.976 186.317 281.158 182.918C281.567 182.587 282.405 182.487 282.284 181.836C282.129 181.042 281.268 181.34 280.717 181.251C276.126 180.501 271.601 179.519 267.308 177.676C265.421 176.87 263.622 175.91 262.133 174.465C258.965 171.397 259.153 167.666 262.585 164.907C264.913 163.042 267.717 162.248 270.818 161.133V161.111Z" fill="#150050"/>
<path d="M141.986 109.751C143.774 115.854 140.728 122.42 135.012 124.782C129.957 126.868 125.256 124.274 124.307 118.878C123.303 113.194 127.011 106.54 132.186 104.719C136.457 103.229 140.717 105.403 141.986 109.751Z" fill="#150050"/>
<path d="M288.154 343.984C288.486 344.934 288.541 345.805 287.768 346.445C287.051 347.041 286.201 346.799 285.517 346.379C284.844 345.96 284.259 345.386 283.718 344.812C274.669 335.134 264.792 326.405 253.734 319.055C253.271 318.746 252.818 318.415 252.443 318.017C251.869 317.421 251.825 316.671 252.178 315.954C252.542 315.192 253.248 314.971 254.043 315.038C254.871 315.104 255.555 315.545 256.239 315.976C267.749 323.248 277.759 332.276 286.996 342.219C287.327 342.572 287.592 343.002 287.868 343.411C288 343.609 288.088 343.852 288.166 343.996L288.154 343.984Z" fill="#150050"/>
<path d="M258.855 214.866C258.369 214.877 257.696 214.932 257.023 214.91C252.653 214.767 248.305 214.337 243.968 213.707C243.427 213.63 242.864 213.52 242.367 213.288C241.54 212.891 240.955 212.262 241.098 211.246C241.253 210.176 241.992 209.646 242.996 209.536C243.603 209.47 244.221 209.58 244.828 209.646C249.044 210.154 253.271 210.584 257.53 210.694C258.016 210.706 258.524 210.75 258.987 210.871C259.903 211.125 260.521 211.732 260.565 212.703C260.62 213.762 259.959 214.391 258.844 214.855L258.855 214.866Z" fill="#150050"/>
<path d="M214.403 182.046C212.593 182.642 210.926 183.117 209.216 183.36C208.289 183.492 207.373 183.525 206.479 183.205C205.695 182.929 204.934 182.532 204.923 181.583C204.923 180.755 205.574 180.281 206.269 179.972C206.942 179.674 207.649 179.398 208.366 179.265C211.975 178.592 215.407 177.522 218.42 175.304C219.302 174.652 220.428 174.432 221.234 175.502C222.028 176.562 221.774 177.588 220.825 178.46C218.927 180.214 216.61 181.196 214.403 182.035V182.046Z" fill="#150050"/>
<path d="M186.184 229.544C187.122 230.107 187.895 229.279 188.767 229.202C195.333 228.617 199.626 232.965 198.853 239.564C198.412 243.394 196.735 246.771 194.803 250.004C191.393 255.71 187.818 261.316 184.386 266.999C180.898 272.782 178.448 279.028 176.473 285.484C175.866 287.471 175.171 289.435 174.398 291.797C173.041 289.711 172.401 287.658 171.893 285.639C170.172 278.775 168.957 271.833 169.035 264.726C169.145 255.103 171.22 246.02 176.616 237.931C178.724 234.775 181.362 232.182 184.772 230.449C185.003 230.328 185.191 230.217 185.147 229.919L186.184 229.544Z" fill="#150050"/>
<path d="M170.723 324.484C171.143 316.152 172.688 308.527 175.524 301.144C178.194 294.202 181.858 287.945 187.409 282.968C192.872 278.079 198.997 274.559 206.634 274.702C210.949 274.779 214.723 276.247 217.427 279.756C220.174 283.332 219.788 287.128 217.747 290.858C215.506 294.92 211.953 297.601 208.035 299.841C202.429 303.042 196.381 305.293 190.599 308.096C183.138 311.716 176.583 316.505 171.639 323.315C171.43 323.612 171.198 323.888 170.734 324.484H170.723Z" fill="#150050"/>
</g>
</svg>
