<svg width="550" height="550" viewBox="0 0 550 550" fill="none" xmlns="http://www.w3.org/2000/svg">
<g clip-path="url(#clip0_7261_20419)">
<path d="M274.995 549.923C426.833 549.923 549.923 426.833 549.923 274.994C549.923 123.156 426.833 0.0661926 274.995 0.0661926C123.156 0.0661926 0.0662231 123.156 0.0662231 274.994C0.0662231 426.833 123.156 549.923 274.995 549.923Z" fill="#FFF6E8"/>
<path d="M450.141 262.77C450.141 262.77 390.663 163.629 375.316 139.654C359.97 115.669 323.517 112.789 282.265 135.815C241.013 158.84 252.521 213.519 252.521 213.519C252.521 213.519 283.214 260.53 311.039 314.249C338.864 367.969 378.196 345.903 378.196 345.903C378.196 345.903 425.207 319.038 441.514 305.611C457.82 292.184 450.152 262.77 450.152 262.77H450.141ZM323.186 150.422C318.067 152.121 288.653 171.308 288.653 171.308C288.653 171.308 280.334 174.827 273.946 168.273C273.946 168.273 267.547 159.16 276.506 153.401C285.465 147.642 309.285 134.855 309.285 134.855C309.285 134.855 319.987 129.736 323.186 134.855C326.386 139.974 328.305 148.734 323.186 150.433V150.422Z" fill="#5E85FE"/>
<path d="M285.619 226.946C285.619 226.946 278.9 216.873 288.973 211.114C299.046 205.355 357.565 169.862 357.565 169.862C357.565 169.862 365.243 164.588 370.517 173.216C375.791 181.855 382.024 192.402 382.024 192.402C382.024 192.402 386.824 197.676 374.346 204.869C361.878 212.063 310.553 245.162 310.553 245.162C310.553 245.162 300.006 250.435 294.721 241.808C289.448 233.169 285.608 226.935 285.608 226.935L285.619 226.946Z" fill="#4967E5"/>
<path d="M311.48 266.19C311.48 266.19 304.761 256.117 314.834 250.358C324.907 244.599 383.426 209.106 383.426 209.106C383.426 209.106 391.104 203.832 396.378 212.46C401.652 221.099 407.885 231.646 407.885 231.646C407.885 231.646 412.685 236.92 400.207 244.113C387.739 251.307 336.415 284.406 336.415 284.406C336.415 284.406 325.867 289.679 320.582 281.052C315.309 272.413 311.469 266.179 311.469 266.179L311.48 266.19Z" fill="#4967E5"/>
<path d="M335.377 305.445C335.377 305.445 328.658 295.372 338.731 289.613C348.804 283.854 407.323 248.361 407.323 248.361C407.323 248.361 415.002 243.087 420.275 251.715C425.549 260.354 431.783 270.901 431.783 270.901C431.783 270.901 436.582 276.175 424.104 283.368C411.637 290.562 360.312 323.661 360.312 323.661C360.312 323.661 349.764 328.934 344.48 320.307C339.206 311.668 335.366 305.434 335.366 305.434L335.377 305.445Z" fill="#4967E5"/>
<path d="M447.756 425.39C448.237 417.28 446.421 409.706 442.452 402.597C439.012 396.452 434.104 391.724 427.886 388.485C424.23 386.591 420.116 386.02 415.979 385.853C414.367 385.794 412.731 385.877 411.119 385.782C409.941 385.71 408.942 385.091 409.003 383.829C409.063 382.566 410.229 382.519 411.216 382.495C413.91 382.435 416.58 382.376 419.262 382.007C425.457 381.149 430.713 378.565 435.367 374.492C442.488 368.288 445.675 360.25 447.107 351.235C447.66 347.722 447.672 344.221 447.696 340.696C447.696 339.838 447.696 338.981 447.78 338.135C447.84 337.576 448.201 337.147 448.79 337.028C449.392 336.909 449.849 337.183 450.174 337.647C450.763 338.481 450.643 339.386 450.631 340.374C450.583 349.961 451.497 359.333 456.885 367.716C462.225 376.028 469.755 381.006 479.594 382.542C481.939 382.912 484.284 383.245 486.666 383.138C487.099 383.114 487.544 383.114 487.953 383.221C488.482 383.352 489.023 383.579 488.999 384.245C488.975 384.9 488.434 385.222 487.917 385.222C485.535 385.21 483.19 385.52 480.844 385.853C473.111 386.949 466.375 390.033 461.047 395.773C456.308 400.87 453.734 407.062 452.387 413.755C451.376 418.78 450.799 423.877 451.003 429.022C451.076 430.76 450.667 432.416 450.342 434.083C450.258 434.512 449.957 434.893 449.512 434.976C448.911 435.107 448.514 434.678 448.177 434.261C447.66 433.618 447.744 432.856 447.744 432.106C447.744 429.855 447.744 427.616 447.744 425.366L447.756 425.39Z" fill="#FA9BFA"/>
<path d="M130.272 171.39C130.747 163.28 128.953 155.706 125.034 148.597C121.637 142.452 116.791 137.724 110.65 134.485C107.039 132.591 102.977 132.02 98.8915 131.853C97.2999 131.794 95.6846 131.877 94.093 131.782C92.929 131.71 91.9432 131.091 92.0026 129.829C92.0619 128.566 93.214 128.519 94.188 128.495C96.8485 128.435 99.4853 128.376 102.134 128.007C108.251 127.149 113.441 124.565 118.038 120.492C125.069 114.288 128.217 106.25 129.63 97.2348C130.177 93.7217 130.188 90.2206 130.212 86.6957C130.212 85.8382 130.212 84.9808 130.295 84.1353C130.355 83.5756 130.711 83.1469 131.293 83.0278C131.887 82.9087 132.338 83.1826 132.659 83.6471C133.241 84.4807 133.122 85.3857 133.11 86.3741C133.063 95.9606 133.965 105.333 139.287 113.716C144.56 122.028 151.995 127.006 161.711 128.542C164.027 128.912 166.343 129.245 168.695 129.138C169.123 129.114 169.562 129.114 169.966 129.221C170.489 129.352 171.023 129.579 170.999 130.245C170.975 130.9 170.441 131.222 169.93 131.222C167.579 131.21 165.262 131.52 162.946 131.853C155.309 132.949 148.658 136.033 143.396 141.773C138.716 146.87 136.175 153.062 134.844 159.755C133.847 164.78 133.277 169.877 133.478 175.022C133.55 176.76 133.146 178.416 132.825 180.083C132.742 180.512 132.445 180.893 132.006 180.976C131.412 181.107 131.02 180.678 130.687 180.261C130.177 179.618 130.26 178.856 130.26 178.106C130.26 175.855 130.26 173.616 130.26 171.366L130.272 171.39Z" fill="#FA9BFA"/>
<path d="M55.3036 330.603C55.6235 325.042 54.3989 319.846 51.7068 314.98C49.3679 310.765 46.047 307.522 41.8214 305.304C39.339 304.002 36.5477 303.616 33.7453 303.506C32.642 303.462 31.5498 303.528 30.4465 303.462C29.6411 303.418 28.9681 302.987 29.0012 302.116C29.0453 301.255 29.8286 301.222 30.5016 301.2C32.3331 301.156 34.1425 301.123 35.9629 300.858C40.1664 300.262 43.7301 298.497 46.8965 295.706C51.7289 291.447 53.9024 285.942 54.8733 279.763C55.2484 277.358 55.2594 274.953 55.2705 272.537C55.2705 271.952 55.2705 271.367 55.3256 270.782C55.3587 270.396 55.6125 270.109 56.0097 270.021C56.4179 269.933 56.7268 270.131 56.9475 270.44C57.3446 271.014 57.2674 271.632 57.2564 272.316C57.2233 278.891 57.8411 285.313 61.504 291.061C65.1338 296.754 70.2421 300.174 76.917 301.222C78.5057 301.476 80.0944 301.707 81.7163 301.63C82.0031 301.619 82.312 301.619 82.5879 301.685C82.9409 301.774 83.316 301.928 83.294 302.392C83.2829 302.833 82.9078 303.065 82.5548 303.053C80.944 303.042 79.3442 303.263 77.7555 303.484C72.5038 304.234 67.9362 306.352 64.3174 310.28C61.0958 313.766 59.3526 318.014 58.4369 322.604C57.7529 326.046 57.3667 329.543 57.4991 333.074C57.5432 334.265 57.2784 335.402 57.0467 336.549C56.9916 336.847 56.782 337.101 56.4841 337.167C56.0759 337.255 55.8111 336.969 55.5794 336.682C55.2263 336.24 55.2815 335.722 55.2815 335.203C55.2815 333.659 55.2815 332.125 55.2815 330.581L55.3036 330.603Z" fill="#FA9BFA"/>
<path d="M271.839 158.167C271.155 160.584 271.596 162.536 273.648 164.291C291.334 179.417 296.498 199.463 294.137 221.408C290.794 252.454 275.634 276.043 246.739 289.679C241.73 292.04 236.324 293.254 230.753 293.265C227.41 293.265 226.229 294.523 226.858 297.921C229.02 309.682 223.934 317.361 213.001 321.344C207.484 323.352 206.017 326.739 208.124 332.09C208.786 333.778 208.996 335.675 209.227 337.496C210.585 347.999 208.19 352.412 198.073 355.656C192.292 357.509 190.736 359.341 194.267 365.089C199.827 374.147 198.559 379.487 190.196 387.497C180.862 396.422 172.069 405.8 166.652 417.694C162.68 426.421 158.785 435.247 155.784 444.327C152.728 453.595 147.62 460.479 138.474 464.142L133.145 462.642C131.346 457.964 131.699 453.231 132.847 448.509C133.498 445.828 134.358 443.202 135.064 440.532C144.851 403.45 154.626 366.358 164.423 329.287C169.52 310.013 174.562 290.727 179.847 271.497C181.083 267.007 180.597 263.211 178.766 258.92C173.757 247.225 173.382 234.758 175.136 222.412C178.975 195.425 192.601 174.65 216.443 161.135C224.045 156.832 232.518 154.405 241.41 154.295C242.955 154.273 244.091 154.151 244.82 152.717C248.626 151.625 251.87 153.754 255.279 154.692C260.74 156.192 266.201 157.561 271.839 158.167Z" fill="#FACF18"/>
<path d="M199.85 290.926C196.032 289.58 195.05 293.464 193.98 296.464C183.366 326.099 172.808 355.766 162.084 385.356C161.565 386.769 159.911 391.513 158.311 396.224C157.02 400.041 155.784 403.836 155.244 405.833L155.211 405.933C155.211 405.933 155.211 405.977 155.199 406.01C155.188 406.076 155.166 406.153 155.166 406.231C155.1 406.628 155.111 406.981 155.199 407.279C155.222 407.4 155.244 407.488 155.277 407.521H155.288C155.608 408.316 156.27 408.724 156.27 408.724C158.763 411.416 160.341 410.258 162.459 404.465C175.346 369.149 188.133 333.8 200.931 298.45C201.935 295.67 203.314 292.14 199.861 290.915L199.85 290.926Z" fill="#150050"/>
<path d="M245.415 156.303C240.506 149.893 238.178 140.824 238.763 129.934C239.502 116.397 244.72 101.403 253.48 87.7114C262.229 74.0306 273.56 63.1412 285.376 57.0621C298.141 50.4975 310.09 50.1886 319.005 56.2015C327.93 62.2034 332.41 73.5672 331.615 88.1968C330.876 101.734 325.657 116.728 316.897 130.42C308.148 144.111 296.818 154.99 285.001 161.069C280.048 163.618 275.215 165.228 270.636 165.879C266.036 166.541 247.092 158.498 245.404 156.303H245.415ZM309.196 64.1672C303.989 62.5233 297.369 63.5935 290.087 67.3447C280.059 72.5081 270.317 81.9412 262.66 93.9008C255.003 105.86 250.446 118.791 249.828 130.287C249.266 140.702 252.013 148.503 257.574 152.243C263.134 155.972 271.21 155.475 280.29 150.797C290.319 145.634 300.061 136.201 307.718 124.241C315.375 112.282 319.931 99.3511 320.549 87.8548C321.112 77.4398 318.365 69.6395 312.804 65.8994C311.701 65.1602 310.487 64.5754 309.196 64.1672Z" fill="#150050"/>
<path d="M303.901 125.907C303.901 125.907 321.443 119.949 327.842 120.964C334.241 121.979 320.671 132.273 320.671 132.273C320.671 132.273 287.285 135.539 279.419 147.289C278.15 149.187 303.912 125.907 303.912 125.907H303.901Z" fill="#5E85FE"/>
<path d="M317.118 132.714C317.118 132.714 297.435 137.867 281.791 146.208L287.649 138.43L305.567 131.699L317.129 132.714H317.118Z" fill="#5E85FE"/>
</g>
<defs>
<clipPath id="clip0_7261_20419">
<rect width="550" height="550" fill="white"/>
</clipPath>
</defs>
</svg>
