<svg width="550" height="551" viewBox="0 0 550 551" fill="none" xmlns="http://www.w3.org/2000/svg">
<path d="M275 549.739C426.878 549.739 550 426.676 550 274.869C550 123.063 426.878 0 275 0C123.122 0 0 123.063 0 274.869C0 426.676 123.122 549.739 275 549.739Z" fill="#FFF6E8"/>
<path d="M284.093 407.324C294.975 407.71 305.845 408.284 316.682 409.266C353.596 412.586 389.75 419.237 424.755 430.731C442.633 436.599 459.926 443.67 476.325 452.549C477.749 453.321 479.194 454.071 480.53 454.965C482.207 456.068 482.24 456.355 480.861 457.833C477.694 461.219 474.559 464.639 471.238 467.893C450.777 487.946 427.867 505.154 401.933 518.832C376.485 532.256 349.48 541.775 320.655 546.816C310.061 548.669 299.389 549.861 288.618 550.522C280.352 551.03 272.098 551.151 263.865 550.798C243.581 549.938 223.651 546.904 204.172 541.5C167.644 531.351 135.276 514.32 106.572 491.178C92.579 479.894 79.943 467.452 68.4879 453.961C68.0796 453.476 67.6932 452.99 67.2739 452.516C66.3027 451.391 66.4352 450.553 67.8699 449.836C70.7723 448.38 73.5865 446.78 76.5109 445.357C95.8787 435.959 116.229 428.867 137.208 423.23C154.865 418.498 172.831 415.024 190.985 412.409C200.751 410.997 210.595 410.027 220.428 409.089C240.955 407.137 261.525 407.137 282.118 407.258C282.758 407.776 283.409 407.787 284.082 407.324H284.093Z" fill="#FFBF7B"/>
<path d="M284.093 407.324C283.42 407.799 282.758 407.787 282.129 407.258C282.813 406.563 283.464 406.596 284.093 407.324Z" fill="#FFBF7B"/>
<path d="M133.433 415.762L97.81 403.32L86.3769 397.253L126.183 345.123L124.98 343.38L64.0074 374.607L54.8035 369.941L54.2078 331.533L121.404 332.228L129.781 341.229L129.736 338.791L130.829 333.882L136.987 338.493L201.005 362.705L206.104 346.082L125.278 332.89L125.156 332.846L59.1186 305.104L59.9573 303.118L125.874 330.805L208.885 344.35L202.396 365.529L143.2 343.137L193.424 380.762L192.133 382.483L140.066 343.479L168.737 400.352L155.339 405.89L154.931 404.897L132.12 350.086L133.433 415.762ZM98.7479 401.378L131.215 412.707L129.847 344.648L129.714 344.317L120.466 334.368L56.4039 333.706L56.9446 368.606L64.0074 372.181L125.686 340.589L128.842 345.178L89.6324 396.536L98.759 401.378H98.7479ZM131.999 344.196L156.509 403.077L165.768 399.249L136.192 340.578L132.208 337.6L131.899 339.001L131.999 344.196Z" fill="#150050"/>
<path d="M404.306 418.2L394.351 412.177L415.816 344.086L415.088 339.343L412.671 341.836L383.26 407.39L362.954 394.528L363.539 389.366L410 341.494L337.716 350.98L343.808 314.436L405.652 335.25L363.197 280.352L388.745 263.629L415.595 324.143L424.358 260.066L426.487 260.353L416.699 331.941L415.827 329.978L416.566 334.776L424.998 334.522L417.813 327.981L447.477 263L473.08 282.834L424.689 329.912L423.188 328.367L469.803 283.021L448.305 266.365L420.429 327.441L426.73 333.188L491.488 305.347L496.013 334.511L423.905 336.706L424.159 337.082L491.654 368.574L478.499 384.943L438.991 359.474L465.918 400.154L446.617 407.964L420.594 354.797L430.262 415.145L404.328 418.211L404.306 418.2ZM396.911 411.218L404.78 415.983L427.757 413.269L417.151 347.02L396.911 411.229V411.218ZM365.239 393.425L382.3 404.235L408.267 346.358L365.581 390.337L365.228 393.425H365.239ZM417.946 344.494L447.654 405.206L462.652 399.139L434.466 356.561L420.826 347.759L423.033 338.924L416.765 336.001L418.034 344.251L417.957 344.494H417.946ZM436.011 354.995L478.024 382.075L488.243 369.357L426.432 340.512L436.022 354.995H436.011ZM423.287 346.788L431.509 352.083L424.578 341.615L423.287 346.788ZM345.518 317.282L340.32 348.465L410.739 339.221L345.518 317.282ZM366.32 280.87L411.391 339.133L411.534 339.111L415.739 329.746L387.807 266.806L366.331 280.87H366.32ZM414.756 337.192L414.039 338.791L414.988 338.67L414.756 337.192ZM423.375 336.717L423.552 336.795L423.574 336.706H423.375V336.717ZM489.778 308.424L429.401 334.39L493.507 332.438L489.789 308.424H489.778Z" fill="#150050"/>
<path d="M185.956 230.892L125.18 330.099L136.822 337.224L197.598 238.017L185.956 230.892Z" fill="#150050"/>
<path d="M129.45 346.943L129.736 339.244L80.8701 273.403L82.6028 272.123L127.198 332.217L98.9907 255.963L135.089 251.948L132.065 334.313L182.697 277.682L184.308 279.116L137.759 331.169L203.974 305.689L208.178 327.242L134.018 341.262L133.213 342.266L134.449 345.597L132.573 343.071L129.45 346.954V346.943ZM131.91 338.725L132.352 339.906L132.849 339.288L133.235 339.211L205.663 325.522L202.363 308.612L132.021 335.681L131.91 338.714V338.725ZM101.97 257.794L129.946 333.419L132.849 254.353L101.97 257.794Z" fill="#150050"/>
<path d="M240.613 398.885C233.605 398.632 226.961 396.227 222.602 393.833C205.132 388.274 126.812 363.124 114.396 354.829C106.44 350.958 93.4286 339.607 97.8649 322.378C99.2003 317.204 102.345 313.068 106.958 310.42C118.921 303.559 137.417 308.512 139.481 309.108L139.635 309.152C140.154 309.317 192.375 325.808 247.256 351.597L247.41 351.675C249.088 352.524 263.865 360.312 266.69 372.633C267.97 378.181 266.624 383.773 262.794 388.792C256.703 396.8 248.415 399.172 240.601 398.885H240.613ZM124.307 319.035C120.157 318.881 115.908 319.3 112.995 320.966C111.196 322.002 110.159 323.37 109.64 325.4C106.572 337.324 118.634 343.391 120.025 344.042L120.654 344.339L121.228 344.781C126.691 349.071 179.243 367.294 226.884 382.439L227.513 382.637L228.087 382.968C228.749 383.343 244.85 392.311 253.138 381.424C255.279 378.611 255.146 376.615 254.849 375.357C253.624 370.007 245.711 364.459 242.003 362.562C188.976 337.644 138.488 321.539 136.082 320.778C133.886 320.172 129.173 319.212 124.307 319.035Z" fill="#150050"/>
<path d="M415.54 425.105C367.358 423.34 329.605 382.715 331.371 334.556C333.136 286.396 373.781 248.661 421.963 250.426C470.145 252.191 507.899 292.816 506.133 340.976C504.367 389.135 463.722 426.87 415.54 425.105ZM421.455 264.06C380.8 262.571 346.501 294.416 345.011 335.063C343.521 375.7 375.381 409.982 416.048 411.471C456.704 412.961 491.003 381.116 492.493 340.468C493.982 299.832 462.122 265.549 421.455 264.06Z" fill="#FA9BFA"/>
<path d="M127.805 421.013C79.623 419.248 41.8697 378.623 43.6354 330.463C45.4011 282.304 86.0459 244.569 134.228 246.334C182.41 248.099 220.163 288.724 218.397 336.883C216.632 385.042 175.987 422.778 127.805 421.013ZM133.72 259.967C93.0644 258.478 58.7653 290.323 57.2755 330.971C55.7856 371.607 87.646 405.89 128.313 407.379C168.968 408.868 203.268 377.023 204.757 336.376C206.247 295.739 174.387 261.456 133.72 259.967Z" fill="#FA9BFA"/>
<path d="M418.752 348.277C424.56 348.277 429.269 343.571 429.269 337.765C429.269 331.96 424.56 327.253 418.752 327.253C412.943 327.253 408.235 331.96 408.235 337.765C408.235 343.571 412.943 348.277 418.752 348.277Z" fill="#150050"/>
<path d="M408.18 318.374C404.836 316.554 400.543 310.101 398.324 305.744L389.066 268.593L348.2 146.419L374.521 128.804C377.655 126.708 378.493 122.472 376.397 119.339C374.3 116.207 370.062 115.369 366.928 117.464L302.976 160.274C299.842 162.37 299.003 166.605 301.1 169.738C302.369 171.624 304.41 172.683 306.529 172.76C307.92 172.816 309.332 172.44 310.568 171.613L336.447 154.295L352.361 201.881L196.216 226.865L187.597 204.087L174.828 208.907L231.795 359.529L224.556 367.526C224.556 367.526 220.848 371.034 222.735 372.126L266.977 398.389C267.992 398.996 269.107 399.305 270.211 399.338C272.627 399.426 275.011 398.224 276.335 396.007C278.255 392.764 277.196 388.583 273.952 386.664L243.581 368.629L357.967 218.658L375.944 272.41L385.424 310.443L385.733 311.083C386.439 312.55 392.928 325.588 401.635 330.342C406.237 332.857 411.545 339.42 413.201 341.726L424.314 333.817C423.519 332.703 416.346 322.842 408.18 318.385V318.374ZM242.069 348.113L201.138 239.881L341.777 217.379L242.058 348.113H242.069Z" fill="#150050"/>
<path d="M160.051 214.146C160.051 214.146 144.612 218.04 143.398 207.804L142.185 197.568C142.185 197.568 141.224 188.931 151.775 188.048C162.325 187.166 177.344 186.118 211.29 190.232C245.236 194.346 233.362 205.377 233.362 205.377C233.362 205.377 203.466 212.238 160.062 214.157L160.051 214.146Z" fill="#FA9BFA"/>
<path d="M449.442 174.073C449.784 172.44 450.347 170.885 451.064 169.396C451.815 167.852 452.665 166.341 453.868 165.072C454.177 164.741 454.408 164.333 454.739 164.013C455.38 163.406 456.02 162.789 456.726 162.292C457.73 161.586 458.734 160.858 459.871 160.373C461.261 159.777 462.696 159.292 464.197 159.049C464.782 158.95 465.378 158.928 465.974 158.84C466.559 158.751 467.155 158.763 467.751 158.939C468.391 159.127 469.064 159.049 469.726 159.204C470.896 159.468 472.032 159.855 473.136 160.296C474.515 160.858 475.74 161.697 476.954 162.535C477.208 162.711 477.418 162.965 477.65 163.186C477.926 163.45 478.168 163.759 478.533 163.936C478.654 163.991 478.775 164.09 478.852 164.201C479.581 165.237 480.563 166.076 481.214 167.168C481.479 167.62 481.777 168.061 482.064 168.502C482.23 168.756 482.472 168.822 482.682 168.635C482.925 168.436 483.145 168.205 483.377 167.984C484.117 167.278 484.79 166.517 485.64 165.921C486.809 165.116 488.034 164.432 489.336 163.903C490.021 163.627 490.76 163.472 491.433 163.197C491.941 162.987 492.471 163.02 492.989 162.921C494.225 162.689 495.494 162.48 496.763 162.634C499.765 162.998 502.601 163.814 505.173 165.48C506.707 166.473 507.954 167.763 509.157 169.087C510.128 170.146 510.856 171.404 511.408 172.749C511.584 173.168 511.783 173.587 511.96 174.007C512.412 175.088 512.567 176.235 512.809 177.36C513.096 178.695 513.097 180.04 512.964 181.353C512.754 183.416 512.291 185.434 511.364 187.321C510.724 188.622 509.995 189.88 509.057 190.972C507.722 192.505 506.243 193.906 504.4 194.909C502.833 195.759 501.222 196.399 499.501 196.796C498.618 197.005 497.724 197.193 496.797 197.149C496.267 197.127 495.737 197.127 495.207 197.149C493.089 197.248 491.102 196.696 489.16 195.924C487.35 195.196 485.706 194.204 484.249 192.891C484.017 192.681 483.786 192.692 483.631 192.979C483.19 193.839 482.417 194.435 481.909 195.24C481.854 195.329 481.777 195.406 481.689 195.472C480.309 196.63 478.875 197.7 477.197 198.406C476.027 198.903 474.803 199.211 473.567 199.487C472.132 199.796 470.675 199.774 469.251 199.664C467.442 199.52 465.654 199.145 463.921 198.516C462.652 198.053 461.449 197.491 460.268 196.851C458.911 196.112 457.631 195.229 456.483 194.181C455.986 193.729 455.424 193.376 454.96 192.88C453.382 191.17 451.947 189.35 450.822 187.298C450.756 187.177 450.678 187.056 450.601 186.945C450.524 186.846 450.413 186.857 450.325 186.934C450.27 186.978 450.226 187.045 450.204 187.1C449.773 187.96 449.144 188.677 448.438 189.328C447.246 190.42 445.867 191.115 444.278 191.479C443.119 191.744 441.96 191.677 440.812 191.633C440.051 191.6 439.289 191.358 438.572 191.104C436.464 190.354 434.72 189.03 433.33 187.309C432.138 185.82 431.255 184.144 430.924 182.213C430.803 181.485 430.836 180.735 430.571 180.04C430.527 179.919 430.549 179.754 430.571 179.621C430.803 178.165 430.968 176.687 431.653 175.352C432.403 173.896 433.396 172.661 434.787 171.734C435.846 171.028 437.027 170.72 438.186 170.323C438.373 170.256 438.605 170.278 438.815 170.278C439.378 170.278 439.94 170.278 440.514 170.278C442.368 170.256 444.035 170.852 445.591 171.823C446.584 172.44 447.478 173.168 448.239 174.051C448.328 174.15 448.46 174.216 448.581 174.293C448.659 174.492 448.802 174.635 449.001 174.713C449.078 174.856 449.144 174.856 449.222 174.713C449.31 174.503 449.442 174.316 449.431 174.073H449.442Z" fill="#5E85FE"/>
<path d="M290.582 88.1998C290.086 90.3287 289.258 92.3805 288.199 94.3218C287.095 96.3515 285.837 98.3261 284.071 99.9806C283.608 100.411 283.277 100.951 282.791 101.359C281.853 102.154 280.915 102.959 279.867 103.62C278.388 104.547 276.92 105.507 275.243 106.147C273.19 106.919 271.082 107.559 268.886 107.878C268.025 108 267.153 108.044 266.282 108.154C265.432 108.264 264.538 108.264 263.666 108.033C262.728 107.79 261.735 107.878 260.764 107.691C259.042 107.349 257.376 106.842 255.754 106.257C253.734 105.529 251.935 104.415 250.136 103.323C249.761 103.091 249.463 102.749 249.121 102.463C248.713 102.121 248.349 101.712 247.819 101.481C247.642 101.403 247.455 101.282 247.344 101.139C246.274 99.7819 244.839 98.6901 243.879 97.2451C243.482 96.6494 243.063 96.0758 242.643 95.4911C242.4 95.1602 242.047 95.0721 241.727 95.3148C241.374 95.5795 241.043 95.8881 240.712 96.1749C239.63 97.1015 238.637 98.1054 237.39 98.8776C235.68 99.9365 233.87 100.83 231.949 101.525C230.945 101.889 229.864 102.087 228.86 102.451C228.12 102.727 227.337 102.694 226.575 102.815C224.754 103.113 222.889 103.4 221.035 103.201C216.632 102.727 212.46 101.646 208.675 99.462C206.424 98.1604 204.592 96.4729 202.815 94.7301C201.391 93.3403 200.321 91.6856 199.504 89.9207C199.25 89.3692 198.953 88.8287 198.699 88.2771C198.037 86.8652 197.805 85.3541 197.44 83.876C197.01 82.1332 197.01 80.3572 197.209 78.6365C197.518 75.934 198.191 73.2866 199.571 70.8157C200.52 69.106 201.579 67.4516 202.958 66.0287C204.923 64.0101 207.097 62.1788 209.79 60.8662C212.085 59.7521 214.469 58.9138 216.985 58.3843C218.287 58.1086 219.6 57.866 220.958 57.9211C221.73 57.9542 222.514 57.9542 223.286 57.9211C226.398 57.7998 229.323 58.5057 232.17 59.5315C234.83 60.4912 237.246 61.7819 239.376 63.5026C239.718 63.7784 240.061 63.7562 240.281 63.3922C240.932 62.2671 242.069 61.484 242.809 60.4251C242.886 60.3148 243.007 60.2155 243.129 60.1272C245.159 58.6161 247.267 57.2042 249.728 56.2886C251.45 55.6489 253.237 55.2297 255.058 54.8767C257.166 54.4686 259.296 54.5017 261.393 54.6451C264.053 54.8326 266.668 55.3181 269.217 56.1454C271.082 56.752 272.859 57.4911 274.581 58.3294C276.578 59.3001 278.454 60.4582 280.132 61.837C280.86 62.4327 281.699 62.885 282.372 63.5468C284.689 65.797 286.797 68.1685 288.442 70.8599C288.541 71.0254 288.64 71.18 288.772 71.3234C288.883 71.4557 289.037 71.4445 289.17 71.3452C289.247 71.29 289.313 71.2018 289.357 71.1246C289.997 69.9995 290.913 69.051 291.951 68.2127C293.706 66.7787 295.725 65.8631 298.065 65.3999C299.775 65.0579 301.475 65.1352 303.163 65.2014C304.278 65.2455 305.403 65.5653 306.463 65.8962C309.553 66.8889 312.124 68.6097 314.155 70.8709C315.909 72.8234 317.201 75.0185 317.697 77.5555C317.885 78.5041 317.83 79.4859 318.227 80.4125C318.293 80.578 318.271 80.7875 318.227 80.964C317.885 82.8723 317.642 84.8135 316.638 86.5563C315.534 88.4646 314.077 90.0861 312.025 91.2995C310.48 92.215 308.736 92.6341 307.037 93.1636C306.75 93.2518 306.419 93.2188 306.11 93.2188C305.282 93.2188 304.454 93.2188 303.616 93.2188C300.89 93.2409 298.451 92.4686 296.167 91.1891C294.71 90.3728 293.397 89.4243 292.282 88.2551C292.15 88.1227 291.951 88.0344 291.785 87.9351C291.664 87.6704 291.465 87.4829 291.167 87.3836C291.057 87.1961 290.958 87.1851 290.847 87.3836C290.715 87.6483 290.516 87.902 290.538 88.2219L290.582 88.1998Z" fill="#5E85FE"/>
<path d="M131.248 345.101C137.3 345.101 142.207 340.197 142.207 334.147C142.207 328.098 137.3 323.194 131.248 323.194C125.196 323.194 120.29 328.098 120.29 334.147C120.29 340.197 125.196 345.101 131.248 345.101Z" fill="#150050"/>
<path d="M134.537 129.697C134.934 129.432 135.066 129.024 135.276 128.66C135.751 127.855 136.336 127.138 137.108 126.509C138.124 125.693 139.073 124.832 140.297 124.204C141.489 123.597 142.781 123.299 144.094 123.023C144.469 122.946 144.866 122.935 145.253 122.858C145.716 122.769 146.213 122.748 146.687 122.803C149.479 123.079 152.062 123.873 154.247 125.373C155.704 126.376 156.995 127.546 157.955 128.947C158.639 129.939 159.268 130.954 159.765 132.024C160.339 133.271 160.692 134.55 160.912 135.885C161.034 136.624 161.144 137.352 161.144 138.091C161.133 140.76 160.438 143.297 158.959 145.669C157.635 147.787 155.703 149.43 153.276 150.633C152.459 151.041 151.51 151.25 150.583 151.471C147.879 152.122 145.308 151.769 142.792 150.82C140.629 150.004 138.808 148.791 137.285 147.279C136.578 146.584 136.027 145.768 135.409 145.007C135.309 144.886 135.232 144.742 135.122 144.643C135.033 144.555 134.868 144.544 134.802 144.665C134.57 145.106 134.305 145.537 134.14 146C133.742 147.158 132.904 148.129 132.197 149.144C130.995 150.875 129.494 152.409 127.783 153.809C126.558 154.824 125.178 155.674 123.744 156.446C121.658 157.571 119.363 158.299 116.957 158.751C115.853 158.961 114.739 159.148 113.591 159.137C113.017 159.137 112.454 159.126 111.88 159.137C110.335 159.17 108.835 158.928 107.367 158.553C106.109 158.244 104.884 157.847 103.659 157.427C102.18 156.931 100.922 156.104 99.6309 155.343C97.8872 154.317 96.4524 153.004 95.0619 151.67C93.8259 150.478 92.7556 149.154 91.939 147.709C91.1775 146.375 91.0561 146.452 89.6987 147.114C88.3082 147.787 86.8294 148.162 85.2844 148.449C84.3243 148.625 83.3751 148.658 82.415 148.647C80.7927 148.614 79.2146 148.327 77.6696 147.897C75.5617 147.302 73.73 146.287 72.0194 145.129C71.3131 144.643 70.629 144.103 70.1323 143.43C69.8785 143.088 69.4811 142.823 69.2163 142.492C67.9913 140.981 67.1304 139.304 66.6117 137.539C66.3027 136.514 66.1153 135.422 66.2698 134.352C66.5237 132.576 66.9208 130.833 68.1017 129.3C69.0066 128.119 70.1102 127.082 71.4787 126.233C72.9685 125.318 74.6128 124.777 76.3785 124.435C77.2724 124.27 78.1883 124.204 79.0932 124.126C80.1968 124.038 81.2562 124.314 82.3377 124.457C84.589 124.744 86.5865 125.593 88.4626 126.619C89.1468 126.994 89.8421 127.402 90.4049 127.932C90.6697 128.175 90.9677 128.406 91.2547 128.627C91.4533 128.781 91.685 128.748 91.8064 128.561C91.9941 128.263 92.1706 127.965 92.3251 127.656C93.1307 125.957 94.3115 124.457 95.6137 123.001C96.309 122.229 97.0816 121.523 97.9092 120.861C99.8957 119.262 102.147 118.015 104.707 117.155C106.054 116.703 107.433 116.35 108.857 116.162C110.148 115.997 111.439 115.71 112.763 115.865C114.441 116.063 116.14 116.151 117.785 116.57C120.235 117.199 122.519 118.104 124.616 119.35C125.51 119.88 126.359 120.453 127.154 121.093C128.942 122.527 130.509 124.115 131.789 125.891C132.661 127.093 133.378 128.362 133.996 129.675C134.029 129.84 134.029 130.061 134.316 130.016C134.493 129.994 134.504 129.818 134.526 129.675L134.537 129.697Z" fill="#5E85FE"/>
</svg>
