<svg width="550" height="550" viewBox="0 0 550 550" fill="none" xmlns="http://www.w3.org/2000/svg">
<path d="M275 550C426.878 550 550 426.878 550 275C550 123.122 426.878 0 275 0C123.122 0 0 123.122 0 275C0 426.878 123.122 550 275 550Z" fill="#FFF6E8"/>
<path d="M213.917 319.816H214.303C214.336 320.081 214.469 320.213 214.756 320.147C215.937 319.86 217.14 320.081 218.343 320.004C219.17 319.905 220.031 320.235 220.837 319.816H221.223C221.863 320.114 222.503 320.114 223.143 319.816H223.529C224.103 320.114 224.677 320.125 225.262 319.816H225.836C226.023 320.059 226.222 320.059 226.409 319.816H226.983C227.237 320.103 227.579 320.004 227.888 320.004C233.119 320.004 238.35 320.048 243.581 320.346C246.66 320.522 249.75 320.545 252.84 320.754C255.82 320.953 258.81 321.063 261.79 321.328C265.531 321.659 269.283 321.825 273.013 322.145C274.437 322.266 275.85 322.443 277.284 322.564C280.098 322.796 282.901 323.171 285.716 323.458C287.868 323.679 290.02 323.822 292.172 324.076C295.604 324.473 299.036 324.937 302.468 325.378C306.838 325.952 311.219 326.482 315.589 327.144C319.728 327.773 323.866 328.446 327.971 329.285C333.511 330.41 339.051 331.569 344.536 333.004C347.737 333.843 350.915 334.759 354.093 335.686C358.96 337.098 363.771 338.643 368.517 340.398C372.037 341.7 375.536 343.058 379.001 344.514C382.521 345.982 386.097 347.317 389.673 348.642C392.542 349.701 395.433 350.705 398.391 351.511C400.995 352.217 403.666 352.758 406.204 353.663C408.996 354.656 411.832 355.44 414.735 356.013C415.474 356.157 416.125 356.035 416.776 355.715C417.449 355.384 417.571 354.976 416.975 354.402C415.474 352.934 413.973 351.467 412.517 349.944C410.089 347.406 407.363 345.209 404.571 343.08C402.408 341.424 400.167 339.879 397.541 338.93C398.744 339.129 399.958 339.327 401.061 339.791C404.593 341.259 407.628 343.51 410.497 346.015C412.881 348.09 415.165 350.275 417.372 352.537C417.681 352.857 418.09 353.023 418.354 353.42C419.833 355.66 421.798 357.514 423.365 359.677C423.718 360.163 424.027 360.108 424.435 359.677C425.252 358.828 426.112 358.022 427.006 357.25C429.313 355.263 431.785 353.519 434.478 352.14C439.532 349.557 444.84 347.825 450.568 347.394C454.541 347.096 458.458 347.251 462.343 348.024C470.024 349.546 476.745 353.001 482.549 358.232C485.319 360.726 487.637 363.628 489.612 366.74C491.941 370.404 493.618 374.399 494.711 378.626C495.572 381.947 495.892 385.325 495.991 388.724C496.024 390.037 495.848 391.394 495.848 392.729C495.781 393.171 495.715 393.612 495.66 394.054C495.284 397.155 494.589 400.167 493.53 403.114C491.665 408.268 488.939 412.925 485.286 416.997C481.931 420.727 477.981 423.729 473.544 426.068C468.931 428.507 464.02 429.986 458.834 430.549C454.695 431.001 450.546 430.891 446.462 430.086C442.037 429.225 437.843 427.669 433.871 425.494C429.5 423.1 425.892 419.822 422.526 416.225C421.742 415.386 421.764 415.342 421.246 416.412C419.778 419.425 418.211 422.383 416.28 425.119C412.903 429.909 408.985 434.191 404.394 437.866C398.92 442.247 392.873 445.58 386.273 447.897C382.124 449.354 377.864 450.358 373.483 450.954C370.382 451.373 367.281 451.55 364.169 451.627C362.138 451.672 360.108 451.462 358.077 451.307C354.424 451.02 350.827 450.424 347.262 449.586C344.624 448.968 342.042 448.151 339.482 447.268C336.094 446.109 332.816 444.719 329.638 443.086C326.702 441.563 323.833 439.918 321.096 438.031C317.708 435.714 314.442 433.253 311.407 430.483C309.729 428.96 308.129 427.348 306.529 425.748C306.143 425.362 305.823 425.307 305.547 425.792C304.841 427.028 303.759 427.956 302.832 428.993C300.139 432.028 297.27 434.875 294.191 437.535C290.759 440.503 287.139 443.207 283.299 445.591C279.216 448.129 274.945 450.336 270.509 452.223C266.58 453.901 262.529 455.258 258.413 456.384C255.809 457.09 253.149 457.598 250.49 458.083C247.079 458.712 243.647 459.165 240.182 459.33C236.275 459.529 232.38 459.639 228.473 459.33C225.659 459.088 222.845 458.812 220.042 458.403C216.102 457.829 212.251 456.891 208.421 455.854C205.1 454.949 201.866 453.757 198.688 452.444C193.964 450.491 189.418 448.162 185.103 445.425C181.494 443.141 178.051 440.625 174.795 437.844C172.687 436.045 170.668 434.158 168.737 432.204C166.993 430.45 165.249 428.651 163.804 426.62C163.572 426.3 163.318 425.991 162.766 426.267C159.025 428.154 155.119 429.567 151.035 430.538C148.243 431.2 145.418 431.63 142.571 431.829C141.335 431.917 140.077 432.182 138.863 432.028C136.689 431.741 134.493 431.818 132.297 431.542C129.052 431.134 125.896 430.417 122.817 429.434C120.433 428.684 118.083 427.79 115.864 426.598C113.955 425.583 112.057 424.579 110.258 423.365C108.272 422.029 106.363 420.606 104.553 419.039C102.588 417.35 100.757 415.551 99.0901 413.565C97.7217 411.932 96.4305 410.232 95.2276 408.466C94.8634 407.926 94.5766 407.837 93.9365 408.202C92.0052 409.338 89.9083 410.133 87.7564 410.729C83.949 411.777 80.0865 412.108 76.1246 411.722C72.3614 411.347 68.8301 410.232 65.4752 408.599C62.2197 407.01 59.3503 404.836 56.8563 402.165C53.9649 399.075 51.7358 395.599 50.3232 391.615C49.4403 389.154 48.8222 386.638 48.5905 384C48.3808 381.473 48.3478 378.946 48.701 376.463C49.1424 373.306 50.1465 370.294 51.559 367.391C53.9538 362.458 57.4082 358.474 61.9328 355.417C65.9278 352.725 70.2978 351.036 75.0984 350.374C77.7139 350.01 80.3073 349.922 82.9007 350.286C86.8295 350.838 90.6146 351.897 94.0798 353.939C94.5654 354.226 94.9959 354.833 95.5477 354.744C96.254 354.623 96.0995 353.751 96.3754 353.232C98.2073 349.767 100.105 346.357 102.599 343.3C104.718 340.696 107.025 338.301 109.618 336.16C111.936 334.24 114.441 332.607 117.112 331.227C119.672 329.914 122.32 328.865 125.112 328.137C128.136 327.354 131.193 326.802 134.261 326.283C136.766 325.864 139.271 325.444 141.787 325.113C145.065 324.672 148.342 324.275 151.62 323.877C154.523 323.524 157.436 323.337 160.339 323.006C163.616 322.63 166.927 322.454 170.227 322.222C174.067 321.946 177.907 321.758 181.748 321.482C185.014 321.251 188.292 321.063 191.559 320.909C195.73 320.721 199.891 320.423 204.062 320.324C207.097 320.258 210.121 319.971 213.155 320.092C213.464 320.103 213.829 320.18 213.906 319.717L213.917 319.816Z" fill="#5F82FA"/>
<path d="M240.215 459.363V459.75H228.705L228.517 459.363C232.424 459.672 236.32 459.562 240.226 459.363H240.215Z" fill="#FFF6E8"/>
<path d="M218.331 320.004C217.14 320.081 215.937 319.849 214.745 320.147C214.458 320.213 214.325 320.081 214.292 319.816H218.32V320.004H218.331Z" fill="#FFF6E8"/>
<path d="M218.331 320.004V319.816H220.826C220.02 320.235 219.159 319.905 218.331 320.004Z" fill="#FFF6E8"/>
<path d="M223.132 319.816C222.492 320.114 221.852 320.114 221.212 319.816H223.132Z" fill="#FFF6E8"/>
<path d="M225.24 319.816C224.666 320.125 224.092 320.114 223.507 319.816H225.24Z" fill="#FFF6E8"/>
<path d="M226.398 319.816C226.211 320.059 226.012 320.059 225.825 319.816H226.398Z" fill="#FFF6E8"/>
<path d="M273.168 125.476C276.6 126.503 278.697 129.361 281.323 131.48C283.034 132.859 284.7 134.305 286.488 135.596C289.015 137.428 290.362 140.077 291.278 142.913C291.653 144.06 291.145 145.374 290.936 146.587C290.02 151.774 288.618 156.807 285.716 161.298C285.098 162.258 285.307 163.417 285.329 164.487C285.517 175.821 294.004 182.796 301.651 185.003C305.172 186.018 308.814 186.228 312.433 186.449C314.309 186.559 316.196 186.614 318.072 186.725C318.459 186.747 319.143 186.592 318.657 187.409C318.613 187.475 318.724 187.641 318.779 187.751C320.258 191.238 320.412 194.814 319.838 198.544C319.099 203.367 317.973 208.068 316.395 212.67C314.541 218.088 310.855 221.918 305.966 224.71C299.841 228.197 293.264 230.139 286.256 230.724C279.778 231.265 273.433 230.802 267.319 228.418C260.885 225.902 254.716 222.889 249.96 217.669C243.515 210.595 240.591 202.274 241.209 192.706C241.363 190.278 241.628 187.872 242.544 185.588C242.588 185.478 242.665 185.334 242.643 185.235C242.478 184.484 242.467 184.473 243.294 184.407C246.152 184.175 249.011 183.988 251.847 183.502C254.363 183.072 257.994 180.909 259.164 176.66C260.058 173.426 260.102 170.105 260.036 166.772C259.969 162.92 259.517 159.124 258.402 155.427C258.214 154.809 257.994 154.533 257.287 154.644C256.107 154.831 255.081 154.302 254.22 153.562C251.052 150.814 249.585 147.382 250.169 143.156C250.214 142.869 250.28 142.593 250.379 142.317C250.865 140.992 251.505 139.745 253.061 139.458C254.529 139.194 255.511 140.11 256.416 141.092C256.758 141.456 257.045 141.886 257.387 142.339C258.799 138.565 260.654 135.11 263.037 131.965C264.671 129.802 266.602 127.959 268.941 126.569C269.736 126.094 270.718 126.094 271.435 125.487H273.157L273.168 125.476Z" fill="#EF6051"/>
<path d="M277.373 282.57C271.248 282.504 264.141 281.489 257.376 278.664C254.606 277.505 252.112 275.926 250.037 273.719C249.331 272.969 248.713 272.163 248.227 271.247C248.106 271.016 248.139 270.541 247.609 270.751C247.378 270.839 247.355 270.563 247.388 270.442C247.653 269.404 247.367 268.334 247.576 267.297C248.007 265.178 249.386 263.732 250.997 262.485C254.694 259.605 258.943 257.872 263.412 256.669C268.003 255.433 272.671 254.804 277.439 255.091C277.913 255.124 278.421 255.102 278.862 255.268C281.202 256.139 283.652 255.808 286.047 255.974C290.947 256.294 295.648 257.353 300.007 259.693C301.718 260.609 303.207 261.801 304.487 263.257C307.5 266.69 307.434 271.104 304.289 274.426C301.971 276.876 299.102 278.454 296.012 279.646C290.395 281.82 284.524 282.559 277.395 282.57H277.373ZM248.525 266.8C249.563 265.531 250.942 264.747 252.343 263.997C253.668 263.28 255.025 262.628 256.438 262.132C263.942 259.472 271.568 257.287 279.635 256.084C278.575 255.753 277.626 255.698 276.688 255.687C272.705 255.599 268.787 256.084 264.924 257.033C259.892 258.28 255.114 260.101 251.019 263.412C249.905 264.317 248.944 265.366 248.514 266.8H248.525Z" fill="#EF6051"/>
<path d="M248.525 266.8C248.955 265.366 249.916 264.317 251.03 263.412C255.113 260.101 259.903 258.28 264.935 257.033C268.787 256.084 272.715 255.599 276.699 255.687C277.637 255.709 278.586 255.764 279.646 256.084C271.579 257.287 263.953 259.472 256.449 262.132C255.036 262.628 253.679 263.291 252.354 263.997C250.953 264.748 249.573 265.531 248.536 266.8H248.525Z" fill="#FFF6E8"/>
<path d="M303.163 263.136H303.936C304.267 263.6 304.101 264.041 303.87 264.483C303.373 265.421 302.788 266.292 302.104 267.109C301.662 267.639 301.21 268.146 300.636 268.809C307.522 269.393 314.232 269.603 321.008 270.034C320.545 269.272 320.82 269.018 321.471 269.073C322.112 269.129 322.741 269.228 323.37 269.338C334.03 271.314 344.591 273.764 355.02 276.743C368.76 280.661 382.201 285.373 395.058 291.686C403.964 296.056 412.472 301.044 419.899 307.699C426.477 313.592 431.829 320.291 433.286 329.373V334.946C432.767 337.595 432.006 340.166 430.748 342.561C428.055 347.714 424.071 351.742 419.513 355.241C412.781 360.405 405.244 364.113 397.409 367.236C387.487 371.198 377.235 374.035 366.806 376.264C365.383 376.573 364.08 377.345 362.535 377.169C359.589 376.815 356.664 377.125 353.729 377.412C348.321 377.941 342.925 378.515 337.495 378.824C332.927 379.089 328.358 379.321 323.789 379.255C318.514 379.166 313.239 379.045 307.964 379.155C300.614 379.31 293.253 379.619 285.914 379.266C279.9 378.979 273.973 379.564 268.058 380.413C265.178 380.822 262.397 381.804 259.506 382.113C257.762 382.3 256.007 382.422 254.264 382.565H245.049C244.001 382.466 242.952 382.333 241.904 382.267C235.172 381.826 228.462 381.087 221.785 380.182C210.948 378.714 200.222 376.562 189.429 374.807C184.794 374.057 180.17 373.119 175.446 373.185C170.889 373.24 166.463 372.445 162.148 371.11C149.225 367.115 138.234 360.052 129.174 350.021C125.896 346.39 123.192 342.351 121.426 337.749C119.848 333.633 119.616 329.505 121.084 325.268C122.618 320.831 125.223 317.145 128.412 313.801C134.636 307.279 142.008 302.258 149.755 297.777C165.658 288.574 182.487 281.444 200.078 276.191C216.588 271.269 233.34 267.429 250.523 265.752C251.085 265.696 251.538 265.564 251.439 264.836C251.406 264.549 251.416 264.218 251.77 264.129C252.123 264.041 252.31 264.339 252.388 264.604C252.63 265.553 253.326 265.63 254.109 265.531C256.405 265.255 258.711 265.443 261.007 265.332C261.249 265.321 261.68 265.156 261.669 265.597C261.669 265.906 261.26 265.818 261.018 265.829C259.009 265.961 257.001 266.072 254.992 266.215C254.44 266.259 253.657 265.983 253.414 266.568C253.171 267.142 253.811 267.661 254.164 268.136C256.614 271.523 260.068 273.455 263.931 274.735C270.497 276.92 277.185 276.997 283.917 275.618C289.512 274.47 294.688 272.362 299.047 268.555C300.801 267.032 302.28 265.277 303.174 263.103L303.163 263.136ZM241.164 267.926C244.574 267.893 247.984 267.749 251.394 268.18C251.77 268.224 252.487 268.555 252.509 268.003C252.531 267.462 252.222 266.712 251.417 266.623C251.041 266.579 250.644 266.612 250.269 266.657C247.234 267.065 244.199 267.495 241.164 267.915V267.926Z" fill="#150050"/>
<path d="M373.185 393.502C365.747 391.284 358.783 387.752 351.334 385.523C345.816 383.868 340.276 382.345 334.626 381.263C330.576 380.48 326.493 379.895 322.388 379.531C319.827 379.31 317.256 379.067 314.673 379.089C312.51 379.111 310.347 378.824 308.184 378.935C304.631 379.111 301.077 379.31 297.524 379.498C297.392 379.498 297.27 379.498 297.138 379.498C296.729 379.498 296.244 379.553 296.21 378.946C296.188 378.449 296.531 378.239 296.983 378.14C298.892 377.71 300.724 377.059 302.369 375.999C305.768 373.836 308.195 371 309.078 366.895C310.138 361.973 308.449 357.956 305.414 354.281C304.907 353.663 304.355 353.089 303.836 352.482C303.671 352.294 303.45 352.063 303.572 351.809C303.704 351.533 304.024 351.665 304.267 351.698C307.401 352.151 310.314 351.478 312.875 349.679C314.552 348.498 315.755 346.799 317.123 345.287C319.827 342.307 322.939 340.199 327.088 339.923C331.591 339.625 335.421 341.027 338.511 344.305C340.243 346.148 341.468 348.377 342.881 350.451C346.545 355.815 351.411 359.578 357.558 361.697C360.869 362.834 364.29 363.617 367.623 364.699C373.097 366.475 378.096 369.058 381.881 373.549C383.525 375.503 384.673 377.732 385.037 380.303C385.059 380.491 385.037 380.689 385.236 380.811V383.117C384.762 383.195 384.894 383.57 384.861 383.868C384.475 387.609 382.687 390.423 379.409 392.299C378.405 392.873 377.257 393.005 376.231 393.491H373.163L373.185 393.502Z" fill="#FA9BFA"/>
<path d="M230.769 415.396H220.229C219.556 415.099 218.817 415.043 218.11 415.032C216.201 414.977 214.325 414.591 212.449 414.337C210.032 414.006 207.649 413.498 205.265 412.936C201.976 412.163 198.754 411.225 195.564 410.132C191.283 408.654 187.166 406.811 183.182 404.648C178.007 401.823 173.272 398.401 169.012 394.34C167.28 392.685 165.592 390.996 164.013 389.187C161.906 386.759 159.831 384.309 158.12 381.572C157.701 380.899 157.392 380.755 156.829 381.296C156.531 381.583 156.178 381.804 155.825 381.473C155.416 381.097 155.703 380.755 155.979 380.391C157.282 378.67 158.981 377.367 160.592 375.977C163.87 373.119 167.478 370.724 171.275 368.638C175.932 366.078 180.887 364.29 186.052 363.054C189.053 362.337 192.099 361.84 195.167 361.708C199.427 361.509 203.698 361.608 207.913 362.469C214.248 363.771 220.163 366.089 225.494 369.797C228.617 371.971 231.376 374.575 233.826 377.489C234.212 377.952 234.543 377.974 235.039 377.643C238.185 375.568 241.54 373.924 245.115 372.688C250.666 370.768 256.36 370.15 262.11 371.143C268.423 372.236 273.94 375.028 278.068 380.148C279.833 382.344 281.246 384.728 282.261 387.366C282.758 388.657 282.901 390.058 283.619 391.316C283.95 390.952 284.148 390.445 284.722 390.72C285.263 390.974 285.241 391.482 285.197 391.968C285.175 392.188 285.109 392.409 284.998 392.597C284.38 393.689 283.906 394.782 284.027 396.106C284.104 396.956 283.431 397.287 282.714 396.834C282.283 396.558 282.107 396.757 281.831 397C279.823 398.766 277.704 400.388 275.486 401.889C272.892 403.654 270.1 405.023 267.319 406.435C265.277 407.473 263.114 408.245 260.995 409.106C258.248 410.221 255.434 411.115 252.586 411.887C249.033 412.858 245.446 413.686 241.793 414.182C239.531 414.491 237.257 414.745 234.995 415.021C233.572 415.01 232.17 415.087 230.78 415.408L230.769 415.396Z" fill="#5F82FA"/>
<path d="M286.83 250.832C285.925 250.401 284.899 250.28 284.104 249.562C282.901 248.47 282.615 246.958 282.272 245.535C281.588 242.654 281.721 239.685 281.886 236.772C282.052 233.958 282.592 231.177 283.067 228.396C283.475 225.99 283.784 223.573 284.137 221.156C284.226 220.55 284.005 220.307 283.354 220.307C281.665 220.307 279.977 220.461 278.299 220.13C277.99 220.064 277.472 220.307 277.483 219.755C277.483 219.148 278.046 219.369 278.377 219.369C279.977 219.346 281.566 219.402 283.166 219.347C287.261 219.192 291.244 218.486 294.897 216.544C298.881 214.425 301.784 211.279 303.494 207.053C304.675 204.139 305.227 201.127 305.47 197.981C305.745 194.362 305.425 190.819 304.885 187.255C304.807 186.758 304.841 186.228 304.863 185.721C304.918 184.628 305.845 184.573 306.584 184.44C308.504 184.087 310.458 184.187 312.345 184.639C313.57 184.937 314.596 185.555 315.115 186.99C316.274 190.168 317.267 193.391 317.94 196.69C319.088 202.252 320.842 207.66 321.946 213.244C322.74 217.261 323.877 221.212 325.069 225.129C325.842 227.646 326.78 230.129 327.078 232.777C327.254 233.815 327.21 234.841 327.111 235.889C326.868 238.284 325.831 240.204 323.943 241.628C321.24 243.658 318.128 244.872 314.916 245.833C311.396 246.892 307.787 247.631 304.2 248.481C300.691 249.32 297.16 250.081 293.562 250.479C292.668 250.578 291.719 250.379 290.869 250.809H286.841L286.83 250.832Z" fill="#FFF6E8"/>
<path d="M245.06 183.657C246.064 184.849 245.623 186.217 245.413 187.497C245.237 188.59 245.181 189.682 245.071 190.775C244.696 194.792 244.883 198.798 245.865 202.705C246.87 206.678 248.702 210.253 251.858 213.012C254.032 214.91 256.559 216.146 259.263 217.051C263.313 218.409 267.507 218.464 271.711 218.398C272.031 218.398 272.351 218.398 272.671 218.409C272.892 218.42 273.013 218.552 273.013 218.784C273.013 219.016 272.881 219.148 272.66 219.148C270.917 219.148 269.184 219.6 267.429 219.236C266.436 219.027 266.204 219.236 266.359 220.251C266.889 223.761 267.474 227.27 268.003 230.78C268.456 233.781 268.985 236.816 268.809 239.884C268.665 242.356 268.389 244.828 267.407 247.146C266.535 249.187 264.737 249.827 262.739 249.86C258.468 249.916 254.264 249.353 250.114 248.371C246.141 247.421 242.124 246.616 238.163 245.612C234.488 244.685 230.89 243.504 227.645 241.451C225.195 239.906 223.739 237.798 223.374 234.83C223.054 232.17 223.75 229.709 224.5 227.27C225.813 222.988 227.127 218.696 228.12 214.325C229.356 208.874 230.713 203.455 232.104 198.037C232.799 195.333 233.34 192.585 234.134 189.903C234.487 188.711 234.885 187.542 235.382 186.405C235.492 186.151 235.481 185.71 235.989 185.897C236.121 185.952 236.242 185.831 236.242 185.688C236.176 184.021 237.6 184.396 238.483 184.087C238.88 183.944 239.354 183.977 239.718 183.679H245.082L245.06 183.657Z" fill="#FFF6E8"/>
<path d="M290.858 250.832C291.708 250.401 292.657 250.6 293.551 250.501C297.149 250.103 300.68 249.342 304.189 248.503C307.765 247.653 311.374 246.914 314.905 245.854C318.117 244.894 321.229 243.681 323.932 241.65C325.831 240.226 326.857 238.306 327.1 235.911C327.21 234.852 327.243 233.837 327.067 232.799H327.442C327.442 238.593 327.442 244.376 327.453 250.17C327.453 250.743 327.343 250.854 326.769 250.854C314.795 250.832 302.821 250.843 290.847 250.843L290.858 250.832Z" fill="#FFF6E8"/>
<path d="M233.892 184.816H235.613C236.397 185.257 236.717 186.019 236.904 186.824C237.953 191.338 238.736 195.896 239.09 200.531C240.005 212.659 238.714 224.534 235.227 236.165C234.995 236.927 235.073 237.191 235.889 237.379C245.534 239.575 254.937 242.555 264.207 245.976C265.233 246.362 265.255 246.351 265.189 245.237C264.946 241.407 264.693 237.589 264.03 233.803C263.258 229.367 263.556 225.129 265.222 220.836C268.368 212.692 270.254 204.217 270.839 195.487C270.861 195.112 270.751 194.627 271.204 194.483C271.722 194.318 272.02 194.77 272.274 195.123C273.036 196.171 273.367 197.419 273.356 198.655C273.322 200.696 274.481 202.23 275.177 204.029C276.104 202.153 277.108 200.398 277.075 198.268C277.064 197.617 277.328 196.955 277.516 196.315C277.671 195.796 277.913 195.3 278.3 194.902C278.542 194.66 278.785 194.329 279.194 194.494C279.547 194.638 279.503 195.002 279.536 195.322C279.69 197.01 279.823 198.699 280.032 200.376C280.915 207.582 282.714 214.568 285.307 221.322C286.676 224.887 287.172 228.451 286.554 232.203C285.848 236.485 285.44 240.811 285.208 245.148C285.186 245.468 284.546 246.572 285.859 246.086C295.306 242.588 304.896 239.553 314.729 237.313C315.313 237.18 315.413 236.982 315.236 236.408C312.797 228.584 311.462 220.561 311.087 212.383C310.689 203.753 311.407 195.201 313.482 186.791C313.669 186.008 313.989 185.29 314.684 184.805H316.219C316.395 185.147 316.726 185.003 316.991 185.025C320.081 185.29 323.16 185.643 326.195 186.272C349.58 191.139 370.183 201.645 388.161 217.272C396.338 224.379 403.423 232.402 406.966 242.952C407.032 243.327 407.12 243.703 407.153 244.078C407.186 244.409 407.01 244.784 406.701 244.453C406.259 243.968 406.138 244.332 405.928 244.574C403.346 247.521 400.399 250.07 397.21 252.333C389.054 258.093 380.027 262.011 370.559 264.991C357.768 269.008 344.646 271.104 331.26 271.546C319.573 271.932 308.008 271.038 296.663 268.092C289.093 266.127 281.864 263.379 275.618 258.491C275.232 258.193 275.033 258.325 274.724 258.568C270.663 261.768 266.072 263.997 261.249 265.763C251.284 269.427 240.911 270.972 230.371 271.491C218.861 272.054 207.439 271.148 196.127 269.03C184.132 266.778 172.555 263.236 161.707 257.53C155.251 254.131 149.27 250.048 144.436 244.497C144.193 244.21 144.05 244.067 143.73 244.464C143.465 244.795 143.288 244.519 143.288 244.21C143.288 243.956 143.354 243.703 143.421 243.46C144.48 239.244 146.566 235.514 148.983 231.95C153.11 225.869 158.197 220.66 163.77 215.926C176.296 205.276 190.378 197.264 205.751 191.514C213.829 188.491 222.106 186.261 230.702 185.301C231.784 185.18 232.91 185.301 233.936 184.816H233.892Z" fill="#EF6051"/>
<path d="M311.595 161.751C310.116 161.387 308.604 161.133 307.18 160.515C303.406 158.882 300.912 155.957 299.069 152.415C296.575 147.592 295.25 142.394 294.323 137.075C293.573 132.749 293.12 128.401 293.198 124.009C293.308 117.52 293.452 111.031 295.074 104.674C297.358 95.735 301.221 87.657 307.864 81.1239C310.436 78.5967 313.371 76.5439 316.902 75.5176C318.227 75.1314 319.562 74.8666 320.964 75.0321C324.12 75.4184 325.93 77.2834 326.736 80.2631C327.42 82.8013 327.353 85.3836 327.088 87.977C327.066 88.1536 326.945 88.341 327.199 88.5948C327.629 88.0541 328.049 87.5023 328.501 86.9726C332.551 82.2603 337.076 78.0998 342.539 75.065C346.556 72.8358 350.76 71.28 355.484 71.4676C360.251 71.6552 363.44 74.6458 363.804 79.4133C364.124 83.5296 363.021 87.337 361.332 91.0008C358.529 97.0815 354.413 102.169 349.535 106.694C349.425 106.804 349.27 106.881 349.293 107.124C349.712 107.312 350.142 107.091 350.562 107.069C353.894 106.892 357.128 107.256 360.141 108.846C363.231 110.468 365.328 112.841 365.912 116.383C365.935 116.538 366.023 116.681 366.078 116.835V118.943C365.736 120.698 365.294 122.42 364.5 124.053C362.238 128.743 358.706 132.363 354.667 135.508C350.22 138.973 345.298 141.589 339.989 143.487C336.403 144.767 332.761 145.848 328.921 146.025C328.181 146.058 328.126 146.478 328.115 147.04C327.949 152.338 325.411 156.31 321.251 159.378C319.397 160.736 317.256 161.332 315.06 161.773H311.606L311.595 161.751Z" fill="#FFBF7B"/>
<path d="M238.681 131.8C237.611 133.003 236.574 134.239 235.47 135.409C231.354 139.801 226.95 143.818 221.212 146.014C219.049 146.842 216.797 147.283 214.458 146.985C210.452 146.478 207.869 143.641 207.627 139.58C207.373 135.431 208.487 131.601 210.165 127.882C211.357 125.256 212.758 122.751 214.546 120.268C213.884 120.323 213.509 120.632 213.101 120.808C210.938 121.735 208.752 122.508 206.347 122.243C203.599 121.945 201.921 120.289 200.928 117.828C199.935 115.379 199.924 112.796 200.299 110.258C201.06 104.961 203.543 100.381 206.656 96.1323C210.562 90.791 215.308 86.3877 221.267 83.408C224.743 81.6754 228.396 80.8036 232.314 81.4768C237.445 82.3596 240.811 86.2774 240.877 91.4973C240.9 93.4286 240.756 95.3267 240.237 97.2027C240.171 97.4345 239.972 97.7547 240.215 97.9202C240.513 98.1189 240.723 97.7657 240.922 97.5891C243.184 95.5585 245.512 93.6162 248.316 92.3361C250.434 91.3649 252.63 90.9014 254.937 91.4863C257.641 92.1705 259.439 93.9693 260.631 96.3971C261.834 98.836 262.143 101.463 262.011 104.144C261.492 114.043 257.442 122.541 251.549 130.266C249.651 132.76 247.389 134.945 244.839 136.799C244.221 137.252 243.526 137.605 242.831 137.903C240.458 138.918 238.681 137.77 238.538 135.188C238.483 134.073 238.692 132.981 238.703 131.811L238.681 131.8Z" fill="#FFBF7B"/>
<path d="M274.934 132.33C274.007 134.36 273.035 136.115 271.755 137.671C268.422 141.765 264.13 143.851 258.832 143.884C257.861 143.884 257.21 143.641 256.945 142.571C256.658 141.401 255.853 140.551 254.771 140.033C254.186 139.757 253.999 139.348 254.032 138.741C254.308 132.418 256.272 126.701 260.201 121.724C262.993 118.182 266.491 115.643 270.961 114.65C276.048 113.514 280.628 114.75 284.557 118.094C289.688 122.464 291.94 128.291 292.646 134.846C292.955 137.704 292.79 140.529 292.26 143.332C292.05 144.436 291.631 144.69 290.516 144.579C283.166 143.818 278.244 139.845 275.364 133.157C275.276 132.959 275.165 132.76 274.956 132.33H274.934Z" fill="#FFBF7B"/>
<path d="M259.296 119.329C260.863 120.157 261.349 121.173 261.051 123.004C260.742 124.881 259.859 126.425 258.281 127.507C257.453 128.07 256.537 128.324 255.588 127.827C254.628 127.319 254.33 126.425 254.352 125.41C254.418 122.795 255.577 120.852 257.917 119.65C258.071 119.572 258.314 119.605 258.336 119.341H259.296V119.329Z" fill="#190552"/>
<path d="M291.951 131.005C290.649 130.09 289.81 128.864 289.567 127.264C289.412 126.227 289.468 125.223 290.042 124.307C290.759 123.159 291.962 122.938 293.065 123.744C293.981 124.406 294.478 125.355 294.798 126.414C294.886 126.679 294.732 127.099 295.195 127.176V128.71C294.986 128.655 294.82 128.677 294.809 128.953C294.765 129.979 294.114 130.564 293.286 131.005H291.951Z" fill="#190552"/>
<path d="M300.47 349.149C300.338 348.476 299.676 348.608 299.267 348.366C296.387 346.677 293.507 344.989 290.605 343.355C287.526 341.623 284.446 339.879 281.312 338.257C277.792 336.436 274.227 334.692 270.641 332.993C266.613 331.073 262.497 329.351 258.358 327.685C255.08 326.371 251.781 325.146 248.437 324.043C243.824 322.509 239.189 321.074 234.454 319.893C230.261 318.845 226.067 317.83 221.83 317.013C218.309 316.34 214.778 315.788 211.224 315.313C208.432 314.938 205.629 314.618 202.826 314.265C201.127 314.044 199.405 313.912 197.705 313.868C195.763 313.813 193.821 313.691 191.879 313.592C189.009 313.459 186.14 313.36 183.271 313.459C179.441 313.592 175.601 313.691 171.782 314.166C169.443 314.453 167.137 314.828 164.841 315.336C164.19 315.479 163.671 315.203 163.12 314.982V314.596C164.642 313.371 166.541 313.184 168.339 312.797C169.94 312.455 171.595 312.29 173.239 312.124C178.989 311.55 184.749 311.34 190.521 311.55C194.362 311.694 198.202 311.903 202.032 312.245C205.166 312.532 208.289 312.863 211.401 313.272C215.396 313.79 219.369 314.431 223.32 315.225C228.451 316.251 233.55 317.454 238.593 318.856C242.08 319.827 245.535 320.897 248.978 322.056C255.345 324.197 261.614 326.592 267.716 329.384C270.155 330.499 272.583 331.613 275.011 332.761C275.397 332.948 275.662 332.949 276.048 332.695C281.654 328.876 287.89 326.393 294.18 324.021C298.175 322.509 302.225 321.173 306.342 320.07C311.032 318.812 315.766 317.719 320.533 316.759C324.539 315.953 328.589 315.368 332.651 314.828C334.814 314.541 337.01 314.364 339.184 314.177C343.146 313.835 347.108 313.592 351.069 313.393C356.433 313.128 361.796 313.239 367.159 313.294C370.36 313.327 373.571 313.669 376.772 313.846C378.857 313.967 380.921 314.398 383.007 314.53C384.949 314.662 386.858 314.949 388.779 315.17C390.324 315.346 391.857 315.578 393.347 316.097C393.888 316.285 394.396 316.583 394.263 317.245C394.131 317.896 393.546 317.907 393.027 317.841C390.39 317.521 387.73 317.322 385.093 316.947C382.83 316.627 380.535 316.56 378.272 316.307C374.697 315.898 371.11 315.887 367.535 315.567C367.281 315.545 367.027 315.556 366.773 315.556C361.752 315.556 356.731 315.435 351.72 315.589C348.046 315.711 344.36 315.898 340.685 316.273C338.157 316.527 335.641 316.814 333.114 317.101C329.616 317.498 326.139 318.061 322.674 318.679C318.801 319.374 314.938 320.169 311.142 321.162C307.423 322.133 303.704 323.149 300.062 324.374C293.683 326.504 287.404 328.865 281.445 332.021C280.518 332.507 279.624 333.059 278.708 333.577C278.101 333.92 278.2 334.251 278.73 334.538C279.536 334.979 280.341 335.42 281.18 335.818C284.612 337.44 287.857 339.404 291.201 341.181C294.169 342.759 296.983 344.602 299.863 346.335C300.128 346.5 300.338 346.765 300.592 346.953C301.46 347.608 301.633 348.34 301.111 349.149H300.537H300.47Z" fill="#FFF6E8"/>
<path d="M273.996 139.69C273.819 140.043 274.172 140.021 274.316 140.11C276.092 141.191 277.869 142.251 279.646 143.321C280.076 143.575 280.452 143.873 280.385 144.436C280.319 144.965 279.9 145.131 279.458 145.285C277.836 145.848 276.214 146.444 274.592 147.007C274.172 147.15 273.642 147.349 273.422 146.797C273.201 146.245 273.742 146.025 274.139 145.837C275.342 145.274 276.567 144.745 277.924 144.149C276.832 143.365 275.839 142.659 274.845 141.942C274.536 141.721 274.238 141.478 273.918 141.268C273.311 140.871 272.98 140.408 273.433 139.69H274.007H273.996Z" fill="#150050"/>
<path d="M273.72 154.478C274.592 152.106 275.949 150.296 277.936 148.982C278.41 148.673 278.929 148.386 279.458 148.199C281.776 147.36 283.431 148.651 283.244 151.101C283.122 152.668 282.56 154.092 281.798 155.427C280.187 158.285 277.924 160.559 275.353 162.567C274.349 163.351 273.4 163.395 272.274 162.777C268.654 160.791 265.962 158.032 264.737 154.015C264.439 153.032 264.317 152.028 264.505 150.98C264.913 148.695 266.723 147.713 268.853 148.662C270.343 149.324 271.402 150.461 272.241 151.818C272.738 152.624 273.168 153.485 273.731 154.478H273.72Z" fill="#150050"/>
<path d="M276.81 235.227C276.81 242.775 276.821 250.324 276.788 257.883C276.788 258.689 277.042 259.141 277.715 259.561C283.177 263.004 289.049 265.432 295.339 266.866C295.924 266.999 296.84 266.966 296.674 267.871C296.498 268.809 295.648 268.511 295.008 268.378C288.497 266.999 282.46 264.472 276.865 260.874C276.258 260.488 275.894 260.521 275.287 260.896C271.193 263.434 266.789 265.299 262.165 266.668C260.698 267.098 259.23 267.562 257.674 267.54C257.299 267.54 256.824 267.573 256.725 267.109C256.615 266.612 257.1 266.48 257.442 266.359C260.201 265.343 262.982 264.383 265.719 263.324C268.379 262.298 270.95 261.106 273.444 259.715C274.294 259.241 274.625 258.612 274.636 257.574C274.724 243.471 274.735 229.356 275.044 215.252C275.077 214.005 275.199 212.769 275.309 211.522C275.342 211.092 275.331 210.529 275.949 210.529C276.589 210.529 276.534 211.136 276.578 211.544C276.81 213.608 276.843 215.693 276.854 217.768C276.876 223.595 276.854 229.411 276.854 235.238H276.821L276.81 235.227Z" fill="#150050"/>
<path d="M271.049 196.602C270.597 200.475 270.1 204.172 269.206 207.803C268.533 210.529 267.827 213.255 267.109 215.981C266.999 216.389 266.944 217.051 266.403 216.93C265.873 216.808 266.083 216.157 266.149 215.749C266.69 212.46 267.584 209.26 268.246 206.004C268.897 202.782 269.405 199.526 269.747 196.249C269.912 194.637 270.674 194.339 271.954 195.322C273.024 196.149 273.631 197.297 273.72 198.61C273.863 200.597 273.907 202.561 275.188 204.249C275.408 204.536 275.452 204.956 275.607 205.43C276.037 204.437 276.368 203.499 277.152 202.848C277.979 202.164 278.487 202.285 278.675 203.323C279.845 209.525 281.61 215.572 283.398 221.609C284.237 224.456 284.435 227.281 284.049 230.228C283.475 234.664 283.111 239.134 282.626 243.581C282.57 244.067 282.659 244.894 281.941 244.839C281.213 244.795 281.423 243.989 281.434 243.493C281.555 238.847 282.118 234.245 282.714 229.643C283.067 226.884 282.891 224.257 282.107 221.598C280.606 216.51 279.116 211.412 278.156 206.181C278.024 205.463 277.957 204.735 277.836 203.819C276.688 205.011 276.258 206.402 275.761 207.759C275.651 208.046 275.717 208.52 275.375 208.554C274.912 208.609 274.945 208.068 274.834 207.77C274.481 206.777 274.194 205.761 273.852 204.768C273.731 204.415 273.664 204.029 273.344 203.797C273.124 203.797 273.146 203.963 273.146 204.062C272.87 209.878 271.766 215.55 270.321 221.167C269.051 226.111 269.162 231.111 269.46 236.143C269.592 238.471 269.537 240.811 269.57 243.15C269.57 243.415 269.67 243.824 269.294 243.857C268.941 243.89 268.908 243.46 268.864 243.206C268.566 241.661 268.555 240.083 268.467 238.527C268.323 235.999 268.246 233.472 268.102 230.956C267.86 226.685 268.621 222.547 269.614 218.43C270.784 213.564 271.568 208.653 271.822 203.653C271.855 203.002 271.755 202.285 272.384 201.8C272.462 201.744 272.462 201.557 272.451 201.446C272.362 200.332 272.373 199.206 272.042 198.125C271.877 197.573 271.645 197.054 271.027 196.635L271.049 196.602Z" fill="#150050"/>
<path d="M347.913 234.94C339.438 235.072 330.995 235.558 322.685 237.39C322.222 237.489 321.758 237.622 321.284 237.732C320.732 237.853 320.224 237.765 320.048 237.158C319.871 236.54 320.268 236.187 320.798 236.01C322.586 235.414 324.44 235.061 326.305 234.763C336.822 233.053 347.405 232.733 358.022 233.141C358.684 233.163 359.357 233.285 360.019 233.395C360.472 233.472 360.781 233.726 360.748 234.245C360.714 234.741 360.328 234.73 359.986 234.797C358.717 235.006 357.437 234.951 356.157 234.951C353.409 234.951 350.661 234.951 347.913 234.951V234.94Z" fill="#150050"/>
<path d="M228.495 237.136C225.902 236.761 223.319 236.363 220.726 236.01C211.809 234.785 202.859 234.289 193.865 234.962C193.17 235.017 192.463 235.105 191.768 235.172C191.283 235.216 190.841 235.105 190.742 234.553C190.665 234.046 191.051 233.803 191.459 233.671C192.971 233.207 194.538 233.097 196.094 232.998C206.744 232.346 217.294 233.251 227.767 235.127C228.296 235.227 228.815 235.403 229.323 235.58C229.764 235.734 230.162 236.01 230.073 236.551C229.985 237.103 229.477 237.014 229.069 237.059C228.882 237.081 228.683 237.059 228.495 237.059V237.125V237.136Z" fill="#150050"/>
<path d="M279.116 196.701C278.299 197.805 278.024 198.952 277.615 200.045C277.439 200.519 277.384 201.358 276.743 201.226C275.96 201.071 276.335 200.277 276.423 199.758C276.721 197.97 277.251 196.271 278.608 194.957C278.94 194.637 279.293 194.35 279.8 194.505C280.33 194.671 280.496 195.101 280.584 195.609C281.732 202.153 283.475 208.587 284.645 215.131C284.733 215.627 285.142 216.334 284.413 216.543C283.707 216.742 283.608 215.947 283.475 215.462C282.438 211.93 281.776 208.31 280.937 204.735C280.319 202.119 279.756 199.504 279.138 196.701H279.116Z" fill="#150050"/>
<path d="M274.117 169.001C270.464 168.869 267.341 167.357 264.858 164.499C264.77 164.399 264.682 164.311 264.626 164.201C264.384 163.781 263.832 163.307 264.339 162.854C264.869 162.391 265.266 162.998 265.608 163.34C267.738 165.459 270.177 166.949 273.234 167.18C276.755 167.445 279.657 166.121 282.074 163.616C282.295 163.384 282.493 163.119 282.736 162.92C283.122 162.611 283.553 162.545 283.961 162.898C284.358 163.24 284.358 163.671 284.127 164.112C284.049 164.256 283.95 164.377 283.84 164.499C281.279 167.368 278.123 168.946 274.128 169.023L274.117 169.001Z" fill="#150050"/>
<path d="M252.586 145.683C252.62 144.943 252.697 144.369 252.973 143.851C253.138 143.553 253.37 143.321 253.745 143.431C254.098 143.542 254.209 143.807 254.142 144.182C253.767 146.389 254.595 148.033 256.504 149.159C256.967 149.435 257.221 149.843 256.923 150.362C256.603 150.914 256.096 150.925 255.599 150.627C253.635 149.49 252.752 147.702 252.586 145.672V145.683Z" fill="#150050"/>
<path d="M274.073 266.016C274.625 266.105 275.044 266.392 275.011 267.01C274.967 267.727 274.459 267.981 273.808 267.926C273.212 267.882 272.848 267.495 272.892 266.91C272.947 266.27 273.444 266.028 274.073 266.016Z" fill="#150050"/>
</svg>
