<svg width="550" height="550" viewBox="0 0 550 550" fill="none" xmlns="http://www.w3.org/2000/svg">
<path d="M275 550C426.878 550 550 426.878 550 275C550 123.122 426.878 0 275 0C123.122 0 0 123.122 0 275C0 426.878 123.122 550 275 550Z" fill="#FFF6E8"/>
<path d="M358.706 535.698C346.788 539.571 334.648 542.54 322.31 544.714C312.102 546.513 301.828 547.705 291.487 548.378C280.485 549.095 269.482 549.183 258.491 548.543C231.177 546.954 204.647 541.492 178.923 532.144C178.205 531.471 178.548 530.699 178.79 529.981C179.309 528.447 179.673 526.858 180.148 525.313C180.909 522.775 181.66 520.237 182.322 517.665C182.675 516.562 182.896 515.425 183.194 514.299C183.381 513.715 183.525 513.119 183.646 512.512C183.679 512.302 183.745 512.103 183.811 511.905C184.264 510.161 184.529 508.373 184.97 506.63C185.323 505.25 185.522 503.838 185.809 502.447C186.063 501.708 186.074 500.913 186.251 500.163C186.637 498.088 187.034 496.002 187.365 493.916C187.564 492.879 187.851 491.864 187.851 490.793C187.862 490.595 187.895 490.385 187.939 490.186C187.972 489.988 188.038 489.8 188.093 489.612C188.369 488.697 188.414 487.714 188.756 486.809C188.811 486.622 188.877 486.434 188.943 486.258C189.197 485.606 189.418 484.944 189.881 484.403C190.532 483.708 191.172 483.013 191.901 482.395C194.362 480.64 196.988 480.331 199.902 481.192C203.201 482.163 206.071 483.907 208.94 485.706C215.153 489.612 221.057 494.038 227.723 497.194C236.518 501.366 245.733 503.981 255.456 504.875C273.521 506.541 290.505 502.745 306.695 494.866C313.559 491.522 320.202 487.769 326.912 484.15C330.598 482.163 334.416 480.497 338.4 479.206C341.336 478.257 344.327 478.102 347.328 478.93C348.09 479.206 348.796 479.581 349.414 480.111C350.639 481.314 350.926 482.936 351.367 484.481C351.687 486.732 351.754 489.017 352.173 491.257C352.537 493.343 352.008 495.494 352.581 497.569C352.824 500.251 353.078 502.933 353.376 505.603C353.497 506.067 353.552 506.53 353.563 507.005C353.575 507.788 353.563 508.583 353.828 509.344C354.071 510.316 353.906 511.353 354.259 512.313C354.48 513.836 354.722 515.359 355.064 516.871C355.153 517.18 355.197 517.5 355.23 517.82C355.274 518.427 355.296 519.045 355.495 519.63C355.704 520.799 355.914 521.969 356.234 523.117C356.3 523.304 356.356 523.492 356.389 523.68C356.499 524.342 356.532 525.026 356.764 525.677C356.83 525.865 356.874 526.064 356.918 526.262C357.018 526.781 357.183 527.267 357.338 527.774C357.757 529.518 358.287 531.239 358.739 532.972C358.971 533.866 359.302 534.782 358.695 535.665L358.706 535.698Z" fill="#EF6051"/>
<path d="M192.673 457.454C192.673 454.717 192.673 451.98 192.673 449.244C191.503 447.434 192.199 445.414 192.033 443.483C192.055 443.097 192.055 442.721 192.066 442.335C192.066 441.585 192.088 440.834 192.033 440.084C192.033 437.524 192.077 434.952 191.945 432.392C191.415 428.254 191.603 424.071 191.283 419.9C190.676 411.932 189.97 403.986 188.91 396.073C188.722 394.672 188.116 393.634 186.78 393.083C186.582 393.005 186.383 392.895 186.228 392.752C183.712 390.445 181.075 389.827 178.161 392.056C177.885 392.266 177.51 392.365 177.157 392.432C176.583 392.531 175.943 392.619 175.711 391.891C175.524 391.295 176.009 390.964 176.44 390.71C177.311 390.202 178.26 389.86 179.154 389.386C180.412 388.724 180.578 388.106 179.618 386.914C175.789 382.212 173.14 376.893 171.749 370.978C171.021 367.888 170.69 364.732 170.514 361.576C170.304 357.713 170.822 357.117 174.575 357.514C180.402 358.143 186.251 358.088 192.044 357.823C215.65 356.72 237.49 350.418 255.798 334.737C266.966 325.158 275.243 313.393 280.728 299.698C281.964 296.619 283.133 293.529 284.094 290.351C284.281 289.733 284.48 288.982 285.23 288.927C286.036 288.861 286.201 289.678 286.444 290.229C288.408 294.644 290.494 298.981 292.999 303.119C305.238 323.37 323.028 336.315 345.496 343.146C352.758 345.353 360.207 346.578 367.723 347.461C370.327 347.77 370.415 348.057 369.974 350.694C369.08 356.091 367.049 361.079 364.401 365.824C362.889 368.539 362.734 371.618 362.083 374.554C361.763 376.01 363.054 376.463 364.114 376.948C364.765 377.246 365.902 377.169 365.438 378.394C364.997 379.586 363.992 379.873 362.988 379.255C361.145 378.118 360.704 379.144 360.207 380.678C358.552 385.821 356.83 390.942 354.965 396.007C353.884 398.932 353.795 402.077 353.376 405.134C352.206 413.686 351.224 422.261 350.529 430.869C350.209 432.911 350.176 434.985 349.966 437.038C349.436 438.583 349.811 440.183 349.624 441.75C349.602 441.993 349.558 442.236 349.491 442.479C348.995 445.127 349.491 447.853 348.873 450.491C348.774 451.583 348.829 452.687 348.818 453.779C348.818 454.154 348.818 454.519 348.785 454.894C348.763 455.269 348.708 455.644 348.609 456.008C348.167 458.9 348.609 461.824 348.41 464.727C348.399 465.389 348.388 466.04 348.244 466.691C347.681 469.693 348.134 472.706 348.024 475.718C347.979 476.976 348.355 478.323 347.384 479.437C344.448 478.742 341.535 478.819 338.676 479.757C334.361 481.17 330.267 483.057 326.25 485.198C316.483 490.418 306.96 496.124 296.498 499.92C290.682 502.028 284.734 503.595 278.62 504.621C273.146 505.537 267.661 505.934 262.11 505.89C254.518 505.824 247.135 504.566 239.84 502.513C230.371 499.843 221.94 495.141 213.862 489.668C211.004 487.736 208.068 485.915 205.144 484.084C202.925 482.693 200.464 481.898 197.915 481.336C196.525 481.027 195.201 481.358 193.92 481.898C193.192 482.207 192.508 482.605 191.791 482.958C191.073 482.252 191.194 481.38 191.327 480.53C191.592 478.82 191.614 477.087 191.614 475.365C191.614 474.482 191.559 473.6 191.614 472.706C191.614 472.33 191.636 471.955 191.669 471.58C192.221 469.66 192.033 467.695 192.022 465.753C191.989 464.539 192.077 463.325 192.044 462.111C192.044 461.869 192.033 461.626 192.033 461.383C192.022 461.14 192.022 460.897 192.011 460.655C192.088 459.562 191.834 458.414 192.64 457.465L192.673 457.454Z" fill="#FFBF7B"/>
<path d="M349.988 430.637C350.363 426.852 350.716 423.078 351.114 419.292C351.434 416.302 351.765 413.3 352.151 410.32C352.714 405.917 353.31 401.503 353.95 397.111C354.06 396.349 354.468 395.621 354.755 394.881C356.797 389.507 358.618 384.044 360.273 378.537C360.604 377.434 361.024 377.522 361.774 377.975C362.149 378.195 362.513 378.416 362.889 378.626C363.823 379.17 364.636 378.883 365.328 377.765C363.628 377.986 362.602 376.827 361.432 375.977C361.057 375.701 361.211 375.182 361.3 374.752C361.807 372.512 362.348 370.283 362.812 368.042C362.966 367.325 363.264 366.707 363.617 366.078C366.509 360.979 368.682 355.605 369.521 349.756C369.742 348.233 369.775 348.244 368.285 348.09C358.541 347.119 348.973 345.254 339.758 341.888C328.854 337.904 318.911 332.275 310.138 324.584C299.775 315.501 292.105 304.532 286.643 291.962C286.245 291.046 285.815 290.141 285.396 289.225C284.689 289.368 284.822 289.953 284.678 290.395C282.008 299.025 278.377 307.213 273.62 314.905C268.997 322.376 263.291 328.921 256.747 334.703C249.971 340.685 242.356 345.408 234.068 349.094C226.078 352.658 217.747 355.064 209.172 356.598C205.089 357.327 200.95 357.79 196.789 358.132C190.676 358.651 184.573 358.408 178.459 358.452C176.583 358.463 174.762 357.945 172.875 358.022C171.12 358.088 171.065 358.033 171.076 359.843C171.131 370.415 174.001 379.972 181.251 387.94C181.395 388.094 181.472 388.304 181.582 388.481C179.916 389.97 177.675 390.467 175.844 391.747C176.572 392.42 177.069 391.935 177.543 391.725C178.79 391.162 180.026 390.566 181.229 389.937C182.101 389.485 182.796 389.518 183.58 390.191C184.948 391.35 186.438 392.376 188.082 393.127C188.8 393.447 189.12 393.921 189.252 394.749C189.76 398.082 190.212 401.415 190.51 404.78C190.863 408.709 191.371 412.616 191.669 416.544C191.956 420.341 192.077 424.148 192.232 427.956C192.287 429.302 192.232 430.648 192.21 432.006C191.437 432.734 190.488 432.579 189.55 432.579C183.58 432.557 177.598 432.579 171.628 432.568C170.69 432.568 169.763 432.646 168.858 432.933C167.644 433.142 166.419 433.098 165.194 433.098C150.66 433.098 136.115 433.076 121.581 433.098C115.975 433.098 110.38 433.749 104.773 433.451C103.306 433.54 101.827 433.451 100.348 433.473C99.9507 433.44 99.5534 433.429 99.1561 433.429C97.6111 433.253 95.9779 433.849 94.5322 432.855C86.9727 432.855 79.4131 432.855 71.8647 432.855C71.0701 432.855 70.2867 432.811 69.4921 432.778C68.6644 431.895 69.1721 430.781 68.9845 429.787C69.1611 427.635 69.6134 425.494 69.4369 423.309C68.6313 421.632 69.2382 419.921 69.4148 418.266C69.779 414.922 70.1211 411.579 70.5957 408.246C71.324 403.644 72.0855 399.042 72.8249 394.44C74.701 385.038 76.6873 375.657 79.347 366.442C83.077 353.354 87.5795 340.53 93.0533 328.071C97.4565 318.05 102.346 308.284 107.919 298.859C114.695 287.371 122.265 276.435 130.807 266.193C137.395 258.292 144.359 250.765 151.973 243.802C162.369 234.311 173.46 225.78 185.522 218.541C193.92 213.498 202.672 209.128 211.765 205.453C219.093 202.396 226.619 199.968 234.311 198.015C245.093 195.057 256.118 193.644 267.231 192.783C273.367 192.806 279.502 192.783 285.638 192.783C286.157 192.783 286.687 192.728 287.206 192.806C288.751 193.302 290.34 193.203 291.929 193.247C306.827 194.726 321.35 197.915 335.454 202.981C341.965 205.32 348.3 208.09 354.546 211.037C360.141 213.939 365.681 216.963 371.055 220.263C371.232 220.395 371.364 220.561 371.474 220.748C371.497 220.859 371.519 220.958 371.541 221.068C374.686 223.209 377.853 225.328 380.965 227.502C392.509 235.547 403.07 244.74 412.792 254.893C422.106 264.615 430.56 275.066 438.153 286.201C438.395 286.554 438.693 286.863 438.958 287.194C439.62 287.614 439.83 288.364 440.205 288.982L440.183 288.949C440.514 289.126 440.415 289.567 440.691 289.788C440.856 289.953 441.011 290.119 441.077 290.351C443.571 294.467 446.076 298.583 448.548 302.7C449.839 304.852 451.098 307.026 452.367 309.189C453.205 309.487 453.459 310.27 453.801 310.965C455.931 315.247 458.083 319.518 460.235 323.789C460.633 324.573 460.842 325.378 460.908 326.228C462.542 330.112 464.164 334.008 465.808 337.882C468.17 343.411 470.134 349.083 472.165 354.733C472.264 354.998 472.408 355.241 472.529 355.495C474.438 359.49 476.027 363.573 476.458 368.031C477.495 372.523 478.731 376.959 480 381.396C480.431 381.76 480.044 382.356 480.376 382.742L480.342 382.764C480.883 386.24 481.733 389.65 482.593 393.061C483.068 395.864 483.532 398.667 484.028 401.47C484.403 403.567 484.812 405.663 485.198 407.76C485.639 408.444 485.121 409.294 485.573 409.978C485.529 410.1 485.54 410.221 485.606 410.342C485.606 411.225 485.452 412.141 485.982 412.947C486.026 415.573 486.434 418.145 486.92 420.716C486.898 423.21 487.35 425.671 487.604 428.143C487.692 428.96 487.538 429.357 486.688 429.434C485.915 429.512 485.143 429.644 484.359 429.754C482.693 429.412 481.137 430.063 479.526 430.317C471.635 430.659 463.744 430.483 455.843 430.439C447.378 430.383 438.903 430.439 430.439 430.405C429.854 430.405 429.302 430.516 428.739 430.67C428.463 430.737 428.187 430.781 427.9 430.792C411.954 431.134 396.007 430.714 380.06 430.836C378.913 430.836 377.754 430.747 376.65 431.156C370.051 431.586 363.44 431.244 356.83 431.355C355.318 431.377 353.817 431.377 352.306 431.355C351.434 431.332 350.573 431.288 349.888 430.637H349.988Z" fill="#5E85FE"/>
<path d="M361.862 409.835C357.768 410.056 355.252 407.826 353.343 404.736C351.842 402.309 351.224 399.561 350.915 396.747C350.165 389.993 351.268 383.426 353.067 376.959C355.164 369.422 358.419 362.37 362.701 355.826C366.299 350.319 370.382 345.21 376.176 341.788C379.001 340.122 381.981 338.996 385.38 339.471C389.01 339.99 391.328 342.164 392.873 345.298C393.833 347.24 394.363 349.348 394.716 351.478C395.334 355.197 395.179 358.938 394.683 362.646C393.557 371 390.953 378.891 387.09 386.362C383.846 392.663 379.95 398.534 374.719 403.379C372.081 405.829 369.256 408.058 365.747 409.206C364.434 409.636 363.109 409.923 361.862 409.824V409.835Z" fill="#FFBF7B"/>
<path d="M154.335 353.354C154.633 347.781 155.483 342.362 158.815 337.639C162.27 332.75 167.821 331.26 173.294 333.71C177.985 335.807 181.461 339.294 184.374 343.378C190.035 351.301 193.413 360.185 194.792 369.797C195.675 375.944 195.818 382.124 194.339 388.227C193.479 391.758 192.077 395.058 189.462 397.696C186.294 400.874 182.542 401.922 178.205 400.62C175.182 399.715 172.61 398.049 170.304 395.93C165.161 391.207 161.652 385.38 159.069 378.99C157.292 374.598 155.814 370.084 155.218 365.35C155.571 365.041 155.505 364.787 155.129 364.555C155.074 363.805 154.655 363.109 154.776 362.326C155.141 362.028 155.085 361.774 154.71 361.531C154.71 360.196 154.103 358.916 154.346 357.558C154.843 356.157 154.843 354.755 154.346 353.354H154.335Z" fill="#FFBF7B"/>
<path d="M154.335 353.354C154.831 354.755 154.831 356.157 154.335 357.559C153.772 356.157 153.772 354.755 154.335 353.354Z" fill="#FFBF7B"/>
<path d="M154.699 361.531C155.074 361.763 155.129 362.028 154.765 362.326C154.423 362.083 154.39 361.818 154.699 361.531Z" fill="#FFBF7B"/>
<path d="M155.118 364.555C155.494 364.776 155.56 365.041 155.207 365.35C154.854 365.118 154.809 364.864 155.118 364.555Z" fill="#FFBF7B"/>
<path d="M263.766 162.049C264.649 164.863 264.781 167.81 265.255 170.712C267.021 181.362 268.069 192.122 270.453 202.661C272.782 212.935 276.037 222.889 280.485 232.457C281.18 233.947 281.952 234.698 283.718 234.499C285.572 234.289 287.459 234.444 289.313 234.764C290.119 234.907 290.627 234.764 290.936 233.859C294.787 222.426 302.027 213.266 310.579 205.078C322.321 193.821 335.807 185.312 351.345 180.247C356.565 178.548 361.918 177.444 367.402 177.102C368.329 177.047 369.279 176.992 370.206 177.102C371.464 177.267 372.236 178.161 372.269 179.243C372.302 180.324 371.563 181.185 370.316 181.483C369.974 181.56 369.61 181.604 369.245 181.604C360.836 181.814 352.901 184.032 345.254 187.365C328.777 194.55 314.839 205.078 303.87 219.391C300.437 223.86 297.59 228.683 295.516 233.947C294.853 235.636 294.864 235.669 296.542 236.143C300.095 237.147 303.472 238.549 306.628 240.469C307.18 240.8 307.732 241.175 308.174 241.628C308.891 242.367 309.056 243.261 308.504 244.199C307.975 245.115 306.96 245.513 305.9 245.171C305.426 245.016 304.995 244.74 304.554 244.497C291.697 237.269 278.653 237.291 265.454 243.471C264.671 243.835 263.92 244.266 263.103 244.541C261.978 244.917 261.018 244.541 260.488 243.637C259.969 242.743 260.113 241.716 261.018 240.911C261.548 240.436 262.188 240.072 262.817 239.73C265.686 238.207 268.687 237.026 271.822 236.165C272.373 236.011 272.936 235.878 273.477 235.669C273.974 235.481 274.062 235.051 273.808 234.62C273.587 234.256 273.289 233.936 273.003 233.605C258.193 216.853 240.966 203.235 220.781 193.49C217.669 191.989 214.491 190.643 211.213 189.539C210.673 189.363 210.11 189.164 209.635 188.855C208.841 188.347 208.443 187.575 208.73 186.626C209.006 185.71 209.69 185.213 210.65 185.147C211.379 185.092 212.074 185.29 212.769 185.478C216.102 186.416 219.27 187.796 222.393 189.274C240.337 197.805 256.074 209.404 269.946 223.585C270.564 224.225 271.071 225.747 272.142 225.063C272.826 224.622 271.91 223.386 271.601 222.569C267.242 210.684 264.593 198.412 263.037 185.875C262.265 179.706 261.923 173.548 262.618 167.357C262.817 165.57 263.115 163.804 263.755 162.038L263.766 162.049Z" fill="#150050"/>
<path d="M154.666 185.081C151.366 185.279 148.232 184.683 145.286 183.149C140.838 180.832 138.465 177.058 137.825 172.213C136.733 163.848 140.474 157.668 146.853 152.702C152.735 148.122 162.998 149.016 167.975 152.845C168.935 153.585 169.818 154.412 170.955 155.394C171.142 153.673 171.319 152.15 171.462 150.638C171.727 147.857 172.533 145.264 174.243 143.046C176.804 139.735 180.401 138.521 184.374 138.852C194.582 139.713 201.888 145.087 206.17 154.225C208.818 159.875 208.432 165.558 204.195 170.58C203.179 171.783 201.711 172.456 200.464 173.769C203.19 174.133 205.563 174.817 207.627 176.34C212.162 179.684 214.391 184.065 213.487 189.771C212.217 197.706 208.035 203.588 200.829 207.163C195.145 209.977 189.075 208.874 184.529 204.471C183.878 203.842 183.37 203.036 182.288 202.462C182.046 203.974 182.101 205.32 181.902 206.622C181.085 212.196 178.238 216.345 173.107 218.574C165.337 221.951 157.69 221.675 150.539 216.775C146.334 213.895 143.862 209.867 143.498 204.724C143.288 201.734 144.061 198.864 145.341 196.172C147.438 191.757 150.792 188.447 154.71 185.643C155.052 185.577 155.461 185.489 155.306 185.048C155.185 184.717 154.876 184.827 154.666 185.059V185.081Z" fill="#FACF18"/>
<path d="M154.666 185.081C154.876 184.849 155.185 184.728 155.306 185.07C155.461 185.511 155.041 185.599 154.71 185.666C154.699 185.467 154.677 185.279 154.666 185.081Z" fill="#FACF18"/>
<path d="M316.307 154.71C316.053 155.251 316.428 155.659 316.605 156.112C318.735 161.707 320.467 167.424 321.24 173.383C322.421 182.576 320.346 190.72 313.095 197.01C308.869 200.685 303.858 202.859 298.44 204.04C287.735 206.369 277.229 205.574 267.076 201.447C259.616 198.423 253.734 193.534 250.379 185.997C247.896 180.435 247.554 174.586 248.194 168.637C248.558 165.271 249.298 161.961 250.379 158.749C250.512 158.341 250.699 157.944 250.467 157.469C249.64 157.425 249.265 158.142 248.746 158.573C244.773 161.839 240.381 164.212 235.216 164.83C227.502 165.746 220.947 163.086 215.694 157.613C208.885 150.528 206.556 142.063 209.514 132.528C211.324 126.691 215.307 122.497 220.516 119.44C222.889 118.05 225.405 116.99 228.01 116.129C228.683 115.909 229.367 115.677 230.162 115.412C229.201 114.739 228.197 114.628 227.27 114.297C222.448 112.565 218.122 110.082 214.811 106.065C211.059 101.507 209.536 96.1767 209.845 90.3719C210.551 77.2614 217.161 67.7596 228.219 61.1603C234.256 57.5516 240.811 55.5319 247.907 55.5319C260.013 55.5319 270.63 62.9812 274.735 74.4142C275.441 76.3675 275.905 78.4201 276.479 80.4176C276.567 80.7376 276.479 81.146 277.152 81.3667C277.516 79.3361 277.88 77.3276 278.222 75.3301C278.697 72.6264 279.348 69.9777 280.275 67.3954C283.718 57.7611 291.642 51.9565 301.872 51.6475C310.789 51.3716 318.9 54.0752 326.471 58.5889C331.547 61.6126 335.939 65.4089 339.14 70.4302C342.406 75.5618 343.852 81.0688 342.174 87.1053C341.203 90.5816 339.261 93.5059 336.767 96.0773C332.949 100.006 328.281 102.71 323.557 105.358C322.818 105.778 322.067 106.186 321.262 106.639C321.924 107.223 322.498 106.793 323.039 106.683C329.406 105.425 335.763 105.182 342.075 106.959C352.714 109.949 360.759 118.414 362.116 131.149C362.513 134.846 362.348 138.488 361.465 142.085C359.269 151.035 353.453 156.52 344.823 159.169C335.664 161.994 327.045 160.317 318.812 155.792C318.117 155.406 317.421 155.03 316.726 154.666C316.638 154.622 316.483 154.699 316.34 154.721L316.307 154.71Z" fill="#EF6051"/>
<path d="M429.92 199.416C429.81 200.266 430.273 200.928 430.593 201.646C433.937 209.106 431.951 217.614 424.877 222.382C421.588 224.6 417.99 225.759 414.073 226.233C406.226 227.193 399.152 225.108 392.729 220.771C388.768 218.1 385.766 214.546 384.872 209.624C384.287 206.413 384.243 203.213 385.269 200.056C385.578 199.107 385.865 198.158 386.207 197.066C385.313 196.823 384.817 197.375 384.232 197.717C381.219 199.516 377.93 200.608 374.454 200.641C368.241 200.696 363.573 197.794 360.549 192.42C357.812 187.553 357.305 182.322 358.066 176.793C358.916 170.547 361.388 165.084 365.262 160.239C368.098 156.708 371.541 153.883 376.154 153C380.656 152.139 384.993 152.658 389.088 154.854C391.195 155.991 393.105 157.359 394.705 159.158C395.058 159.555 395.356 160.129 396.106 160.129C396.415 159.025 395.852 158.01 395.709 156.984C395.19 153.43 394.959 149.877 394.892 146.29C394.738 139.051 399.009 134.692 405.398 132.882C411.634 131.116 417.726 131.944 423.718 134.206C427.437 135.608 430.582 137.76 433.253 140.662C435.857 143.487 437.248 146.886 437.181 150.627C437.115 154.203 435.537 157.425 433.352 160.284C432.006 162.049 430.637 163.815 428.717 165.029C428.474 165.183 428.331 165.448 428.408 165.79C428.938 166.199 429.346 165.702 429.765 165.537C433.231 164.124 436.828 163.429 440.503 164.124C445.271 165.018 448.592 168.042 450.877 172.169C454.717 179.122 454.773 186.35 451.605 193.501C449.343 198.611 444.586 202.308 438.748 201.977C436.133 201.822 433.716 200.906 431.344 199.88C430.88 199.681 430.461 199.383 429.931 199.394L429.832 199.207L429.754 199.284C429.754 199.284 429.931 199.383 429.942 199.383L429.92 199.416Z" fill="#FFBF7B"/>
<path d="M429.92 199.416L429.743 199.317L429.821 199.229L429.92 199.416Z" fill="#FFF6E8"/>
<path d="M291.2 144.569C291.057 144.569 290.913 144.569 290.77 144.569C290.638 144.414 290.483 144.282 290.328 144.138C290.196 143.984 290.042 143.862 289.898 143.708C289.755 143.708 289.611 143.708 289.468 143.708C289.335 143.553 289.181 143.421 289.026 143.277C288.894 143.123 288.739 143.002 288.596 142.847L287.735 142.406C287.603 142.251 287.448 142.119 287.305 141.975C287.172 141.821 287.018 141.699 286.874 141.545L285.583 140.673C285.451 140.519 285.296 140.386 285.153 140.243C285.009 140.099 284.866 139.945 284.722 139.812C284.579 139.658 284.435 139.514 284.292 139.382C284.159 139.227 284.005 139.095 283.862 138.951C282.394 137.815 281.103 136.524 279.966 135.056C279.823 134.923 279.69 134.758 279.535 134.625C279.403 134.471 279.26 134.327 279.105 134.195C278.962 134.041 278.818 133.897 278.675 133.765C278.531 133.61 278.388 133.467 278.244 133.334C278.101 133.191 277.969 133.036 277.814 132.904L276.942 131.613C276.799 131.48 276.666 131.315 276.512 131.182C276.368 131.039 276.236 130.873 276.081 130.752L275.209 129.461C275.055 129.328 274.934 129.163 274.779 129.03C274.636 128.887 274.503 128.732 274.349 128.589C274.349 128.445 274.349 128.302 274.349 128.158C274.205 128.015 274.073 127.861 273.918 127.728C273.775 127.585 273.642 127.419 273.488 127.287L273.047 126.426C272.892 126.293 272.782 126.117 272.616 125.996L272.186 125.135C272.031 125.002 271.921 124.826 271.755 124.704L271.325 123.843C271.17 123.711 271.06 123.534 270.895 123.413C270.895 123.27 270.895 123.126 270.895 122.983C270.74 122.85 270.63 122.674 270.464 122.552L270.034 121.692C269.879 121.559 269.769 121.383 269.603 121.261C269.603 121.118 269.603 120.974 269.603 120.831C269.449 120.698 269.339 120.522 269.173 120.4C269.173 120.257 269.173 120.113 269.173 119.97C269.018 119.837 268.908 119.661 268.743 119.54C268.743 119.396 268.743 119.253 268.743 119.109C268.588 118.977 268.478 118.8 268.312 118.679C268.312 118.535 268.312 118.392 268.312 118.248C268.158 118.116 268.047 117.939 267.882 117.818C267.882 117.675 267.882 117.531 267.882 117.388C267.727 117.255 267.617 117.079 267.451 116.957C267.451 116.814 267.451 116.67 267.451 116.527C267.297 116.394 267.187 116.218 267.021 116.096C267.021 115.953 267.021 115.809 267.021 115.666C266.867 115.534 266.756 115.357 266.591 115.225V114.364C266.436 114.231 266.315 114.055 266.16 113.933C266.16 113.79 266.16 113.646 266.16 113.503C266.006 113.371 265.895 113.194 265.73 113.073V112.212C265.575 112.079 265.454 111.903 265.299 111.781V110.921C265.145 110.788 265.024 110.612 264.869 110.49V109.629C264.604 109.398 264.714 108.989 264.439 108.769V107.908C264.174 107.676 264.284 107.268 264.008 107.047V105.756C263.622 105.403 263.986 104.807 263.578 104.465V99.2779C263.986 98.9358 263.622 98.3399 264.008 97.9868V97.126C264.174 97.0046 264.284 96.828 264.439 96.6955V95.8347C264.604 95.7023 264.737 95.5367 264.88 95.3933C265.035 95.2608 265.156 95.0954 265.31 94.963C265.31 94.8195 265.31 94.676 265.31 94.5326C265.465 94.4001 265.597 94.2456 265.741 94.1022C265.884 93.9587 266.028 93.8152 266.171 93.6718C266.315 93.5283 266.469 93.3958 266.602 93.2413L267.462 92.7999C267.595 92.6454 267.772 92.535 267.893 92.3695C268.036 92.3695 268.18 92.3695 268.323 92.3695C268.456 92.215 268.632 92.1046 268.754 91.9391H269.614C269.967 91.5528 270.564 91.9171 270.906 91.5088H273.058C273.4 91.9171 274.007 91.5528 274.36 91.9391H275.221C275.441 92.215 275.861 92.1157 276.081 92.3695H276.942C277.075 92.535 277.24 92.6454 277.384 92.7999C277.527 92.7999 277.671 92.7999 277.814 92.7999C278.035 93.0758 278.454 92.9654 278.675 93.2303C278.818 93.2303 278.962 93.2303 279.105 93.2303C279.238 93.3848 279.403 93.5062 279.546 93.6607C279.69 93.6607 279.834 93.6607 279.977 93.6607C280.109 93.8152 280.275 93.9366 280.407 94.0911C280.551 94.0911 280.694 94.0911 280.838 94.0911C280.97 94.2456 281.136 94.367 281.279 94.5215L282.14 94.9519C282.261 95.1175 282.438 95.2278 282.57 95.3824C282.714 95.3824 282.857 95.3824 283.001 95.3824C283.133 95.5369 283.288 95.6692 283.431 95.8126C283.564 95.9671 283.718 96.0996 283.862 96.243C284.005 96.243 284.148 96.243 284.292 96.243C284.424 96.3975 284.579 96.53 284.722 96.6734C284.855 96.8279 285.009 96.9604 285.153 97.1039C285.296 97.1039 285.44 97.1039 285.583 97.1039C285.716 97.2584 285.87 97.3908 286.025 97.5343C286.157 97.6888 286.322 97.8102 286.455 97.9647L287.746 98.8364C287.879 98.9909 288.033 99.1234 288.177 99.2668C288.32 99.4213 288.464 99.5648 288.607 99.6972C288.739 99.8517 288.894 99.9842 289.037 100.128L290.759 101.43C290.891 101.584 291.046 101.717 291.189 101.86C291.333 102.004 291.476 102.147 291.62 102.291C291.763 102.434 291.907 102.578 292.05 102.721C292.194 102.864 292.337 103.008 292.481 103.151C292.624 103.295 292.767 103.438 292.911 103.582C293.054 103.725 293.198 103.869 293.341 104.012C293.485 104.156 293.628 104.299 293.772 104.443C293.915 104.586 294.047 104.741 294.202 104.873L295.504 106.595C295.659 106.727 295.78 106.893 295.935 107.025C296.078 107.179 296.222 107.323 296.365 107.455C296.508 107.599 296.641 107.764 296.796 107.886L297.667 109.177C297.811 109.309 297.943 109.475 298.098 109.607C298.241 109.751 298.374 109.916 298.528 110.038L298.97 110.899C299.113 111.042 299.245 111.197 299.4 111.329C299.543 111.472 299.676 111.638 299.83 111.77L300.272 112.631C300.415 112.775 300.548 112.929 300.702 113.062C300.846 113.205 300.978 113.36 301.132 113.503C301.132 113.646 301.132 113.79 301.132 113.933C301.276 114.077 301.409 114.231 301.563 114.364C301.707 114.507 301.839 114.662 301.993 114.805C301.993 114.949 301.993 115.092 301.993 115.236C302.148 115.368 302.258 115.545 302.424 115.666L302.854 116.527C303.009 116.659 303.119 116.836 303.284 116.957C303.284 117.101 303.284 117.244 303.284 117.388C303.439 117.52 303.549 117.697 303.715 117.818L304.145 118.679C304.3 118.811 304.41 118.988 304.576 119.109C304.576 119.253 304.576 119.396 304.576 119.54C304.73 119.672 304.841 119.849 305.006 119.97C305.006 120.113 305.006 120.257 305.006 120.4C305.161 120.533 305.271 120.709 305.437 120.831C305.437 120.974 305.437 121.118 305.437 121.261C305.591 121.394 305.701 121.57 305.867 121.692C305.867 121.835 305.867 121.979 305.867 122.122C306.021 122.254 306.132 122.431 306.297 122.552C306.297 122.696 306.297 122.839 306.297 122.983C306.452 123.115 306.562 123.292 306.728 123.413C306.728 123.557 306.728 123.7 306.728 123.843C306.882 123.976 306.992 124.152 307.158 124.274C307.158 124.417 307.158 124.561 307.158 124.704C307.423 124.936 307.313 125.344 307.589 125.565V125.996C307.743 126.128 307.864 126.304 308.019 126.426C308.019 126.569 308.019 126.713 308.019 126.856C308.284 127.088 308.173 127.496 308.449 127.717C308.449 127.861 308.449 128.004 308.449 128.147C308.604 128.28 308.714 128.456 308.88 128.589V129.45C309.144 129.681 309.034 130.09 309.31 130.31C309.31 130.454 309.31 130.597 309.31 130.741C309.575 130.973 309.465 131.381 309.74 131.613V132.474C310.138 132.827 309.762 133.423 310.171 133.776V135.067C310.634 135.563 310.116 136.303 310.601 136.799V140.254C310.193 140.596 310.557 141.203 310.171 141.556V142.417C309.895 142.637 309.994 143.057 309.74 143.277C309.74 143.421 309.74 143.564 309.74 143.708C309.575 143.829 309.465 144.006 309.31 144.138C309.31 144.282 309.31 144.425 309.31 144.569C309.145 144.69 309.034 144.867 308.88 144.999C308.88 145.143 308.88 145.286 308.88 145.429C308.725 145.562 308.593 145.716 308.449 145.871C308.306 146.014 308.162 146.158 308.019 146.301C307.875 146.445 307.732 146.588 307.589 146.732C307.445 146.875 307.29 147.008 307.158 147.162C307.015 147.162 306.871 147.162 306.728 147.162C306.584 147.305 306.43 147.438 306.297 147.592C306.154 147.736 305.999 147.868 305.856 148.023H304.995C304.763 148.288 304.355 148.177 304.134 148.453H302.843C302.269 148.762 301.695 148.762 301.121 148.453H299.83C299.61 148.177 299.19 148.288 298.97 148.023H298.109C297.888 147.736 297.469 147.846 297.248 147.592C297.104 147.592 296.961 147.592 296.818 147.592C296.696 147.427 296.519 147.317 296.387 147.162H295.527C295.394 146.996 295.228 146.875 295.085 146.721C294.941 146.721 294.798 146.721 294.655 146.721C294.522 146.566 294.357 146.445 294.224 146.29C294.081 146.29 293.937 146.29 293.794 146.29C293.661 146.136 293.496 146.014 293.363 145.86C293.22 145.86 293.076 145.86 292.933 145.86C292.801 145.705 292.635 145.584 292.502 145.429L291.642 144.999C291.521 144.834 291.344 144.723 291.211 144.569H291.2Z" fill="#FFF6E8"/>
<path d="M173.99 196.392L172.533 196.37C172.191 196.238 171.782 196.26 171.507 195.951L171.54 195.973C171.352 195.874 171.231 195.697 171.043 195.598L171.021 195.576C170.723 195.311 170.403 195.046 170.193 194.693C170.028 194.527 169.862 194.351 169.818 194.108C169.873 193.976 169.829 193.876 169.708 193.821C169.52 193.556 169.597 193.192 169.344 192.96C168.979 192.552 169.233 191.967 168.957 191.537L168.88 190.808C168.582 189.517 168.604 188.226 168.88 186.924L168.946 185.699C169.343 185.147 168.946 184.441 169.31 183.889L169.41 183.216C169.653 182.752 169.41 182.156 169.818 181.737V181.759C170.171 181.384 169.851 180.799 170.227 180.435C170.624 180.093 170.26 179.486 170.679 179.143V179.165C170.9 178.912 170.833 178.537 171.043 178.283C171.176 178.217 171.197 178.117 171.142 177.985C171.308 177.665 171.242 177.245 171.595 177.003L171.573 177.036C171.76 176.749 171.694 176.34 172.025 176.131L172.003 176.164C172.202 175.888 172.114 175.468 172.478 175.281L172.445 175.325C172.478 175.104 172.665 174.983 172.765 174.817C172.897 174.784 172.941 174.696 172.886 174.575C172.908 174.299 173.074 174.122 173.272 173.957C173.526 173.747 173.416 173.272 173.813 173.151L173.769 173.195C173.791 172.941 173.978 172.798 174.166 172.665L174.144 172.688C174.243 172.511 174.42 172.379 174.519 172.202L174.541 172.169C174.85 172.003 174.718 171.518 175.104 171.407L175.06 171.452C175.104 171.187 175.27 171.043 175.513 170.966L175.469 171.01C175.546 170.767 175.7 170.613 175.943 170.536L175.899 170.58C175.976 170.337 176.13 170.171 176.384 170.116L176.34 170.16C176.451 169.785 176.936 169.918 177.091 169.598L177.135 169.564C177.323 169.487 177.444 169.311 177.62 169.2H177.598C177.808 168.924 178.227 169.024 178.437 168.748C178.713 168.505 179.099 168.549 179.386 168.351C179.518 168.417 179.629 168.406 179.739 168.295C180.313 168.019 180.887 168.019 181.461 168.295C181.549 168.406 181.648 168.428 181.781 168.361C182.079 168.549 182.531 168.45 182.708 168.858L182.653 168.814C182.907 168.869 183.05 169.035 183.149 169.255L183.116 169.222C183.337 169.322 183.502 169.465 183.569 169.708L183.524 169.664C183.889 169.818 183.778 170.271 184.054 170.48C184.297 170.734 184.231 171.12 184.463 171.374V171.352C184.86 171.727 184.551 172.323 184.882 172.721L184.959 173.504C185.213 175.226 185.246 176.958 184.948 178.68L184.882 179.452C184.496 180.004 184.915 180.722 184.496 181.273C184.385 181.373 184.374 181.494 184.451 181.615C184.131 182.024 184.419 182.609 184.054 183.006C183.933 183.072 183.911 183.171 183.999 183.282C183.856 183.613 183.867 183.999 183.646 184.297C183.525 184.374 183.491 184.474 183.569 184.595C183.414 184.915 183.436 185.312 183.182 185.588C182.929 185.82 183.006 186.184 182.818 186.449C182.686 186.526 182.653 186.637 182.708 186.769C182.531 187.078 182.598 187.498 182.266 187.729L182.289 187.696C182.09 187.972 182.156 188.38 181.836 188.59L181.858 188.557C181.649 188.822 181.737 189.252 181.384 189.44L181.417 189.396C181.328 189.572 181.218 189.738 181.097 189.903C180.964 189.936 180.92 190.025 180.975 190.146C180.953 190.422 180.788 190.599 180.589 190.764C180.335 190.974 180.457 191.448 180.037 191.57L180.081 191.526C180.059 191.79 179.883 191.923 179.684 192.055L179.706 192.022C179.618 192.21 179.441 192.342 179.32 192.519H179.309C178.901 192.872 178.834 193.501 178.293 193.711L178.338 193.667C178.316 193.964 178.161 194.13 177.863 194.13L177.907 194.086C177.863 194.516 177.333 194.373 177.19 194.693L177.157 194.715C176.991 194.825 176.837 194.947 176.693 195.09C176.539 195.245 176.406 195.421 176.164 195.454L176.208 195.41C176.042 195.796 175.612 195.708 175.325 195.896L175.369 195.874C175.027 196.359 174.398 196.006 174.001 196.337L173.99 196.392Z" fill="#150050"/>
<path d="M412.605 175.789L412.671 176.55C412.969 177.985 412.969 179.43 412.671 180.865L412.627 181.682C412.197 182.211 412.627 182.918 412.263 183.458L412.152 184.132C412.053 184.485 412.009 184.86 411.832 185.191C411.722 185.301 411.689 185.423 411.755 185.566C411.391 185.941 411.755 186.559 411.303 186.913V186.879C411.115 187.144 411.17 187.531 410.938 187.784L410.817 187.884L410.85 188.038C410.718 188.38 410.773 188.822 410.376 189.053L410.409 188.998C410.398 189.219 410.199 189.34 410.111 189.517C409.978 189.572 409.934 189.672 409.99 189.804C409.945 190.047 409.78 190.223 409.625 190.4C409.338 190.61 409.449 191.062 409.118 191.228L409.151 191.183C409.074 191.393 408.897 191.514 408.775 191.691C408.489 191.879 408.621 192.397 408.18 192.453L408.224 192.408C408.224 192.717 408.058 192.85 407.782 192.916L407.826 192.872C407.771 193.148 407.628 193.302 407.341 193.335L407.385 193.291C407.297 193.7 406.8 193.578 406.624 193.865H406.613C406.436 193.987 406.315 194.196 406.083 194.229L406.138 194.196C405.906 194.582 405.465 194.527 405.123 194.66L404.439 194.748C404.152 194.958 403.865 194.958 403.578 194.748L403.401 194.66L403.213 194.693C402.938 194.472 402.529 194.549 402.298 194.251H402.319C402.143 194.152 402.022 193.986 401.845 193.887L401.823 193.865C401.713 193.7 401.58 193.567 401.415 193.446V193.424C401.282 193.247 401.117 193.126 401.017 192.927L401.039 192.96C400.73 192.762 400.819 192.331 400.565 192.11C400.3 191.846 400.344 191.448 400.168 191.15C400.234 191.018 400.212 190.908 400.09 190.819C399.781 190.4 400.024 189.837 399.737 189.418L399.66 188.226C399.384 187.078 399.373 185.93 399.66 184.772L399.737 183.602C400.101 183.028 399.715 182.311 400.101 181.748C400.201 181.637 400.223 181.516 400.156 181.384C400.488 180.986 400.201 180.413 400.532 180.015C400.653 179.938 400.675 179.839 400.609 179.706C400.775 179.397 400.741 179.011 400.962 178.713C401.083 178.636 401.106 178.537 401.039 178.404C401.205 178.084 401.172 177.687 401.448 177.422C401.691 177.19 401.624 176.793 401.856 176.55C402.132 176.318 402.044 175.921 402.287 175.689C402.562 175.468 402.463 175.049 402.761 174.84V174.862C402.982 174.619 402.871 174.155 403.291 174.034L403.247 174.078C403.247 173.813 403.445 173.67 403.644 173.548L403.622 173.581C403.71 173.383 403.887 173.25 404.008 173.085C404.162 172.952 404.295 172.809 404.405 172.643L404.427 172.621C404.593 172.511 404.725 172.379 404.836 172.213L404.858 172.191C405.023 172.081 405.167 171.948 405.288 171.794C405.454 171.661 405.586 171.474 405.785 171.396L405.752 171.429C405.884 171.187 406.072 171.021 406.37 170.999L406.513 171.021L406.59 170.9C406.877 170.679 407.263 170.712 407.572 170.547H408.974C409.327 170.69 409.769 170.646 410.012 171.021L409.956 170.988C410.177 171.043 410.321 171.22 410.475 171.374C410.619 171.518 410.762 171.661 410.905 171.805C411.06 171.959 411.225 172.092 411.303 172.312L411.27 172.268C411.612 172.445 411.523 172.886 411.766 173.129C412.053 173.372 412.009 173.78 412.175 174.089C412.108 174.221 412.13 174.321 412.241 174.409C412.561 174.829 412.307 175.391 412.605 175.811V175.789Z" fill="#150050"/>
<path d="M184.926 178.702C184.926 176.981 184.926 175.248 184.937 173.526C185.555 175.259 185.577 176.981 184.926 178.702Z" fill="#FFF6E8"/>
<path d="M412.671 180.865C412.671 179.43 412.671 177.985 412.671 176.55C413.311 177.985 413.311 179.43 412.671 180.865Z" fill="#FFF6E8"/>
<path d="M168.869 186.924V190.808C168.229 189.517 168.24 188.226 168.869 186.924Z" fill="#FFF6E8"/>
<path d="M399.649 184.761C399.649 185.908 399.649 187.056 399.649 188.215C399.042 187.067 399.031 185.92 399.649 184.761Z" fill="#FFF6E8"/>
<path d="M178.272 193.733C178.492 193.236 178.801 192.817 179.287 192.552C179.232 193.192 179 193.667 178.272 193.733Z" fill="#FFF6E8"/>
<path d="M169.288 183.9C169.288 184.529 169.387 185.169 168.924 185.71C168.946 185.092 168.692 184.408 169.288 183.9Z" fill="#FFF6E8"/>
<path d="M412.262 183.447C412.262 182.829 412.196 182.2 412.627 181.671C412.594 182.278 412.847 182.951 412.262 183.447Z" fill="#FFF6E8"/>
<path d="M400.09 181.737C400.09 182.377 400.19 183.039 399.726 183.591C399.726 182.951 399.472 182.255 400.09 181.737Z" fill="#FFF6E8"/>
<path d="M184.474 181.296C184.474 180.666 184.385 180.004 184.86 179.475C184.849 180.104 185.103 180.799 184.474 181.296Z" fill="#FFF6E8"/>
<path d="M181.428 168.318C180.854 168.318 180.28 168.318 179.706 168.318C180.28 167.733 180.854 167.733 181.428 168.318Z" fill="#FFF6E8"/>
<path d="M301.144 148.453C301.717 148.453 302.291 148.453 302.865 148.453C302.291 149.06 301.717 149.06 301.144 148.453Z" fill="#FFF6E8"/>
<path d="M310.657 136.788C310.028 136.336 310.281 135.652 310.226 135.056C310.855 135.508 310.59 136.192 310.657 136.788Z" fill="#FFF6E8"/>
<path d="M173.99 196.392C174.365 195.995 174.872 195.984 175.358 195.929C175.06 196.547 174.508 196.414 173.99 196.392Z" fill="#FFF6E8"/>
<path d="M170.204 180.435C170.204 180.92 170.193 181.406 169.785 181.759C169.774 181.273 169.675 180.755 170.204 180.435Z" fill="#FFF6E8"/>
<path d="M310.226 141.534C310.237 141.059 310.149 140.551 310.656 140.231C310.645 140.706 310.734 141.214 310.226 141.534Z" fill="#FFF6E8"/>
<path d="M184.86 172.743C184.452 172.367 184.463 171.86 184.44 171.374C184.992 171.705 184.882 172.246 184.86 172.743Z" fill="#FFF6E8"/>
<path d="M412.605 175.789C412.208 175.391 412.218 174.895 412.241 174.387C412.748 174.751 412.627 175.281 412.605 175.789Z" fill="#FFF6E8"/>
<path d="M170.193 194.693C170.569 194.903 170.844 195.178 171.021 195.576C170.469 195.543 170.204 195.245 170.193 194.693Z" fill="#FFF6E8"/>
<path d="M170.657 179.144C170.679 179.64 170.557 180.082 170.204 180.435C170.204 179.949 170.116 179.43 170.657 179.144Z" fill="#FFF6E8"/>
<path d="M400.52 180.004C400.543 180.501 400.542 180.986 400.145 181.373C400.134 180.876 400.024 180.357 400.52 180.004Z" fill="#FFF6E8"/>
<path d="M310.215 133.764C309.707 133.455 309.796 132.948 309.785 132.462C310.292 132.771 310.204 133.29 310.215 133.764Z" fill="#FFF6E8"/>
<path d="M263.975 97.8872C263.975 98.3617 264.052 98.8694 263.545 99.1784C263.556 98.7039 263.468 98.1962 263.975 97.8872Z" fill="#FFF6E8"/>
<path d="M169.796 181.737C169.785 182.267 169.807 182.796 169.388 183.216C169.355 182.675 169.2 182.112 169.796 181.737Z" fill="#FFF6E8"/>
<path d="M184.032 183.028C183.999 182.52 184.021 182.024 184.43 181.637C184.452 182.145 184.562 182.675 184.032 183.028Z" fill="#FFF6E8"/>
<path d="M270.895 91.4092C270.586 91.9168 270.078 91.8286 269.603 91.8396C269.912 91.3319 270.42 91.4313 270.895 91.4092Z" fill="#FFF6E8"/>
<path d="M411.303 186.902C411.325 186.405 411.358 185.919 411.755 185.555C411.755 186.052 411.876 186.593 411.303 186.902Z" fill="#FFF6E8"/>
<path d="M274.349 91.8396C273.874 91.8286 273.367 91.9168 273.047 91.4092C273.521 91.4202 274.029 91.3319 274.349 91.8396Z" fill="#FFF6E8"/>
<path d="M168.946 191.537C169.366 191.934 169.321 192.464 169.333 192.971C168.792 192.607 168.913 192.055 168.946 191.537Z" fill="#FFF6E8"/>
<path d="M263.545 104.365C264.052 104.674 263.964 105.182 263.975 105.656C263.468 105.347 263.567 104.829 263.545 104.365Z" fill="#FFF6E8"/>
<path d="M399.715 189.396C400.112 189.793 400.09 190.301 400.068 190.797C399.571 190.422 399.682 189.903 399.715 189.396Z" fill="#FFF6E8"/>
<path d="M409.118 191.206C409.162 190.852 409.305 190.565 409.625 190.389C409.603 190.753 409.515 191.073 409.118 191.206Z" fill="#FFF6E8"/>
<path d="M180.015 191.603C180.081 191.261 180.214 190.952 180.567 190.786C180.567 191.172 180.49 191.514 180.015 191.603Z" fill="#FFF6E8"/>
<path d="M400.145 191.128C400.487 191.36 400.554 191.713 400.543 192.099C400.145 191.879 400.112 191.525 400.145 191.128Z" fill="#FFF6E8"/>
<path d="M181.35 189.473C181.383 189.109 181.472 188.778 181.825 188.59C181.847 188.987 181.792 189.329 181.35 189.473Z" fill="#FFF6E8"/>
<path d="M410.386 189.031C410.431 188.645 410.497 188.27 410.861 188.016C410.905 188.447 410.883 188.844 410.386 189.031Z" fill="#FFF6E8"/>
<path d="M263.975 106.959C264.317 107.146 264.394 107.466 264.406 107.819C264.063 107.632 263.986 107.312 263.975 106.959Z" fill="#FFF6E8"/>
<path d="M181.814 188.623C181.836 188.259 181.913 187.928 182.266 187.729C182.289 188.116 182.233 188.458 181.814 188.623Z" fill="#FFF6E8"/>
<path d="M410.938 187.773C410.905 187.409 410.983 187.078 411.314 186.868C411.347 187.233 411.28 187.564 410.938 187.773Z" fill="#FFF6E8"/>
<path d="M264.417 108.691C264.759 108.879 264.836 109.199 264.847 109.552C264.505 109.364 264.428 109.044 264.417 108.691Z" fill="#FFF6E8"/>
<path d="M182.244 187.762C182.255 187.376 182.333 187.023 182.686 186.802C182.719 187.211 182.686 187.575 182.244 187.762Z" fill="#FFF6E8"/>
<path d="M408.168 192.43C408.257 192.088 408.411 191.812 408.764 191.68C408.731 192.055 408.632 192.386 408.168 192.43Z" fill="#FFF6E8"/>
<path d="M400.543 192.099C400.852 192.298 400.995 192.596 401.017 192.949C400.631 192.795 400.543 192.464 400.543 192.099Z" fill="#FFF6E8"/>
<path d="M182.796 186.471C182.752 186.118 182.862 185.82 183.16 185.61C183.16 185.952 183.116 186.273 182.796 186.471Z" fill="#FFF6E8"/>
<path d="M183.161 185.622C183.149 185.235 183.193 184.871 183.547 184.628C183.58 185.026 183.547 185.401 183.161 185.622Z" fill="#FFF6E8"/>
<path d="M411.832 185.18C411.777 184.783 411.821 184.408 412.152 184.121C412.197 184.518 412.208 184.904 411.832 185.18Z" fill="#FFF6E8"/>
<path d="M276.081 92.27C275.728 92.27 275.408 92.1927 275.221 91.8396C275.574 91.8396 275.894 91.9169 276.081 92.27Z" fill="#FFF6E8"/>
<path d="M183.624 184.319C183.58 183.922 183.624 183.569 183.977 183.304C184.021 183.701 184.01 184.077 183.624 184.319Z" fill="#FFF6E8"/>
<path d="M169.332 192.96C169.586 193.192 169.73 193.468 169.697 193.821C169.377 193.611 169.321 193.302 169.332 192.96Z" fill="#FFF6E8"/>
<path d="M406.623 193.843C406.767 193.501 407.043 193.347 407.385 193.269C407.319 193.711 406.999 193.81 406.623 193.843Z" fill="#FFF6E8"/>
<path d="M177.168 194.715C177.289 194.373 177.554 194.196 177.885 194.108C177.852 194.56 177.543 194.671 177.168 194.715Z" fill="#FFF6E8"/>
<path d="M402.286 194.229C402.651 194.251 402.971 194.362 403.202 194.671C402.816 194.693 402.463 194.638 402.286 194.229Z" fill="#FFF6E8"/>
<path d="M278.675 93.1308C278.322 93.1308 278.002 93.0425 277.814 92.7004C278.167 92.7004 278.487 92.7777 278.675 93.1308Z" fill="#FFF6E8"/>
<path d="M405.111 194.638C405.365 194.296 405.741 194.218 406.127 194.174C405.939 194.66 405.542 194.682 405.111 194.638Z" fill="#FFF6E8"/>
<path d="M400.94 178.713C400.995 179.099 400.94 179.452 400.587 179.706C400.543 179.32 400.565 178.956 400.94 178.713Z" fill="#FFF6E8"/>
<path d="M171.021 178.283C171.065 178.647 170.955 178.945 170.657 179.165C170.635 178.812 170.69 178.492 171.021 178.283Z" fill="#FFF6E8"/>
<path d="M401.426 177.411C401.437 177.797 401.381 178.161 401.017 178.393C400.984 177.996 401.017 177.621 401.426 177.411Z" fill="#FFF6E8"/>
<path d="M171.562 177.002C171.54 177.389 171.473 177.753 171.109 177.985C171.076 177.576 171.109 177.19 171.562 177.002Z" fill="#FFF6E8"/>
<path d="M401.834 176.539C401.856 176.903 401.735 177.212 401.426 177.433C401.426 177.069 401.492 176.738 401.834 176.539Z" fill="#FFF6E8"/>
<path d="M171.992 176.142C171.97 176.506 171.904 176.848 171.54 177.047C171.506 176.65 171.562 176.307 171.992 176.142Z" fill="#FFF6E8"/>
<path d="M402.264 175.678C402.275 176.042 402.132 176.329 401.834 176.539C401.834 176.186 401.922 175.866 402.264 175.678Z" fill="#FFF6E8"/>
<path d="M172.445 175.281C172.401 175.645 172.323 175.976 171.97 176.164C171.937 175.767 172.003 175.413 172.445 175.281Z" fill="#FFF6E8"/>
<path d="M402.739 174.829C402.717 175.193 402.584 175.48 402.264 175.667C402.264 175.303 402.364 174.983 402.739 174.829Z" fill="#FFF6E8"/>
<path d="M403.567 194.715H404.427C404.14 195.134 403.853 195.134 403.567 194.715Z" fill="#FFF6E8"/>
<path d="M403.269 174.023C403.191 174.365 403.081 174.685 402.728 174.851C402.728 174.453 402.794 174.111 403.269 174.023Z" fill="#FFF6E8"/>
<path d="M412.163 174.067C411.81 173.835 411.755 173.471 411.755 173.096C412.163 173.306 412.197 173.67 412.163 174.067Z" fill="#FFF6E8"/>
<path d="M173.78 173.151C173.714 173.504 173.581 173.802 173.239 173.968C173.239 173.582 173.316 173.239 173.78 173.151Z" fill="#FFF6E8"/>
<path d="M411.766 173.107C411.435 172.919 411.325 172.599 411.269 172.246C411.7 172.379 411.766 172.721 411.766 173.107Z" fill="#FFF6E8"/>
<path d="M175.314 195.94C175.501 195.598 175.844 195.51 176.197 195.454C176.075 195.918 175.722 195.973 175.314 195.94Z" fill="#FFF6E8"/>
<path d="M175.071 171.418C174.994 171.761 174.85 172.037 174.508 172.18C174.541 171.816 174.652 171.496 175.071 171.418Z" fill="#FFF6E8"/>
<path d="M410.011 171.01C409.625 170.944 409.239 170.889 408.974 170.547C409.404 170.502 409.813 170.513 410.011 171.01Z" fill="#FFF6E8"/>
<path d="M407.583 170.536C407.341 170.878 406.977 170.911 406.601 170.889C406.833 170.514 407.197 170.492 407.583 170.536Z" fill="#FFF6E8"/>
<path d="M184.44 171.385C184.142 171.165 184.021 170.856 184.032 170.491C184.385 170.69 184.451 171.021 184.44 171.385Z" fill="#FFF6E8"/>
<path d="M307.633 125.554C307.291 125.366 307.213 125.046 307.202 124.693C307.555 124.881 307.622 125.201 307.633 125.554Z" fill="#FFF6E8"/>
<path d="M184.032 170.48C183.723 170.304 183.569 170.006 183.503 169.664C183.922 169.774 184.01 170.105 184.032 170.48Z" fill="#FFF6E8"/>
<path d="M177.058 169.608C176.914 169.939 176.649 170.105 176.307 170.171C176.385 169.763 176.693 169.653 177.058 169.608Z" fill="#FFF6E8"/>
<path d="M308.494 127.706C308.151 127.518 308.074 127.198 308.063 126.845C308.416 127.033 308.482 127.353 308.494 127.706Z" fill="#FFF6E8"/>
<path d="M178.404 168.759C178.205 169.068 177.918 169.211 177.565 169.233C177.731 168.858 178.051 168.77 178.404 168.759Z" fill="#FFF6E8"/>
<path d="M182.675 168.88C182.311 168.803 181.957 168.737 181.748 168.384C182.156 168.362 182.542 168.395 182.675 168.88Z" fill="#FFF6E8"/>
<path d="M179.364 168.361C179.132 168.692 178.79 168.759 178.415 168.759C178.636 168.384 178.989 168.339 179.364 168.361Z" fill="#FFF6E8"/>
<path d="M298.981 148.023C299.334 148.023 299.654 148.1 299.841 148.453C299.488 148.453 299.168 148.376 298.981 148.023Z" fill="#FFF6E8"/>
<path d="M297.259 147.592C297.612 147.592 297.932 147.67 298.12 148.023C297.767 148.023 297.447 147.945 297.259 147.592Z" fill="#FFF6E8"/>
<path d="M309.354 130.299C309.012 130.112 308.935 129.792 308.924 129.438C309.277 129.626 309.343 129.946 309.354 130.299Z" fill="#FFF6E8"/>
<path d="M309.796 143.266C309.796 142.913 309.873 142.593 310.226 142.406C310.226 142.759 310.149 143.079 309.796 143.266Z" fill="#FFF6E8"/>
<path d="M309.785 131.601C309.443 131.414 309.365 131.094 309.354 130.729C309.707 130.917 309.774 131.237 309.785 131.601Z" fill="#FFF6E8"/>
<path d="M171.507 195.951C171.893 195.984 172.268 196.028 172.533 196.37C172.113 196.414 171.727 196.392 171.507 195.951Z" fill="#FFF6E8"/>
<path d="M304.167 148.453C304.355 148.111 304.675 148.034 305.028 148.023C304.841 148.365 304.521 148.442 304.167 148.453Z" fill="#FFF6E8"/>
<path d="M277.814 132.893L278.244 133.323L277.814 132.893Z" fill="#FFF6E8"/>
<path d="M278.244 133.323L278.675 133.753L278.244 133.323Z" fill="#FFF6E8"/>
<path d="M278.675 133.764L279.105 134.195L278.675 133.764Z" fill="#FFF6E8"/>
<path d="M279.105 134.195L279.535 134.625L279.105 134.195Z" fill="#FFF6E8"/>
<path d="M279.536 134.625L279.966 135.056L279.536 134.625Z" fill="#FFF6E8"/>
<path d="M265.266 94.8633L264.836 95.2937L265.266 94.8633Z" fill="#FFF6E8"/>
<path d="M283.862 138.951L284.292 139.382L283.862 138.951Z" fill="#FFF6E8"/>
<path d="M284.292 139.382L284.723 139.812L284.292 139.382Z" fill="#FFF6E8"/>
<path d="M284.723 139.812L285.153 140.242L284.723 139.812Z" fill="#FFF6E8"/>
<path d="M285.153 140.242L285.583 140.673L285.153 140.242Z" fill="#FFF6E8"/>
<path d="M276.512 131.171L276.942 131.602L276.512 131.171Z" fill="#FFF6E8"/>
<path d="M286.885 141.545L287.316 141.975L286.885 141.545Z" fill="#FFF6E8"/>
<path d="M287.316 141.975L287.746 142.406L287.316 141.975Z" fill="#FFF6E8"/>
<path d="M276.081 130.729L276.512 131.16L276.081 130.729Z" fill="#FFF6E8"/>
<path d="M288.618 142.836L289.048 143.266L288.618 142.836Z" fill="#FFF6E8"/>
<path d="M289.048 143.266L289.49 143.697L289.048 143.266Z" fill="#FFF6E8"/>
<path d="M289.909 143.708L290.339 144.138L289.909 143.708Z" fill="#FFF6E8"/>
<path d="M309.365 144.127L309.796 143.697L309.365 144.127Z" fill="#FFF6E8"/>
<path d="M290.339 144.127L290.781 144.557C290.638 144.414 290.494 144.27 290.339 144.127Z" fill="#FFF6E8"/>
<path d="M291.2 144.568L291.631 144.999L291.2 144.568Z" fill="#FFF6E8"/>
<path d="M308.924 144.999L309.354 144.568L308.924 144.999Z" fill="#FFF6E8"/>
<path d="M292.502 145.429L292.933 145.86L292.502 145.429Z" fill="#FFF6E8"/>
<path d="M308.494 145.86L308.924 145.418L308.494 145.86Z" fill="#FFF6E8"/>
<path d="M293.363 145.86L293.794 146.29L293.363 145.86Z" fill="#FFF6E8"/>
<path d="M308.063 146.29L308.494 145.86L308.063 146.29Z" fill="#FFF6E8"/>
<path d="M282.56 95.2937L282.129 94.8633L282.56 95.2937Z" fill="#FFF6E8"/>
<path d="M307.633 146.72L308.063 146.29L307.633 146.72Z" fill="#FFF6E8"/>
<path d="M295.096 146.731L295.537 147.162L295.096 146.731Z" fill="#FFF6E8"/>
<path d="M307.191 147.151L307.622 146.72L307.191 147.151Z" fill="#FFF6E8"/>
<path d="M296.387 147.162L296.818 147.592L296.387 147.162Z" fill="#FFF6E8"/>
<path d="M306.33 147.592L306.761 147.162L306.33 147.592Z" fill="#FFF6E8"/>
<path d="M274.779 129.008L275.21 129.438L274.779 129.008Z" fill="#FFF6E8"/>
<path d="M305.889 148.023L306.33 147.592L305.889 148.023Z" fill="#FFF6E8"/>
<path d="M274.349 128.567L274.779 129.008L274.349 128.567Z" fill="#FFF6E8"/>
<path d="M264.847 95.2937C264.704 95.4372 264.56 95.5807 264.417 95.7352L264.847 95.2937Z" fill="#FFF6E8"/>
<path d="M281.268 94.433C281.125 94.2895 280.981 94.1462 280.827 94.0027C280.97 94.1462 281.114 94.2895 281.268 94.433Z" fill="#FFF6E8"/>
<path d="M265.708 94.0027L265.277 94.433L265.708 94.0027Z" fill="#FFF6E8"/>
<path d="M308.924 128.578L308.494 128.136L308.924 128.578Z" fill="#FFF6E8"/>
<path d="M280.396 94.0027L279.966 93.5723C280.11 93.7157 280.253 93.8592 280.396 94.0027Z" fill="#FFF6E8"/>
<path d="M273.918 127.706L274.349 128.136L273.918 127.706Z" fill="#FFF6E8"/>
<path d="M273.488 127.275L273.918 127.706L273.488 127.275Z" fill="#FFF6E8"/>
<path d="M183.127 169.266C182.873 169.222 182.697 169.079 182.631 168.825C182.895 168.858 183.061 169.013 183.127 169.266Z" fill="#FFF6E8"/>
<path d="M177.587 169.211C177.51 169.443 177.345 169.564 177.102 169.575L177.587 169.211Z" fill="#FFF6E8"/>
<path d="M183.546 169.719C183.293 169.664 183.138 169.498 183.094 169.233C183.348 169.3 183.502 169.454 183.546 169.719Z" fill="#FFF6E8"/>
<path d="M308.063 126.415L307.633 125.984L308.063 126.415Z" fill="#FFF6E8"/>
<path d="M272.627 125.984L273.058 126.415L272.627 125.984Z" fill="#FFF6E8"/>
<path d="M176.351 170.127C176.296 170.392 176.13 170.535 175.866 170.591C175.921 170.326 176.086 170.171 176.351 170.127Z" fill="#FFF6E8"/>
<path d="M175.91 170.547C175.855 170.811 175.7 170.966 175.435 171.021C175.49 170.756 175.645 170.602 175.91 170.547Z" fill="#FFF6E8"/>
<path d="M271.755 124.682L272.186 125.113L271.755 124.682Z" fill="#FFF6E8"/>
<path d="M307.191 124.252L306.761 123.821L307.191 124.252Z" fill="#FFF6E8"/>
<path d="M266.138 93.5723L265.708 94.0027L266.138 93.5723Z" fill="#FFF6E8"/>
<path d="M270.895 123.38L271.325 123.81L270.895 123.38Z" fill="#FFF6E8"/>
<path d="M175.479 170.977C175.424 171.231 175.281 171.407 175.027 171.463C175.071 171.198 175.215 171.032 175.479 170.977Z" fill="#FFF6E8"/>
<path d="M406.37 170.988C406.248 171.253 406.039 171.385 405.752 171.418C405.873 171.143 406.083 171.01 406.37 170.988Z" fill="#FFF6E8"/>
<path d="M410.486 171.363C410.232 171.341 410.045 171.231 409.967 170.977C410.21 171.01 410.387 171.143 410.486 171.363Z" fill="#FFF6E8"/>
<path d="M306.761 123.391L306.33 122.96L306.761 123.391Z" fill="#FFF6E8"/>
<path d="M270.464 122.519L270.895 122.949L270.464 122.519Z" fill="#FFF6E8"/>
<path d="M405.796 171.396C405.719 171.65 405.542 171.761 405.299 171.783L405.796 171.396Z" fill="#FFF6E8"/>
<path d="M410.916 171.794C410.684 171.739 410.541 171.595 410.486 171.363L410.916 171.794Z" fill="#FFF6E8"/>
<path d="M405.288 171.783C405.244 172.014 405.1 172.158 404.858 172.18L405.288 171.783Z" fill="#FFF6E8"/>
<path d="M411.303 172.301C411.049 172.224 410.927 172.048 410.905 171.794L411.303 172.301Z" fill="#FFF6E8"/>
<path d="M174.475 172.202C174.464 172.445 174.343 172.61 174.1 172.688L174.475 172.202Z" fill="#FFF6E8"/>
<path d="M404.824 172.213C404.802 172.456 404.659 172.599 404.416 172.621L404.824 172.213Z" fill="#FFF6E8"/>
<path d="M306.33 122.53L305.9 122.1L306.33 122.53Z" fill="#FFF6E8"/>
<path d="M174.122 172.677C174.111 172.941 173.99 173.129 173.725 173.206C173.747 172.952 173.879 172.776 174.122 172.677Z" fill="#FFF6E8"/>
<path d="M404.394 172.643C404.372 172.886 404.229 173.03 403.997 173.074L404.394 172.643Z" fill="#FFF6E8"/>
<path d="M305.9 121.658L305.469 121.228L305.9 121.658Z" fill="#FFF6E8"/>
<path d="M403.986 173.085C403.964 173.339 403.842 173.504 403.6 173.581L403.986 173.085Z" fill="#FFF6E8"/>
<path d="M269.603 121.217L270.034 121.647L269.603 121.217Z" fill="#FFF6E8"/>
<path d="M279.535 93.5613L279.094 93.1309L279.535 93.5613Z" fill="#FFF6E8"/>
<path d="M403.622 173.548C403.6 173.813 403.478 174.001 403.224 174.078C403.235 173.813 403.379 173.637 403.622 173.548Z" fill="#FFF6E8"/>
<path d="M173.239 173.957C173.239 174.233 173.118 174.453 172.853 174.575C172.864 174.299 172.996 174.089 173.239 173.957Z" fill="#FFF6E8"/>
<path d="M305.469 120.797L305.039 120.367L305.469 120.797Z" fill="#FFF6E8"/>
<path d="M269.162 120.356L269.593 120.786L269.162 120.356Z" fill="#FFF6E8"/>
<path d="M172.732 174.817C172.754 175.071 172.654 175.248 172.412 175.325C172.412 175.093 172.522 174.928 172.732 174.817Z" fill="#FFF6E8"/>
<path d="M305.028 119.937L304.598 119.506L305.028 119.937Z" fill="#FFF6E8"/>
<path d="M268.732 119.495L269.162 119.926L268.732 119.495Z" fill="#FFF6E8"/>
<path d="M304.598 119.065L304.167 118.635L304.598 119.065Z" fill="#FFF6E8"/>
<path d="M268.301 118.635L268.732 119.065L268.301 118.635Z" fill="#FFF6E8"/>
<path d="M267.871 117.762L268.301 118.193L267.871 117.762Z" fill="#FFF6E8"/>
<path d="M266.568 93.1309L266.138 93.5613L266.568 93.1309Z" fill="#FFF6E8"/>
<path d="M303.737 117.774L303.307 117.343L303.737 117.774Z" fill="#FFF6E8"/>
<path d="M267.44 116.902L267.871 117.332L267.44 116.902Z" fill="#FFF6E8"/>
<path d="M303.306 116.913L302.876 116.482L303.306 116.913Z" fill="#FFF6E8"/>
<path d="M267.01 116.041L267.44 116.471L267.01 116.041Z" fill="#FFF6E8"/>
<path d="M302.446 115.611L302.015 115.18L302.446 115.611Z" fill="#FFF6E8"/>
<path d="M266.568 115.169L266.999 115.611L266.568 115.169Z" fill="#FFF6E8"/>
<path d="M302.004 114.75L301.574 114.308L302.004 114.75Z" fill="#FFF6E8"/>
<path d="M301.574 114.308L301.144 113.878L301.574 114.308Z" fill="#FFF6E8"/>
<path d="M266.138 113.878L266.568 114.308L266.138 113.878Z" fill="#FFF6E8"/>
<path d="M301.144 113.448L300.713 113.006L301.144 113.448Z" fill="#FFF6E8"/>
<path d="M277.373 92.7004L276.942 92.27L277.373 92.7004Z" fill="#FFF6E8"/>
<path d="M267.871 92.27L267.44 92.7004L267.871 92.27Z" fill="#FFF6E8"/>
<path d="M265.708 113.006L266.138 113.437L265.708 113.006Z" fill="#FFF6E8"/>
<path d="M300.713 113.017L300.283 112.587L300.713 113.017Z" fill="#FFF6E8"/>
<path d="M265.277 111.715L265.708 112.146L265.277 111.715Z" fill="#FFF6E8"/>
<path d="M299.852 111.726L299.422 111.296L299.852 111.726Z" fill="#FFF6E8"/>
<path d="M268.732 91.8396L268.301 92.27L268.732 91.8396Z" fill="#FFF6E8"/>
<path d="M299.411 111.285L298.981 110.854L299.411 111.285Z" fill="#FFF6E8"/>
<path d="M264.847 110.424L265.277 110.854L264.847 110.424Z" fill="#FFF6E8"/>
<path d="M298.55 109.993L298.12 109.563L298.55 109.993Z" fill="#FFF6E8"/>
<path d="M298.12 109.552L297.689 109.122L298.12 109.552Z" fill="#FFF6E8"/>
<path d="M296.818 107.83L296.387 107.4L296.818 107.83Z" fill="#FFF6E8"/>
<path d="M296.387 107.4L295.957 106.97L296.387 107.4Z" fill="#FFF6E8"/>
<path d="M295.957 106.959L295.526 106.528L295.957 106.959Z" fill="#FFF6E8"/>
<path d="M294.224 104.807L293.794 104.376L294.224 104.807Z" fill="#FFF6E8"/>
<path d="M410.111 189.506C410.078 189.252 410.177 189.076 410.409 188.987C410.409 189.219 410.309 189.396 410.111 189.506Z" fill="#FFF6E8"/>
<path d="M181.063 189.936C181.041 189.694 181.141 189.517 181.383 189.429C181.273 189.594 181.174 189.771 181.063 189.936Z" fill="#FFF6E8"/>
<path d="M293.794 104.376L293.363 103.946L293.794 104.376Z" fill="#FFF6E8"/>
<path d="M409.636 190.378C409.636 190.102 409.747 189.903 410 189.782C409.978 190.047 409.868 190.246 409.636 190.378Z" fill="#FFF6E8"/>
<path d="M180.556 190.797C180.556 190.521 180.677 190.301 180.942 190.179C180.931 190.455 180.799 190.665 180.556 190.797Z" fill="#FFF6E8"/>
<path d="M293.363 103.946L292.933 103.516L293.363 103.946Z" fill="#FFF6E8"/>
<path d="M292.933 103.504L292.502 103.074L292.933 103.504Z" fill="#FFF6E8"/>
<path d="M292.503 103.074L292.072 102.644L292.503 103.074Z" fill="#FFF6E8"/>
<path d="M408.775 191.68C408.786 191.426 408.908 191.25 409.151 191.172C409.029 191.338 408.897 191.514 408.775 191.68Z" fill="#FFF6E8"/>
<path d="M292.072 102.644L291.642 102.213L292.072 102.644Z" fill="#FFF6E8"/>
<path d="M179.662 192.077C179.673 191.813 179.794 191.625 180.059 191.548C180.037 191.812 179.905 191.989 179.662 192.077Z" fill="#FFF6E8"/>
<path d="M291.642 102.213L291.211 101.783L291.642 102.213Z" fill="#FFF6E8"/>
<path d="M179.298 192.541C179.32 192.298 179.441 192.121 179.684 192.044C179.552 192.21 179.43 192.375 179.298 192.541Z" fill="#FFF6E8"/>
<path d="M291.2 101.783L290.77 101.352L291.2 101.783Z" fill="#FFF6E8"/>
<path d="M289.048 100.05L288.618 99.6199L289.048 100.05Z" fill="#FFF6E8"/>
<path d="M407.771 192.894C407.815 192.64 407.959 192.463 408.213 192.386C408.202 192.673 408.058 192.839 407.771 192.894Z" fill="#FFF6E8"/>
<path d="M288.607 99.6199L288.177 99.1895L288.607 99.6199Z" fill="#FFF6E8"/>
<path d="M400.995 192.916C401.238 192.993 401.348 193.17 401.381 193.413L400.995 192.916Z" fill="#FFF6E8"/>
<path d="M407.33 193.313C407.396 193.06 407.562 192.905 407.815 192.85C407.771 193.126 407.605 193.28 407.33 193.313Z" fill="#FFF6E8"/>
<path d="M401.392 193.424C401.635 193.468 401.768 193.6 401.801 193.843L401.392 193.424Z" fill="#FFF6E8"/>
<path d="M288.177 99.1894L287.746 98.759L288.177 99.1894Z" fill="#FFF6E8"/>
<path d="M177.83 194.152C177.896 193.898 178.051 193.744 178.305 193.689C178.271 193.976 178.117 194.13 177.83 194.152Z" fill="#FFF6E8"/>
<path d="M401.823 193.865C402.066 193.898 402.22 194.02 402.297 194.251L401.823 193.865Z" fill="#FFF6E8"/>
<path d="M406.072 194.207C406.16 193.954 406.348 193.865 406.601 193.854L406.072 194.207Z" fill="#FFF6E8"/>
<path d="M169.818 194.108C170.072 194.218 170.182 194.417 170.193 194.693C169.962 194.571 169.84 194.373 169.818 194.108Z" fill="#FFF6E8"/>
<path d="M286.455 97.8872L286.025 97.4568L286.455 97.8872Z" fill="#FFF6E8"/>
<path d="M286.014 97.4566C285.87 97.3132 285.727 97.1698 285.572 97.0264L286.014 97.4566Z" fill="#FFF6E8"/>
<path d="M285.153 97.0154L284.723 96.585L285.153 97.0154Z" fill="#FFF6E8"/>
<path d="M264.406 96.5959L263.975 97.0264L264.406 96.5959Z" fill="#FFF6E8"/>
<path d="M176.671 195.123C176.737 194.891 176.881 194.759 177.135 194.748L176.671 195.123Z" fill="#FFF6E8"/>
<path d="M284.723 96.5959L284.292 96.1655L284.723 96.5959Z" fill="#FFF6E8"/>
<path d="M176.153 195.487C176.241 195.234 176.428 195.123 176.682 195.112C176.572 195.333 176.406 195.465 176.153 195.487Z" fill="#FFF6E8"/>
<path d="M171.054 195.598C171.297 195.62 171.462 195.741 171.551 195.973L171.054 195.598Z" fill="#FFF6E8"/>
<path d="M283.862 96.1545L283.431 95.7241L283.862 96.1545Z" fill="#FFF6E8"/>
<path d="M283.431 95.7241L283.001 95.2937C283.144 95.4372 283.288 95.5806 283.431 95.7241Z" fill="#FFF6E8"/>
<path d="M294.235 146.29L294.666 146.72L294.235 146.29Z" fill="#FFF6E8"/>
<path d="M277.615 465.554C264.582 465.444 253.215 461.99 242.709 455.644C231.056 448.614 221.686 439.157 213.873 428.099C211.092 424.159 208.521 420.076 206.358 415.761C206.005 415.055 205.684 414.326 205.386 413.598C205.066 412.826 205.221 412.141 205.982 411.755C206.689 411.402 207.24 411.832 207.671 412.351C208.123 412.903 208.532 413.51 208.918 414.117C212.891 420.385 217.073 426.499 221.885 432.16C228.363 439.786 235.646 446.485 244.254 451.649C255.533 458.425 267.672 461.835 280.904 460.93C289.656 460.323 297.844 457.785 305.58 453.724C315.998 448.25 324.617 440.592 332.165 431.664C335.84 427.316 339.151 422.692 342.197 417.88C342.539 417.339 342.87 416.765 343.3 416.291C344.139 415.364 345.309 415.209 346.214 415.794C347.075 416.357 347.384 417.35 347.019 418.465C346.887 418.873 346.677 419.259 346.457 419.624C339.129 431.31 330.422 441.772 319.386 450.16C310.513 456.913 300.746 461.813 289.777 464.164C285.539 465.069 281.246 465.455 277.626 465.565L277.615 465.554Z" fill="#150050"/>
<path d="M309.575 342.241C305.26 339.129 301 336.061 296.762 332.971C292.756 330.046 288.728 327.155 284.877 324.021C284.16 323.436 283.475 322.785 282.857 322.09C282.339 321.494 282.284 320.743 282.791 320.103C283.244 319.54 283.928 319.43 284.557 319.728C285.528 320.18 286.488 320.688 287.393 321.262C291.885 324.12 296.222 327.199 300.559 330.278C305.017 333.434 309.465 336.613 313.912 339.78C314.442 340.155 314.993 340.508 315.446 340.961C316.726 342.23 316.561 343.974 315.082 345.033C314.74 345.276 314.331 345.452 313.934 345.629C307.622 348.41 301.309 351.18 294.985 353.939C294.202 354.281 293.407 354.645 292.513 354.656C291.642 354.667 290.98 354.369 290.615 353.53C290.24 352.67 290.56 351.974 291.145 351.378C291.763 350.76 292.569 350.418 293.352 350.054C298.307 347.77 303.273 345.496 308.228 343.201C308.659 343.002 309.233 342.958 309.553 342.23L309.575 342.241Z" fill="#150050"/>
<path d="M381.12 366.012C381.053 373.24 379.619 380.16 376.308 386.627C374.862 389.463 373.03 392.045 370.614 394.153C369.687 394.959 368.705 395.687 367.524 396.095C366.332 396.515 365.272 396.283 364.787 395.543C364.279 394.76 364.5 393.745 365.394 392.829C365.493 392.729 365.603 392.63 365.714 392.542C371.276 388.271 373.891 382.267 375.458 375.701C376.463 371.474 376.816 367.182 376.529 362.833C376.496 362.26 376.474 361.675 376.573 361.123C376.772 360.119 377.379 359.445 378.449 359.313C379.497 359.192 380.336 359.743 380.756 360.847C381.263 362.16 381.031 363.551 381.109 364.908C381.131 365.272 381.109 365.626 381.109 365.99L381.12 366.012Z" fill="#150050"/>
<path d="M169.388 349.845C170.69 349.8 171.617 350.849 171.12 352.008C169.476 355.837 170.337 359.644 170.999 363.463C171.672 367.369 172.809 371.155 174.431 374.774C175.281 376.683 176.274 378.493 177.808 379.983C178.967 381.109 179.022 382.268 178.194 383.239C177.344 384.221 175.987 384.254 174.718 383.261C173.559 382.367 172.698 381.197 172.014 379.928C168.063 372.644 166.066 364.853 166.11 356.565C166.11 354.91 166.309 353.266 167.092 351.743C167.611 350.738 168.306 349.966 169.399 349.833L169.388 349.845Z" fill="#150050"/>
<path d="M284.888 384.751C285.815 383.272 286.565 381.87 287.636 380.701C290.505 377.555 293.926 375.723 298.307 376.121C300.062 376.275 301.651 376.904 303.185 377.732C304.962 378.692 306.562 379.928 308.118 381.208C309.674 382.488 311.186 383.813 312.753 385.082C317.863 389.22 323.524 391.935 330.366 391.814C329.594 394.782 328.391 397.453 327.122 400.102C323.955 406.767 320.224 413.035 314.596 418.001C309.972 422.085 304.962 425.539 299.279 427.945C289.093 432.238 278.951 431.763 268.93 427.371C264.549 425.451 260.631 422.769 257.056 419.602C248.183 411.755 241.992 402.11 237.964 391.019C237.39 389.43 237.423 389.386 239.123 389.309C245.248 389.033 250.556 386.693 255.29 382.919C257.596 381.076 259.837 379.156 262.132 377.313C263.6 376.143 265.167 375.128 266.911 374.421C270.552 372.931 274.073 373.185 277.461 375.205C280.418 376.97 282.383 379.564 283.784 382.654C284.071 383.294 284.182 384.033 284.877 384.773L284.888 384.751Z" fill="#150050"/>
</svg>
