<svg width="550" height="550" viewBox="0 0 550 550" fill="none" xmlns="http://www.w3.org/2000/svg">
<path d="M275 550C426.878 550 550 426.878 550 275C550 123.122 426.878 0 275 0C123.122 0 0 123.122 0 275C0 426.878 123.122 550 275 550Z" fill="#FFF6E8"/>
<path d="M204.481 109C202.109 105.965 199.626 103.041 197.915 99.5204C193.611 90.6476 195.818 81.3554 201.778 74.8774C207.207 68.9733 214.127 66.0932 221.951 65.1441C236.209 63.4225 248.172 68.4878 258.7 77.7137C261.923 80.5389 264.759 83.7173 267.264 87.1935C267.496 87.5136 267.683 87.8998 268.39 87.9881C268.522 85.2512 268.798 82.5252 269.482 79.8546C271.082 73.6304 274.062 68.3224 279.271 64.3496C285.054 59.9353 293.308 59.8578 299.422 65.2212C303.759 69.0285 306.408 73.8623 308.394 79.1484C309.064 80.9436 310.241 81.3114 311.926 80.252C317.123 76.9854 322.719 74.7009 328.81 73.7739C332.485 73.2221 336.182 73.2772 339.747 74.5795C345.309 76.6211 347.77 81.5543 346.015 87.2156C344.823 91.0671 342.528 94.2564 339.813 97.1588C338.809 98.2293 337.694 99.1894 336.624 100.216C337.33 100.834 337.738 100.436 338.158 100.282C346.258 97.2249 354.634 95.4262 363.264 94.6316C370.349 93.9805 377.345 94.1681 384.287 95.7462C387.741 96.5298 391.085 97.6996 393.954 99.8736C396.261 101.617 397.618 103.868 397.155 106.881C396.868 108.746 395.742 110.181 394.506 111.505C392.001 114.209 388.845 115.975 385.534 117.453C383.139 118.524 380.656 119.396 378.206 120.345C377.621 120.577 377.025 120.764 376.474 121.349C377.39 121.349 378.317 121.36 379.233 121.349C390.953 121.117 402.485 122.364 413.73 125.774C419.182 127.43 424.369 129.648 428.805 133.356C429.953 134.316 430.935 135.42 431.785 136.623C434.974 141.158 434.025 146.842 429.501 150.704C425.848 153.816 421.511 155.483 416.986 156.818C415.386 157.292 413.708 157.502 411.788 158.352C412.892 158.882 413.708 158.705 414.47 158.76C427.15 159.765 439.234 162.711 450.038 169.752C453.702 172.147 456.98 174.994 459.584 178.559C460.555 179.883 461.361 181.295 462.012 182.818C464.583 188.8 461.924 193.203 457.586 195.874C453.956 198.103 449.884 199.019 445.734 199.769C442.832 200.299 439.841 200.045 436.563 200.873C438.23 201.59 439.576 202.142 440.9 202.738C449.729 206.711 457.962 211.555 464.727 218.618C466.614 220.594 468.247 222.735 469.362 225.24C471.249 229.488 469.98 233.417 465.941 235.79C462.597 237.754 458.878 238.383 455.092 238.615C447.665 239.068 440.371 237.975 433.12 236.452C432.149 236.254 431.2 236.033 430.207 236.165C430.152 235.9 429.953 235.801 429.721 235.823C429.655 235.823 429.6 235.978 429.534 236.066L430.174 236.209C430.604 237.125 431.575 237.291 432.337 237.732C439.951 242.047 446.551 247.455 451.263 254.97C453.249 258.137 454.607 261.547 455.203 265.244C456.163 271.159 453.305 276.81 447.875 279.922C443.582 282.372 438.881 283.387 434.047 284.016C429.059 284.656 424.049 284.513 419.05 284.458C417.03 284.436 415.044 283.785 412.483 284.237C414.801 285.241 416.677 286.179 418.476 287.25C423.321 290.152 427.635 293.628 430.659 298.506C432.436 301.364 433.407 304.41 433.275 307.831C433.153 311.131 431.697 313.658 429.136 315.578C425.439 318.348 421.091 319.209 416.622 319.474C408.698 319.96 400.907 318.812 393.171 317.267C392.531 317.135 391.902 316.936 391.019 317.112C391.88 318.117 393.027 318.481 393.987 319.077C396.007 320.335 398.038 321.582 399.561 323.48C401.801 326.294 401.735 329.274 399.285 331.923C396.757 334.659 393.403 335.686 389.871 336.293C383.713 337.352 377.809 335.94 371.916 334.45C369.929 333.953 367.987 333.291 366.023 332.673C365.394 332.474 364.809 332.154 364.125 332.342C364.114 332.276 364.125 332.209 364.092 332.154C364.07 332.121 364.003 332.121 363.959 332.11L364.169 332.309C365.361 333.754 366.575 335.189 367.733 336.657C369.267 338.599 370.547 340.685 371.232 343.091C372.225 346.6 370.978 349.469 367.689 351.036C363.75 352.912 359.567 352.813 355.395 352.294C347.461 351.312 339.879 349.039 332.562 345.838C332.275 345.706 331.933 345.684 331.624 345.618C331.591 345.552 331.569 345.452 331.514 345.43C331.337 345.364 331.271 345.43 331.393 345.607C331.415 345.651 331.525 345.629 331.602 345.64C331.448 346.556 332.132 347.152 332.485 347.858C333.478 349.845 334.273 351.886 334.703 354.093C335.697 359.17 333.677 363.672 329.097 366.078C324.837 368.307 320.191 368.881 315.479 368.661C309.884 368.385 304.454 367.16 299.301 364.864C297.347 363.992 295.482 362.977 293.694 361.796C287.956 357.978 282.063 354.413 276.081 350.992C274.658 350.176 273.146 349.535 271.656 348.862C267.518 346.986 263.49 347.483 259.561 349.392C257.431 350.429 255.389 351.676 253.304 352.813C247.466 355.98 241.208 357.801 234.609 358.452C233.384 358.574 232.137 358.585 231.342 359.766C230.912 360.406 230.206 360.505 229.577 360.329C228.164 359.931 226.785 360.295 225.449 360.538C216.367 362.194 205.32 357.062 202.936 344.194C202.539 342.02 202.418 339.835 202.363 337.451C201.413 337.738 201.171 338.467 200.785 339.041C197.419 344.018 193.766 348.752 189.407 352.901C185.875 356.256 182.024 359.148 177.4 360.88C176.153 361.344 174.873 361.62 173.581 361.785C168.538 362.425 164.863 359.247 164.554 354.038C164.322 350.198 165.271 346.534 166.563 342.991C167.578 340.232 168.836 337.562 169.995 334.847C170.083 334.737 170.26 334.56 170.237 334.527C170.039 334.218 169.884 334.439 169.741 334.604C167.909 335.145 166.419 336.348 164.775 337.242C159.709 339.989 154.523 342.395 148.773 343.4C147.537 343.62 146.323 343.664 145.098 343.576C140.419 343.245 137.483 340.056 137.351 335.332C137.274 332.551 137.98 329.969 139.073 327.464C141.125 322.763 143.961 318.558 147.338 314.696C148.089 313.846 148.938 313.062 149.402 311.903C148.409 311.33 147.78 312.069 147.118 312.378C142.074 314.762 136.987 317.035 131.657 318.735C127.342 320.114 122.927 321.14 118.414 321.24C114.728 321.317 111.009 320.953 107.775 318.812C104.023 316.34 102.666 312.809 103.173 308.427C103.791 303.064 106.572 298.727 109.773 294.622C113.679 289.589 118.403 285.407 123.468 281.588C123.976 281.213 124.638 280.981 124.847 280.264C124.274 279.812 123.744 280.121 123.225 280.264C117.211 281.897 111.119 283.233 104.906 283.829C100.227 284.281 95.5806 284.082 91.0339 282.615C83.4633 280.165 79.1594 273.499 81.4879 265.024C82.6908 260.642 84.9643 256.912 87.8115 253.458C93.0535 247.102 99.5425 242.268 106.55 238.063C111.417 235.15 116.482 232.634 121.857 230.758C122.166 230.647 122.464 230.526 122.751 230.36C122.861 230.294 122.916 230.129 123.148 229.753C118.59 229.753 114.187 229.875 109.795 229.72C105.458 229.566 101.143 229.025 96.916 227.91C94.753 227.337 92.7113 226.542 90.7469 225.482C84.1475 221.918 82.5143 215.683 85.2843 209.359C87.7452 203.753 92.1043 199.802 97.2359 196.635C102.036 193.677 107.267 191.801 112.675 190.345C113.227 190.201 113.801 190.124 114.397 189.583C112.973 189.098 111.627 188.7 110.324 188.182C99.4762 183.823 92.8327 175.766 89.8531 164.609C88.6723 160.173 89.0585 155.825 91.5416 151.819C94.1129 147.669 98.1188 145.826 102.732 144.988C108.25 143.983 113.679 144.745 119.098 145.705C124.274 146.621 129.35 147.934 134.338 149.59C135.122 149.855 135.905 150.064 136.733 150.075C136.91 150.285 137.097 150.417 137.307 150.13C137.307 150.119 137.086 149.932 136.976 149.832C134.868 147.89 132.639 146.091 130.663 144.006C128.257 141.478 126.304 138.664 125.013 135.42C122.122 128.202 125.101 121.404 132.252 118.877C134.117 118.215 136.038 117.895 138.024 117.796C143.763 117.498 149.281 118.557 154.754 120.124C158.705 121.261 162.546 122.684 166.331 124.251C167.004 124.527 167.633 124.991 168.428 124.792C168.439 125.046 168.494 125.223 168.77 124.98L168.439 124.77C166.905 122.453 164.852 120.522 163.45 118.105C162.038 115.666 160.99 113.172 160.879 110.258C160.725 106.506 162.347 103.791 165.271 101.716C167.677 100.006 170.425 99.2777 173.339 99.0901C180.015 98.6487 186.129 100.657 192.066 103.361C195.421 104.895 198.677 106.627 201.987 108.261C202.716 108.625 203.389 109.133 204.25 109.166C204.404 109.364 204.559 109.563 204.779 109.254C204.79 109.232 204.581 109.055 204.47 108.956L204.481 109ZM150.064 311.407C150.064 311.407 149.965 311.264 149.921 311.253C149.865 311.253 149.81 311.341 149.755 311.385C149.81 311.44 149.854 311.528 149.91 311.528C149.965 311.528 150.02 311.44 150.064 311.407Z" fill="#56CAEC"/>
<path d="M353.917 384.872C354.568 385.446 355.34 385.446 356.035 385.678C358.342 386.45 360.35 387.653 361.686 389.794C363.165 392.178 363.032 394.937 361.233 397.111C360.13 398.446 358.816 399.55 357.26 400.366C354.181 401.989 350.882 402.938 347.538 403.787C346.743 403.986 345.96 404.196 345.187 404.394C345.187 405.156 345.805 405.399 346.136 405.84C347.372 407.462 347.681 409.261 347.03 411.181C346.523 412.671 345.783 414.051 344.636 415.154C340.563 419.072 335.774 421.268 330.035 421.18C328.402 421.158 326.89 420.805 325.941 419.37C325.312 418.41 324.793 418.829 324.131 419.237C321.803 420.705 319.309 421.555 316.505 421.676C311.595 421.875 308.571 418.962 308.56 413.786C308.56 410.552 309.365 407.462 311.539 404.869C312.842 403.313 312.511 401.216 310.877 400.002C307.335 397.376 306.982 394.484 309.774 391.085C310.888 389.739 312.29 388.746 313.813 387.896C314.508 387.51 315.203 387.112 315.755 386.814C315.909 386.307 315.7 386.152 315.534 385.976C313.415 383.581 313.371 381.65 315.435 379.266C317.852 376.463 321.063 375.105 324.573 374.311C328.711 373.384 332.54 374.09 335.741 376.364C336.281 376.474 336.403 376.386 336.425 376.176C336.855 371.739 339.747 370.04 344.161 370.007C346.964 369.985 349.602 370.967 351.996 372.578C355.407 374.874 357.713 379.498 354.391 384.089C354.204 384.343 354.082 384.629 353.928 384.894L353.917 384.872Z" fill="#56CAEC"/>
<path d="M430.163 236.253L429.523 236.11C429.589 236.022 429.644 235.878 429.71 235.867C429.953 235.845 430.141 235.945 430.196 236.209L430.163 236.253Z" fill="#56CAEC"/>
<path d="M204.482 109C204.592 109.1 204.802 109.277 204.791 109.299C204.57 109.608 204.415 109.409 204.261 109.21C204.327 109.144 204.404 109.067 204.482 109Z" fill="#56CAEC"/>
<path d="M168.45 124.825L168.781 125.036C168.505 125.268 168.45 125.091 168.439 124.847L168.461 124.825H168.45Z" fill="#56CAEC"/>
<path d="M136.976 149.899C137.097 149.998 137.318 150.185 137.307 150.197C137.097 150.483 136.909 150.34 136.733 150.142C136.81 150.064 136.887 149.987 136.976 149.899Z" fill="#56CAEC"/>
<path d="M150.065 311.418C150.065 311.418 149.965 311.54 149.91 311.54C149.855 311.54 149.799 311.451 149.755 311.396C149.81 311.352 149.866 311.264 149.921 311.264C149.976 311.264 150.02 311.363 150.065 311.418Z" fill="#56CAEC"/>
<path d="M364.147 332.342L363.937 332.143C363.937 332.143 364.048 332.165 364.07 332.187C364.103 332.243 364.092 332.309 364.103 332.375L364.136 332.342H364.147Z" fill="#56CAEC"/>
<path d="M169.741 334.638C169.885 334.483 170.039 334.251 170.238 334.56C170.26 334.605 170.084 334.77 169.995 334.881C169.907 334.804 169.829 334.715 169.741 334.638Z" fill="#56CAEC"/>
<path d="M331.581 345.685C331.514 345.685 331.393 345.685 331.371 345.651C331.26 345.474 331.315 345.397 331.492 345.475C331.547 345.497 331.57 345.596 331.603 345.662L331.581 345.685Z" fill="#56CAEC"/>
<path d="M199.482 299.345C200.255 300.283 200.188 301.475 200.442 302.556C201.127 305.503 201.899 308.416 203.047 311.705C204.658 308.041 205.751 304.256 210.684 304.708C210.529 302.413 209.227 300.459 209.459 297.723C210.65 300.504 211.588 302.843 212.626 305.128C218.111 317.101 224.379 328.623 232.854 338.787C235.9 342.439 239.222 345.86 243.129 348.652C244.111 349.359 245.049 350.197 246.483 350.506C247.035 348.917 246.815 347.284 246.682 345.728C246.561 344.338 246.417 342.947 246.417 341.557C246.406 334.483 245.457 327.497 244.276 320.544C243.04 313.261 241.264 306.098 238.692 299.157C237.898 296.994 237.004 294.942 235.249 293.286C233.55 291.686 233.207 289.379 233.097 287.15C232.733 279.491 234.024 272.097 237.214 265.112C239.068 261.04 241.65 257.442 245.082 254.517C246.605 253.215 248.349 252.299 250.269 251.803C254.451 250.699 257.045 252.123 257.519 256.725C258.17 263.191 259.616 269.482 260.686 275.85C262.22 284.976 264.174 294.037 266.569 302.987C267.904 307.953 269.294 312.896 271.17 317.907C272.958 315.567 274.073 313.095 275.353 310.733C279.723 302.633 283.475 294.246 286.808 285.671C287.934 282.769 289.015 279.845 290.108 276.92C290.306 276.379 290.682 275.816 290.638 275.298C290.428 273.168 291.841 272.252 293.363 271.358C297.138 269.129 301.276 267.76 305.425 266.469C312.268 264.328 319.231 262.86 326.471 263.357C328.314 263.478 330.024 263.931 331.525 265.046C334.03 266.911 334.262 269.559 334.008 272.362C333.953 272.925 333.765 273.488 333.677 274.051C333.401 275.927 333.997 276.765 336.017 277.361C335.95 277.814 335.509 278.09 335.509 278.609C335.509 279.304 335.067 279.745 334.383 279.392C333.434 278.906 332.794 279.436 332.154 279.911C331.106 280.694 330.057 281.489 329.097 282.383C319.971 290.847 311.793 300.106 305.116 310.645C297.204 323.138 291.774 336.59 289.335 351.191C288.177 358.088 287.834 365.074 288.331 372.048C288.993 381.252 290.66 390.268 294.699 398.678C296.288 401.988 296.31 401.756 299.963 401.569C306.088 401.26 311.617 399.02 317.168 396.78C321.196 395.157 325.268 393.612 329.053 391.438C329.34 391.273 329.627 391.129 329.903 390.953C332.408 389.352 332.375 389.385 334.714 391.427C336.116 392.652 337.44 393.976 339.107 394.87C338.798 395.908 338.323 396.691 337.021 396.404C336.27 396.239 335.575 396.481 334.913 396.857C323.767 403.092 313.25 410.177 304.101 419.182C302.865 420.396 302.534 421.489 302.876 423.276C305.437 436.586 309.707 449.277 316.13 461.228C318.966 466.514 322.156 471.58 326.095 476.138C326.415 476.502 326.769 476.866 326.824 477.429C326.438 478.058 325.809 477.716 325.301 477.716C319.308 477.76 313.305 477.683 307.313 477.848C303.638 477.947 299.941 478.135 296.277 478.632C294.919 478.819 293.54 478.786 292.061 478.676C293.893 477.186 295.295 475.486 296.244 473.379C296.751 472.253 297.082 471.149 296.409 470.112C295.659 468.953 294.39 468.799 293.098 469.031C292.701 469.108 292.304 469.229 291.918 469.362C285.241 471.779 278.145 472.198 271.292 473.787C268.577 474.416 265.84 474.913 263.114 475.508C262.408 475.663 261.724 475.873 260.797 475.685C261.492 474.515 262.662 474.162 263.534 473.5C264.262 472.959 265.057 472.485 265.487 471.668C265.951 470.796 265.553 469.947 264.571 469.902C263.103 469.825 261.613 469.682 260.146 469.98C258.137 470.388 256.14 470.84 254.142 471.304C252.09 471.778 250.114 472.551 247.918 471.845C246.837 471.503 245.656 471.933 244.552 472.33C241.076 473.588 237.699 475.1 234.344 476.634C227.623 479.713 220.859 482.682 214.314 486.114C213.917 486.324 213.52 486.765 212.968 486.39C212.835 485.684 213.409 485.363 213.785 484.988C215.705 483.09 217.526 481.071 219.722 479.448C220.572 478.819 221.311 478.025 222.028 477.23C222.724 476.447 223.673 475.575 222.966 474.438C222.26 473.29 221.101 473.743 220.075 474.074C219.689 474.195 219.291 474.328 218.905 474.471C214.778 476.082 210.65 477.694 206.733 479.79C206.093 480.133 205.53 480.662 204.603 480.607C204.36 478.886 205.022 477.462 205.982 476.104C210.728 469.406 215.142 462.475 219.247 455.368C226.862 442.191 233.472 428.54 237.964 413.951C240.182 406.734 241.738 399.384 242.511 391.846C242.93 387.741 242.809 383.658 242.974 379.553C243.029 378.261 242.544 377.423 241.551 376.639C231.508 368.804 223.816 358.916 217.15 348.211C210.021 336.778 204.967 324.418 201.436 311.451C200.365 307.511 199.328 303.527 199.537 299.356L199.515 299.378L199.482 299.345Z" fill="#FFBF7B"/>
<path d="M209.095 297.028L209.05 296.817L209.183 296.851L209.095 297.028Z" fill="#FFBF7B"/>
<path d="M199.516 299.323L199.339 299.234L199.483 299.356L199.505 299.334L199.516 299.323Z" fill="#FFBF7B"/>
<path d="M211.831 487.129C211.876 487.063 211.942 486.942 211.964 486.942C212.108 486.986 212.063 487.052 211.809 487.107L211.831 487.129Z" fill="#FFBF7B"/>
<path d="M211.81 487.118L211.699 487.262L211.832 487.129L211.81 487.118Z" fill="#FFBF7B"/>
<path d="M317.686 290.637C317.631 289.015 317.984 287.581 318.326 286.146C318.448 285.638 318.933 285.042 318.249 284.601C317.653 284.215 317.156 284.689 316.671 284.965C315.17 285.804 313.658 286.621 312.025 287.216C310.789 287.669 309.542 288.033 308.206 288.077C304.565 288.177 302.313 285.87 302.611 282.228C302.7 281.169 303.019 280.142 303.218 279.094C303.384 278.222 302.92 278.057 302.247 278.366C301.651 278.631 301.099 279.006 300.525 279.326C298.164 280.661 295.736 281.831 293.032 282.338C291.73 282.592 290.428 282.647 289.125 282.372C284.733 281.445 282.681 278.233 283.63 273.819C284.071 271.777 284.921 269.934 286.113 268.246C286.543 267.639 287.018 267.076 287.647 266.668C288.011 266.436 288.375 266.27 288.739 266.646C289.004 266.922 288.96 267.231 288.783 267.54C288.496 268.036 288.187 268.522 287.912 269.018C286.94 270.751 286.234 272.583 285.969 274.558C285.583 277.439 287.128 279.337 290.019 279.568C292.039 279.723 293.915 279.105 295.714 278.277C300.371 276.136 304.531 273.234 308.372 269.868C309.862 268.555 310.756 268.268 311.539 268.974C312.334 269.681 312.113 270.652 310.8 272.13C308.581 274.624 307.003 277.483 306.121 280.683C305.778 281.919 305.337 283.365 306.419 284.424C307.533 285.517 308.924 284.888 310.149 284.502C313.239 283.542 315.898 281.732 318.58 279.999C319.684 279.282 320.743 278.52 321.813 277.748C323.546 276.49 324.341 276.28 325.036 277.064C326.084 278.255 325.135 279.16 324.539 280.12C322.928 282.714 321.714 285.484 321.107 288.497C320.301 292.536 321.273 294.632 324.914 296.586C325.709 297.016 326.515 297.424 327.342 297.789C328.015 298.086 328.468 298.506 328.269 299.29C328.038 300.194 327.331 300.305 326.526 300.261C322.056 300.062 317.918 295.99 317.686 291.52C317.664 291.189 317.686 290.869 317.686 290.659V290.637Z" fill="#150050"/>
<path d="M260.576 271.987C259.704 272.064 259.649 272.859 259.307 273.377C258.49 274.602 257.806 275.927 256.901 277.085C253.657 281.257 250.909 281.687 246.583 278.686C246.086 279.558 246.02 280.529 245.854 281.467C244.927 286.665 243.415 291.664 240.822 296.299C239.652 298.384 238.262 300.316 236.33 301.783C235.326 302.545 234.256 303.108 232.932 302.953C232.512 302.909 232.104 302.821 232.015 302.324C231.927 301.861 232.148 301.541 232.6 301.397C235.337 300.492 236.662 298.175 237.942 295.89C241.01 290.45 242.466 284.501 243.338 278.366C243.724 275.596 243.956 272.826 243.868 270.022C243.857 269.614 243.846 269.195 243.945 268.797C244.122 268.102 244.563 267.65 245.325 267.628C246.064 267.606 246.627 267.937 246.825 268.654C247.035 269.438 247.157 270.254 247.267 271.071C247.466 272.55 247.852 273.973 248.503 275.298C249.805 277.968 251.328 278.233 253.436 276.192C254.628 275.033 255.466 273.631 256.272 272.185C257.983 269.095 259.274 265.807 260.587 262.54C260.863 261.856 261.139 261.172 261.503 260.532C261.867 259.903 262.507 259.704 263.214 259.848C263.964 259.991 264.328 260.554 264.416 261.227C264.494 261.779 264.383 262.364 264.317 262.927C263.997 265.377 263.732 267.826 264.019 270.287C264.13 271.258 264.306 272.241 264.604 273.168C265.973 277.571 268.687 279.204 273.212 278.421C274.018 278.277 274.823 278.09 275.64 278.023C276.468 277.957 277.384 277.968 277.626 279.017C277.847 279.944 277.063 280.286 276.434 280.661C271.623 283.497 265.288 281.764 262.585 276.865C261.945 275.706 261.536 274.459 261.172 273.201C261.04 272.76 261.106 272.197 260.576 271.976V271.987Z" fill="#150050"/>
<path d="M205.706 311.539C205.132 313.173 204.592 314.773 203.996 316.362C203.477 317.752 202.815 319.076 201.767 320.158C201.071 320.875 200.31 321.527 198.997 320.809C201.7 317.223 202.44 312.952 203.201 308.714C203.389 307.666 203.466 306.595 203.499 305.536C203.532 304.62 203.687 303.737 203.996 302.887C204.095 302.622 204.437 302.357 204.713 302.291C205.176 302.17 205.486 302.523 205.629 302.92C205.817 303.45 205.938 304.024 206.07 304.576C206.335 305.701 206.733 306.772 207.34 307.754C208.708 309.972 210.573 310.402 212.725 308.902C213.464 308.394 214.093 307.732 214.734 307.103C215.318 306.529 215.837 305.878 216.411 305.304C216.974 304.741 217.559 303.913 218.475 304.576C219.192 305.094 218.938 305.911 218.728 306.617C217.106 311.859 211.334 314.287 206.512 311.771C206.313 311.672 206.07 311.65 205.695 311.55L205.706 311.539Z" fill="#150050"/>
<path d="M250.765 482.197V481.215C251.648 479.537 252.884 478.235 254.44 477.087C256.118 475.851 258.027 474.858 259.384 473.026C259.031 472.982 258.788 472.883 258.579 472.927C253.017 474.207 247.532 475.719 242.146 477.705C233.141 481.027 224.5 485.099 215.992 489.491C214.899 490.054 213.906 490.805 212.78 491.279C211.015 492.03 209.492 491.445 208.333 489.767C207.582 488.675 207.715 487.273 208.863 485.949C209.613 485.088 210.474 484.338 211.368 483.609C213.133 482.186 214.987 480.828 216.279 478.853C214.689 479.294 213.155 479.835 211.721 480.541C206.368 483.19 201.171 486.114 196.227 489.48C193.644 491.235 192.221 491.003 190.135 488.597C189.682 486.335 191.139 485 192.684 483.94C200.619 478.5 208.929 473.776 218.144 470.808C219.622 470.333 221.09 469.837 222.679 469.848C225.703 469.87 227.425 471.227 228.054 474.141C228.462 475.995 228.451 475.983 230.239 475.2C238.571 471.547 247.123 468.546 256.018 466.548C259.075 465.864 262.198 465.753 265.299 465.952C267.551 466.107 269.416 467.078 269.99 469.517C270.299 470.83 271.126 470.984 272.219 470.686C275.21 469.859 278.189 468.998 281.191 468.192C284.502 467.309 287.912 466.868 291.3 466.504C293.617 466.25 296.078 466.636 298.043 468.159C299.532 469.307 300.559 470.797 299.775 472.86C299.422 473.81 299.775 474.273 300.768 474.284C301.342 474.284 301.938 474.372 302.49 474.262C307.379 473.291 312.323 473.688 317.212 473.909C322.509 474.152 327.751 475.233 332.606 477.562C333.633 478.047 334.593 478.72 335.465 479.449C336.657 480.442 336.999 482.097 336.149 483.179C334.88 484.801 334.096 485.673 332.033 484.845C331.348 484.569 330.697 484.205 330.046 483.874C326.945 482.296 323.623 481.656 320.191 481.137C315.766 480.464 311.352 480.872 306.937 480.718C302.622 480.641 298.407 481.435 294.235 482.428C291.344 483.113 288.375 483.653 285.738 485.154H284.259C284.06 484.867 283.751 484.779 283.464 484.636C281.025 483.377 280.65 481.259 282.526 479.272C282.912 478.864 283.398 478.533 283.861 478.213C285.616 477.01 287.393 475.84 289.126 474.626C289.446 474.405 290.174 474.317 289.699 473.434C288.75 473.898 287.68 473.71 286.654 473.931C276.611 476.017 266.988 479.394 257.696 483.676C254.286 485.243 253.05 485.055 250.743 482.197H250.765Z" fill="#150050"/>
<path d="M190.135 488.609C192.221 491.014 193.633 491.246 196.227 489.491C201.171 486.126 206.368 483.201 211.721 480.552C213.155 479.835 214.689 479.305 216.279 478.864C214.976 480.85 213.133 482.208 211.368 483.62C210.463 484.349 209.602 485.099 208.863 485.96C207.715 487.273 207.582 488.686 208.333 489.778C209.492 491.456 211.015 492.041 212.78 491.29C213.906 490.816 214.899 490.065 215.992 489.502C224.5 485.11 233.152 481.038 242.146 477.716C247.521 475.73 253.006 474.218 258.579 472.938C258.788 472.894 259.031 472.993 259.384 473.037C258.027 474.858 256.118 475.862 254.44 477.098C252.895 478.246 251.659 479.548 250.765 481.226C249.375 480.895 249.64 480.012 250.169 479.195C250.567 478.588 251.174 478.125 251.67 477.573C251.891 477.341 252.134 477.076 251.99 476.712C251.803 476.226 251.328 476.259 250.942 476.303C249.066 476.546 247.3 477.253 245.567 477.948C237.456 481.214 229.301 484.349 221.521 488.377C219.28 489.536 217.018 490.65 214.866 491.974C211.776 493.884 209.183 493.288 206.942 490.385C206.137 489.337 206.39 488.211 206.49 487.096C206.545 486.501 207.229 485.828 206.446 485.342C205.739 484.912 205.287 485.695 204.724 485.96C201.59 487.416 198.875 489.547 196.006 491.423C193.699 492.924 190.311 491.699 189.462 489.745C189.131 488.984 189.373 488.675 190.124 488.609H190.135Z" fill="#150050"/>
<path d="M250.765 482.197C253.072 485.055 254.319 485.243 257.718 483.676C267.021 479.383 276.633 476.017 286.676 473.931C287.702 473.721 288.772 473.898 289.722 473.434C290.207 474.317 289.468 474.405 289.148 474.626C287.415 475.851 285.627 477.01 283.884 478.213C283.409 478.533 282.935 478.864 282.548 479.272C280.672 481.259 281.036 483.377 283.486 484.635C283.773 484.79 284.082 484.867 284.281 485.154C283.95 486.545 283.078 486.269 282.239 485.75C279.646 484.128 279.182 481.545 280.926 479.029C281.522 478.168 282.438 477.606 283.078 476.855C282.725 476.116 282.162 476.248 281.743 476.392C274.89 478.809 267.849 480.685 261.249 483.819C259.859 484.481 258.369 484.9 256.967 485.596C254.86 486.655 252.84 486.291 251.074 484.713C250.258 483.984 249.849 483.168 250.743 482.197H250.765Z" fill="#150050"/>
<path d="M285.76 485.154C288.397 483.642 291.366 483.113 294.257 482.428C298.429 481.435 302.633 480.641 306.959 480.718C306.86 482.042 305.944 482.307 304.885 482.175C301.629 481.788 298.616 482.991 295.493 483.499C292.845 483.929 290.384 485.077 287.835 485.85C286.963 486.114 286.058 486.545 285.76 485.154Z" fill="#150050"/>
<path d="M321.604 282.218C320.942 281.886 320.567 282.471 320.114 282.736C318.404 283.718 316.726 284.745 315.016 285.716C313.051 286.819 311.043 287.691 308.747 286.588C308.328 286.389 307.787 286.4 307.291 286.367C305.271 286.224 304.576 285.539 304.532 283.531C304.499 282.03 304.874 280.606 305.304 279.183C305.624 278.101 306.209 276.909 305.183 275.949C304.09 274.923 303.274 276.391 302.28 276.468C301.861 276.501 301.453 276.678 301.232 277.042C299.389 280.099 296.155 280.672 293.11 281.522C291.94 281.842 290.737 281.975 289.468 281.677C286.367 280.959 284.612 279.083 284.358 275.905C284.138 273.124 284.8 270.497 286.08 268.07C288.541 263.39 291.907 259.649 296.829 257.31C299.698 255.941 302.325 254.043 305.359 252.951C315.148 249.408 324.915 249.209 334.207 254.242C343.19 259.098 348.001 266.701 347.273 277.196C346.865 283.122 344.227 288.21 340.641 292.834C338.301 295.847 335.509 298.374 332.198 300.272C329.892 301.607 327.42 302.413 324.694 302.28C321.571 302.126 319.275 300.382 318.326 297.392C317.741 295.538 317.763 293.673 318.106 291.785C318.668 288.773 319.772 285.959 321.394 283.343C321.604 283.012 321.902 282.692 321.626 282.229L321.604 282.218Z" fill="#56CAEC"/>
<path d="M245.932 274.371C244.839 280.871 243.515 286.709 241.363 292.326C239.917 296.089 238.284 299.775 235.702 302.932C233.682 305.404 231.199 306.993 227.833 306.684C226.652 306.573 225.582 306.22 224.732 305.359C224.379 304.995 224.081 304.587 224.644 304.013C225.505 304.488 226.112 305.79 227.535 305.095C223.827 299.19 224.478 292.58 225.019 286.212C226.045 274.073 230.438 263.081 238.096 253.524C243.305 247.024 249.64 242.102 257.884 240.028C260.852 239.277 263.854 238.99 266.9 239.686C271.667 240.778 275.022 243.681 277.019 247.962C280.816 256.096 280.75 264.317 276.898 272.462C276.291 273.742 275.441 274.834 274.415 275.806C271.623 278.443 268.39 278.322 265.741 275.497C264.24 273.896 263.412 271.932 262.695 269.912C262.232 268.599 261.867 267.253 261.459 265.929C260.455 265.984 260.543 266.812 260.367 267.363C259.561 269.868 258.623 272.318 257.332 274.625C256.526 276.059 255.654 277.461 254.264 278.421C252.068 279.944 250.18 279.723 248.304 277.836C247.444 276.964 246.925 275.85 245.932 274.36V274.371ZM238.935 255.941C239.09 255.61 239.244 255.279 239.41 254.948C239.686 254.882 239.851 254.716 239.917 254.451C240.657 254.418 241.054 253.844 241.517 253.403C243.36 251.615 245.413 250.159 247.742 249.088C253.811 246.318 260.245 247.411 264.924 252.156C269.096 256.372 271.369 261.57 272.34 267.352C272.572 268.721 272.473 270.133 271.987 271.469C271.104 273.885 269.372 274.338 267.507 272.594C266.856 271.987 266.249 271.325 265.609 270.685L265.288 270.089C265.233 270.144 265.145 270.199 265.134 270.266C265.079 270.531 265.189 270.729 265.432 270.851C265.498 272.175 266.282 273.135 267.12 274.04C269.074 276.137 271.049 276.181 273.102 274.217C274.007 273.345 274.691 272.318 275.176 271.193C278.366 263.81 278.553 256.338 275.221 249C272.539 243.085 266.822 240.436 260.378 241.495C255.213 242.334 250.666 244.519 246.627 247.709C244.133 249.673 241.551 251.626 239.939 254.484L239.432 254.981C239.112 255.224 239.045 255.599 238.957 255.963L238.836 256.041L238.935 255.941Z" fill="#56CAEC"/>
<path d="M205.607 309.729C204.934 310.414 204.978 311.186 204.824 311.903C204.15 315.137 203.201 318.271 201.491 321.118C200.42 322.906 199.063 324.429 197.121 325.323C195.024 326.294 193.655 326.051 192 324.429C190.256 322.719 189.451 320.644 189.694 318.194C189.738 317.774 189.837 317.388 190.543 317.223C190.874 318.591 190.576 320.202 191.669 321.394C192.342 321.008 192.066 320.512 192 320.092C190.687 310.999 192.188 302.424 196.9 294.5C199.56 290.031 203.157 286.51 207.958 284.325C209.006 283.84 210.088 283.453 211.235 283.277C214.976 282.692 218.276 284.745 219.512 288.32C220.252 290.472 220.263 292.69 220.119 294.897C219.81 299.985 218.541 304.774 215.33 308.88C215.076 309.2 214.833 309.542 214.546 309.829C211.544 312.897 208.642 312.897 205.596 309.729H205.607Z" fill="#56CAEC"/>
<path d="M239.399 254.948L238.924 255.941L238.946 255.963C239.034 255.599 239.101 255.224 239.421 254.981L239.399 254.959V254.948Z" fill="#FFF6E8"/>
<path d="M265.421 270.851C265.178 270.729 265.068 270.53 265.123 270.266C265.134 270.199 265.222 270.155 265.277 270.089C265.388 270.288 265.487 270.486 265.597 270.685L265.421 270.851Z" fill="#FFF6E8"/>
<path d="M239.421 254.982C239.587 254.816 239.763 254.65 239.929 254.484L239.907 254.462C239.841 254.728 239.675 254.894 239.399 254.96L239.421 254.982Z" fill="#FFF6E8"/>
<path d="M238.925 255.941L238.825 256.041L238.947 255.963L238.925 255.941Z" fill="#FFF6E8"/>
</svg>
