<svg width="550" height="550" viewBox="0 0 550 550" fill="none" xmlns="http://www.w3.org/2000/svg">
<path d="M275 548.861C426.878 548.861 550 425.994 550 274.43C550 122.867 426.878 0 275 0C123.122 0 0 122.867 0 274.43C0 425.994 123.122 548.861 275 548.861Z" fill="#FFF6E8"/>
<path d="M412.484 217.361H129.869V466.132H412.484V217.361Z" fill="#EF6051"/>
<path d="M89.7426 478.642C99.7741 473.092 110.126 468.169 120.654 463.621C123.501 462.387 126.47 461.407 129.206 459.931C131.723 457.96 134.835 457.299 137.737 456.242C151.797 451.088 166.088 446.672 180.677 443.225C182.255 442.894 183.789 442.388 185.39 442.179C193.975 439.998 202.694 438.566 211.434 437.179C212.626 436.991 213.796 436.716 214.987 436.54C223.253 435.538 231.508 434.447 239.807 433.853C242.477 433.655 245.148 433.533 247.83 433.324C264.99 432.388 282.14 432.696 299.256 434.194C312.312 435.582 325.323 437.289 338.169 440.042C349.282 442.421 360.251 445.306 371.055 448.852C371.53 449.006 371.993 449.194 372.435 449.414C373.891 449.931 375.348 450.438 376.827 450.901C389.065 455.174 400.94 460.295 412.494 466.176C412.881 466.341 413.245 466.561 413.598 466.792C420.915 470.691 428.132 474.766 435.074 479.314C438.693 481.682 442.225 484.16 445.734 486.682C446.242 487.045 446.805 487.409 446.926 488.113C440.878 493.256 434.467 497.915 427.911 502.397C415.717 510.745 402.904 518.013 389.518 524.247C375.812 530.634 361.686 535.876 347.097 539.885C339.647 541.933 332.154 543.729 324.573 545.149C318.381 546.306 312.157 547.219 305.9 547.979C300.349 548.651 294.765 548.971 289.203 549.521C287.934 549.642 286.654 549.62 285.373 549.609C281.257 549.576 277.163 550.127 273.046 549.973C265.399 549.686 257.762 549.499 250.125 548.86C235.768 547.66 221.62 545.27 207.66 541.823C194.571 538.596 181.803 534.368 169.343 529.225C151.19 521.725 134.04 512.397 117.917 501.208C109.993 495.712 102.356 489.853 95.0838 483.521C93.274 481.946 91.4752 480.36 89.7426 478.686V478.642Z" fill="#FFBF7B"/>
<path d="M214.943 436.904C213.101 437.928 211.004 437.796 209.017 438.126C201.116 439.459 193.236 440.858 185.445 442.73C184.738 442.003 184.838 441.012 184.628 440.142C181.152 425.23 175.954 410.947 168.847 397.39C165.724 391.432 162.204 385.683 158.098 380.32C157.16 379.086 156.112 377.919 155.417 376.498C155.549 374.031 155.957 371.597 155.935 369.12C155.891 362.523 153.165 357.402 147.813 353.613C147.703 353.536 147.57 353.47 147.46 353.371C146.853 352.831 145.606 352.512 145.915 351.598C146.235 350.629 147.382 351.18 148.188 351.213C154.898 351.466 161.221 350.574 166.187 345.42C170.26 341.191 171.507 335.982 171.12 330.365C170.657 323.46 168.185 317.249 163.495 312.084C157.215 305.168 149.071 302.183 140.044 307.051C139.602 307.293 139.161 307.502 138.642 307.491C138.278 307.436 138.035 307.238 137.925 306.886C138.057 305.002 139.139 303.45 139.79 301.754C143.255 292.789 138.532 284.023 133.08 280.08C131.921 279.243 130.354 278.77 129.858 277.173C129.902 270.235 129.946 263.308 129.979 256.37C130.023 244.696 130.089 233.022 130.056 221.338C130.056 219.597 130.696 218.441 131.966 217.362C147.482 204.113 162.965 190.832 178.448 177.55C180.975 175.381 183.469 173.189 185.975 171.009C186.857 169.114 188.7 168.156 190.168 166.89C197.816 160.304 205.431 153.685 213.178 147.21C213.387 147.011 213.608 146.802 213.829 146.604C219.733 141.67 225.438 136.527 231.365 131.615C231.497 131.494 231.64 131.373 231.784 131.252C231.85 131.186 231.916 131.131 231.983 131.076C232.115 130.944 232.247 130.833 232.38 130.712C232.446 130.646 232.512 130.591 232.579 130.525C232.843 130.272 233.108 130.018 233.384 129.787C233.528 129.666 233.682 129.556 233.837 129.446C236.331 127.298 238.858 125.184 241.33 123.003C241.871 122.464 242.511 122.056 243.118 121.605C243.636 121.197 244.078 120.713 244.541 120.25C247.874 117.53 251.075 114.655 254.363 111.891C254.672 111.682 254.981 111.484 255.268 111.242C255.4 111.109 255.533 110.988 255.676 110.856C255.809 110.713 255.941 110.581 256.074 110.449C256.14 110.372 256.206 110.305 256.272 110.239C260.278 106.88 264.174 103.411 268.169 100.041C270.111 98.4003 271.623 98.4334 273.609 100.118C279.26 104.909 284.811 109.821 290.516 114.545C290.682 114.667 290.836 114.799 290.98 114.931C291.267 115.206 291.543 115.481 291.83 115.757C297.314 120.415 302.766 125.129 308.273 129.765C308.427 129.875 308.571 129.996 308.703 130.118C308.836 130.239 308.968 130.36 309.089 130.492C309.156 130.547 309.211 130.613 309.277 130.679C309.564 130.988 309.851 131.296 310.16 131.582C310.292 131.681 310.414 131.792 310.535 131.902C310.679 131.99 310.811 132.078 310.955 132.177C311.109 132.265 311.241 132.364 311.385 132.463C311.738 132.75 312.069 133.047 312.4 133.355C315.358 135.778 318.128 138.41 321.13 140.778C326.725 145.767 332.485 150.535 338.158 155.425C341.535 158.333 344.912 161.229 348.311 164.092C348.443 164.214 348.575 164.346 348.697 164.489C348.818 164.61 348.94 164.742 349.05 164.874C349.105 164.929 349.171 164.995 349.227 165.061C349.348 165.172 349.48 165.293 349.602 165.403C349.679 165.447 349.745 165.502 349.811 165.557C350.12 165.744 350.44 165.909 350.727 166.13C358.695 173.123 366.795 179.951 374.84 186.845C381.175 192.263 387.432 197.77 393.822 203.122C394.517 203.871 395.268 204.576 396.128 205.127C396.283 205.237 396.415 205.358 396.559 205.479C396.702 205.6 396.835 205.732 396.967 205.853C397.033 205.919 397.1 205.985 397.166 206.04C397.674 206.58 398.225 207.054 398.854 207.45C399.086 207.604 399.307 207.791 399.517 207.979C399.66 208.1 399.803 208.232 399.936 208.364C400.002 208.43 400.068 208.496 400.134 208.562C401.073 209.631 402.397 210.28 403.324 211.349C403.456 211.47 403.578 211.602 403.699 211.734C403.831 211.855 403.953 211.987 404.085 212.109C404.151 212.164 404.218 212.219 404.295 212.274C404.659 212.549 405.079 212.758 405.443 213.045C405.608 213.166 405.752 213.298 405.895 213.43C406.811 214.421 407.882 215.258 408.974 216.018C411.402 217.725 412.55 219.928 412.174 222.89C412.174 223.716 412.186 224.542 412.208 225.379C412.208 225.643 412.208 225.897 412.208 226.161C412.285 247.251 412.163 268.341 412.384 289.419C412.45 295.774 412.693 302.139 412.715 308.505C412.715 309.562 412.781 310.63 412.517 311.665C412.141 312.822 411.281 312.656 410.442 312.348C399.086 308.218 385.501 317.095 381.109 325.519C377.831 331.808 379.156 337.248 385.148 341.642C387.289 343.217 389.661 344.286 392.089 345.299C392.608 345.519 393.149 345.706 393.645 345.981C394.054 346.213 394.661 346.411 394.528 347.006C394.396 347.578 393.778 347.622 393.303 347.644C391.107 347.733 388.922 347.755 386.737 348.151C383.57 348.724 380.557 349.649 377.677 351.102C372.048 353.944 369.323 360.287 369.841 366.421C370.801 377.644 376.507 386.024 385.656 392.28C387.973 393.866 390.6 394.724 393.281 395.44C393.966 395.617 394.694 395.694 395.113 396.388C395.135 398.425 393.877 399.956 392.983 401.608C386.77 413.072 381.627 425.01 377.07 437.212C375.679 440.924 374.432 444.679 373.196 448.446C373.02 448.985 372.876 449.536 372.424 449.932C364.875 447.355 357.194 445.186 349.458 443.225C340.839 441.034 332.121 439.283 323.359 437.84C318.779 437.08 314.155 436.474 309.531 435.924C306.242 435.538 302.92 435.439 299.665 434.746C298.881 434.03 298.892 433.094 299.036 432.179C299.367 430.065 299.301 427.939 299.301 425.814C299.301 405.561 299.312 385.309 299.301 365.056C299.301 360.739 299.941 356.444 299.753 352.116C299.61 348.889 299.532 348.702 296.387 348.702C282.548 348.702 268.71 348.713 254.871 348.68C252.818 348.68 250.799 349.395 248.735 348.911C247.554 348.591 246.55 347.909 245.524 347.292C236.574 341.951 227.59 336.676 218.618 331.389C217.791 330.905 216.886 329.914 215.959 330.42C214.999 330.938 215.451 332.226 215.451 333.174C215.429 366.51 215.44 399.845 215.418 433.171C215.418 434.415 215.716 435.737 214.899 436.871L214.943 436.904Z" fill="#EF6051"/>
<path d="M214.149 145.843C210.11 149.357 206.071 152.892 202.009 156.394C197.198 160.546 192.364 164.665 187.53 168.783C187.266 169.015 186.968 169.191 186.681 169.389C186.637 168.596 186.592 167.814 186.537 167.032C186.305 166.603 185.975 166.151 186.085 165.656C186.758 162.649 185.654 159.665 185.941 156.669C185.941 156.405 185.941 156.141 185.941 155.876C185.963 151.945 185.941 148.002 185.941 144.07C185.941 143.806 185.941 143.553 185.941 143.288C185.941 142.903 185.941 142.507 185.941 142.121C185.986 136.857 185.875 131.582 185.985 126.318C186.008 126.075 186.052 125.844 186.14 125.613C186.217 125.392 186.328 125.194 186.46 125.007C186.526 124.919 186.593 124.842 186.659 124.754C189.727 122.287 192.497 119.457 195.598 117.012C196.779 116.087 197.694 114.853 198.997 114.06C199.206 113.873 199.427 113.697 199.637 113.498C200.917 112.012 202.705 111.065 203.941 109.534C204.084 109.358 204.239 109.193 204.393 109.038C204.481 108.95 204.559 108.873 204.647 108.785C206.909 106.847 209.138 104.887 211.368 102.915C211.931 102.42 212.515 101.682 213.376 102.067C214.171 102.42 214.292 103.268 214.37 104.061C214.502 105.404 214.392 106.748 214.392 108.091C214.392 119.622 214.392 131.141 214.392 142.672C214.392 143.729 214.391 144.797 214.127 145.832L214.149 145.843Z" fill="#FA9BFA"/>
<path d="M203.786 76.7041C204.128 75.9662 204.393 75.2615 204.757 74.6228C206.965 70.7572 209.547 67.1338 212.372 63.6868C216.014 59.2375 220.185 55.273 224.39 51.3854C227.955 48.0926 231.95 45.2733 236.011 42.5531C240.966 39.2382 246.064 36.1987 251.383 33.5556C260.036 29.2716 269.107 26.0997 278.609 24.3156C281.5 23.765 284.436 23.3576 287.426 23.2805C289.391 23.2254 291.355 22.8179 293.341 22.9501C299.212 23.3245 305.061 23.9413 310.414 26.5733C313.051 27.8729 315.545 29.4366 317.333 32.0136C320.247 36.2206 318.371 40.1633 315.336 42.8394C314.1 43.9297 312.643 44.6566 311.175 45.3614C310.502 45.6918 309.84 46.0662 308.736 46.6609C311.396 46.8481 313.537 46.8262 315.689 47.1236C324.341 48.302 332.364 50.9889 339.195 56.5394C342.142 58.9292 344.371 61.9689 345.187 65.8014C345.916 69.1934 345.276 72.1668 342.76 74.7768C340.056 77.5741 336.745 78.8516 333.037 79.5014C328.667 80.2723 324.264 79.964 319.883 79.8318C316.384 79.7217 312.897 79.0059 309.41 78.4773C302.998 77.4971 296.663 76.1204 290.329 74.7438C284.678 73.5213 279.028 72.2879 273.356 71.1756C269.482 70.4157 265.598 69.7329 261.68 69.2594C259.031 68.929 256.405 68.2902 253.745 68.125C251.417 67.9818 249.11 67.6294 246.782 67.5964C243.228 67.5523 239.686 67.6404 236.132 67.5633C231.795 67.4752 227.557 68.2132 223.331 69.0171C216.5 70.3276 210.319 73.2681 204.349 76.7041C204.25 76.7592 204.095 76.7041 203.786 76.7041Z" fill="#5E85FE"/>
<path d="M320.71 94.3469C323.591 94.3469 326.482 94.413 329.362 94.3359C334.615 94.1927 339.747 95.0957 344.912 95.9327C350.363 96.8247 355.682 98.2126 360.902 99.9967C364.577 101.252 368.153 102.805 371.684 104.435C376.904 106.846 381.87 109.666 386.56 112.959C391.229 116.229 395.466 119.93 398.634 124.721C399.991 126.78 400.587 129.093 400.377 131.571C400.201 133.63 398.17 135.425 395.831 135.59C393.59 135.744 391.494 135.051 389.43 134.346C388.095 133.894 386.77 133.399 385.347 132.87C386.174 133.916 386.991 134.963 387.819 135.998C391.173 140.172 393.999 144.632 395.003 149.973C395.742 153.927 395.522 157.748 392.112 160.645C390.566 161.955 388.679 162.451 386.792 162.241C383.139 161.834 379.928 160.237 377.015 157.968C372.501 154.444 368.992 150.05 365.703 145.447C361.057 138.949 357.205 131.934 352.67 125.37C350.231 121.835 347.626 118.421 344.834 115.128C342.031 111.825 339.007 108.719 335.796 105.866C331.271 101.836 326.559 97.9701 321.119 95.1618C320.942 95.0737 320.809 94.8867 320.644 94.7545L320.71 94.3469Z" fill="#5E85FE"/>
<path d="M423.276 90.4152C428.883 90.8117 434.18 91.9019 439.058 94.523C442.269 96.252 444.708 98.642 445.646 102.386C446.562 106.032 445.204 108.807 442.578 111.02C440.249 112.981 437.413 113.796 434.323 113.917C427.459 114.181 421.069 112.221 414.713 110.007C411.104 108.741 407.595 107.221 404.174 105.525C399.483 103.201 394.981 100.547 390.611 97.6397C385.214 94.0385 380.469 89.7436 375.999 85.0961C375.503 84.5785 375.072 84.0498 374.995 83.2899C376.849 83.2899 378.659 83.2458 380.48 83.2899C386.98 83.4881 393.237 82.1335 399.483 80.5477C403.732 79.4684 407.926 78.213 412.152 77.0787C415.607 76.1536 419.105 75.2946 422.747 75.1404C424.215 75.0744 425.671 74.7549 427.161 74.7659C429.335 74.7879 431.333 75.3938 433.275 76.2968C435.427 77.299 436.95 80.0412 435.184 83.1248C434.125 84.9639 432.613 86.2745 430.759 87.2657C429.004 88.2128 427.172 88.9504 425.274 89.5451C424.623 89.7544 423.939 89.8755 423.287 90.3931L423.276 90.4152Z" fill="#5E85FE"/>
<path d="M159.356 398.094C159.301 398.611 158.705 398.666 158.507 399.063C158.76 399.658 159.29 399.382 159.698 399.382C167.655 399.382 175.59 398.81 183.547 398.556C193.214 398.248 202.892 398.292 212.56 398.413C225.891 398.578 239.222 399.151 252.542 399.613C254.33 399.68 256.14 399.559 257.917 399.746C259.23 399.878 260.124 398.931 261.393 398.832C269.46 398.16 277.527 397.433 285.616 397.125C295.118 396.772 304.631 396.739 314.144 397.268C319.275 397.554 324.418 397.818 329.539 398.292C332.408 398.556 335.266 398.887 338.136 399.151C339.217 399.25 340.299 399.426 341.402 399.272C348.311 398.325 355.274 398.16 362.171 398.898C367.634 399.481 373.009 399.217 378.438 398.909C382.654 398.677 382.709 398.81 382.654 403.05C382.599 407.135 383.548 406.937 378.846 406.948C341.016 407.025 303.185 407.113 265.355 407.168C229.4 407.212 193.435 407.235 157.48 407.224C153.717 407.224 154.181 408.071 154.004 403.71C154.004 403.556 153.993 403.402 154.004 403.248C154.092 402.025 153.673 400.737 154.379 399.602C154.71 399.074 158.12 398.138 159.356 398.094ZM325.014 398.832C324.308 399.58 323.447 399.283 322.619 399.327C321.107 399.393 319.794 398.523 318.315 398.457C314.497 398.281 310.69 398.072 306.871 397.962C297.601 397.697 288.32 397.741 279.061 398.292C273.554 398.611 268.047 399.03 262.541 399.404C265.62 400.021 268.71 399.922 271.789 399.801C283.707 399.305 295.615 398.832 307.544 398.898C311.595 398.92 315.656 398.865 319.706 398.854C321.472 398.854 323.248 398.854 325.014 398.854V398.832Z" fill="#150050"/>
<path d="M325.014 398.832C323.248 398.832 321.472 398.832 319.706 398.832C315.656 398.843 311.595 398.898 307.544 398.876C295.615 398.81 283.707 399.283 271.788 399.779C268.71 399.911 265.62 400.01 262.541 399.382C268.047 399.008 273.554 398.6 279.061 398.27C288.32 397.719 297.601 397.675 306.871 397.94C310.69 398.05 314.497 398.248 318.315 398.435C319.783 398.501 321.096 399.382 322.619 399.305C323.447 399.272 324.308 399.558 325.014 398.81V398.832Z" fill="#FFF6E8"/>
<path d="M154.589 399.427C157.226 395.902 159.632 392.687 162.049 389.471C168.836 380.418 175.612 371.366 182.421 362.335C187.917 355.034 193.435 347.743 198.997 340.485C199.648 339.637 199.692 338.812 199.692 337.876C199.692 330.244 199.692 322.623 199.692 314.991C199.692 304.947 199.438 294.903 199.769 284.87C200.089 275.157 200.111 265.455 200.166 255.741C200.177 253.836 200.42 253.638 202.351 253.572C202.815 253.561 203.29 253.572 203.753 253.572C247.19 253.572 290.638 253.572 334.074 253.572C337.628 253.572 337.275 253.241 337.286 256.887C337.286 259.453 337.286 262.019 337.286 264.596C337.208 289.176 338.124 313.746 337.705 338.316C337.672 340.133 338.643 341.245 339.57 342.402C344.459 348.525 349.017 354.879 353.729 361.124C360.03 369.471 366.31 377.841 372.6 386.2C375.447 389.977 378.284 393.755 381.142 397.521C381.539 398.039 381.892 398.546 381.627 399.206C381.307 399.966 380.579 399.724 379.994 399.757C379.376 399.79 378.747 399.757 378.118 399.757C304.73 399.757 231.331 399.757 157.944 399.757C156.961 399.757 155.957 399.911 154.578 399.427H154.589Z" fill="#FFF6E8"/>
<path d="M269.394 334.362C268.389 334.406 267.385 334.495 266.37 334.506C253.933 334.506 241.506 334.506 229.069 334.506C228.142 334.506 227.204 334.572 226.277 334.605C226.2 333.558 227.116 333.173 227.69 332.6C251.505 309.055 275.331 285.531 299.146 261.997C299.588 261.556 300.007 261.105 300.437 260.653C310.303 260.653 320.158 260.653 330.024 260.664C330.41 260.664 330.797 260.664 331.194 260.664C332.916 260.708 332.927 260.708 332.949 262.525C332.971 263.527 332.949 264.541 332.949 265.543C332.949 268.803 332.971 272.051 332.971 275.311C330.83 277.239 328.689 279.155 326.57 281.093C310.016 296.302 293.397 311.445 277.019 326.852C274.415 329.297 271.733 331.664 269.383 334.373L269.394 334.362Z" fill="#5E85FE"/>
<path d="M206.777 331.003C206.91 321.907 207.097 312.821 207.152 303.725C207.241 290.19 207.229 276.666 207.252 263.131C207.252 262.823 207.285 262.503 207.252 262.195C207.097 260.939 207.715 260.576 208.885 260.631C210.209 260.697 211.534 260.62 212.858 260.609C234.367 260.609 255.875 260.598 277.384 260.587C277.185 261.589 276.313 262.085 275.673 262.723C253.403 285.091 231.111 307.436 208.819 329.792C208.432 330.178 208.046 330.563 207.649 330.926C207.384 331.18 207.075 331.081 206.777 330.993V331.003Z" fill="#5E85FE"/>
<path d="M333.026 286.401C333.004 290.289 332.971 294.176 332.96 298.064C332.96 309.11 332.96 320.156 332.949 331.202C332.949 334.561 332.916 334.561 329.66 334.561C313.758 334.55 297.855 334.528 281.953 334.517C281.015 334.517 280.087 334.572 279.149 334.594C279.392 333.592 280.286 333.14 280.959 332.534C291.156 323.394 301.375 314.286 311.561 305.134C318.161 299.209 324.705 293.229 331.293 287.293C331.779 286.853 332.154 286.104 333.037 286.39L333.026 286.401Z" fill="#5E85FE"/>
<path d="M281.224 260.631C285.539 260.631 289.865 260.631 294.18 260.62C294.081 261.677 293.154 262.139 292.514 262.778C269.46 285.762 246.395 308.724 223.342 331.708C222.525 332.523 221.587 333.261 221.013 334.307C218.453 334.714 215.881 334.406 213.321 334.505C211.379 334.582 209.426 334.362 207.494 334.681C207.627 333.833 208.311 333.382 208.852 332.842C230.78 310.982 252.719 289.121 274.658 267.26C276.865 265.069 279.039 262.844 281.235 260.642L281.224 260.631Z" fill="#5E85FE"/>
<path d="M333.026 286.401C332.143 286.115 331.768 286.863 331.283 287.304C324.694 293.24 318.15 299.22 311.551 305.145C301.365 314.297 291.146 323.404 280.949 332.545C280.264 333.151 279.381 333.613 279.139 334.604C275.894 334.219 272.639 334.45 269.383 334.362C271.734 331.664 274.415 329.285 277.02 326.84C293.397 311.433 310.017 296.291 326.57 281.082C328.689 279.133 330.841 277.227 332.971 275.3C333.148 279 333.081 282.69 333.004 286.39L333.026 286.401Z" fill="#FFF6E8"/>
<path d="M221.013 334.296C221.587 333.25 222.514 332.523 223.342 331.697C246.395 308.724 269.46 285.751 292.514 262.767C293.154 262.129 294.07 261.666 294.18 260.609C296.266 260.609 298.352 260.631 300.449 260.631C300.018 261.082 299.599 261.545 299.157 261.974C275.331 285.509 251.505 309.033 227.701 332.578C227.127 333.151 226.211 333.536 226.288 334.582C224.545 334.219 222.768 334.484 221.024 334.285L221.013 334.296Z" fill="#FFF6E8"/>
<path d="M281.224 260.631C279.028 262.834 276.854 265.058 274.647 267.25C252.719 289.111 230.78 310.971 208.841 332.832C208.3 333.371 207.616 333.823 207.483 334.671C206.998 334.814 206.755 334.561 206.744 334.131C206.722 333.096 206.744 332.05 206.766 331.004C207.064 331.092 207.373 331.191 207.638 330.938C208.035 330.563 208.421 330.178 208.807 329.803C231.1 307.447 253.381 285.102 275.662 262.735C276.302 262.096 277.174 261.6 277.373 260.598C278.653 260.609 279.933 260.62 281.224 260.631Z" fill="#FFF6E8"/>
<path d="M267.452 196.624C276.247 196.855 284.568 198.331 292.514 201.8C298.661 204.487 304.179 208.066 309.178 212.537C313.592 216.491 317.157 221.083 320.136 226.149C321.604 228.649 320.953 231.061 318.536 232.217C316.859 233.021 314.64 232.173 313.592 230.334C311.109 225.951 308.107 221.953 304.377 218.561C297.965 212.713 290.56 208.672 282.14 206.359C275.938 204.652 269.648 204.256 263.324 204.619C257.376 204.96 251.615 206.392 246.109 208.738C240.778 211.007 235.9 213.969 231.508 217.746C227.557 221.138 224.258 225.059 221.256 229.277C220.528 230.301 219.689 231.248 218.32 231.38C215.44 231.667 213.729 229.53 214.679 226.766C215.539 224.233 217.129 222.108 218.74 220.026C225.052 211.866 233.097 205.963 242.544 201.866C247.598 199.674 252.851 198.243 258.27 197.406C260.245 197.097 262.254 196.756 264.284 196.855C265.41 196.91 266.503 196.448 267.463 196.635L267.452 196.624Z" fill="#FFF6E8"/>
<path d="M267.463 222.063C276.49 222.328 284.359 224.652 291.123 230.213C293.419 232.096 295.637 234.001 297.083 236.634C297.988 238.296 297.535 240.4 296.189 241.358C294.534 242.525 292.503 242.404 291.101 240.962C289.027 238.814 287.073 236.568 284.557 234.883C280.849 232.416 276.832 230.764 272.407 230.213C267.01 229.541 261.724 230.026 256.593 231.865C251.858 233.561 247.665 236.171 243.78 239.332C242.908 240.036 242.081 240.808 240.988 241.182C239.509 241.678 237.975 241.314 237.17 240.268C236.287 239.111 236.243 237.548 237.092 236.248C238.858 233.528 241.363 231.546 243.979 229.739C249.629 225.852 255.853 223.418 262.673 222.471C264.406 222.229 266.161 222.438 267.463 222.063Z" fill="#FFF6E8"/>
<path d="M268.367 383.403C252.31 383.403 236.253 383.403 220.196 383.403C211.467 383.403 202.738 383.403 194.009 383.425C191.47 383.425 189.616 381.718 189.583 379.306C189.561 376.839 191.437 375.088 194.031 375.088C207.207 375.088 220.373 375.088 233.55 375.088C245.126 375.088 256.692 375.11 268.268 375.11C279.845 375.11 291.421 375.088 302.987 375.088C314.563 375.088 326.14 375.099 337.705 375.11C339.46 375.11 341.215 375.11 342.969 375.088C345.507 375.066 347.372 376.795 347.395 379.207C347.417 381.674 345.541 383.425 342.958 383.425C328.347 383.425 313.724 383.425 299.113 383.425C288.861 383.425 278.609 383.425 268.367 383.425V383.403Z" fill="#150050"/>
<path d="M266.171 357.522C283.63 357.522 301.088 357.522 318.547 357.522C319.993 357.522 321.427 357.522 322.873 357.522C325.246 357.544 327.056 359.307 327.078 361.619C327.111 363.998 325.312 365.848 322.884 365.848C310.027 365.848 297.171 365.848 284.303 365.837C271.987 365.837 259.682 365.848 247.366 365.848C234.664 365.848 221.962 365.848 209.26 365.848C206.832 365.848 205.022 364.009 205.044 361.63C205.066 359.318 206.876 357.522 209.238 357.522C228.219 357.522 247.19 357.522 266.171 357.522Z" fill="#150050"/>
</svg>
