<svg width="550" height="550" viewBox="0 0 550 550" fill="none" xmlns="http://www.w3.org/2000/svg">
<path d="M275 550C426.878 550 550 426.878 550 275C550 123.122 426.878 0 275 0C123.122 0 0 123.122 0 275C0 426.878 123.122 550 275 550Z" fill="#FFF6E8"/>
<path d="M405.906 116.03C406.248 114.397 406.811 112.841 407.528 111.351C408.279 109.806 409.128 108.294 410.331 107.025C410.64 106.694 410.872 106.286 411.203 105.965C411.843 105.359 412.483 104.741 413.19 104.244C414.194 103.538 415.198 102.809 416.335 102.324C417.726 101.728 419.16 101.242 420.661 100.999C421.246 100.9 421.842 100.878 422.438 100.79C423.023 100.701 423.618 100.712 424.214 100.889C424.854 101.077 425.528 100.999 426.19 101.154C427.36 101.419 428.496 101.805 429.6 102.246C430.979 102.809 432.204 103.648 433.418 104.487C433.672 104.663 433.882 104.917 434.113 105.138C434.389 105.403 434.632 105.712 434.996 105.888C435.118 105.943 435.239 106.043 435.316 106.153C436.045 107.191 437.027 108.029 437.678 109.122C437.943 109.574 438.241 110.016 438.528 110.457C438.693 110.711 438.936 110.777 439.146 110.59C439.389 110.391 439.609 110.159 439.841 109.938C440.58 109.232 441.254 108.471 442.103 107.875C443.273 107.069 444.498 106.385 445.8 105.855C446.485 105.579 447.224 105.425 447.897 105.149C448.405 104.939 448.935 104.972 449.453 104.873C450.689 104.641 451.958 104.432 453.227 104.586C456.229 104.95 459.065 105.767 461.637 107.433C463.171 108.427 464.418 109.718 465.621 111.042C466.592 112.101 467.32 113.359 467.872 114.706C468.049 115.125 468.247 115.545 468.424 115.964C468.876 117.045 469.031 118.193 469.273 119.319C469.56 120.654 469.56 122.001 469.428 123.314C469.218 125.377 468.755 127.397 467.828 129.284C467.188 130.586 466.459 131.844 465.521 132.937C464.186 134.471 462.707 135.872 460.864 136.877C459.297 137.726 457.686 138.367 455.964 138.764C455.081 138.974 454.188 139.161 453.261 139.117C452.731 139.095 452.201 139.095 451.672 139.117C449.553 139.216 447.566 138.664 445.624 137.892C443.814 137.164 442.17 136.17 440.713 134.857C440.481 134.647 440.25 134.658 440.095 134.945C439.654 135.806 438.881 136.402 438.373 137.208C438.318 137.296 438.241 137.373 438.153 137.439C436.773 138.598 435.339 139.669 433.661 140.375C432.491 140.872 431.266 141.181 430.03 141.457C428.596 141.766 427.139 141.743 425.715 141.633C423.906 141.49 422.118 141.114 420.385 140.485C419.116 140.022 417.913 139.459 416.732 138.819C415.375 138.08 414.095 137.197 412.947 136.148C412.45 135.696 411.887 135.343 411.424 134.846C409.846 133.136 408.411 131.315 407.285 129.262C407.219 129.141 407.142 129.019 407.065 128.909C406.988 128.81 406.877 128.821 406.789 128.898C406.734 128.942 406.69 129.008 406.668 129.063C406.237 129.924 405.608 130.642 404.902 131.293C403.71 132.385 402.33 133.08 400.741 133.445C399.583 133.709 398.424 133.643 397.276 133.599C396.515 133.566 395.753 133.323 395.036 133.069C392.928 132.319 391.184 130.995 389.794 129.273C388.602 127.783 387.719 126.106 387.388 124.174C387.267 123.446 387.3 122.696 387.035 122C386.991 121.879 387.013 121.714 387.035 121.581C387.267 120.124 387.432 118.646 388.116 117.31C388.867 115.854 389.86 114.618 391.251 113.691C392.31 112.984 393.491 112.675 394.65 112.278C394.837 112.212 395.069 112.234 395.279 112.234C395.842 112.234 396.404 112.234 396.978 112.234C398.832 112.212 400.498 112.808 402.055 113.779C403.048 114.397 403.942 115.125 404.703 116.008C404.792 116.107 404.924 116.174 405.045 116.251C405.123 116.45 405.266 116.593 405.465 116.67C405.542 116.814 405.608 116.814 405.685 116.67C405.774 116.461 405.906 116.273 405.895 116.03H405.906Z" fill="#FA9BFA"/>
<path d="M250.655 100.525C250.158 102.655 249.331 104.707 248.271 106.649C247.168 108.68 245.91 110.655 244.144 112.311C243.681 112.741 243.349 113.282 242.864 113.69C241.926 114.485 240.988 115.29 239.939 115.953C238.461 116.88 236.993 117.84 235.315 118.48C233.263 119.252 231.155 119.892 228.959 120.212C228.098 120.334 227.226 120.378 226.354 120.488C225.505 120.599 224.611 120.599 223.739 120.367C222.801 120.124 221.808 120.212 220.836 120.025C219.115 119.683 217.448 119.175 215.826 118.59C213.807 117.862 212.008 116.747 210.209 115.655C209.834 115.423 209.536 115.081 209.194 114.794C208.785 114.452 208.421 114.043 207.892 113.812C207.715 113.734 207.527 113.613 207.417 113.47C206.347 112.112 204.912 111.02 203.952 109.574C203.554 108.978 203.135 108.404 202.716 107.819C202.473 107.488 202.12 107.4 201.8 107.643C201.447 107.907 201.116 108.217 200.785 108.503C199.703 109.43 198.71 110.435 197.463 111.207C195.752 112.267 193.942 113.161 192.022 113.856C191.018 114.22 189.936 114.419 188.932 114.783C188.193 115.059 187.409 115.026 186.648 115.147C184.827 115.445 182.962 115.732 181.108 115.533C176.704 115.059 172.533 113.977 168.748 111.792C166.496 110.49 164.664 108.801 162.888 107.058C161.464 105.667 160.394 104.012 159.577 102.246C159.323 101.694 159.025 101.154 158.771 100.602C158.109 99.1892 157.878 97.6773 157.513 96.1985C157.083 94.4549 157.083 92.6781 157.282 90.9566C157.591 88.2528 158.264 85.6043 159.643 83.1323C160.592 81.4217 161.652 79.7664 163.031 78.3428C164.996 76.3232 167.17 74.4912 169.862 73.178C172.158 72.0634 174.542 71.2247 177.058 70.6949C178.36 70.419 179.673 70.1762 181.031 70.2314C181.803 70.2645 182.587 70.2645 183.359 70.2314C186.471 70.11 189.396 70.8164 192.243 71.8427C194.902 72.8028 197.319 74.094 199.449 75.8155C199.791 76.0914 200.133 76.0694 200.354 75.7052C201.005 74.5796 202.142 73.796 202.881 72.7365C202.958 72.6262 203.08 72.5268 203.201 72.4385C205.232 70.9266 207.34 69.5141 209.801 68.5981C211.522 67.958 213.31 67.5387 215.131 67.1855C217.239 66.7772 219.369 66.8103 221.466 66.9538C224.125 67.1414 226.741 67.627 229.29 68.4546C231.155 69.0616 232.932 69.801 234.653 70.6397C236.651 71.6109 238.527 72.7697 240.204 74.1491C240.933 74.7451 241.771 75.1976 242.445 75.8597C244.762 78.111 246.87 80.4837 248.514 83.1764C248.614 83.342 248.713 83.4964 248.845 83.6399C248.956 83.7723 249.11 83.7613 249.242 83.6619C249.32 83.6068 249.386 83.5185 249.43 83.4413C250.07 82.3156 250.986 81.3666 252.023 80.5278C253.778 79.0932 255.798 78.1772 258.137 77.7137C259.848 77.3716 261.548 77.4489 263.236 77.5151C264.351 77.5592 265.476 77.8793 266.536 78.2104C269.626 79.2036 272.197 80.925 274.228 83.1874C275.982 85.1407 277.273 87.3369 277.77 89.8751C277.958 90.8242 277.902 91.8063 278.3 92.7333C278.366 92.8988 278.344 93.1085 278.3 93.2851C277.958 95.1943 277.715 97.1366 276.711 98.8803C275.607 100.789 274.15 102.412 272.097 103.626C270.552 104.542 268.809 104.961 267.11 105.491C266.823 105.579 266.491 105.546 266.182 105.546C265.355 105.546 264.527 105.546 263.688 105.546C260.963 105.568 258.524 104.795 256.239 103.515C254.783 102.699 253.469 101.75 252.355 100.58C252.222 100.447 252.024 100.359 251.858 100.26C251.737 99.9949 251.538 99.8073 251.24 99.708C251.13 99.5204 251.03 99.5093 250.92 99.708C250.787 99.9728 250.589 100.227 250.611 100.547L250.655 100.525Z" fill="#FA9BFA"/>
<path d="M95.7902 337.683C96.1103 337.474 96.2096 337.143 96.3752 336.856C96.7504 336.216 97.225 335.631 97.843 335.134C98.6486 334.483 99.4102 333.799 100.392 333.291C101.341 332.805 102.379 332.563 103.416 332.342C103.714 332.276 104.034 332.265 104.343 332.21C104.718 332.143 105.116 332.121 105.491 332.165C107.72 332.386 109.784 333.015 111.527 334.218C112.697 335.013 113.724 335.951 114.496 337.076C115.037 337.871 115.544 338.677 115.942 339.537C116.405 340.531 116.681 341.557 116.858 342.616C116.957 343.201 117.045 343.786 117.045 344.382C117.034 346.523 116.482 348.542 115.302 350.441C114.242 352.129 112.708 353.453 110.766 354.402C110.115 354.722 109.353 354.899 108.614 355.076C106.451 355.594 104.398 355.318 102.39 354.557C100.657 353.906 99.2113 352.935 97.9974 351.732C97.4346 351.169 96.9933 350.518 96.5077 349.911C96.4305 349.812 96.3643 349.701 96.276 349.624C96.1988 349.558 96.0774 349.547 96.0222 349.646C95.8346 349.999 95.625 350.341 95.4925 350.705C95.1725 351.632 94.5102 352.405 93.9363 353.222C92.9762 354.601 91.7734 355.837 90.416 356.952C89.4338 357.757 88.3413 358.442 87.1936 359.06C85.5272 359.965 83.6951 360.538 81.7749 360.903C80.892 361.068 80.0092 361.223 79.0933 361.212C78.6408 361.212 78.1773 361.212 77.7248 361.212C76.4888 361.245 75.297 361.035 74.1272 360.748C73.1229 360.494 72.1408 360.185 71.1697 359.854C69.9889 359.457 68.9844 358.795 67.9581 358.188C66.5676 357.371 65.4201 356.312 64.3165 355.252C63.3233 354.303 62.4735 353.244 61.8224 352.085C61.2155 351.014 61.116 351.081 60.0345 351.61C58.9309 352.14 57.7502 352.449 56.5142 352.681C55.7527 352.824 54.9911 352.846 54.2297 352.835C52.9275 352.813 51.6695 352.582 50.4445 352.228C48.7671 351.754 47.2992 350.937 45.9308 350.01C45.3679 349.624 44.8273 349.194 44.4301 348.653C44.2314 348.377 43.9112 348.167 43.6905 347.902C42.7083 346.688 42.0242 345.353 41.6048 343.941C41.3621 343.113 41.2076 342.252 41.3289 341.391C41.5276 339.979 41.8477 338.577 42.7857 337.352C43.5141 336.403 44.3969 335.576 45.4894 334.902C46.6703 334.174 47.9946 333.732 49.3961 333.468C50.1024 333.335 50.8418 333.28 51.5702 333.225C52.453 333.148 53.3026 333.379 54.1524 333.49C55.9512 333.721 57.5405 334.395 59.0414 335.222C59.5932 335.52 60.1449 335.851 60.5973 336.271C60.807 336.469 61.0389 336.646 61.2817 336.823C61.4362 336.944 61.6237 336.922 61.723 336.767C61.8665 336.536 62.0208 336.293 62.1312 336.05C62.7713 334.693 63.7205 333.49 64.7578 332.331C65.3096 331.713 65.9275 331.15 66.5897 330.62C68.1788 329.34 69.9668 328.347 72.0195 327.663C73.101 327.299 74.1935 327.023 75.3302 326.868C76.3565 326.736 77.3937 326.504 78.4421 326.626C79.7884 326.78 81.1349 326.857 82.4482 327.188C84.4015 327.696 86.2334 328.413 87.8998 329.407C88.6171 329.826 89.2904 330.289 89.9305 330.797C91.3541 331.945 92.612 333.214 93.6383 334.637C94.3336 335.598 94.9075 336.613 95.3931 337.661C95.4262 337.794 95.4152 337.97 95.6469 337.937C95.7904 337.915 95.8013 337.772 95.8123 337.661L95.7902 337.683Z" fill="#FA9BFA"/>
<path d="M276.998 188.888C253.977 188.888 230.956 188.745 207.936 188.976C201.138 189.043 197.463 187.442 197.463 179.618C197.463 171.44 201.833 170.635 208.289 170.646C254.33 170.767 300.371 170.789 346.412 170.624C353.21 170.602 356.885 172.136 356.885 179.971C356.885 188.138 352.526 188.998 346.059 188.954C323.039 188.778 300.018 188.888 276.998 188.888Z" fill="#FFF6E8"/>
<path d="M207.969 415.022H190.179C184.694 415.022 180.247 419.468 180.247 424.954V451.693C180.247 457.179 184.694 461.626 190.179 461.626H207.969C213.454 461.626 217.901 457.179 217.901 451.693V424.954C217.901 419.468 213.454 415.022 207.969 415.022Z" fill="#150050"/>
<path d="M364.125 415.022H346.335C340.85 415.022 336.403 419.468 336.403 424.954V451.693C336.403 457.179 340.85 461.626 346.335 461.626H364.125C369.61 461.626 374.057 457.179 374.057 451.693V424.954C374.057 419.468 369.61 415.022 364.125 415.022Z" fill="#150050"/>
<path d="M338.279 424.722H216.102C207.174 426.4 178.702 424.656 178.702 424.656C153.463 419.679 148.729 402.32 149.237 379.751C150.23 336.204 149.524 292.624 149.524 249.066V234.808L145.617 233.053C143.697 236.573 140.419 239.983 140.11 243.647C139.315 253.171 139.735 262.794 139.856 272.373C139.978 282.813 133.312 284.16 125.035 284.104C116.824 284.049 108.625 284.402 108.526 272.815C108.437 261.923 108.459 251.03 108.526 240.138C108.559 232.148 112.543 228.076 120.654 228.219C124.571 228.286 128.533 228.617 132.407 228.23C143.487 227.116 151.477 223.474 149.733 209.624C148.652 201.049 149.236 192.21 149.689 183.514C150.561 166.507 161.906 154.467 178.779 154.379C244.563 154.026 310.347 154.026 376.121 154.423C392.365 154.523 403.622 166.419 404.604 182.741C405.145 191.857 405.708 201.138 404.626 210.154C403.026 223.408 410.872 226.741 421.191 228.175C424.612 228.65 428.165 228.396 431.63 228.175C441.519 227.546 446.231 231.927 445.933 241.981C445.679 250.688 445.414 259.44 445.999 268.114C446.794 279.911 442.104 284.38 430.097 284.336C418.023 284.281 413.521 279.646 414.404 267.915C415.022 259.682 415.033 251.317 414.271 243.118C413.951 239.63 410.972 236.386 409.195 233.031C407.749 233.528 406.303 234.013 404.847 234.51C404.847 239.542 404.847 244.574 404.847 249.607C404.847 295.35 404.582 341.093 404.979 386.836C405.134 404.482 399.539 417.229 381.595 423C379.012 423.828 338.29 424.733 338.29 424.733L338.279 424.722ZM280.077 200.542C253.856 201.745 224.743 203.367 195.598 204.272C183.558 204.647 178.084 209.922 178.15 221.797C178.272 244.001 178.305 266.204 178.139 288.408C178.051 299.621 183.359 304.907 194.439 306.077C249.64 311.882 304.797 310.248 359.986 305.944C371.276 305.061 376.297 299.477 376.22 288.342C376.065 266.138 376.099 243.934 376.22 221.73C376.286 209.823 370.724 204.647 358.706 204.294C333.479 203.544 308.284 201.943 280.098 200.542H280.077ZM277.251 355.241C270.718 355.241 264.174 355.318 257.641 355.23C223.96 354.788 230.559 355.771 234.455 382.852C235.095 387.289 238.372 394.109 241.672 394.959C265.167 400.973 289.038 401.106 312.621 395.168C315.479 394.451 318.536 390.092 319.419 386.847C321.251 380.182 321.571 373.108 322.73 366.244C324.109 358.044 320.191 355.153 312.555 355.241C300.791 355.384 289.015 355.274 277.251 355.241ZM277.009 188.888C300.029 188.888 323.05 188.778 346.07 188.954C352.537 189.009 356.885 188.138 356.896 179.971C356.896 172.147 353.221 170.602 346.423 170.624C300.382 170.789 254.341 170.767 208.3 170.646C201.844 170.624 197.474 171.44 197.474 179.618C197.474 187.442 201.149 189.043 207.947 188.976C230.967 188.745 253.988 188.888 277.009 188.888ZM198.324 397.795C209.15 398.148 219.479 388.37 219.843 377.423C220.219 366.321 210.838 356.455 199.537 356.091C188.027 355.715 178.58 364.665 178.316 376.198C178.051 387.631 187.122 397.431 198.313 397.795H198.324ZM355.087 397.795C366.255 398.027 375.79 388.635 376.01 377.169C376.242 365.559 367.27 356.19 355.793 356.058C344.514 355.925 334.681 365.328 334.472 376.452C334.262 387.245 344.227 397.563 355.087 397.795Z" fill="#EF6051"/>
<path d="M280.077 200.542C308.262 201.943 333.468 203.544 358.684 204.294C370.702 204.647 376.264 209.823 376.198 221.73C376.087 243.934 376.054 266.138 376.198 288.342C376.275 299.477 371.254 305.061 359.964 305.944C304.774 310.248 249.618 311.882 194.417 306.077C183.337 304.907 178.029 299.621 178.117 288.408C178.283 266.205 178.249 244.001 178.128 221.797C178.062 209.922 183.536 204.647 195.576 204.272C224.71 203.367 253.834 201.745 280.054 200.542H280.077Z" fill="url(#paint0_linear_7261_20418)"/>
<path d="M277.24 355.252C289.004 355.263 300.78 355.373 312.544 355.23C320.18 355.142 324.098 358.033 322.719 366.233C321.56 373.097 321.251 380.171 319.408 386.836C318.514 390.081 315.468 394.44 312.61 395.157C289.027 401.106 265.145 400.962 241.661 394.948C238.361 394.098 235.084 387.278 234.444 382.841C230.559 355.76 223.96 354.777 257.63 355.219C264.163 355.307 270.707 355.23 277.24 355.241V355.252Z" fill="#FFF6E8"/>
<path d="M198.313 397.784C187.122 397.42 178.051 387.62 178.316 376.187C178.58 364.665 188.027 355.715 199.537 356.08C210.827 356.444 220.219 366.31 219.843 377.412C219.468 388.359 209.139 398.137 198.324 397.784H198.313Z" fill="#FFF6E8"/>
<path d="M355.076 397.784C344.216 397.552 334.251 387.245 334.461 376.441C334.681 365.306 344.503 355.914 355.782 356.047C367.259 356.179 376.22 365.537 375.999 377.158C375.768 388.624 366.244 398.016 355.076 397.784Z" fill="#FFF6E8"/>
<path d="M376.098 235.36C374.719 234.907 374.134 236.088 373.373 236.772C363.043 246.108 352.769 255.511 342.418 264.836C326.438 279.216 310.403 293.54 294.412 307.909C293.342 308.869 292.481 309.564 292.481 309.564C285.208 309.707 282.206 309.983 277.108 309.84C280.794 305.591 284.171 302.81 288.254 298.959C313.945 274.746 340.023 250.931 366.001 227.028C369.323 223.971 372.7 220.969 376.055 217.934C376.33 223.75 376.231 229.566 376.11 235.371L376.098 235.36Z" fill="#FFF6E8"/>
<path d="M203.709 306.982C238.604 272.131 273.819 236.894 308.714 202.043L317.388 202.506C281.864 237.666 246.704 272.451 211.202 307.633L203.709 306.993V306.982Z" fill="#FFF6E8"/>
<path d="M288.762 200.983C287.349 202.407 285.936 203.841 284.513 205.254C251.626 238.096 218.74 270.939 185.853 303.781C185.853 303.781 182.785 302.015 182.962 301.839C216.599 268.235 250.037 234.432 283.553 200.718L288.751 200.983H288.762Z" fill="#FFF6E8"/>
<defs>
<linearGradient id="paint0_linear_7261_20418" x1="178.139" y1="255.18" x2="376.22" y2="255.18" gradientUnits="userSpaceOnUse">
<stop offset="0.22" stop-color="#FA9BFA"/>
<stop offset="1" stop-color="#FFBF7B"/>
</linearGradient>
</defs>
</svg>
