<svg width="550" height="550" viewBox="0 0 550 550" fill="none" xmlns="http://www.w3.org/2000/svg">
<path d="M275 550C426.878 550 550 426.878 550 275C550 123.122 426.878 0 275 0C123.122 0 0 123.122 0 275C0 426.878 123.122 550 275 550Z" fill="#FFF6E8"/>
<path d="M217.813 149.965C231.938 139.172 247.741 133.003 265.465 132.385C283.089 131.767 299.279 136.258 313.89 147.526C313.89 145.297 313.802 143.663 313.901 142.03C314.431 133.665 317.112 126.116 322.939 119.981C328.954 113.657 336.381 111.847 344.735 114.12C352.725 116.295 358.783 121.36 363.937 127.584C369.069 133.775 372.335 140.893 373.086 148.916C374.167 160.338 369.587 171.021 357.382 175.733C352.912 177.466 348.244 178.393 343.51 178.923C340.641 179.243 337.749 179.408 334.736 179.662C337.385 191.658 336.955 203.4 332.949 214.932C328.987 226.321 322.244 235.9 313.305 244.32C319.904 246.483 325.444 249.838 330.554 253.955C338.102 260.035 344.448 267.231 350.12 275.055C352.239 277.979 354.259 280.959 356.554 284.237C357.073 282.934 357.525 281.864 357.934 280.782C360.505 273.929 363.198 267.12 366.42 260.543C370.051 253.149 374.41 246.207 379.939 240.061C382.974 236.695 386.329 233.715 390.302 231.497C398.501 226.917 406.646 228.583 412.384 236.022C416.357 241.164 418.542 247.112 419.822 253.392C424.832 278.002 415.971 307.235 398.104 324.771C390.699 332.044 382.113 337.484 372.126 340.585C365.813 342.55 359.468 342.66 353.056 341.258C351.103 340.828 351.103 340.85 350.584 342.814C349.723 346.026 348.862 349.226 348.001 352.427C348.774 352.835 349.48 352.592 350.164 352.482C357.569 351.29 365.03 350.606 372.523 350.473C378.968 350.352 385.413 350.264 391.846 350.639C398.269 351.014 404.681 351.544 411.049 352.449C411.225 352.471 411.402 352.504 411.567 352.537C413.598 352.809 414.93 351.937 415.562 349.922C417.328 344.36 419.359 338.908 422.603 333.997C424.711 330.797 427.249 327.993 430.483 325.897C436.243 322.167 442.269 322.409 447.721 326.548C450.954 328.998 453.261 332.22 455.137 335.752C458.469 341.987 460.103 348.708 460.787 355.715C461.703 365.184 460.312 374.355 457.498 383.36C456.339 387.057 455.137 390.754 453.812 394.396C450.016 404.847 442.699 411.777 432.359 415.65C424.799 418.487 416.942 419.999 408.952 420.959C400.344 421.996 391.714 422.239 383.062 421.941C374.509 421.654 366.001 420.837 357.525 419.656C341.7 417.449 326.139 414.006 310.7 409.956C309.244 409.57 308.008 409.78 306.673 410.497C295.769 416.357 284.104 418.994 271.744 418.233C262.386 417.659 253.513 415.121 245.237 410.684C243.371 409.691 241.804 409.603 239.785 410.177C225.085 414.304 210.176 417.339 194.969 419.016C181.251 420.539 167.512 421.047 153.75 420.319C144.568 419.833 135.684 417.802 126.977 414.591C119.076 411.678 113.194 406.557 108.161 400.156C100.955 390.975 95.9117 380.789 94.3446 369.102C92.6672 356.576 93.4617 344.282 98.3615 332.474C99.6858 329.285 101.407 326.316 103.913 323.855C107.422 320.412 111.461 319.926 115.864 321.648C119.506 323.072 122.232 325.72 124.682 328.656C127.573 332.132 129.902 335.972 131.943 340C132.252 340.607 132.396 341.336 133.102 341.843C133.985 340.055 133.72 338.102 134.062 336.27C135.938 326.04 140.121 316.759 145.716 308.096C155.372 293.143 167.843 280.904 182.167 270.475C190.113 264.692 198.511 259.704 207.726 256.151C211.268 254.782 214.921 253.811 219.115 253.016C216.19 250.865 213.597 248.944 211.257 246.737C199.857 236.021 193.302 222.977 191.967 207.295C191.382 200.42 192.243 193.766 193.744 187.122C194.185 185.169 194.196 185.147 192.309 184.694C184.86 182.917 178.15 179.827 172.974 173.945C166.375 166.452 162.888 157.745 163.649 147.757C164.444 137.351 170.061 129.869 179.055 124.825C185.037 121.47 191.492 120.201 198.224 121.371C210.584 123.534 216.102 133.301 217.537 141.622C218 144.314 218.331 147.029 217.79 149.965H217.813ZM205.464 356.146C204.592 351.908 203.345 348.222 203.014 344.371C202.87 342.704 202.782 341.038 202.649 339.371C202.616 338.919 202.462 338.511 201.921 338.433C201.524 338.378 201.138 338.61 201.049 338.908C200.707 340.022 199.813 340.607 198.908 341.082C197.794 341.656 196.823 342.329 196.172 343.41C195.94 343.797 195.664 344.039 195.222 344.227C193.622 344.911 192.508 346.302 191.923 347.759C191.139 349.679 189.418 350.628 188.016 351.246C186.471 351.919 185.809 353.1 184.672 354.016C191.614 353.972 198.368 354.976 205.475 356.157L205.464 356.146Z" fill="#FACF18"/>
<path d="M347.88 225.262C347.748 222.492 349.028 220.108 350.22 217.801C353.42 211.621 358.077 206.556 363.264 202.02C365.957 199.659 368.815 197.418 372.126 195.895C373.042 195.476 373.947 195.233 374.929 195.355C377.467 195.664 378.736 198.389 377.279 200.475C376.628 201.413 375.801 202.208 374.785 202.793C369.389 205.916 365.041 210.308 360.968 214.91C358 218.265 355.771 222.216 354.193 226.464C353.784 227.568 353.277 228.55 352.217 229.179C350.286 230.305 348.211 229.345 347.902 227.115C347.814 226.508 347.891 225.88 347.891 225.262H347.88Z" fill="#5E85FE"/>
<path d="M360.053 234.079C360.262 233.262 360.428 231.927 360.935 230.735C363.12 225.593 366.133 220.98 369.974 216.918C373.671 213.012 377.655 209.447 382.279 206.633C383.206 206.07 384.154 205.64 385.181 205.463C386.582 205.221 387.785 205.695 388.602 206.92C389.474 208.211 389.242 209.469 388.359 210.595C387.554 211.632 386.604 212.548 385.512 213.321C379.321 217.746 373.825 222.867 369.687 229.334C368.594 231.044 367.711 232.854 366.939 234.73C366.707 235.293 366.519 235.9 366.199 236.419C365.305 237.809 363.661 238.471 362.359 238.03C360.869 237.533 360.064 236.319 360.053 234.079Z" fill="#5E85FE"/>
<path d="M457.553 239.829C457.609 241.948 456.836 243.978 456.88 246.108C456.891 246.836 456.494 247.653 456.075 248.304C455.115 249.816 453.161 249.728 452.19 248.216C451.363 246.903 451.086 245.49 451.153 243.934C451.429 237.301 450.413 230.824 448.438 224.5C446.827 219.335 444.388 214.601 440.724 210.551C440.316 210.098 439.974 209.558 439.753 208.995C438.969 206.975 439.962 205.53 442.114 205.386C443.726 205.276 444.951 205.927 446.143 206.964C449.663 210.021 451.495 214.137 453.205 218.276C455.115 222.911 456.119 227.844 456.847 232.777C457.189 235.083 457.41 237.467 457.542 239.829H457.553Z" fill="#5E85FE"/>
<path d="M442.147 245.247C442.147 246.572 442.236 247.896 442.125 249.209C441.949 251.471 440.536 252.707 438.55 252.531C437.777 252.465 437.225 252.167 436.861 251.471C436.045 249.904 435.272 248.337 435.261 246.505C435.217 241.462 434.246 236.584 432.546 231.85C430.99 227.535 429.015 223.452 426.135 219.843C425.803 219.435 425.439 219.037 425.185 218.585C424.468 217.305 424.468 215.594 425.13 214.844C426.046 213.817 428.132 213.597 429.545 214.292C431.531 215.274 432.756 217.04 433.915 218.773C437.921 224.754 440.415 231.342 441.662 238.449C442.059 240.723 442.136 242.974 442.136 245.258L442.147 245.247Z" fill="#5E85FE"/>
<path d="M314.486 344.746C314.751 357.26 312.466 368.55 307.942 379.365C305.867 384.32 302.954 388.801 299.466 392.972C296.983 395.941 294.081 398.247 290.925 400.289C287.172 402.717 283.122 404.041 278.52 404.118C273.808 404.185 269.372 403.467 265.322 401.117C261.525 398.921 258.126 396.272 255.202 392.829C247.687 383.978 243.647 373.66 241.363 362.48C240.48 358.188 239.818 353.872 239.719 349.458C239.675 347.383 239.156 345.287 239.277 343.168C239.983 330.278 242.025 317.719 248.194 306.121C251.604 299.698 256.052 294.125 262.011 290.097C267.396 286.455 273.433 284.557 280.242 285.76C285.837 286.742 290.472 289.258 294.699 292.845C301.883 298.948 306.209 306.882 309.465 315.534C311.639 321.317 313.018 327.309 313.857 333.379C314.409 337.363 314.85 341.413 314.486 344.724V344.746Z" fill="#FFF6E8"/>
<path d="M241.915 216.091C241.595 208.178 243.548 200.597 247.355 193.49C250.456 187.707 254.628 182.918 260.72 180.092C269.052 176.23 276.755 177.4 283.917 183.017C290.472 188.149 293.86 195.167 295.869 202.981C296.564 205.695 296.796 208.487 297.071 211.291C297.701 217.78 296.807 224.026 294.886 230.184C292.381 238.262 287.857 245.016 280.805 249.695C273.146 254.771 262.872 254.242 255.599 248.58C248.68 243.195 245.148 235.966 242.985 227.811C242.765 226.961 242.643 226.089 242.433 225.24C241.716 222.293 241.926 219.291 241.893 216.102L241.915 216.091Z" fill="#FFF6E8"/>
<path d="M345.695 136.545C349.481 136.623 352.791 137.649 354.855 141.158C356.3 143.619 356.731 146.279 356.124 149.027C354.866 154.721 351.886 159.301 347.262 162.932C344.448 165.139 341.557 167.059 338.069 167.887C335.63 168.461 333.214 169.311 330.587 168.395C329.506 168.019 328.678 167.523 328.049 166.673C326.438 164.488 324.948 162.192 323.083 160.206C322.31 159.389 322.366 158.429 322.487 157.469C323.061 152.967 325.036 149.049 327.928 145.661C331.735 141.202 336.502 138.157 342.307 136.887C342.738 136.799 343.146 136.59 343.576 136.556C344.271 136.501 344.989 136.545 345.695 136.545Z" fill="#FFF6E8"/>
<path d="M200.31 170.425C196.293 170.635 192.96 168.748 189.815 166.684C186.416 164.455 183.668 161.486 181.516 157.977C179.817 155.207 178.945 152.238 178.889 149.005C178.801 143.321 183.48 139.911 189.02 140.916C195.454 142.074 200.398 145.793 204.338 150.892C206.622 153.839 208.267 157.028 208.675 160.879C209.271 166.474 205.949 170.436 200.31 170.436V170.425Z" fill="#FFF6E8"/>
<path d="M409.382 252.641C409.162 259.903 407.01 265.708 401.978 270.133C398.071 273.565 392.034 274.084 388.845 269.173C386.781 265.995 386.13 262.309 386.649 258.546C386.914 256.658 387.465 254.793 388.061 252.95C389.33 249.033 391.703 245.843 394.914 243.493C400.311 239.542 406.314 241.043 408.698 248.36C409.206 249.927 409.581 251.593 409.394 252.641H409.382Z" fill="#FFF6E8"/>
<path d="M134.128 355.053C135.905 352.603 137.517 350.44 139.293 348.432C140.242 347.361 141.269 346.423 142.659 345.949C143.079 345.805 143.531 345.695 143.906 346.015C144.314 346.368 144.094 346.831 143.983 347.251C143.619 348.663 142.725 349.756 141.798 350.826C139.757 353.155 137.892 355.594 136.225 358.209C135.508 359.324 135.508 360.229 136.247 361.321C137.55 363.275 139.161 364.831 141.191 365.99C142.328 366.641 142.957 366.563 143.674 365.327C145.705 361.774 148.486 358.816 151.344 355.914C152.028 355.219 152.746 354.557 153.739 354.336C154.258 354.225 154.798 354.181 155.218 354.623C155.648 355.075 155.527 355.572 155.339 356.09C154.975 357.128 154.236 357.878 153.485 358.629C151.123 361.012 148.85 363.473 146.963 366.265C146.169 367.435 146.323 367.755 147.736 367.899C151.94 368.329 155.99 367.557 159.941 366.155C164.455 364.555 168.615 362.259 172.643 359.699C185.401 351.588 196.392 341.446 206.512 330.289C211.611 324.661 216.323 318.712 221.09 312.808C221.587 312.19 222.073 311.561 222.646 311.009C223.176 310.491 223.849 310.248 224.567 310.689C225.328 311.164 225.185 311.903 225.052 312.588C224.887 313.482 224.213 314.133 223.695 314.828C217.128 323.59 210.054 331.933 202.363 339.736C193.722 348.487 184.407 356.433 173.957 362.966C168.251 366.53 162.325 369.631 155.626 370.901C151.135 371.75 146.676 371.695 142.306 370.205C137.726 368.638 134.393 365.659 132.352 361.288C130.277 356.863 129.747 352.162 130.167 347.339C130.2 346.909 130.31 346.467 130.454 346.059C130.696 345.43 131.171 345.055 131.877 345.088C132.705 345.121 133.234 345.596 133.29 346.39C133.389 347.527 133.345 348.686 133.367 349.822C133.4 351.467 133.367 353.111 134.139 355.053H134.128Z" fill="#150050"/>
<path d="M267.805 207.759C266.304 207.428 264.968 207.251 263.743 206.821C261.558 206.059 259.837 204.713 259.384 202.285C258.921 199.747 260.08 197.794 262.033 196.337C265.631 193.666 269.658 193.148 273.808 194.704C278.322 196.392 279.193 201.115 275.728 204.437C275.221 204.923 274.68 205.519 274.051 205.695C271.546 206.368 271.535 208.233 271.601 210.242C271.678 212.648 272.031 214.987 273.135 217.15C274.868 220.56 277.615 221.73 281.257 220.638C281.765 220.483 282.25 220.262 282.747 220.108C283.674 219.832 284.535 219.909 284.987 220.903C285.506 222.039 284.855 222.812 283.928 223.264C281.301 224.566 278.564 224.975 275.728 223.993C273.267 223.143 271.557 221.432 270.277 219.225C270.023 218.784 269.934 218.199 269.228 217.868C268.566 218.188 268.356 219.004 267.959 219.6C266.624 221.62 265.024 223.364 262.827 224.445C260.168 225.769 257.552 225.692 255.091 223.937C254.606 223.584 254.142 223.121 253.822 222.613C253.414 221.984 253.403 221.278 254.01 220.682C254.518 220.185 255.091 220.141 255.709 220.439C255.952 220.549 256.162 220.704 256.393 220.836C259.186 222.381 261.017 222.205 263.247 219.953C266.535 216.632 267.661 212.449 267.805 207.748V207.759Z" fill="#150050"/>
<path d="M262.033 268.963C249.695 268.765 237.125 265.52 225.593 258.534C224.843 258.082 224.092 257.596 223.452 257.001C222.911 256.493 222.724 255.786 223.209 255.08C223.717 254.341 224.401 253.988 225.251 254.385C226.045 254.76 226.785 255.257 227.546 255.687C247.069 266.756 267.33 268.665 288.353 260.51C294.423 258.159 299.764 254.573 304.51 250.125C305.095 249.584 305.646 249.011 306.275 248.525C306.937 247.995 307.721 247.741 308.439 248.382C309.266 249.132 309.045 250.015 308.427 250.743C307.512 251.814 306.551 252.851 305.503 253.8C300.15 258.689 293.982 262.22 287.217 264.726C279.437 267.606 271.38 268.897 262.022 268.974L262.033 268.963Z" fill="#150050"/>
<path d="M196.789 180.015C196.866 178.945 197.297 177.962 197.716 177.002C201.314 168.703 206.721 161.718 213.376 155.67C214.778 154.401 216.289 154.015 216.896 154.655C217.492 155.273 217.007 156.696 215.672 158.098C213.619 160.283 211.467 162.369 209.502 164.631C205.783 168.913 202.804 173.68 200.464 178.834C200.133 179.551 199.824 180.291 199.427 180.975C199.052 181.626 198.478 182.012 197.661 181.748C196.811 181.461 196.756 180.765 196.789 180.026V180.015Z" fill="#150050"/>
<path d="M333.302 173.394C333.181 174.299 333.247 175.104 332.419 175.38C331.636 175.645 331.095 175.126 330.598 174.608C329.98 173.956 329.682 173.107 329.34 172.301C326.371 165.448 322.531 159.202 317.013 154.059C316.638 153.706 316.263 153.298 316.042 152.845C315.744 152.26 315.843 151.631 316.351 151.157C316.781 150.748 317.322 150.715 317.83 150.914C318.922 151.333 319.761 152.128 320.589 152.911C324.849 156.961 328.016 161.817 330.686 167.015C331.448 168.505 332.121 170.039 332.772 171.573C333.048 172.213 333.169 172.908 333.313 173.394H333.302Z" fill="#150050"/>
<path d="M304.532 183.215C300.349 183.237 296.288 179.805 294.997 175.06C294.743 174.133 294.909 173.239 295.88 172.831C297.049 172.334 297.668 173.096 298.142 174.023C298.584 174.883 298.948 175.788 299.477 176.594C300.758 178.536 302.512 179.872 304.929 179.728C307.478 179.574 309.045 177.896 310.061 175.711C310.458 174.85 310.602 173.868 310.911 172.952C311.242 171.937 311.86 171.198 313.04 171.473C314.089 171.716 314.398 172.588 314.287 173.526C313.68 178.558 309.873 183.293 304.554 183.226L304.532 183.215Z" fill="#150050"/>
<path d="M227.326 189.892C221.808 189.671 218.442 185.301 218.232 180.434C218.21 180.015 218.365 179.574 218.486 179.154C218.685 178.481 219.192 178.139 219.876 178.161C220.539 178.183 221.068 178.525 221.256 179.198C221.466 179.96 221.565 180.754 221.752 181.516C222.448 184.253 224.357 186.118 226.685 186.35C229.179 186.603 231.563 185.147 232.766 182.586C233.097 181.88 233.263 181.074 233.605 180.379C234.002 179.585 234.708 179.243 235.591 179.529C236.342 179.772 236.673 180.357 236.684 181.152C236.695 182.333 236.231 183.381 235.713 184.396C234.013 187.74 230.714 189.903 227.326 189.914V189.892Z" fill="#150050"/>
<path d="M316.936 405.641C315.733 405.674 315.071 404.736 315.457 403.677C315.711 402.97 316.318 402.584 316.858 402.132C322.012 397.817 326.824 393.193 330.311 387.355C331.106 386.019 332.033 385.755 332.893 386.373C334.008 387.178 333.743 388.204 333.169 389.187C332.551 390.246 331.911 391.306 331.183 392.299C327.861 396.901 323.833 400.829 319.353 404.306C318.591 404.891 317.852 405.542 316.925 405.652L316.936 405.641Z" fill="#150050"/>
<path d="M240.27 405.056C240.304 406.027 239.41 406.811 238.483 406.579C237.732 406.38 237.015 405.994 236.342 405.586C230.78 402.087 226.089 397.607 221.797 392.685C220.583 391.295 220.45 390.125 221.212 389.419C221.962 388.723 223.099 389.01 224.346 390.412C228.683 395.3 233.406 399.737 238.858 403.368C239.52 403.809 240.193 404.25 240.27 405.056Z" fill="#150050"/>
</svg>
