<svg width="550" height="550" viewBox="0 0 550 550" fill="none" xmlns="http://www.w3.org/2000/svg">
<path d="M275 550C426.878 550 550 426.878 550 275C550 123.122 426.878 0 275 0C123.122 0 0 123.122 0 275C0 426.878 123.122 550 275 550Z" fill="#FFF6E8"/>
<path d="M273.047 228.253C273.146 213.509 276.457 199.439 282.251 185.964C285.948 177.356 290.892 169.454 296.961 162.237C303.23 154.788 310.568 148.674 318.945 143.829C326.107 139.68 333.821 136.81 341.987 135.276C345.485 134.625 349.028 134.35 352.581 134.052C359.854 133.423 366.906 134.614 374.035 135.685C381.175 136.755 387.929 138.907 394.297 142.207C402.607 146.511 409.625 152.393 415.662 159.577C420.827 165.724 425.042 172.445 428.497 179.64C432.514 188.005 435.25 196.801 437.17 205.872C439.731 217.978 439.764 230.25 439.245 242.489C438.892 250.854 437.524 259.153 435.813 267.385C433.661 277.792 430.726 287.967 427.216 297.977C425.009 304.278 422.471 310.458 419.756 316.561C416.556 323.767 413.068 330.819 409.338 337.749C403.224 349.127 396.416 360.075 388.834 370.548C384.972 375.889 380.899 381.043 376.805 386.197C374.079 389.629 371.122 392.895 368.109 396.085C364.964 399.417 362.028 402.927 358.706 406.094C351.092 413.356 343.245 420.33 334.902 426.764C323.822 435.317 311.87 442.369 299.235 448.295C292.845 451.286 286.201 453.647 279.249 454.927C271.745 456.307 264.339 455.623 257.045 453.46C248.029 450.789 239.719 446.551 231.53 442.037C224.865 438.362 218.475 434.268 212.35 429.766C207.274 426.036 202.352 422.096 197.617 417.913C192.541 413.433 187.431 408.963 182.774 404.041C175.546 396.405 168.549 388.58 162.082 380.248C156.862 373.516 151.863 366.641 147.239 359.501C141.666 350.893 136.568 342.009 131.866 332.872C124.649 318.845 118.447 304.411 113.757 289.336C110.766 279.735 108.559 269.957 106.782 260.058C104.553 247.632 104.189 235.117 104.773 222.603C105.336 210.607 107.952 198.931 112.289 187.674C115.732 178.724 120.279 170.392 126.128 162.811C136.126 149.844 148.861 140.872 164.94 137.142C170.16 135.928 175.479 135.111 180.854 134.57C190.687 133.577 200.178 135.012 209.459 137.892C217.912 140.508 225.593 144.767 232.656 150.131C242.577 157.668 250.192 167.148 256.46 177.841C260.234 184.275 263.258 191.04 265.609 198.081C268.07 205.442 270.078 212.935 270.95 220.693C271.237 223.232 271.645 225.748 271.998 228.275C272.098 229.456 271.722 230.703 272.583 232.325C273.312 230.681 273.036 229.445 273.036 228.253H273.047Z" fill="#FA9BFA"/>
<path d="M273.047 228.253C273.047 229.444 273.323 230.681 272.594 232.325C271.733 230.714 272.109 229.456 272.009 228.275L273.036 228.242L273.047 228.253Z" fill="#FA9BFA"/>
<path d="M342.837 182.686C342.837 179.828 342.715 177.643 342.859 175.469C343.256 169.553 342.682 163.671 341.215 157.999C337.484 143.586 329.34 132.782 314.607 128.247C310.017 126.834 305.205 125.719 299.146 125.951C301.331 124.086 303.009 124.649 304.388 124.274C306.033 123.821 307.688 123.192 309.365 123.104C319.772 122.541 327.177 116.769 333.401 109.166C337.838 103.736 339.67 97.0926 341.369 90.4049C342.815 84.6884 342.892 78.8615 342.947 72.7698C345.088 73.9396 344.117 75.5175 344.305 76.7646C345.32 83.7502 345.684 90.7912 347.836 97.6223C352.626 112.841 367.016 124.693 384.243 124.505C385.192 124.505 386.13 124.682 387.123 125.333C383.415 126.072 379.707 126.768 376.01 127.551C364.632 129.957 356.599 137.13 351.279 146.853C347.682 153.43 345.651 160.923 345.772 168.715C345.806 171.165 346.07 173.736 345.441 176.031C344.901 178.029 344.967 180.379 342.848 182.686H342.837Z" fill="#EF6051"/>
<path d="M116.361 338.334C116.361 335.829 116.251 333.909 116.383 332C116.725 326.802 116.229 321.648 114.937 316.66C111.66 304.002 104.509 294.522 91.5858 290.538C87.5467 289.291 83.331 288.32 78.0117 288.519C79.9319 286.885 81.4106 287.371 82.6135 287.04C84.0592 286.643 85.5162 286.091 86.9839 286.014C96.1215 285.517 102.621 280.452 108.084 273.775C111.98 269.007 113.591 263.17 115.07 257.31C116.339 252.299 116.405 247.168 116.449 241.826C118.325 242.853 117.476 244.232 117.641 245.336C118.535 251.461 118.855 257.652 120.742 263.655C124.947 277.008 137.572 287.415 152.702 287.261C153.529 287.261 154.368 287.415 155.229 287.989C151.973 288.629 148.718 289.247 145.473 289.931C135.486 292.05 128.434 298.34 123.766 306.871C120.61 312.643 118.833 319.22 118.932 326.062C118.966 328.214 119.186 330.466 118.634 332.485C118.16 334.24 118.215 336.303 116.361 338.323V338.334Z" fill="#EF6051"/>
<path d="M351.125 471.481C351.125 469.064 351.025 467.21 351.147 465.378C351.478 460.368 351.003 455.402 349.756 450.601C346.6 438.407 339.703 429.269 327.243 425.429C323.359 424.237 319.286 423.288 314.166 423.486C316.02 421.908 317.432 422.383 318.602 422.063C319.993 421.677 321.394 421.147 322.818 421.069C331.625 420.595 337.882 415.706 343.146 409.283C346.898 404.692 348.443 399.064 349.878 393.414C351.103 388.58 351.169 383.647 351.213 378.494C353.023 379.487 352.206 380.822 352.361 381.87C353.222 387.775 353.531 393.745 355.351 399.517C359.402 412.385 371.574 422.416 386.152 422.261C386.947 422.261 387.752 422.405 388.591 422.968C385.457 423.586 382.312 424.182 379.189 424.844C369.566 426.885 362.767 432.955 358.265 441.177C355.219 446.739 353.508 453.084 353.608 459.672C353.641 461.747 353.861 463.921 353.321 465.864C352.857 467.552 352.912 469.539 351.125 471.492V471.481Z" fill="#EF6051"/>
<path d="M294.577 304.554C294.158 303.616 294.312 302.777 294.312 301.96C294.235 288.386 294.18 274.812 294.125 261.238C294.103 256.239 293.959 256.073 288.817 256.073C277.991 256.073 267.165 256.073 256.35 256.073C255.71 256.073 255.069 256.073 254.429 256.107C253.348 256.184 252.763 256.78 252.73 257.872C252.708 258.512 252.73 259.152 252.73 259.804C252.73 272.925 252.741 286.035 252.752 299.157C252.752 300.437 252.675 301.728 252.785 303.008C252.917 304.509 252.222 304.995 250.865 304.885C250.501 304.852 250.136 304.885 249.761 304.885C236 304.94 222.238 304.984 208.487 305.039C207.936 305.039 207.384 305.039 206.832 305.05C205.563 305.061 204.79 305.613 204.559 306.948C204.349 308.129 204.283 309.31 204.283 310.502C204.283 321.24 204.283 331.966 204.283 342.704C204.283 343.432 204.261 344.172 204.338 344.9C204.437 345.849 205 346.379 205.96 346.445C206.512 346.478 207.064 346.467 207.616 346.467C221.554 346.467 235.503 346.467 249.441 346.467C250.6 346.467 251.747 346.467 252.84 346.467C253.259 347.405 253.105 348.233 253.105 349.05C253.182 362.624 253.237 376.198 253.293 389.772C253.315 394.771 253.458 394.936 258.601 394.936C269.427 394.936 280.253 394.936 291.068 394.936C291.708 394.936 292.348 394.936 292.988 394.903C294.07 394.826 294.655 394.23 294.688 393.138C294.71 392.498 294.688 391.858 294.688 391.206C294.688 378.085 294.677 364.974 294.666 351.853C294.666 350.573 294.743 349.281 294.633 348.001C294.5 346.5 295.195 346.015 296.553 346.125C296.917 346.158 297.281 346.125 297.656 346.125C311.319 346.07 324.992 346.026 338.654 345.971C342.671 345.96 343.013 345.629 343.124 341.612C343.124 341.523 343.124 341.424 343.124 341.336C343.124 330.057 343.146 318.768 343.124 307.489C343.124 304.796 342.859 304.554 340.078 304.554C324.948 304.554 309.818 304.554 294.577 304.554Z" fill="#4967E5"/>
<path d="M294.577 304.554C309.818 304.554 324.948 304.554 340.078 304.554C342.859 304.554 343.124 304.796 343.124 307.489C343.135 318.768 343.124 330.057 343.124 341.336C343.124 341.424 343.124 341.523 343.124 341.612C343.002 345.629 342.671 345.96 338.654 345.971C324.992 346.015 311.319 346.07 297.656 346.125C297.292 346.125 296.917 346.147 296.553 346.125C295.195 346.026 294.5 346.5 294.633 348.001C294.743 349.281 294.666 350.573 294.666 351.853C294.666 364.974 294.677 378.085 294.688 391.206C294.688 391.847 294.699 392.487 294.688 393.138C294.655 394.23 294.081 394.837 292.988 394.903C292.348 394.947 291.708 394.936 291.068 394.936C280.242 394.936 269.416 394.936 258.601 394.936C253.458 394.936 253.315 394.771 253.293 389.772C253.237 376.198 253.171 362.624 253.105 349.05C253.105 348.233 253.259 347.405 252.84 346.467C251.747 346.467 250.589 346.467 249.441 346.467C235.503 346.467 221.554 346.467 207.616 346.467C207.064 346.467 206.512 346.478 205.96 346.445C205 346.39 204.426 345.849 204.338 344.9C204.261 344.172 204.283 343.432 204.283 342.704C204.283 331.966 204.283 321.24 204.283 310.502C204.283 309.31 204.349 308.129 204.559 306.948C204.801 305.624 205.563 305.072 206.832 305.05C207.384 305.05 207.936 305.05 208.487 305.039C222.249 304.984 236.011 304.94 249.761 304.885C250.125 304.885 250.501 304.863 250.865 304.885C252.222 304.984 252.917 304.509 252.785 303.008C252.675 301.728 252.752 300.437 252.752 299.157C252.752 286.035 252.741 272.925 252.73 259.804C252.73 259.164 252.719 258.523 252.73 257.872C252.763 256.78 253.337 256.184 254.429 256.107C255.069 256.062 255.71 256.073 256.35 256.073C267.176 256.073 278.002 256.073 288.817 256.073C293.959 256.073 294.103 256.239 294.125 261.238C294.18 274.812 294.246 288.386 294.312 301.96C294.312 302.777 294.158 303.605 294.577 304.554Z" fill="#4967E5"/>
</svg>
