<svg width="550" height="550" viewBox="0 0 550 550" fill="none" xmlns="http://www.w3.org/2000/svg">
<path d="M275 550C426.878 550 550 426.878 550 275C550 123.122 426.878 0 275 0C123.122 0 0 123.122 0 275C0 426.878 123.122 550 275 550Z" fill="#FFF6E8"/>
<path d="M263.567 169.388C263.28 170.238 262.651 170.591 262.176 171.043C259.296 173.769 256.438 176.506 253.756 179.419C253.017 180.225 252.277 181.052 251.715 181.979C249.728 185.279 251.615 188.789 255.456 189.02C255.787 189.043 256.107 189.02 256.427 189.02C256.703 189.672 256.372 190.168 256.305 190.687C255.897 193.998 258.623 196.536 261.923 195.896C263.081 195.675 264.119 195.167 265.134 194.583C266.778 193.622 268.423 192.651 270.177 191.625C270.497 192.099 270.365 192.585 270.431 193.004C270.862 195.84 273.477 197.419 276.214 196.514C277.141 196.205 277.902 195.631 278.653 195.046C281.257 193.048 283.851 191.04 286.455 189.065C288.21 187.729 287.901 187.641 289.203 189.385C289.689 190.036 290.196 190.709 290.803 191.239C293.341 193.435 296.718 192.607 298.01 189.517C299.841 185.125 299.83 185.025 297.016 181.196C297.237 180.655 297.756 180.424 298.175 180.092C310.745 170.447 323.392 160.912 336.204 151.598C340.519 148.464 345.099 145.749 349.447 142.67C350.054 142.24 350.694 142.174 351.378 142.185C373.913 142.328 396.448 142.472 418.983 142.604C434.489 142.692 449.983 142.792 465.488 142.825C466.835 142.825 467.816 143.156 468.622 144.248C469.064 144.844 469.174 145.473 469.185 146.157C469.185 147.658 469.207 149.159 469.207 150.66C469.174 196.481 469.163 242.301 469.097 288.133C469.042 331.912 468.942 375.679 468.865 419.458C468.865 419.933 468.865 420.418 468.865 420.893C468.821 422.934 468.159 423.519 466.073 423.265C464.307 423.056 462.531 423.023 460.754 423.034C433.981 423.144 407.219 423.265 380.447 423.387C351.974 423.519 323.491 423.663 295.019 423.795C266.403 423.928 237.787 424.071 209.183 424.203C180.435 424.336 151.686 424.479 122.938 424.612C114.882 424.645 106.826 424.678 98.7589 424.7C98.1409 424.7 97.523 424.7 96.9271 424.601C96.2539 424.479 95.8123 424.071 95.9116 423.31C96.3751 419.701 96.0994 416.092 96.0884 412.483C96.0332 372.876 95.945 333.269 95.8567 293.662C95.7794 258.557 95.6909 223.463 95.6136 188.358C95.5805 174.221 95.5697 160.085 95.5476 145.948C95.5476 145.264 95.5476 144.579 95.5476 143.895C95.5697 140.805 95.7241 140.64 98.7921 140.662C136.424 140.86 174.045 141.07 211.677 141.258C213.2 141.258 214.568 141.655 216.003 142.185C228.407 146.765 239.31 154.092 250.512 160.879C251.229 161.31 251.77 161.806 252.101 162.656C252.84 164.587 254.363 165.558 256.405 165.503C257.442 165.481 258.248 165.801 259.053 166.353C260.554 167.39 262.099 168.384 263.6 169.377L263.567 169.388Z" fill="#150050"/>
<path d="M237.236 419.812C236.827 419.812 236.419 419.812 236.011 419.812C235.945 419.249 235.613 418.995 235.051 419.006C232.954 419.006 230.868 419.006 228.771 419.006C228.208 419.006 227.877 419.249 227.811 419.812C223.11 419.812 218.398 419.999 213.707 419.778C195.322 418.929 176.936 419.657 158.551 419.403C158.473 418.697 157.977 418.587 157.381 418.587C154.611 418.587 151.83 418.587 149.06 418.587C148.464 418.587 147.979 418.686 147.89 419.403C144.017 419.403 140.132 419.635 136.281 419.348C132.418 419.061 128.567 419.105 124.715 418.973C122.464 418.896 122.067 418.377 122.067 416.093C122.067 414.195 122.067 412.285 122.067 410.387C122.497 410.31 122.85 410.122 122.85 409.637C122.85 407.816 122.85 405.995 122.85 404.185C122.85 403.688 122.497 403.501 122.067 403.424C121.89 401.868 121.89 401.879 120.51 402.099C120.113 402.166 119.705 402.199 119.297 402.188C118.127 402.165 117.399 401.537 117.608 400.455C118.348 396.537 117.751 392.597 117.961 388.68C119.539 387.962 118.59 386.572 118.723 385.502C118.811 384.784 119.297 383.67 117.95 383.35C115.677 383.306 113.525 383.868 111.395 384.574C111.384 384.045 111.108 383.769 110.567 383.769C110.567 303.903 110.567 224.026 110.567 144.16C110.567 143.686 110.567 143.2 110.545 142.726C110.523 142.229 110.203 142.03 109.762 141.953C109.762 138.885 109.651 135.806 109.795 132.739C109.905 130.156 110.292 127.596 110.181 125.002C110.137 123.91 110.932 123.601 111.792 123.546C114.904 123.336 117.994 122.906 121.095 122.608C126.216 122.111 131.315 122.409 136.413 122.31C140.077 122.244 143.719 122.828 147.372 123.016C150.495 123.182 153.585 123.667 156.686 123.976C159.776 124.285 162.822 125.024 165.901 125.488C172.688 126.503 179.342 128.159 185.975 129.891C193.413 131.834 200.751 134.118 207.969 136.778C213.652 138.874 219.291 141.093 224.809 143.576C228.782 145.364 232.788 147.118 236.662 149.105C244.729 153.232 252.608 157.679 260.168 162.689C265.675 166.331 271.016 170.183 276.181 174.266C277.825 175.568 279.359 177.025 281.036 178.305C281.621 178.747 281.997 178.758 282.648 178.36C283.994 177.522 285.087 176.396 286.278 175.392C290.24 172.059 294.368 168.98 298.617 166.033C303.207 162.855 307.898 159.853 312.665 156.94C314.751 155.66 316.903 154.468 319.055 153.309C324.882 150.175 330.73 147.096 336.8 144.447C343.477 141.545 350.209 138.786 357.073 136.314C366.486 132.926 376.088 130.178 385.821 127.883C391.229 126.602 396.68 125.51 402.187 124.738C405.873 124.219 409.548 123.501 413.245 123.215C415.474 123.038 417.714 122.828 419.944 122.663C426.212 122.199 432.48 122.166 438.738 122.354C442.578 122.475 446.462 122.608 450.259 123.447C450.325 123.458 450.391 123.468 450.457 123.479C453.569 123.976 453.514 123.976 453.581 127C454.497 169.322 453.823 211.655 453.956 253.977C454.088 296.255 453.989 338.522 453.989 380.8C453.989 381.485 454.033 382.169 453.967 382.853C453.835 384.188 453.029 384.751 451.705 384.453C450.314 384.144 448.935 383.769 447.544 383.471C446.154 383.173 445.8 383.438 445.789 384.839C445.767 389.342 445.789 393.856 445.789 398.358C445.789 398.91 445.944 399.429 446.054 399.958C446.429 401.757 445.414 402.706 443.67 402.232C443.339 402.143 443.019 402.022 442.699 401.934C442.114 401.768 441.761 401.989 441.717 402.596C441.684 403.07 441.695 403.556 441.695 404.031C441.695 408.059 441.695 412.087 441.695 416.115C441.695 418.377 441.276 418.874 439.002 418.984C437.159 419.072 435.316 418.951 433.473 419.017C407.065 419.922 380.645 418.896 354.237 419.503C331.172 420.032 308.107 419.536 285.043 419.867C281.114 419.922 277.185 419.734 273.256 419.812C269.361 419.889 265.476 419.834 261.581 419.834C257.685 419.834 253.657 419.834 249.695 419.834C245.799 419.834 241.915 419.834 238.019 419.834C237.986 419.58 237.964 419.26 237.699 419.216C237.247 419.139 237.258 419.536 237.202 419.834L237.236 419.812Z" fill="#5E85FE"/>
<path d="M109.784 141.942C110.225 142.02 110.556 142.218 110.567 142.715C110.589 143.189 110.589 143.675 110.589 144.149C110.589 224.015 110.589 303.892 110.589 383.758C110.148 383.68 109.817 383.482 109.806 382.985C109.784 382.511 109.784 382.025 109.784 381.551C109.784 301.685 109.784 221.819 109.784 141.942Z" fill="#5E85FE"/>
<path d="M147.89 419.403C147.967 418.686 148.464 418.587 149.06 418.587C151.83 418.587 154.611 418.587 157.381 418.587C157.977 418.587 158.462 418.697 158.551 419.403C154.997 419.403 151.444 419.403 147.89 419.403Z" fill="#5E85FE"/>
<path d="M227.8 419.811C227.877 419.249 228.197 419.006 228.76 419.006C230.857 419.006 232.943 419.006 235.039 419.006C235.602 419.006 235.922 419.249 236 419.811C233.263 419.811 230.537 419.811 227.8 419.811Z" fill="#5E85FE"/>
<path d="M122.078 403.424C122.508 403.501 122.861 403.688 122.861 404.185C122.861 406.006 122.861 407.827 122.861 409.637C122.861 410.133 122.508 410.321 122.078 410.387C122.078 408.07 122.078 405.741 122.078 403.424Z" fill="#5E85FE"/>
<path d="M117.972 383.35C119.307 383.659 118.833 384.784 118.745 385.501C118.612 386.572 119.561 387.962 117.983 388.68C117.983 386.903 117.983 385.126 117.983 383.35H117.972Z" fill="#5E85FE"/>
<path d="M110.589 383.758C111.13 383.758 111.395 384.034 111.417 384.563C110.887 384.563 110.611 384.287 110.589 383.758Z" fill="#5E85FE"/>
<path d="M237.236 419.812C237.291 419.514 237.291 419.116 237.732 419.194C237.997 419.238 238.019 419.558 238.052 419.812C237.776 419.812 237.5 419.812 237.236 419.812Z" fill="#5E85FE"/>
<path d="M279.889 199.769C279.977 196.514 280.065 193.258 280.165 190.003C280.176 189.528 280.22 189.053 280.275 188.579C280.352 187.994 280.275 187.299 281.07 187.133C281.743 186.99 282.615 187.674 282.769 188.568C282.924 189.506 282.968 190.455 283.023 191.404C283.089 192.552 283.111 193.711 283.144 194.858C282.979 195.543 283.001 196.227 283.178 196.9C283.167 197.584 283.133 198.268 283.133 198.942C283.144 269.946 283.167 340.961 283.178 411.965C283.178 412.506 283.222 413.068 283.1 413.598C282.891 414.514 282.03 415.011 281.103 414.956C280.065 414.889 279.922 414.194 279.878 413.411C279.845 412.793 279.845 412.185 279.845 411.567C279.856 343.355 279.878 275.155 279.889 206.943C279.889 206.325 279.856 205.718 279.834 205.1C280.01 203.323 280.054 201.546 279.878 199.769H279.889Z" fill="#150050"/>
<path d="M398.413 376.021C411.28 376.143 423.64 377.136 435.857 379.63C437.192 379.906 438.517 380.171 439.841 380.48C440.371 380.601 440.956 380.723 441.353 381.043C441.86 381.451 442.335 382.025 442.092 382.797C441.85 383.526 441.298 383.912 440.547 383.912C440.006 383.912 439.455 383.835 438.925 383.713C422.294 380.005 405.465 378.802 388.481 379.696C364.345 380.977 341.104 386.108 319 396.04C309.895 400.135 301.43 405.321 293.165 410.861C292.889 411.049 292.657 411.325 292.403 411.534C291.498 412.274 290.384 412.351 289.876 411.722C289.402 411.137 289.622 409.68 290.439 409.173C292.238 408.058 293.639 406.447 295.416 405.31C298.076 403.6 300.691 401.812 303.406 400.201C308.173 397.375 313.095 394.848 318.183 392.63C320.39 391.67 322.608 390.732 324.826 389.794C328.855 388.083 333.037 386.792 337.197 385.468C350.562 381.208 364.246 378.526 378.195 377.103C385.059 376.397 391.946 376.11 398.413 376.01V376.021Z" fill="#150050"/>
<path d="M162.358 372.744C178.47 372.843 193.104 374.366 207.561 377.522C218.63 379.95 229.411 383.305 239.884 387.631C248.625 391.24 256.99 395.599 264.836 400.907C266.238 401.856 267.694 402.739 268.754 404.118C269.261 404.781 269.979 405.189 270.74 405.498C271.513 405.818 272.186 406.27 272.594 407.01C273.124 407.959 272.638 408.853 271.557 408.864C270.751 408.864 269.824 408.742 269.361 408.08C268.897 407.418 268.257 407.087 267.661 406.668C250.49 394.528 231.42 386.682 211.081 381.76C195.686 378.03 180.048 376.231 164.223 376.143C151.565 376.077 139.006 377.258 126.58 379.752C125.333 380.005 124.097 380.281 122.85 380.557C122.309 380.679 121.769 380.679 121.228 380.546C120.687 380.403 120.102 380.292 120.224 379.553C120.334 378.891 119.793 377.986 120.908 377.688C121.758 377.456 122.585 377.158 123.435 376.982C133.136 374.94 142.924 373.583 152.834 373.119C156.454 372.954 160.063 372.711 162.369 372.766L162.358 372.744Z" fill="#150050"/>
<path d="M121.592 397.276C122.188 396.184 123.17 395.687 124.318 395.345C132.054 393.039 139.911 391.207 147.89 389.949C160.052 388.028 172.301 387.145 184.606 387.532C207.969 388.26 230.702 392.233 252.343 401.393C258.501 403.997 264.461 406.966 269.935 410.85C270.873 411.513 271.767 412.23 272.671 412.936C272.881 413.102 273.08 413.344 272.981 413.62C272.837 414.018 272.484 413.952 272.131 413.974C271.314 414.04 270.707 413.565 270.067 413.223C266.591 411.347 263.203 409.261 259.638 407.573C255.787 405.741 251.792 404.24 247.83 402.64C244.608 401.338 241.286 400.289 237.964 399.252C234.521 398.181 231 397.365 227.535 396.404C208.002 390.964 188.06 390.026 167.964 390.898C157.999 391.328 148.144 392.763 138.388 394.893C134.162 395.82 129.968 396.89 125.863 398.248C125.112 398.501 124.329 398.689 123.556 398.865C122.552 399.097 121.857 398.733 121.57 397.718V397.287L121.592 397.276Z" fill="#150050"/>
<path d="M288.739 416.953C291.134 414.36 293.97 412.793 296.829 411.192C303.086 407.705 309.542 404.67 316.252 402.176C328.766 397.53 341.678 394.473 354.899 392.685C365.471 391.251 376.076 390.533 386.748 390.776C400.145 391.074 413.421 392.498 426.499 395.588C430.571 396.548 434.621 397.585 438.583 398.909C439.102 399.086 439.598 399.285 440.029 399.583C440.591 399.98 440.757 400.598 440.393 401.205C440.117 401.668 439.984 402.198 439.135 402.187C436.641 402.143 434.312 401.304 432.094 400.433C429.357 399.362 426.532 398.755 423.707 398.126C406.469 394.286 389.01 393.215 371.408 394.109C352.019 395.091 333.114 398.689 314.872 405.465C308.538 407.815 302.413 410.663 296.443 413.797C294.566 414.779 292.69 415.772 290.825 416.776C290.273 417.074 289.689 417.56 288.729 416.953H288.739Z" fill="#150050"/>
<path d="M265.432 413.168C263.214 413.653 261.316 412.649 259.473 411.921C256.901 410.916 254.308 410.034 251.648 409.283C247.863 408.213 244.023 407.286 240.27 406.138C237.909 405.41 235.492 405.001 233.13 404.383C229.356 403.401 225.538 402.551 221.675 401.933C217.769 401.304 213.873 400.653 209.955 400.068C199.482 398.49 188.954 397.497 178.349 397.685C163.351 397.939 148.552 399.77 133.952 403.18C133.147 403.368 132.374 403.578 131.535 403.5C130.707 403.412 130.067 402.971 129.979 402.198C129.88 401.393 130.498 400.863 131.248 400.62C132.142 400.333 133.047 400.068 133.963 399.859C146.367 397.011 158.926 395.422 171.628 394.694C184.165 393.976 196.58 395.003 208.973 396.724C216.61 397.784 224.202 399.119 231.707 400.874C239.652 402.728 247.543 404.714 255.213 407.54C258.248 408.654 261.227 409.89 264.008 411.556C264.637 411.932 265.333 412.23 265.421 413.168H265.432Z" fill="#150050"/>
<path d="M382.267 397.707C397.188 397.927 411.954 399.528 426.543 402.695C427.856 402.982 429.158 403.368 430.439 403.809C431.829 404.295 432.314 404.946 432.005 405.763C431.619 406.778 430.758 406.833 429.809 406.778C428.529 406.701 427.37 406.226 426.156 405.94C418.917 404.207 411.556 403.125 404.162 402.265C396.15 401.338 388.116 400.852 380.049 400.94C370.062 401.051 360.163 402.165 350.297 403.622C343.885 404.571 337.506 405.719 331.183 407.153C325.334 408.489 319.452 409.692 313.702 411.468C310.403 412.484 307.048 413.322 303.792 414.503C301.927 415.176 300.15 416.07 298.197 416.478C297.822 416.556 297.303 416.788 297.093 416.335C296.884 415.894 297.06 415.353 297.535 415.099C298.484 414.58 299.455 414.106 300.415 413.62C306.187 410.751 312.312 408.853 318.492 407.153C332.452 403.302 346.633 400.62 361.023 399.009C368.075 398.214 375.16 397.629 382.267 397.707Z" fill="#150050"/>
<path d="M381.219 404.979C392.509 404.814 403.721 405.674 414.9 407.186C415.827 407.308 416.787 407.341 417.659 407.849C418.332 408.246 419.05 408.687 418.851 409.515C418.674 410.243 417.869 410.387 417.151 410.365C416.467 410.354 415.783 410.332 415.11 410.254C400.774 408.765 386.417 407.815 371.982 408.279C354.336 408.842 336.888 410.894 319.706 414.989C318.381 415.309 317.046 415.552 315.711 415.805C315.181 415.905 314.629 415.949 314.089 415.761C313.846 415.673 313.548 415.662 313.504 415.32C313.471 415.033 313.526 414.779 313.791 414.636C314.651 414.183 315.457 413.532 316.373 413.322C321.184 412.23 325.908 410.773 330.753 409.791C338.72 408.18 346.743 406.999 354.833 406.237C359.247 405.818 363.672 405.553 368.109 405.288C372.479 405.023 376.838 405.056 381.208 404.99L381.219 404.979Z" fill="#150050"/>
<path d="M179.96 401.702C194.704 401.68 208.245 402.64 221.686 404.703C230.018 405.984 238.24 407.76 246.252 410.409C246.903 410.619 247.543 410.828 248.084 411.259C248.349 411.468 248.613 411.722 248.503 412.108C248.393 412.495 248.039 412.627 247.697 412.594C246.815 412.517 245.932 412.407 245.06 412.274C242.003 411.811 239.046 410.872 236.033 410.243C227.348 408.411 218.574 407.142 209.746 406.259C197.496 405.034 185.224 404.692 172.93 405.035C166.033 405.233 159.169 405.895 152.304 406.524C150.263 406.712 148.232 406.9 146.191 407.065C145.44 407.12 144.679 407.176 143.939 407.065C143.034 406.933 142.78 406.127 143.365 405.41C143.983 404.648 144.811 404.328 145.782 404.174C149.832 403.534 153.893 403.07 157.966 402.684C165.646 401.944 173.35 401.602 179.938 401.702H179.96Z" fill="#150050"/>
<path d="M279.889 199.769C280.065 201.546 280.032 203.323 279.845 205.1C279.293 203.323 279.249 201.546 279.889 199.769Z" fill="#150050"/>
<path d="M283.177 196.889C283.001 196.216 282.979 195.532 283.144 194.847C283.696 195.521 283.685 196.205 283.177 196.889Z" fill="#150050"/>
<path d="M121.592 397.276V397.707C121.172 397.553 121.183 397.409 121.592 397.276Z" fill="#150050"/>
<path d="M258.303 199.052C258.303 202.396 258.303 205.74 258.303 209.083C258.303 209.426 258.336 209.779 258.281 210.11C258.126 210.959 257.53 211.235 256.648 210.794C254.694 209.812 252.774 208.752 250.832 207.726C245.325 204.824 239.862 201.833 234.3 199.03C229.93 196.823 225.449 194.825 220.991 192.784C214.502 189.815 207.936 187.001 201.248 184.507C198.357 183.425 195.52 182.222 192.618 181.196C189.263 180.015 185.853 179.011 182.487 177.852C177.488 176.142 172.323 174.972 167.324 173.339C161.475 171.441 155.494 170.359 149.501 169.211C147.162 168.759 144.789 168.45 142.383 168.428C140.982 168.417 140.231 167.633 140.231 166.188C140.198 161.199 140.209 156.222 140.187 151.234C140.187 150.208 140.088 149.192 140.066 148.166C140.033 146.831 140.331 146.477 141.677 146.378C144.083 146.213 146.456 146.599 148.806 146.93C155.748 147.923 162.612 149.391 169.399 151.146C179.165 153.673 188.8 156.608 198.312 159.974C205.85 162.634 213.299 165.514 220.66 168.649C229.952 172.599 239.056 176.936 247.995 181.627C250.798 183.094 253.524 184.705 256.338 186.162C257.387 186.703 257.751 187.442 257.828 188.579C258.082 192.055 258.071 195.543 258.303 199.019V199.052ZM253.999 205.199C254.098 204.757 254.187 204.57 254.187 204.371C254.231 199.659 254.264 194.947 254.308 190.245C254.319 189.153 253.789 188.568 252.851 188.049C224.456 172.555 194.66 160.659 163.164 153.132C157.26 151.72 151.278 150.649 145.253 149.877C143.752 149.689 143.663 149.711 143.663 150.87C143.652 155.306 143.696 159.743 143.663 164.179C143.663 165.15 144.127 165.261 144.911 165.305C147.504 165.448 150.064 165.889 152.613 166.342C163.373 168.262 173.879 171.175 184.275 174.508C205.773 181.395 226.277 190.599 246.23 201.071C248.757 202.396 251.262 203.753 253.999 205.199Z" fill="#FFF6E8"/>
<path d="M145.794 218.508C152.658 219.17 159.864 220.34 167.059 221.609C174.487 222.911 181.836 224.6 189.109 226.608C197.971 229.058 206.7 231.961 215.264 235.338C225.99 239.564 236.408 244.442 246.594 249.806C252.851 253.094 258.998 256.581 264.98 260.356C265.576 260.731 266.138 261.106 266.491 261.669C267.076 262.596 266.525 263.545 265.432 263.655C264.461 263.755 263.556 263.578 262.728 263.037C258.27 260.124 253.547 257.652 248.912 255.08C244.994 252.906 240.977 250.854 236.938 248.879C231.387 246.164 225.714 243.725 220.086 241.209C216.301 239.52 212.438 237.997 208.576 236.53C203.72 234.687 198.787 232.987 193.744 231.641C189.043 230.382 184.33 229.191 179.651 227.877C167.611 224.5 155.24 222.989 142.968 220.936C142.229 220.815 141.909 220.605 141.832 219.832C141.754 218.938 142.196 218.629 142.946 218.486C143.763 218.331 144.58 218.442 145.805 218.486L145.794 218.508Z" fill="#FFF6E8"/>
<path d="M145.275 302.049C156.95 302.501 168.483 303.66 179.982 305.326C202.539 308.593 224.467 314.398 245.965 321.869C249.839 323.215 253.767 324.451 257.453 326.316C257.817 326.504 258.237 326.603 258.535 326.857C258.987 327.243 259.451 327.74 259.274 328.391C259.075 329.108 258.48 329.152 257.806 329.163C255.787 329.197 253.977 328.369 252.134 327.784C248.139 326.537 244.199 325.069 240.226 323.734C235.735 322.222 231.221 320.721 226.685 319.386C223.618 318.481 220.483 317.708 217.416 316.826C214.8 316.075 212.118 315.612 209.514 314.85C196.525 310.999 183.172 309.012 169.785 307.268C159.765 305.966 149.689 305.138 139.591 304.741C138.973 304.719 138.366 304.675 137.748 304.62C137.108 304.554 136.457 304.333 136.49 303.594C136.523 302.887 137.031 302.346 137.771 302.269C138.918 302.148 140.088 302.093 141.247 302.06C142.615 302.026 143.984 302.06 145.286 302.06L145.275 302.049Z" fill="#FFF6E8"/>
<path d="M146.4 197.739C153.904 198.092 161.332 199.173 168.682 200.718C179.96 203.08 191.04 206.203 201.888 210.088C209.547 212.825 217.051 215.926 224.434 219.369C231.453 222.646 238.339 226.189 245.093 229.974C249.033 232.181 252.862 234.565 256.57 237.147C257.563 237.832 258.568 238.582 259.02 239.807C259.384 240.789 259.131 241.231 258.093 241.231C257.078 241.231 256.118 241.054 255.213 240.469C252.255 238.538 249.275 236.607 246.252 234.775C243.967 233.395 241.617 232.148 239.266 230.89C235.404 228.815 231.618 226.531 227.601 224.776C223.562 223.011 219.623 221.046 215.55 219.347C212.262 217.967 208.94 216.621 205.64 215.275C200.575 213.222 195.322 211.633 190.091 209.999C186.063 208.741 182.035 207.406 177.852 206.656C175.899 205.155 173.394 205.563 171.208 204.769C169.057 203.985 166.695 203.742 164.422 203.301C158.054 202.054 151.642 201.149 145.186 200.531C144.579 200.476 143.972 200.365 143.354 200.299C142.615 200.222 141.942 199.968 142.008 199.096C142.063 198.235 142.637 197.761 143.52 197.75C144.469 197.739 145.429 197.75 146.389 197.75L146.4 197.739Z" fill="#FFF6E8"/>
<path d="M420.44 163.362C403.533 163.892 386.869 166.221 370.404 170.039C366.21 171.01 362.05 172.136 357.912 173.35C354.137 174.464 350.319 175.457 346.622 176.804C341.733 178.58 336.8 180.214 332.044 182.388C330.024 183.315 327.85 183.988 325.808 184.893C319.849 187.564 313.813 190.102 308.262 193.589C307.909 193.81 307.566 193.987 307.136 194.02C306.706 194.053 306.22 194.516 305.867 193.986C305.536 193.479 305.249 192.85 305.613 192.254C306.032 191.57 306.408 190.841 307.158 190.411C312.036 187.52 317.156 185.125 322.277 182.73C326.338 180.832 330.521 179.232 334.681 177.554C336.436 176.848 338.279 176.285 340.023 175.568C342.748 174.442 345.573 173.692 348.343 172.776C363.109 167.854 378.25 164.521 393.656 162.347C405.166 160.714 416.743 160.184 428.353 159.974C429.092 159.963 429.832 159.886 430.472 160.471C431.465 161.365 431.365 162.435 430.196 163.108C429.688 163.406 429.147 163.373 428.607 163.373C425.881 163.373 423.144 163.373 420.418 163.373L420.44 163.362Z" fill="#FFF6E8"/>
<path d="M143.763 284.877C153.287 285.34 163.351 286.742 173.383 288.442C181.042 289.733 188.634 291.322 196.183 293.132C205.022 295.251 213.763 297.689 222.448 300.382C231.188 303.086 239.84 306.021 248.415 309.189C250.114 309.818 251.758 310.568 253.436 311.264C253.557 311.319 253.701 311.352 253.811 311.429C254.385 311.826 255.025 312.301 254.749 313.062C254.496 313.757 253.822 313.934 253.05 313.824C251.428 313.57 249.783 313.404 248.271 312.764C241.562 309.917 234.576 307.842 227.679 305.558C208.94 299.356 189.837 294.599 170.381 291.289C161.431 289.766 152.448 288.53 143.387 287.813C141.622 287.669 139.867 287.316 138.09 287.415C137.174 287.47 136.898 286.941 136.81 286.19C136.711 285.429 137.13 285.031 137.815 284.899C139.58 284.557 141.357 284.866 143.774 284.899L143.763 284.877Z" fill="#FFF6E8"/>
<path d="M148.762 332.474C145.33 332.364 141.577 332.353 137.825 332.474C137.351 332.485 136.854 332.419 136.391 332.507C135.387 332.706 134.614 332.088 134.548 331.382C134.482 330.598 135.309 330.19 136.225 330.035C141.589 329.186 146.974 329.208 152.371 329.373C173.394 329.991 194.097 332.993 214.557 337.782C225.107 340.254 235.558 343.08 245.888 346.324C247.995 346.986 250.147 347.527 252.266 348.189C253.293 348.509 254.33 348.895 255.158 349.602C256.096 350.396 255.831 351.378 254.65 351.732C253.635 352.029 252.531 351.919 251.615 351.676C249.253 351.036 246.925 350.275 244.552 349.657C241.815 348.951 239.134 347.979 236.408 347.229C233.263 346.368 230.073 345.596 226.972 344.636C224.004 343.72 220.947 343.245 218.011 342.296C216.808 341.91 215.616 341.424 214.38 341.214C210.397 340.508 206.523 339.294 202.528 338.632C198.489 337.97 194.472 337.153 190.444 336.469C181.891 335.023 173.294 333.975 164.642 333.291C159.467 332.882 154.291 332.518 148.773 332.463L148.762 332.474Z" fill="#FFF6E8"/>
<path d="M410.596 257.42C416.191 257.42 422.128 257.42 428.077 257.42C428.695 257.42 429.302 257.453 429.92 257.52C430.825 257.608 431.222 258.347 431.31 259.053C431.41 259.859 430.758 260.444 430.03 260.654C429.39 260.841 428.673 260.797 428 260.753C420.352 260.323 412.715 260.665 405.078 260.841C382.234 261.393 359.633 263.975 337.275 268.699C331.624 269.89 326.029 271.27 320.445 272.716C316.152 273.819 311.937 275.243 307.699 276.545C306.242 276.998 305.094 276.898 304.719 276.192C304.443 275.684 305.282 274.647 306.639 274.04C309.939 272.572 313.371 271.502 316.836 270.498C332.033 266.116 347.494 263.015 363.142 260.852C378.78 258.689 394.495 257.586 410.618 257.409L410.596 257.42Z" fill="#FFF6E8"/>
<path d="M302.225 356.963C301.784 355.064 301.949 354.513 303.527 353.928C306.728 352.736 309.829 351.346 313.04 350.176C326.515 345.276 340.353 341.788 354.402 339.052C375.381 334.957 396.581 333.39 417.935 333.81C420.319 333.854 422.702 334.041 425.097 334.163C425.439 334.185 425.781 334.185 426.113 334.273C426.697 334.428 427.017 334.88 427.106 335.454C427.205 336.083 426.598 336.116 426.245 336.37C425.627 336.8 424.932 336.646 424.258 336.657C415.661 336.8 407.065 337.043 398.468 337.363C380.689 338.025 363.131 340.31 345.772 344.183C340.762 345.298 335.774 346.479 330.852 347.991C327.453 349.028 323.999 349.933 320.6 351.003C317.167 352.085 313.78 353.277 310.392 354.469C307.787 355.384 305.26 356.764 302.247 356.974L302.225 356.963Z" fill="#FFF6E8"/>
<path d="M409.702 231.916C413.863 231.795 418.023 231.663 422.184 231.541C422.791 231.53 423.431 231.497 424.005 231.663C424.689 231.861 425.185 232.413 425.197 233.153C425.208 233.892 424.777 234.41 424.049 234.675C423.453 234.896 422.846 234.907 422.228 234.896C414.172 234.896 406.127 235.371 398.093 235.867C380.7 236.927 363.496 239.41 346.512 243.316C342.097 244.332 337.694 245.369 333.346 246.682C330.94 247.411 328.446 247.94 326.062 248.735C321.648 250.192 317.178 251.45 312.852 253.193C310.248 254.242 307.622 255.401 304.841 256.041C304.443 256.129 304.068 256.25 303.671 256.239C303.031 256.228 302.777 255.632 302.49 255.224C302.225 254.838 302.711 254.407 302.942 254.198C303.836 253.348 304.995 252.84 306.121 252.377C313.713 249.265 321.482 246.671 329.362 244.376C339.415 241.451 349.591 239.079 359.876 237.169C369.4 235.404 378.99 234.08 388.646 233.241C395.654 232.634 402.661 232.159 409.691 231.894L409.702 231.916Z" fill="#FFF6E8"/>
<path d="M426.554 283.122C426.565 283.674 426.256 283.972 425.869 284.104C425.296 284.292 424.689 284.458 424.093 284.502C416.887 285.087 409.669 285.639 402.452 286.235C391.769 287.128 381.131 288.409 370.536 290.042C360.019 291.664 349.58 293.728 339.206 296.112C334.361 297.226 329.55 298.517 324.771 299.974C320.136 301.387 315.49 302.733 310.877 304.223C308.857 304.874 306.97 305.944 304.851 306.298C304.388 306.375 303.781 306.982 303.417 306.242C303.075 305.547 303.042 304.841 303.836 304.289C304.212 304.024 304.487 303.693 304.951 303.483C307.986 302.049 311.109 300.835 314.287 299.808C326.879 295.703 339.714 292.492 352.703 289.898C364.489 287.548 376.341 285.66 388.282 284.314C400.024 282.99 411.777 281.908 423.607 281.732C424.336 281.732 425.119 281.522 425.77 282.074C426.146 282.383 426.499 282.692 426.554 283.145V283.122Z" fill="#FFF6E8"/>
<path d="M409.139 317.775C403.798 317.786 398.523 318.536 393.237 319.132C384.287 320.125 375.37 321.405 366.509 323.039C357.724 324.661 349.039 326.714 340.387 328.888C336.215 329.936 332.121 331.338 327.994 332.585C324.407 333.666 320.831 334.759 317.377 336.182C315.115 337.109 312.82 337.981 310.524 338.82C308.869 339.427 307.269 340.31 305.481 340.586C305.216 340.63 304.951 340.641 304.686 340.685C303.98 340.806 303.781 340.177 303.439 339.802C302.953 339.261 303.605 338.787 303.814 338.632C304.465 338.136 305.172 337.683 305.966 337.363C309.74 335.84 313.448 334.13 317.256 332.695C323.701 330.256 330.322 328.369 336.955 326.515C346.843 323.734 356.841 321.45 366.95 319.596C376.076 317.918 385.269 316.66 394.506 315.7C399.803 315.148 405.1 314.607 410.42 314.442C411.302 314.42 412.196 314.409 413.079 314.464C414.613 314.563 415.463 315.214 415.441 316.186C415.419 317.168 414.492 317.786 413.024 317.797C411.722 317.797 410.431 317.797 409.128 317.797L409.139 317.775Z" fill="#FFF6E8"/>
<path d="M408.367 192.243C408.974 192.243 410 192.21 411.026 192.243C411.931 192.287 412.605 192.728 412.715 193.7C412.836 194.726 412.108 195.134 411.302 195.41C410.927 195.532 410.508 195.565 410.1 195.587C398.501 196.161 386.958 197.198 375.48 198.942C368.947 199.935 362.447 201.116 356.002 202.583C351.908 203.51 347.814 204.415 343.753 205.464C340.596 206.28 337.473 207.23 334.328 208.079C331.58 208.83 328.865 209.701 326.117 210.452C322.586 211.423 319.176 212.825 315.722 214.072C313.548 214.855 311.418 215.727 309.233 216.466C308.526 216.709 307.864 217.029 307.202 217.349C306.849 217.526 306.551 217.802 306.11 217.747C305.503 217.669 304.664 218.111 304.443 217.117C304.256 216.246 304.256 215.473 305.271 214.899C307.202 213.807 309.244 212.869 311.285 212.162C314.144 211.169 316.947 210.01 319.827 209.061C338.124 203.047 356.742 198.379 375.789 195.509C384.706 194.163 393.656 193.225 402.651 192.707C404.416 192.607 406.182 192.408 408.367 192.221V192.243Z" fill="#FFF6E8"/>
<path d="M244.155 370.382C242.61 370.117 241.087 369.819 239.542 369.334C235.834 368.153 232.159 366.884 228.451 365.692C225.516 364.754 222.646 363.595 219.689 362.756C214.193 361.189 208.653 359.733 203.168 358.188C191.205 354.822 178.989 353.255 166.673 352.14C159.731 351.511 152.768 351.301 145.804 351.456C143.619 351.5 141.445 351.676 139.26 351.776C138.719 351.798 138.168 351.787 137.627 351.776C137.02 351.776 136.556 351.522 136.457 350.893C136.369 350.242 136.788 349.955 137.351 349.723C137.792 349.546 138.223 349.403 138.697 349.326C141.324 348.884 143.972 348.631 146.643 348.542C153.816 348.289 160.99 348.421 168.141 348.984C179.651 349.9 191.062 351.577 202.296 354.259C214.811 357.25 227.06 361.09 239.1 365.637C240.988 366.343 242.875 367.038 244.729 367.844C245.303 368.098 246.119 368.363 245.921 369.257C245.733 370.117 244.994 370.349 244.177 370.393L244.155 370.382Z" fill="#FFF6E8"/>
<path d="M143.465 245.325C150.759 245.722 157.999 246.605 165.205 247.797C172.654 249.033 180.059 250.578 187.365 252.498C198.357 255.379 209.216 258.689 219.832 262.773C224.842 264.693 229.897 266.502 234.808 268.643C235.591 268.985 236.441 269.284 237.059 269.946C237.512 270.42 237.821 270.994 237.556 271.612C237.291 272.241 236.695 272.274 236.011 272.285C234.543 272.307 233.252 271.756 231.971 271.215C228.749 269.868 225.483 268.61 222.227 267.363C215.937 264.947 209.459 263.004 203.102 260.764C199.129 259.362 195.035 258.402 191.04 257.056C188.248 256.118 185.202 255.93 182.41 254.992C176.771 253.083 170.922 252.233 165.128 251.13C158.087 249.794 150.98 248.945 143.862 248.106C142.913 247.996 141.975 247.786 141.026 247.698C140.353 247.642 140.044 247.344 140.022 246.704C140 246.009 140.309 245.446 140.993 245.358C141.798 245.248 142.626 245.336 143.443 245.336L143.465 245.325Z" fill="#FFF6E8"/>
<path d="M378.173 353.475C378.571 353.376 378.968 353.663 379.398 353.85C379.851 354.049 380.259 354.325 380.237 354.888C380.215 355.429 379.829 355.682 379.365 355.892C378.162 356.422 376.849 356.488 375.58 356.698C366.222 358.221 356.83 359.567 347.582 361.664C342.98 362.701 338.378 363.761 333.843 365.107C330.797 366.012 327.718 366.829 324.727 367.866C322.487 368.649 320.247 369.455 318.017 370.283C315.358 371.265 312.864 372.622 310.16 373.461C309.531 373.66 308.77 374.432 308.251 373.329C307.82 372.446 308.163 371.386 309.056 370.857C309.928 370.338 310.844 369.874 311.771 369.466C316.748 367.281 321.792 365.25 327.012 363.672C337.131 360.626 347.372 358.088 357.79 356.278C364.114 355.175 370.426 354.082 376.838 353.619C377.246 353.585 377.655 353.53 378.173 353.475Z" fill="#FFF6E8"/>
<path d="M232.943 106.407C233.241 101.231 232.104 96.3864 229.588 91.8507C227.414 87.922 224.313 84.8983 220.373 82.8346C218.066 81.6206 215.451 81.2564 212.847 81.1571C211.82 81.113 210.794 81.1791 209.779 81.1129C209.028 81.0688 208.399 80.6716 208.432 79.866C208.465 79.0604 209.205 79.0273 209.834 79.0162C211.533 78.9831 213.222 78.9389 214.921 78.6962C218.839 78.1444 222.161 76.4889 225.107 73.8955C229.61 69.9337 231.629 64.8021 232.534 59.0414C232.887 56.8011 232.887 54.5608 232.91 52.3095C232.91 51.7687 232.91 51.217 232.965 50.6762C232.998 50.3231 233.229 50.0473 233.605 49.97C233.98 49.8928 234.278 50.0692 234.476 50.3672C234.852 50.8969 234.774 51.4819 234.763 52.1109C234.73 58.2358 235.315 64.2283 238.725 69.5806C242.102 74.8888 246.87 78.0669 253.083 79.0491C254.562 79.2809 256.052 79.5017 257.552 79.4244C257.828 79.4134 258.104 79.4134 258.369 79.4797C258.7 79.5569 259.042 79.7115 259.031 80.1309C259.02 80.5502 258.678 80.7487 258.347 80.7487C256.846 80.7376 255.356 80.9364 253.877 81.1571C248.989 81.8634 244.729 83.8278 241.352 87.4916C238.35 90.7472 236.728 94.6979 235.878 98.9798C235.238 102.191 234.874 105.447 235.006 108.735C235.05 109.839 234.797 110.898 234.587 111.969C234.532 112.245 234.344 112.488 234.068 112.543C233.682 112.62 233.439 112.355 233.219 112.09C232.887 111.682 232.943 111.196 232.943 110.722C232.943 109.287 232.943 107.852 232.943 106.418V106.407Z" fill="#EF6051"/>
<path d="M476.391 294.5C476.314 299.069 477.153 303.483 479.128 307.589C482.229 314.067 487.427 317.896 494.501 319.165C495.98 319.43 497.458 319.618 498.97 319.552C499.379 319.529 499.787 319.507 500.162 319.75C500.416 319.905 500.571 320.148 500.527 320.423C500.482 320.71 500.262 320.898 499.953 320.898C498.584 320.898 497.238 321.075 495.892 321.262C487.482 322.366 481.733 326.824 478.709 334.781C477.506 337.937 477.053 341.215 476.744 344.559C476.546 346.733 476.446 348.906 476.38 351.081C476.38 351.356 476.38 351.644 476.27 351.886C476.071 352.328 475.784 352.791 475.211 352.648C474.758 352.537 474.659 352.085 474.659 351.654C474.659 350.904 474.692 350.154 474.67 349.403C474.593 345.32 474.625 341.204 473.389 337.253C471.403 330.874 467.717 325.787 461.559 322.807C459.264 321.692 456.759 321.317 454.209 321.273C453.249 321.262 452.289 321.306 451.34 321.218C450.7 321.152 450.115 320.765 450.126 320.048C450.137 319.243 450.81 319.132 451.462 319.132C453.095 319.132 454.717 319.011 456.35 318.812C461.736 318.15 466.007 315.546 469.262 311.341C472.617 306.993 474.118 301.938 474.283 296.487C474.339 294.864 474.659 293.253 474.328 291.62C474.217 291.101 474.261 290.505 474.835 290.174C475.508 289.788 476.292 290.274 476.347 291.223C476.413 292.315 476.358 293.408 476.358 294.5H476.391Z" fill="#EF6051"/>
<path d="M212.251 451.782C212.196 451.903 212.129 452.025 212.074 452.157C211.279 452.312 211.07 452.996 210.75 453.592C208.609 457.609 207.605 461.935 207.329 466.448C207.307 466.868 207.538 467.453 206.766 467.563C206.236 467.066 206.104 466.415 206.126 465.72C206.159 464.429 205.971 463.16 205.739 461.891C204.658 456.042 201.811 451.252 197.363 447.357C197.043 447.081 196.712 446.871 196.271 446.882C196.139 446.849 196.017 446.783 195.907 446.717C195.807 446.209 195.454 445.922 195.035 445.657C192.861 444.3 190.51 443.494 187.972 443.207C187.233 443.13 186.537 443.064 186.162 442.28C187.486 441.265 189.054 441.684 190.455 441.254C196.216 439.499 200.277 435.846 203.113 430.704C204.603 428 205.441 425.064 205.728 421.985C205.784 421.433 205.839 420.805 206.578 420.827C207.163 420.849 207.318 421.389 207.318 421.875C207.318 423.398 207.825 424.833 208.234 426.256C209.723 431.454 212.648 435.681 217.106 438.815C219.622 440.58 222.426 441.497 225.405 442.004C225.769 442.07 226.101 442.192 226.101 442.6C226.101 443.009 225.78 443.163 225.405 443.185C223.893 443.307 222.503 443.913 221.112 444.443C218.552 445.414 216.124 446.639 214.656 449.144C214.469 449.332 214.281 449.52 214.105 449.707C213.167 450.127 212.438 450.711 212.251 451.804V451.782Z" fill="#EF6051"/>
<path d="M214.656 449.133C216.124 446.628 218.552 445.414 221.112 444.432C222.503 443.902 223.893 443.295 225.405 443.174C225.78 443.141 226.101 442.986 226.101 442.589C226.101 442.181 225.769 442.059 225.405 441.993C222.426 441.486 219.623 440.57 217.106 438.804C212.637 435.67 209.723 431.443 208.234 426.245C207.825 424.821 207.318 423.398 207.318 421.864C207.318 421.367 207.163 420.838 206.578 420.816C205.839 420.794 205.784 421.423 205.728 421.974C205.441 425.053 204.614 427.989 203.113 430.693C200.266 435.835 196.216 439.488 190.455 441.243C189.054 441.673 187.497 441.254 186.162 442.269C186.548 443.053 187.244 443.119 187.972 443.196C190.51 443.472 192.861 444.289 195.035 445.646C195.465 445.911 195.807 446.198 195.907 446.705C195.543 446.794 195.255 446.661 194.958 446.463C191.879 444.289 188.292 443.902 184.694 443.56C184.021 443.494 183.326 443.549 182.653 443.538C181.902 443.538 181.251 443.328 181.218 442.446C181.185 441.419 181.913 441.243 182.741 441.243C183.359 441.243 183.966 441.243 184.584 441.243C188.767 441.21 192.64 440.26 196.072 437.711C200.045 434.765 202.694 430.924 204.117 426.212C205.21 422.592 205.585 418.884 205.409 415.121C205.376 414.437 205.386 413.753 205.441 413.08C205.486 412.539 205.861 412.23 206.402 412.186C207.031 412.141 207.494 412.439 207.594 413.057C207.682 413.653 207.66 414.282 207.649 414.889C207.571 418.101 207.737 421.279 208.476 424.413C209.845 430.207 212.747 434.996 217.747 438.351C221.046 440.569 224.765 441.563 228.738 441.651C229.489 441.673 230.239 441.651 230.989 441.717C231.409 441.761 231.751 442.059 231.784 442.523C231.828 443.108 231.431 443.395 230.912 443.461C230.371 443.527 229.82 443.494 229.279 443.505C225.185 443.615 221.366 444.719 217.879 446.871C217.195 447.29 216.643 447.93 216.025 448.471C215.628 448.824 215.308 449.332 214.645 449.133H214.656ZM181.814 442.49C182.774 442.81 183.348 442.986 183.867 442.258C183.183 441.894 182.653 441.85 181.814 442.49ZM230.736 442.545C230.272 442.313 229.842 442.269 229.4 442.6C229.864 442.832 230.294 442.887 230.736 442.545ZM206.777 418.697C206.733 418.586 206.722 418.443 206.644 418.388C206.578 418.344 206.391 418.388 206.346 418.454C206.236 418.619 206.291 418.796 206.501 418.84C206.578 418.862 206.689 418.741 206.788 418.685L206.777 418.697Z" fill="#EF6051"/>
<path d="M196.271 446.871C196.701 446.871 197.043 447.07 197.364 447.346C201.811 451.23 204.658 456.031 205.739 461.88C205.971 463.16 206.17 464.418 206.126 465.709C206.104 466.415 206.236 467.055 206.766 467.552C207.527 467.442 207.296 466.857 207.329 466.437C207.605 461.924 208.609 457.598 210.75 453.581C211.07 452.985 211.279 452.301 212.074 452.146C211.842 453.492 211.037 454.618 210.496 455.832C208.962 459.242 208.41 462.84 208.068 466.515C207.847 468.887 207.571 471.249 207.649 473.633C207.671 474.284 207.527 474.957 206.733 474.979C205.938 475.001 205.773 474.361 205.762 473.699C205.762 472.948 205.795 472.198 205.762 471.448C205.64 468.192 205.585 464.925 204.967 461.714C204.095 457.134 202.12 453.095 198.743 449.773C197.838 448.891 196.657 448.206 196.26 446.871H196.271ZM206.733 472.165C206.667 472.264 206.567 472.364 206.556 472.463C206.556 472.573 206.645 472.684 206.7 472.794C206.766 472.695 206.865 472.595 206.876 472.496C206.876 472.386 206.788 472.275 206.733 472.176V472.165Z" fill="#EF6051"/>
<path d="M212.251 451.782C212.438 450.7 213.167 450.104 214.105 449.685C214.049 450.888 213.244 451.418 212.251 451.782Z" fill="#EF6051"/>
<path d="M181.814 442.479C182.653 441.85 183.183 441.883 183.867 442.247C183.359 442.975 182.785 442.799 181.814 442.479Z" fill="#EF6051"/>
<path d="M230.736 442.545C230.294 442.887 229.875 442.832 229.4 442.6C229.842 442.269 230.261 442.324 230.736 442.545Z" fill="#EF6051"/>
<path d="M206.778 418.697C206.679 418.752 206.579 418.874 206.491 418.852C206.28 418.808 206.225 418.631 206.336 418.465C206.38 418.399 206.568 418.354 206.634 418.399C206.712 418.443 206.723 418.598 206.767 418.708L206.778 418.697Z" fill="#EF6051"/>
<path d="M206.733 472.176C206.788 472.286 206.876 472.397 206.876 472.496C206.876 472.595 206.766 472.695 206.7 472.794C206.645 472.684 206.556 472.573 206.556 472.463C206.556 472.364 206.667 472.264 206.733 472.165V472.176Z" fill="#EF6051"/>
</svg>
