<svg width="550" height="550" viewBox="0 0 550 550" fill="none" xmlns="http://www.w3.org/2000/svg">
<g clip-path="url(#clip0_7261_20421)">
<path d="M275.006 550.011C426.887 550.011 550.011 426.887 550.011 275.006C550.011 123.124 426.887 0 275.006 0C123.124 0 0 123.124 0 275.006C0 426.887 123.124 550.011 275.006 550.011Z" fill="#FFF6E8"/>
<path d="M242.096 414.71C242.096 414.71 232.716 456.404 215.036 459.008C215.036 459.008 214.065 449.153 210.037 447.41L206.549 455.477C206.549 455.477 211.173 433.99 186.674 393.421C162.174 352.853 242.096 414.71 242.096 414.71Z" fill="#150050"/>
<path d="M322.747 419.323C322.747 419.323 334.71 427.578 326.621 456.614L332.426 450.301C332.426 450.301 337.48 453.822 336.211 459.008L353.891 447.354L351.363 405.694L322.747 419.323Z" fill="#150050"/>
<path d="M342.259 458.368C342.259 458.368 323.487 464.372 326.841 453.314C330.196 442.256 334.611 441.406 334.611 441.406L347.468 443.613L342.259 458.368Z" fill="#150050"/>
<path d="M48.79 226.425L73.2016 178.032C73.2016 178.032 119.498 202.444 172.934 170.881C172.934 170.881 299.605 158.675 390.078 226.425C390.078 226.425 437.212 271.452 425.845 340.471C414.478 409.49 341.254 421.696 341.254 421.696C341.254 421.696 263.396 441.892 196.065 399.392C196.065 399.392 153.985 374.98 129.993 322.802C129.993 322.802 116.948 316.909 105.162 283.249C105.162 283.249 93.7947 278.625 87.4822 265.15C87.4822 265.15 55.9193 239.061 48.7679 226.436L48.79 226.425Z" fill="#FA9BFA"/>
<path d="M427.136 319.69C427.136 319.69 441.274 324.138 441.671 312.572L436.87 307.01C436.87 307.01 437.025 300.355 440.369 299.77C440.369 299.77 455.444 310.1 460.454 300.631C465.464 291.162 463.643 295.246 461.348 284.949C461.348 284.949 471.931 293.579 462.683 307.871C462.683 307.871 458.898 314.669 449.606 316.015C449.606 316.015 451.923 324.392 432.721 337.8C413.507 351.209 427.147 319.701 427.147 319.701L427.136 319.69Z" fill="#FA9BFA"/>
<path d="M272.953 416.211C272.953 416.211 271.01 458.545 249.247 464.118C249.247 464.118 249.104 453.656 244.899 452.398L242.372 460.818C242.372 460.818 244.48 438.934 215.444 401.478C186.409 364.022 272.953 416.211 272.953 416.211Z" fill="#FA9BFA"/>
<path d="M390.927 393.488C390.927 393.488 390.089 439.353 354.74 466.292C354.74 466.292 351.75 454.925 348.196 454.086L340.438 461.238C340.438 461.238 351.805 434.31 340.438 416.211C329.071 398.112 390.938 393.488 390.938 393.488H390.927Z" fill="#FA9BFA"/>
<path d="M212.056 178.628C212.056 178.628 219.594 149.67 244.932 149.769C270.271 149.869 287.774 160.198 287.774 160.198C287.774 160.198 275.193 155.188 263.925 176.167C252.658 197.147 239.823 197.125 239.823 197.125L212.067 178.628H212.056Z" fill="#FA9BFA"/>
<path d="M87.5043 265.139C87.5043 265.139 125.093 281.44 152.352 275.006C155.751 274.2 164.591 271.397 168.641 269.797C175.395 267.126 186.177 260.151 195.646 242.008C195.646 242.008 199.431 234.857 199.431 242.008C199.431 242.008 194.377 262.998 166.136 275.16C137.895 287.322 91.1903 272.125 89.3362 268.638L87.4822 265.15L87.5043 265.139Z" fill="#150050"/>
<path d="M280.248 188.925L283.614 185.747C283.614 185.747 343.462 195.844 374.142 229.14L376.194 231.756V240.176C376.194 240.176 345.525 206.318 280.248 188.925Z" fill="#150050"/>
<path d="M383.21 328.29C396.01 313.276 386.613 284.247 362.221 263.451C337.829 242.655 307.679 237.967 294.879 252.981C282.079 267.995 291.476 297.024 315.868 317.82C340.26 338.616 370.41 343.303 383.21 328.29Z" fill="#FFF6E8"/>
<path d="M342.14 128.766C310.842 128.766 285.481 154.138 285.481 185.425C285.481 186.583 285.525 187.731 285.591 188.879C301.936 192.543 345.075 204.34 369.597 230.937L371.992 233.597C388.082 223.598 398.809 205.764 398.809 185.425C398.809 154.138 373.438 128.766 342.151 128.766H342.14Z" fill="#FACF18"/>
<path d="M366.759 229.592L365.953 228.765C344.985 207.035 311.159 195.591 292.862 190.702L291.857 190.437L291.769 189.399C291.637 187.921 291.582 186.431 291.582 184.996C291.582 156.976 314.371 134.186 342.391 134.186C370.412 134.186 393.201 156.976 393.201 184.996C393.201 203.095 383.456 219.969 367.763 229.03L366.759 229.604V229.592ZM294.639 188.108C313.201 193.163 346.143 204.563 367.266 225.873C381.47 217.21 390.243 201.649 390.243 184.985C390.243 158.598 368.778 137.133 342.391 137.133C316.004 137.133 294.539 158.598 294.539 184.985C294.539 186.011 294.572 187.06 294.639 188.108Z" fill="#150050"/>
<path d="M363.282 76.7C364.154 77.5829 364.077 79.0176 363.856 80.5074C362.742 88.2768 361.649 96.0571 360.545 103.837C360.369 105.107 360.225 106.387 359.916 107.623C359.387 109.775 358.007 110.823 356.274 110.547C354.608 110.294 353.482 108.748 353.747 106.596C354.531 100.162 355.425 93.7396 356.285 87.3056C356.628 84.7673 356.97 82.2401 357.345 79.7128C357.466 78.9072 357.61 78.0685 357.952 77.3401C358.857 75.3647 361.494 74.9122 363.293 76.7111L363.282 76.7Z" fill="#150050"/>
<path d="M383.346 115.999C382.043 117.335 380.697 117.61 379.483 116.937C378.28 116.275 377.673 114.885 378.148 113.384C378.501 112.258 379.053 111.187 379.616 110.15C383.18 103.562 386.767 96.9842 390.365 90.4178C390.751 89.7004 391.17 88.961 391.733 88.3871C392.804 87.2946 394.249 87.1401 395.507 87.8243C396.754 88.5085 397.384 89.8218 397.074 91.3117C396.942 91.9297 396.688 92.5367 396.379 93.0885C392.362 100.262 388.323 107.424 384.284 114.576C383.975 115.127 383.577 115.635 383.346 115.988V115.999Z" fill="#150050"/>
<path d="M398.266 126.296C398.642 126.031 399.226 125.589 399.833 125.203C405.307 121.749 410.781 118.306 416.266 114.873C416.95 114.443 417.701 114.057 418.484 113.836C419.842 113.45 421.011 113.836 421.861 115.006C422.689 116.143 422.612 117.61 421.707 118.824C421.089 119.652 420.217 120.171 419.367 120.689C414.158 123.879 408.949 127.057 403.729 130.225C402.957 130.699 402.14 131.14 401.29 131.45C399.69 132.034 398.2 131.527 397.472 130.269C396.787 129.099 397.03 127.631 398.266 126.307V126.296Z" fill="#150050"/>
<path d="M354.729 466.292C354.729 466.292 337.061 472.296 340.416 461.238C343.771 450.18 348.185 449.33 348.185 449.33L357.731 451.537L354.729 466.292Z" fill="#FA9BFA"/>
<path d="M257.425 459.682C257.425 459.682 241.876 471.126 242.328 459.582C242.781 448.039 246.842 445.478 246.842 445.478L256.631 445.191L257.436 459.682H257.425Z" fill="#FA9BFA"/>
<path d="M221.636 456.018C221.636 456.018 206.207 466.524 206.494 454.98C206.781 443.437 210.798 441.428 210.798 441.428L220.576 440.998L221.625 456.018H221.636Z" fill="#150050"/>
<path d="M348.77 292.652C348.858 292.42 349.024 292.299 349.156 292.155C351.419 289.772 353.681 287.388 355.943 285.004C356.782 284.121 356.782 284.077 355.877 283.216C353.99 281.406 352.092 279.596 350.194 277.776C350.083 277.665 349.973 277.555 349.852 277.456C349.653 277.29 349.443 277.29 349.256 277.478C349.145 277.588 349.035 277.698 348.936 277.809C346.739 280.104 344.543 282.4 342.347 284.695C342.137 284.916 341.906 285.137 341.707 285.368C341.475 285.655 341.277 285.622 341.056 285.368C341.001 285.302 340.923 285.247 340.868 285.181C338.451 282.885 336.035 280.59 333.618 278.294C333.518 278.206 333.419 278.107 333.331 278.018C333.11 277.809 332.878 277.776 332.613 277.963C332.382 278.14 332.172 278.327 331.973 278.537C330.174 280.413 328.376 282.289 326.577 284.165C326.455 284.298 326.323 284.419 326.213 284.563C326.069 284.739 326.08 284.938 326.235 285.103C326.323 285.203 326.422 285.291 326.522 285.379C328.96 287.719 331.399 290.048 333.838 292.387C334.037 292.575 334.247 292.773 334.434 292.961C334.346 293.193 334.18 293.314 334.048 293.458C331.786 295.841 329.523 298.225 327.261 300.609C326.422 301.492 326.422 301.536 327.327 302.397C329.214 304.207 331.112 306.017 333.011 307.838C333.121 307.948 333.231 308.058 333.353 308.158C333.551 308.323 333.761 308.323 333.949 308.136C334.059 308.025 334.169 307.915 334.269 307.804C336.465 305.509 338.661 303.213 340.857 300.918C341.067 300.697 341.299 300.477 341.497 300.245C341.729 299.958 341.928 299.991 342.148 300.245C342.204 300.311 342.281 300.366 342.336 300.432C344.731 302.717 347.137 304.99 349.532 307.275C350.238 307.948 350.348 307.948 351.043 307.264C351.054 307.253 351.077 307.231 351.088 307.22C352.975 305.244 354.873 303.28 356.76 301.304C357.213 300.83 357.202 300.752 356.716 300.278C354.067 297.74 351.419 295.212 348.759 292.663L348.77 292.652Z" fill="#5E85FE"/>
<path d="M348.77 292.652C351.441 295.201 354.078 297.74 356.727 300.267C357.213 300.73 357.224 300.819 356.771 301.293C354.884 303.269 352.997 305.244 351.099 307.209C351.088 307.22 351.066 307.242 351.055 307.253C350.359 307.937 350.249 307.937 349.543 307.264C347.148 304.979 344.742 302.706 342.347 300.421C342.281 300.355 342.215 300.3 342.16 300.234C341.939 299.991 341.74 299.958 341.508 300.234C341.31 300.477 341.089 300.686 340.868 300.907C338.672 303.202 336.476 305.498 334.28 307.793C334.17 307.904 334.07 308.025 333.96 308.125C333.772 308.312 333.574 308.323 333.364 308.147C333.242 308.047 333.132 307.937 333.022 307.827C331.124 306.017 329.236 304.207 327.338 302.386C326.444 301.525 326.444 301.47 327.272 300.598C329.534 298.214 331.797 295.83 334.059 293.447C334.192 293.303 334.368 293.182 334.445 292.95C334.258 292.762 334.048 292.575 333.849 292.376C331.411 290.037 328.972 287.708 326.533 285.368C326.433 285.28 326.334 285.192 326.246 285.092C326.091 284.916 326.08 284.728 326.224 284.552C326.334 284.408 326.455 284.287 326.588 284.154C328.387 282.278 330.186 280.402 331.984 278.526C332.183 278.316 332.393 278.118 332.624 277.952C332.889 277.765 333.11 277.787 333.342 278.007C333.441 278.096 333.54 278.195 333.629 278.283C336.046 280.579 338.463 282.874 340.879 285.17C340.946 285.236 341.012 285.291 341.067 285.357C341.288 285.6 341.486 285.633 341.718 285.357C341.917 285.114 342.137 284.905 342.358 284.684C344.554 282.389 346.751 280.093 348.947 277.798C349.057 277.687 349.156 277.566 349.267 277.467C349.454 277.279 349.653 277.268 349.863 277.444C349.984 277.544 350.094 277.654 350.205 277.765C352.103 279.574 353.99 281.384 355.888 283.205C356.782 284.066 356.782 284.121 355.955 284.993C353.692 287.377 351.43 289.761 349.167 292.144C349.035 292.288 348.858 292.409 348.781 292.641L348.77 292.652Z" fill="#5E85FE"/>
</g>
<defs>
<clipPath id="clip0_7261_20421">
<rect width="550" height="550" fill="white"/>
</clipPath>
</defs>
</svg>
