<svg width="550" height="550" viewBox="0 0 550 550" fill="none" xmlns="http://www.w3.org/2000/svg">
<path d="M275 549.236C426.878 549.236 550 426.285 550 274.618C550 122.951 426.878 0 275 0C123.122 0 0 122.951 0 274.618C0 426.285 123.122 549.236 275 549.236Z" fill="#FFF6E8"/>
<path d="M348.663 418.557C347.957 416.198 346.368 414.993 343.896 414.942C340.045 414.865 336.414 413.553 332.65 412.947C329.958 412.517 327.232 412.11 324.705 411.008C324.175 410.952 323.645 410.909 323.116 410.853C320.798 401.166 318.558 391.468 316.009 381.837C305.536 342.372 290.13 305.002 268.5 270.277C261.547 259.113 254.01 248.357 245.402 238.384C244.1 236.874 242.621 235.573 241.01 234.438C238.251 232.477 236.275 233.303 235.845 236.587C235.503 239.133 234.995 241.635 234.057 244.037C233.472 245.514 232.744 246.902 231.74 248.148C229.124 251.388 226.31 252.225 222.271 251.002C220.571 250.484 218.894 249.911 217.161 249.481C212.295 248.269 209.569 251.608 209.149 255.091C208.84 257.636 208.642 260.193 208.686 262.761C208.719 265.075 208.2 267.279 207.24 269.362C205.485 273.219 203.113 274.476 198.941 273.88C198.555 273.825 198.169 273.726 197.783 273.66C195.024 273.197 193.423 274.123 192.596 276.768C191.669 279.765 191.945 282.851 192.243 285.882C192.574 289.331 192.662 292.791 192.474 296.23C192.243 300.44 190.311 303.603 185.765 303.768C185.18 303.79 184.606 303.988 184.021 304.076C179.772 304.749 178.249 306.534 178.304 310.887C178.349 313.962 179.099 316.937 179.816 319.913C180.688 323.561 181.428 327.23 181.262 331.021C181.185 332.818 180.865 334.548 180.313 336.234C179.342 339.199 177.4 341.105 174.21 341.557C174.012 341.579 173.813 341.59 173.625 341.634C167.898 342.923 168.527 341.436 166.364 348.114C164.83 352.853 164.444 357.779 164.212 362.705C164.035 366.353 164.046 370.012 164.035 373.67C164.035 375.081 163.804 376.437 163.34 377.737C162.601 379.842 160.923 380.569 158.837 379.765C157.325 379.181 156.145 378.134 155.129 376.899C152.823 374.1 151.432 370.849 150.406 367.422C147.978 359.333 147.04 351.035 146.797 342.615C146.179 320.872 151.311 300.374 159.963 280.603C170.337 256.898 184.738 235.937 202.837 217.456C204.625 215.626 206.269 213.665 208.046 211.703C207.715 211.516 207.075 211.736 206.479 211.89C200.288 213.488 194.593 216.133 189.362 219.825C186.945 221.533 184.628 223.418 181.979 224.762C177.797 226.889 175.06 226.261 172.764 222.195C171.054 219.186 170.381 218.977 167.401 221.489C164.432 224.002 162.093 227.066 159.82 230.185C157.436 233.458 155.162 236.808 152.801 240.103C151.697 241.635 150.384 242.979 148.806 244.037C145.992 245.921 143.939 245.932 141.136 244.037C137.56 241.635 137.108 241.668 134.018 244.787C130.718 248.126 128.279 252.071 126.072 256.171C124.715 258.694 123.402 261.229 121.978 263.72C120.896 265.626 119.451 267.246 117.641 268.524C115.114 270.299 112.509 270.839 109.563 269.483C106.793 268.205 106.274 268.381 104.288 270.718C101.518 273.98 99.4319 277.672 97.4344 281.43C95.7239 284.658 94.0354 287.898 92.2366 291.072C90.7578 293.673 88.8155 295.899 86.476 297.784C83.088 300.506 79.391 301.685 75.1643 299.944C73.0123 299.051 71.3459 299.701 69.834 301.266C67.1854 303.999 65.3314 307.261 63.5547 310.567C62.0097 313.433 60.6302 316.386 59.1293 319.285C58.5886 320.331 57.9815 321.367 57.2642 322.293C56.4034 323.395 55.3 324.475 53.777 323.891C52.2541 323.296 51.6581 321.819 51.6912 320.266C51.7244 318.194 51.8679 316.122 52.1437 314.061C54.086 299.382 59.0962 285.75 66.3687 272.911C79.3026 250.087 97.015 231.551 118.137 216.21C137.836 201.895 159.367 191.304 183.072 185.375C191.316 183.314 199.67 181.882 208.167 181.331C210.783 181.166 213.42 181.11 216.091 180.802C215.627 179.457 214.59 179.876 213.784 179.788C210.308 179.435 206.986 178.51 203.863 176.967C198.478 174.322 196.392 170.31 197.308 164.403C197.529 162.949 198.003 161.538 198.4 160.105C198.687 159.059 199.074 158.045 199.383 156.998C199.603 156.259 200.1 155.378 199.383 154.794C198.71 154.254 197.838 154.727 197.142 155.036C195.697 155.675 194.284 156.37 192.894 157.141C190.554 158.43 188.281 159.819 185.941 161.119C184.473 161.946 182.917 162.607 181.262 162.96C177.709 163.709 175.402 161.979 175.314 158.353C175.248 155.995 175.49 153.625 175.579 151.256C175.601 150.573 175.634 149.879 175.546 149.195C175.446 148.435 174.927 148.248 174.254 148.534C172.875 149.118 171.683 150.011 170.546 150.958C167.721 153.317 165.304 156.05 162.943 158.849C161.475 160.579 160.029 162.343 158.517 164.029C156.729 166.024 154.765 167.831 152.415 169.153C148.994 171.071 146.212 170.917 143.52 168.084C141.092 165.528 140.132 165.131 136.909 168.117C133.4 171.357 130.619 175.204 128.059 179.215C126.094 182.29 124.307 185.485 122.088 188.406C120.279 190.775 118.292 192.969 115.831 194.677C113.006 196.66 110.059 197.222 107.025 195.117C105.06 193.762 103.283 194.379 101.529 195.536C97.6883 198.06 94.521 201.322 91.5413 204.771C89.0914 207.615 86.818 210.601 84.4674 213.533C83.9046 214.227 83.3639 214.921 82.768 215.593C82.4479 215.957 82.0617 216.387 81.532 216.255C80.7595 216.067 80.936 215.351 80.9139 214.789C80.8366 212.497 81.4216 210.293 81.9292 208.088C84.1805 198.324 87.8885 189.089 92.1924 180.075C98.5049 166.85 105.678 154.144 114.805 142.605C122.463 132.918 131.215 124.41 141.953 118.129C149.998 113.423 158.639 110.954 168.008 111.66C176.428 112.288 184.209 115.076 191.503 119.231C200.464 124.322 207.902 131.221 214.811 138.759C220.031 144.445 224.699 150.529 228.473 157.791C228.97 156.81 228.815 156.182 228.749 155.565C228.672 154.882 228.561 154.199 228.473 153.515C227.645 146.473 226.509 139.442 227.072 132.301C228.263 117.17 234.984 105.642 248.966 98.8649C255.345 95.7681 262.099 93.9939 269.107 93.1564C288.022 90.8972 306.076 94.6332 323.678 101.234C341.943 108.089 358.64 117.831 374.564 128.973C385.755 136.797 396.36 145.371 406.678 154.298C407.341 154.871 408.819 155.323 408.168 156.469C407.374 157.857 406.215 156.689 405.343 156.248C398.269 152.7 391.107 149.372 383.393 147.399C380.722 146.716 378.041 145.977 375.237 146.021C372.192 146.076 370.989 146.947 369.995 149.834C369.576 151.047 369.311 152.314 368.815 153.493C367.91 155.631 366.63 156.292 364.334 155.94C362.855 155.708 361.52 155.047 360.185 154.386C356.355 152.468 353.045 149.801 349.701 147.168C346.677 144.787 343.664 142.363 340.254 140.522C338.334 139.486 336.358 138.561 334.162 138.318C331.547 138.021 330.256 138.979 329.682 141.514C329.417 142.671 329.307 143.861 328.987 144.997C328.225 147.708 326.791 148.633 323.91 148.38C322.2 148.226 320.666 147.542 319.143 146.837C315.015 144.919 311.131 142.539 307.147 140.357C302.898 138.032 298.583 135.827 293.727 135.001C293.054 134.88 292.348 134.77 291.675 134.836C290.384 134.957 289.434 135.563 289.236 136.985C289.07 138.153 288.894 139.321 288.739 140.5C288.232 144.346 285.903 146.451 281.996 146.639C279.392 146.76 276.887 146.308 274.404 145.57C271.38 144.666 268.334 143.817 265.31 142.902C263.478 142.351 261.613 142.286 259.737 142.286C256.438 142.286 254.12 143.861 252.553 146.683C251.229 149.063 250.633 151.675 250.313 154.309C249.584 160.392 249.264 166.497 249.926 172.625C250.07 173.991 250.092 175.38 250.169 176.746C250.909 176.945 251.03 176.372 251.218 175.986C255.919 166.266 264.185 161.726 274.437 160.194C286.08 158.453 297.48 160.094 308.769 162.883C329.218 167.941 348.023 176.835 365.868 187.789C386.24 200.286 405.089 214.789 422.117 231.606C422.769 232.256 423.662 232.774 423.982 234.13C422.482 233.7 421.499 232.895 420.462 232.223C411.402 226.393 402.275 220.674 392.696 215.715C386.461 212.486 380.126 209.466 373.417 207.35C370.779 206.513 368.097 205.84 365.294 205.818C362.337 205.796 360.163 207.053 358.816 209.675C358.011 211.251 357.304 212.893 356.455 214.458C354.634 217.809 352.868 218.392 349.403 216.761C347.328 215.792 345.518 214.403 343.708 213.037C340 210.237 336.347 207.372 332.264 205.102C330.178 203.945 328.027 202.975 325.665 202.556C323.447 202.159 322.244 202.821 321.692 205.014C321.206 206.92 321.063 208.904 320.655 210.833C319.882 214.447 317.763 216.431 314.695 216.332C313.018 216.277 311.385 215.803 309.829 215.13C306.816 213.841 304.046 212.133 301.32 210.326C297.866 208.022 294.511 205.576 290.77 203.724C289.534 203.107 288.298 202.446 286.907 202.248C285.075 201.983 284.557 202.38 284.49 204.198C284.435 205.576 284.457 206.964 284.513 208.342C284.557 209.554 284.314 210.722 283.806 211.791C283.012 213.455 281.676 214.315 279.756 214.205C277.836 214.084 276.114 213.334 274.404 212.563C270.894 210.976 267.451 209.224 263.876 207.791C258.59 205.686 255.477 207.945 255.411 213.687C255.378 216.343 256.261 218.745 257.442 221.037C259.196 224.465 261.15 227.804 263.578 230.812C298.969 274.762 322.873 324.596 339.217 378.277C343.267 391.579 346.986 404.98 349.789 418.612L348.719 418.59L348.663 418.557Z" fill="#5E85FE"/>
<path d="M348.663 418.557L349.734 418.579C351.003 422.425 351.522 426.436 352.294 430.392C354.06 439.396 354.998 448.499 355.439 457.657C355.495 458.814 355.638 459.993 355.263 461.294C354.523 460.765 354.645 460.015 354.623 459.42C354.237 446.46 351.754 433.798 349.006 421.179C348.818 420.309 348.531 419.46 348.652 418.557H348.663Z" fill="#5E85FE"/>
<path d="M324.65 413.796C325.974 417.642 326.294 421.697 327.011 425.665C328.236 432.453 328.81 439.33 329.329 446.207C329.395 447.022 329.549 447.904 329.02 448.94C328.192 446.681 328.435 444.51 328.214 442.438C327.287 433.5 325.72 424.684 323.921 415.89C323.789 415.217 323.789 414.523 323.723 413.84L324.65 413.818V413.796Z" fill="#5E85FE"/>
<path d="M323.105 410.864C323.634 410.919 324.164 410.963 324.694 411.018C324.561 411.36 324.418 411.713 324.285 412.055L323.336 412.087C323.061 411.713 322.994 411.305 323.105 410.864Z" fill="#5E85FE"/>
<path d="M323.336 412.098L324.285 412.065C324.407 412.649 324.528 413.223 324.65 413.807C324.341 413.807 324.032 413.829 323.723 413.829C323.59 413.256 323.469 412.672 323.336 412.098Z" fill="#5E85FE"/>
<path d="M283.42 406.456C294.302 406.841 305.172 407.414 316.009 408.395C352.924 411.712 389.077 418.358 424.082 429.841C441.96 435.704 459.253 442.768 475.652 451.639C477.076 452.411 478.521 453.16 479.857 454.053C481.534 455.155 481.567 455.441 480.188 456.918C477.021 460.301 473.886 463.718 470.565 466.969C450.104 487.004 427.194 504.196 401.26 517.861C375.812 531.273 348.807 540.784 319.982 545.82C309.387 547.671 298.716 548.862 287.945 549.523C279.679 550.03 271.424 550.151 263.192 549.798C242.908 548.939 222.977 545.908 203.499 540.508C166.971 530.369 134.603 513.354 105.899 490.233C91.9058 478.959 79.2699 466.528 67.8147 453.05C67.4064 452.565 67.0202 452.08 66.6008 451.606C65.6297 450.482 65.762 449.645 67.1967 448.928C70.0991 447.474 72.9133 445.876 75.8378 444.454C95.2055 435.065 115.555 427.978 136.534 422.347C154.192 417.619 172.158 414.148 190.312 411.536C200.078 410.125 209.922 409.155 219.755 408.219C240.282 406.268 260.852 406.268 281.445 406.389C282.085 406.907 282.736 406.918 283.409 406.456H283.42Z" fill="#FFBF7B"/>
<path d="M283.42 406.456C282.747 406.929 282.085 406.918 281.456 406.389C282.14 405.695 282.791 405.728 283.42 406.456Z" fill="#FFBF7B"/>
<path d="M349.249 327.792C349.238 297.122 374.101 271.908 405.398 272.007C436.177 272.095 461.482 296.637 461.239 328.42C460.997 360.258 435.118 384.173 404.78 383.897C373.163 383.611 348.995 357.834 349.249 327.803V327.792Z" fill="#FACF18"/>
</svg>
