<svg width="550" height="550" viewBox="0 0 550 550" fill="none" xmlns="http://www.w3.org/2000/svg">
<g clip-path="url(#clip0_7261_20415)">
<path d="M275 550C426.878 550 550 426.878 550 275C550 123.122 426.878 0 275 0C123.122 0 0 123.122 0 275C0 426.878 123.122 550 275 550Z" fill="#FFF6E8"/>
<path d="M374.47 314.125C379.159 307.992 383.722 301.768 387.608 295.094C394.853 282.646 400.07 269.36 403.428 255.364C406.054 244.394 407.244 233.291 406.308 221.991C405.195 208.536 401.091 196.18 393.071 185.232C386.777 176.642 378.702 170.32 368.788 166.384C361.656 163.554 354.221 162.371 346.582 162.758C342.28 162.977 337.986 163.469 333.846 164.779C330.304 165.511 326.897 166.687 323.559 168.053C311.597 172.939 301.043 180.128 290.933 188.034C286.73 191.322 282.787 194.906 278.879 198.532C278.147 199.208 277.774 199.186 277.422 198.194C275.246 192.019 271.951 186.429 268.375 180.979C263.277 173.2 256.976 166.609 249.224 161.414C241.951 156.534 233.939 153.542 225.497 151.409C209.642 147.41 190.555 146.931 176.206 154.746C173.467 156.239 202.221 181.803 194.54 188.999C189.034 194.152 212.022 194.695 208.121 201.158C199.419 215.584 172.566 220.66 171.08 237.417C170.207 247.274 156.612 262.411 158.168 272.149C161.378 292.264 135.222 303.508 146.016 320.785C149.163 325.826 152.514 330.727 156.372 335.261C156.626 335.641 156.851 336.042 157.14 336.394C165.624 346.765 175.347 355.798 186.563 363.128C199.229 371.4 213.014 376.976 227.997 379.476C239.128 381.328 250.273 381.525 261.482 380.131C277.507 378.138 292.721 373.407 307.295 366.606C326.735 357.537 344.181 345.547 359.544 330.544C360.037 330.065 360.438 329.283 361.346 329.354L373.956 315.265C373.717 314.688 374.238 314.456 374.491 314.125H374.47ZM356.735 240.36C356.552 240.578 356.467 240.768 356.481 240.952C356.467 240.776 356.552 240.585 356.735 240.36ZM342.358 275.549C342.175 275.345 342.104 275.162 342.147 275C342.104 275.162 342.175 275.345 342.358 275.549ZM344.526 279.245C344.569 279.33 344.583 279.464 344.646 279.485C344.583 279.464 344.562 279.33 344.526 279.245ZM351.398 259.651C351.595 259.947 351.581 260.292 351.468 260.63C351.384 260.722 351.292 260.771 351.208 260.764C351.292 260.764 351.384 260.722 351.468 260.63C351.581 260.292 351.595 259.947 351.398 259.651ZM345.118 280.963C345.16 281.006 345.195 281.055 345.216 281.104C345.195 281.055 345.167 281.013 345.118 280.963C344.949 280.83 344.766 280.759 344.59 280.928C344.766 280.759 344.949 280.83 345.118 280.963ZM349.075 272.451C349.039 272.367 349.018 272.233 348.955 272.212C349.018 272.233 349.039 272.367 349.075 272.451ZM354.193 263.538C354.151 263.453 354.13 263.327 354.073 263.298C354.137 263.32 354.158 263.453 354.193 263.538ZM360.516 243.395C360.34 243.303 360.164 243.233 359.988 243.268C360.164 243.226 360.34 243.303 360.516 243.395ZM348.715 222.723C348.589 222.646 348.469 222.554 348.342 222.491C348.476 222.554 348.596 222.646 348.715 222.723ZM260.109 321.609C260.025 321.651 259.891 321.665 259.87 321.729C259.891 321.665 260.025 321.644 260.109 321.609ZM260.109 321.926C260.06 321.947 260.011 321.961 259.968 321.975C260.011 321.954 260.067 321.94 260.109 321.926ZM349.539 218.14C349.743 218.295 349.926 218.344 350.095 218.323C349.926 218.337 349.736 218.295 349.539 218.14ZM351.06 226.046C351.609 225.582 352.158 225.124 352.708 224.659C352.158 225.124 351.609 225.582 351.06 226.046ZM342.844 182.585C342.731 182.669 342.625 182.711 342.506 182.718C342.632 182.718 342.738 182.676 342.844 182.585C342.956 182.5 343.076 182.373 343.231 182.212C343.076 182.373 342.956 182.5 342.844 182.585ZM342.294 182.683C342.14 182.641 341.942 182.557 341.682 182.423C341.942 182.557 342.14 182.641 342.294 182.683ZM342.048 199.715C341.985 199.616 341.964 199.517 341.971 199.426C341.964 199.517 341.992 199.616 342.048 199.707C342.287 199.891 342.513 199.827 342.703 199.644C342.506 199.827 342.28 199.891 342.048 199.707V199.715ZM192.456 338.922C192.54 338.88 192.667 338.859 192.695 338.802C192.674 338.866 192.54 338.887 192.456 338.922ZM178.114 339.739C178.205 339.725 178.297 339.71 178.389 339.696C178.374 339.696 178.374 339.696 178.36 339.696C178.276 339.71 178.191 339.717 178.114 339.732H178.128C178.036 339.767 177.98 339.781 177.98 339.781L178.121 339.732L178.114 339.739ZM165.61 332.937C165.575 332.853 165.532 332.768 165.497 332.684C165.532 332.768 165.575 332.853 165.61 332.937ZM211.416 340.485C211.508 340.612 211.613 340.703 211.733 340.767C211.62 340.703 211.515 340.612 211.416 340.485ZM250.231 331.128C250.266 331.212 250.287 331.346 250.351 331.367C250.287 331.346 250.266 331.212 250.231 331.128ZM259.454 328.072C259.539 328.03 259.666 328.009 259.694 327.953C259.673 328.016 259.539 328.037 259.454 328.072ZM261.186 326.199C261.207 326.242 261.222 326.298 261.236 326.34C261.215 326.291 261.2 326.242 261.186 326.199ZM262.073 326.58C262.109 326.664 262.13 326.798 262.193 326.819C262.13 326.798 262.109 326.664 262.073 326.58ZM268.72 324.798C268.635 324.841 268.502 324.855 268.48 324.918C268.502 324.855 268.635 324.834 268.72 324.798ZM268.586 325.164C268.628 325.143 268.685 325.129 268.727 325.115C268.678 325.129 268.628 325.15 268.586 325.164ZM276.781 323.601C276.866 323.637 276.964 323.637 277.07 323.594C277.232 323.447 277.176 323.32 277.091 323.2C277.176 323.313 277.232 323.447 277.07 323.594C276.957 323.637 276.866 323.637 276.774 323.601H276.781Z" fill="#ED5F50"/>
<path d="M152.937 317.033C161.083 311.541 170.235 309.746 179.093 307C181.691 306.197 184.338 305.577 186.915 304.634C188.182 304.169 190.217 304.374 190.358 302.465C190.484 300.853 188.64 300.487 187.464 299.875C183.169 297.629 179.093 295.002 174.953 292.496C172.869 291.243 170.897 289.813 169.468 287.736C166.405 283.287 167.715 278.886 172.833 276.366C175.959 274.824 179.247 274.331 182.5 273.705C192.139 271.853 201.806 270.74 211.465 269.353C212.507 269.206 213.676 269.466 214.782 268.051C211.789 264.953 207.931 263.27 204.277 261.32C198.004 257.976 191.315 255.434 185.338 251.534C183.07 250.048 180.74 248.527 179.839 245.549C178.635 241.557 180.289 236.917 184.084 234.009C196.546 224.455 210.233 217.788 223.948 211.226C231.214 207.748 231.376 207.304 226.673 201.376C213.282 184.493 198.173 169.679 180.212 158.351C178.663 157.372 176.755 156.527 176.192 154.753C175.403 156.006 176.157 157.689 176.579 159.555C179.128 170.939 181.648 182.338 184.394 193.653C185.295 197.377 184.296 198.891 180.712 200.25C167.476 205.263 153.936 210.085 141.566 217.337C139.524 218.534 139.405 219.661 139.489 220.984C139.904 223.596 141.636 225.054 143.368 226.56C149.332 231.721 155.654 236.424 160.9 242.5C162.977 244.908 163.498 246.556 159.97 248.422C154.169 251.491 148.909 255.73 143.242 259.109C139.137 261.552 135.138 264.326 131.568 267.699C128.076 271.001 128.717 274.606 132.814 275.986C134.265 276.471 138.482 277.288 140.038 277.239C143.882 277.119 144.798 277.239 149.283 278.161C142.615 282.85 143.805 282.822 137.694 286.455C132.779 289.377 129.731 294.418 132.498 299.1C137.433 307.443 140.996 316.047 147.529 323.214C148.248 321.194 150.472 318.708 152.937 317.047V317.033Z" fill="#F7B97B"/>
<path d="M373.998 271.508C374.048 268.882 374.28 266.608 374.083 264.369C373.766 260.75 373.358 257.131 372.266 253.625C370.506 247.957 367.936 242.705 364.155 238.121C361.262 234.615 357.918 231.616 354.235 228.877C349.166 225.11 343.217 222.956 338.077 219.372C334.859 217.126 331.79 214.774 329.839 211.261C327.896 207.748 327.727 204.016 329.1 200.39C332.987 190.118 343.357 185.668 353.538 187.858C359.164 189.069 363.951 191.773 368 195.708C372.118 199.715 375.195 204.537 377.702 209.712C380.581 215.647 382.299 221.928 383.285 228.398C384.425 235.903 384.271 243.43 382.898 250.9C381.891 256.399 380.356 261.728 377.779 266.72C376.885 268.445 375.737 269.931 374.005 271.494L373.998 271.508Z" fill="#FFF5E7"/>
<path d="M275.028 205.044C275.077 205.713 275.331 206.29 276.007 206.445C276.76 206.614 277.274 206.129 277.542 205.488C278.316 203.615 279.077 201.742 279.767 199.841C281.717 194.462 284.237 189.351 286.765 184.225C289.581 178.515 292.728 172.995 296.073 167.595C298.466 163.737 300.98 159.942 303.55 156.189C307.042 151.092 310.45 145.938 314.315 141.115C318.68 135.673 323.144 130.322 327.924 125.225C332.881 119.944 338.147 115.016 343.688 110.369C344.428 109.749 345.167 109.123 345.984 108.623C346.913 108.053 346.638 107.581 346.061 106.975C340.562 101.223 334.641 95.9568 328.234 91.2255C327.249 90.4932 326.537 90.5073 325.763 91.3874C324.862 92.4083 323.876 93.3658 323.045 94.443C319.272 99.3503 315.427 104.201 311.97 109.334C308.021 115.199 304.261 121.169 300.614 127.238C295.298 136.095 291.362 145.53 287.807 155.176C283.949 165.638 280.893 176.34 278.38 187.182C277.077 192.787 276.127 198.475 275.028 204.129C274.972 204.418 275.028 204.735 275.028 205.037V205.044Z" fill="#190552"/>
<path d="M496.09 396.451C495.28 395.324 494.196 394.522 493.02 393.825C490.577 392.374 487.965 391.29 485.268 390.417C473.574 386.622 461.471 384.989 449.305 383.743C447.777 383.588 446.249 383.454 444.609 383.299C445.024 382.503 445.524 382.616 445.947 382.56C454.121 381.398 462.302 380.314 470.406 378.737C476.848 377.483 483.332 376.35 489.338 373.562C491.816 372.407 494.407 370.985 494.344 367.76C494.28 364.543 491.696 363.205 489.134 362.142C485.36 360.565 481.382 359.706 477.369 358.945C464.196 356.46 450.84 355.897 437.498 355.474C418.052 354.862 398.598 355.045 379.145 355.784C354.601 356.721 330.184 358.945 305.873 362.402C284.702 365.416 263.7 369.323 242.803 373.822C241.613 374.076 240.374 374.731 238.642 373.914C240.156 372.816 241.318 371.957 242.5 371.119C256.209 361.466 269.508 351.299 281.9 339.985C290.433 332.191 298.509 323.954 305.599 314.794C310.485 308.485 314.505 301.719 316.934 294.066C317.532 292.172 317.842 290.327 317.18 288.426C316.526 286.554 315.772 286.152 313.815 286.779C311.337 287.575 308.894 288.476 306.45 289.363C278.689 299.424 250.808 309.133 222.54 317.687C201.32 324.108 179.881 329.797 158.823 336.746C140.693 342.731 123.281 350.25 107.665 361.452C94.0417 371.224 82.7344 383.088 75.1798 398.232C69.3502 409.913 66.0833 422.332 64.9991 435.308C64.816 437.484 64.7034 439.666 64.7104 441.856C64.5274 442.764 63.8867 446.679 64.8512 452.213C65.1962 454.205 87.1841 478.566 110.749 495.576C138.313 515.473 155.816 523.52 156.098 523.034C159.034 518.043 162.012 512.811 165.793 507.918C167.785 505.602 169.912 503.398 172.157 501.286C178.853 494.985 186.274 489.613 193.688 484.219C218.612 466.083 246.133 453.543 275.894 445.728C304.592 438.195 333.895 435.055 363.43 433.562C387.045 432.365 410.687 432.393 434.315 431.886C440.525 431.753 446.749 431.527 452.896 430.38C454.571 430.063 456.233 429.69 457.718 428.831C460.436 427.261 460.873 424.719 458.894 422.29C458.099 421.311 457.092 420.579 456.05 419.889C453.297 418.073 450.34 416.657 447.263 415.51C444.306 414.412 441.314 413.419 438.195 412.328C439.342 411.673 440.469 411.729 441.539 411.631C450.544 410.807 459.57 410.138 468.561 409.187C475.975 408.406 483.403 407.519 490.563 405.245C492.415 404.653 494.182 403.907 495.597 402.534C497.484 400.689 497.646 398.591 496.097 396.437L496.09 396.451Z" fill="#FFB0FF"/>
<path d="M269.255 401.64C268.572 401.64 268.086 401.246 267.973 400.57C267.861 399.859 268.368 399.401 268.98 399.183C271.107 398.422 273.233 397.648 275.387 396.993C297.206 390.347 319.539 386.143 342.118 383.109C358.981 380.842 375.913 379.391 392.909 378.744C401.999 378.399 411.095 377.934 420.199 378.392C420.91 378.427 421.684 378.364 422.044 379.265C422.311 379.941 422.1 380.469 421.769 381.018C421.417 381.602 420.854 381.574 420.283 381.616C414.081 382.095 407.864 382.018 401.647 382.18C382.891 382.672 364.198 384.031 345.575 386.355C320.722 389.453 296.213 394.247 272.12 401.119C271.205 401.379 270.29 401.717 269.255 401.633V401.64Z" fill="#1B0753"/>
<path d="M416.89 405.146C416.714 406.991 415.524 407.174 414.123 407.286C402.513 408.174 390.868 408.131 379.244 408.73C357.052 409.877 335.028 412.37 313.181 416.418C301.191 418.643 289.292 421.255 277.598 424.747C276.746 425.001 275.676 425.43 275.268 424.247C274.845 423.029 275.915 422.572 276.816 422.205C282.583 419.854 288.602 418.333 294.636 416.883C318.398 411.159 342.506 407.66 366.866 405.836C380.11 404.843 393.374 404.259 406.66 404.273C410.096 404.273 413.531 404.59 416.897 405.146H416.89Z" fill="#1B0753"/>
<path d="M236.241 378.061C236.143 379.103 235.319 379.56 234.587 380.074C228.771 384.095 222.646 387.587 216.373 390.825C214.972 391.551 213.57 392.297 212.134 392.938C211.099 393.395 209.881 393.522 209.318 392.339C208.783 391.213 209.48 390.269 210.494 389.664C211.219 389.234 211.979 388.854 212.74 388.474C219.562 385.066 226.187 381.306 232.566 377.124C233.08 376.786 233.629 376.448 234.214 376.287C235.418 375.97 236.375 376.85 236.241 378.054V378.061Z" fill="#1B0753"/>
</g>
<defs>
<clipPath id="clip0_7261_20415">
<rect width="550" height="550" fill="white"/>
</clipPath>
</defs>
</svg>
