<svg width="550" height="550" viewBox="0 0 550 550" fill="none" xmlns="http://www.w3.org/2000/svg">
<path d="M275 550C426.878 550 550 426.878 550 275C550 123.122 426.878 0 275 0C123.122 0 0 123.122 0 275C0 426.878 123.122 550 275 550Z" fill="#FFF6E8"/>
<path d="M315.948 83.1211L130.263 273.799C126.162 278.01 126.251 284.749 130.462 288.85L244.869 400.261C249.08 404.362 255.819 404.273 259.92 400.061L445.605 209.384C449.706 205.172 449.617 198.434 445.405 194.332L330.999 82.9214C326.787 78.8203 320.049 78.9097 315.948 83.1211Z" fill="#150050"/>
<path d="M280.396 165.525C278.818 167.147 278.884 169.598 280.551 171.231L281.08 171.739L279.635 173.217L281.423 174.961L282.868 173.482L289.501 179.938L291.675 177.709L285.042 171.253L286.698 169.553L284.91 167.81L283.255 169.509L282.725 169.002C282.007 168.306 281.985 167.6 282.648 166.927C282.846 166.728 283.056 166.541 283.288 166.397L283.453 166.287L281.632 164.51L281.533 164.576C281.202 164.775 280.827 165.106 280.407 165.536L280.396 165.525Z" fill="#FFF6E8"/>
<path d="M289.379 162.711C286.896 165.26 286.952 169.046 289.501 171.518C292.039 173.99 295.813 173.935 298.296 171.385C300.779 168.836 300.746 165.04 298.208 162.579C295.67 160.118 291.874 160.162 289.379 162.711ZM296.001 164.841C297.513 166.309 297.667 168.196 296.365 169.52C295.063 170.845 293.165 170.723 291.675 169.278C290.174 167.821 290.019 165.89 291.289 164.576C292.558 163.274 294.5 163.373 296.001 164.83V164.841Z" fill="#FFF6E8"/>
<path d="M299.533 152.591C298.076 154.081 298.153 156.266 299.102 157.502L297.248 155.13L295.184 157.248L303.605 165.448L305.779 163.219L301.85 159.4C300.261 157.855 300.095 156.2 301.409 154.865C301.762 154.512 301.971 154.346 302.302 154.137L302.468 154.026L300.349 151.962L300.25 152.029C299.996 152.194 299.764 152.36 299.543 152.591H299.533Z" fill="#FFF6E8"/>
<path d="M322.166 129.538L323.623 130.465C323.447 130.42 323.248 130.399 323.06 130.388C322.906 130.388 322.752 130.388 322.597 130.41H322.575C322.52 130.41 322.465 130.42 322.41 130.432C322.056 130.487 321.747 130.575 321.549 130.641C320.743 130.917 319.948 131.403 319.308 132.065C316.969 134.46 317.145 137.892 319.728 140.408C322.332 142.946 325.786 143.045 328.126 140.651C329.097 139.657 329.66 138.333 329.682 137.097C329.682 136.821 329.649 136.545 329.583 136.258L330.543 137.77L332.684 135.563L324.263 127.364L322.156 129.527L322.166 129.538ZM326.636 138.411C325.356 139.724 323.414 139.624 321.913 138.168C320.423 136.711 320.291 134.835 321.593 133.499C322.895 132.164 324.793 132.219 326.283 133.676C327.773 135.133 327.927 137.086 326.636 138.411Z" fill="#FFF6E8"/>
<path d="M303.781 148.42L301.64 150.627L310.06 158.827L312.234 156.597L307.743 152.216C306.275 150.793 306.065 149.402 307.125 148.31C308.118 147.283 309.343 147.383 310.579 148.585L315.435 153.309L317.609 151.08L313.117 146.698C311.649 145.275 311.418 143.906 312.433 142.858C313.371 141.887 314.574 142.019 315.81 143.211L320.666 147.934L322.84 145.705L317.708 140.706C315.589 138.642 313.051 138.51 311.241 140.375C311.208 140.408 311.175 140.441 311.153 140.474L311.131 140.496C310.656 140.982 310.314 141.533 310.127 142.118C309.784 143.067 309.796 144.05 310.171 144.921C308.537 144.303 307.169 144.59 305.999 145.771C304.542 147.261 304.719 149.546 305.657 150.782L303.803 148.409L303.781 148.42Z" fill="#FFF6E8"/>
<path d="M257.883 190.598C259.675 190.598 261.128 189.146 261.128 187.354C261.128 185.562 259.675 184.11 257.883 184.11C256.091 184.11 254.639 185.562 254.639 187.354C254.639 189.146 256.091 190.598 257.883 190.598Z" fill="#FFF6E8"/>
<path d="M264.384 190.51C266.176 190.51 267.628 189.058 267.628 187.266C267.628 185.474 266.176 184.021 264.384 184.021C262.592 184.021 261.139 185.474 261.139 187.266C261.139 189.058 262.592 190.51 264.384 190.51Z" fill="#FFF6E8"/>
<path d="M264.295 184.01C266.087 184.01 267.54 182.558 267.54 180.766C267.54 178.974 266.087 177.521 264.295 177.521C262.503 177.521 261.051 178.974 261.051 180.766C261.051 182.558 262.503 184.01 264.295 184.01Z" fill="#FFF6E8"/>
<path d="M277.461 196.834C279.253 196.834 280.705 195.381 280.705 193.589C280.705 191.797 279.253 190.345 277.461 190.345C275.669 190.345 274.216 191.797 274.216 193.589C274.216 195.381 275.669 196.834 277.461 196.834Z" fill="#FFF6E8"/>
<path d="M270.961 196.922C272.753 196.922 274.205 195.469 274.205 193.677C274.205 191.886 272.753 190.433 270.961 190.433C269.169 190.433 267.716 191.886 267.716 193.677C267.716 195.469 269.169 196.922 270.961 196.922Z" fill="#FFF6E8"/>
<path d="M271.049 203.411C272.841 203.411 274.294 201.959 274.294 200.167C274.294 198.375 272.841 196.922 271.049 196.922C269.257 196.922 267.805 198.375 267.805 200.167C267.805 201.959 269.257 203.411 271.049 203.411Z" fill="#FFF6E8"/>
<path d="M270.795 183.933C272.587 183.933 274.04 182.48 274.04 180.688C274.04 178.896 272.587 177.444 270.795 177.444C269.004 177.444 267.551 178.896 267.551 180.688C267.551 182.48 269.004 183.933 270.795 183.933Z" fill="#FFF6E8"/>
<path d="M270.872 190.422C272.664 190.422 274.117 188.969 274.117 187.178C274.117 185.386 272.664 183.933 270.872 183.933C269.08 183.933 267.628 185.386 267.628 187.178C267.628 188.969 269.08 190.422 270.872 190.422Z" fill="#FFF6E8"/>
<path d="M277.373 190.334C279.165 190.334 280.617 188.881 280.617 187.089C280.617 185.297 279.165 183.845 277.373 183.845C275.581 183.845 274.128 185.297 274.128 187.089C274.128 188.881 275.581 190.334 277.373 190.334Z" fill="#FFF6E8"/>
<path d="M264.56 203.499C266.352 203.499 267.805 202.047 267.805 200.255C267.805 198.463 266.352 197.01 264.56 197.01C262.768 197.01 261.316 198.463 261.316 200.255C261.316 202.047 262.768 203.499 264.56 203.499Z" fill="#FFF6E8"/>
<path d="M264.472 197.01C266.264 197.01 267.716 195.558 267.716 193.766C267.716 191.974 266.264 190.521 264.472 190.521C262.68 190.521 261.227 191.974 261.227 193.766C261.227 195.558 262.68 197.01 264.472 197.01Z" fill="#FFF6E8"/>
<path d="M257.972 197.099C259.764 197.099 261.216 195.646 261.216 193.854C261.216 192.062 259.764 190.609 257.972 190.609C256.18 190.609 254.727 192.062 254.727 193.854C254.727 195.646 256.18 197.099 257.972 197.099Z" fill="#FFF6E8"/>
<path d="M382.577 243.438L386.814 262.485L382.797 265.333L371.475 255.753C370.779 255.157 370.437 255.014 369.654 255.102C368.396 255.257 366.553 255.853 365.019 256.504L364.809 256.018L371.276 251.438C372.104 250.854 373.229 250.876 374.09 251.692L381.705 259.064L378.582 246.274L382.577 243.449V243.438ZM405.31 242.19C402.584 238.306 397.055 241.893 395.864 240.138C395.499 239.608 395.61 238.692 396.603 237.765C397.1 237.313 398.556 236.187 400.819 235.768L399.285 232.181C398.137 232.49 396.736 233.009 395.268 234.046C391.516 236.706 390.279 240.568 392.288 243.449C393.756 245.578 396.504 245.402 398.446 245.093C400.432 244.762 401.26 244.872 401.713 245.523C402.397 246.516 401.536 247.774 400.455 248.569C398.568 249.948 397.067 250.191 395.897 250.401L397.486 254.109C398.667 253.888 400.554 253.083 402.264 251.902C406.259 249.077 407.473 245.258 405.321 242.19M418.63 239.972L422.14 237.489L408.676 224.975L405.432 227.27C404.703 227.789 404.383 228.649 404.582 229.488L408.511 247.134L412.495 244.309L411.733 241.55L416.611 238.096L418.619 239.961L418.63 239.972ZM397.387 239.983L395.477 233.053L400.532 237.754L397.387 239.983ZM374.686 241.815L381.937 258.722L378.14 261.415L370.89 244.508L374.686 241.815Z" fill="#FFF6E8"/>
<path d="M209.576 264.759L181.3 284.772L196.353 306.039L224.628 286.026L209.576 264.759Z" fill="#150050"/>
<path d="M206.976 266.833C199.328 272.252 191.669 277.659 184.021 283.078C182.399 284.226 182.189 285.627 183.812 287.934C187.343 292.922 191.007 298.087 194.472 302.986C195.719 304.752 197.441 305.381 199.074 304.234C202.881 301.541 206.689 298.848 210.485 296.155C214.314 293.441 218.144 290.737 221.973 288.022C223.507 286.94 223.618 285.153 222.47 283.531C218.707 278.2 214.954 272.903 211.169 267.55C210.132 266.083 208.399 265.796 206.965 266.822L206.976 266.833ZM186.57 291.211C185.445 289.622 185.059 289.081 183.933 287.492C182.697 285.737 182.995 284.27 184.385 283.287C186.681 281.665 188.171 280.606 190.455 278.984C190.709 278.807 191.172 278.697 191.481 278.741C193.446 279.006 195.344 279.006 197.308 279.293C197.408 279.304 197.551 279.348 197.606 279.425C197.992 279.966 198.257 280.33 198.544 280.738C199.063 281.467 198.897 282.493 198.169 283.001L186.559 291.211H186.57ZM196.944 285.285L201.116 291.178C201.336 291.487 201.259 291.917 200.961 292.138L191.823 298.605L187.255 292.149C187.034 291.84 187.1 291.399 187.42 291.178L195.984 285.109C196.293 284.888 196.723 284.965 196.955 285.274L196.944 285.285ZM205.155 299.455C202.815 301.132 201.237 302.236 198.886 303.902C197.573 304.829 196.017 304.553 195.057 303.218C194.075 301.839 193.093 300.448 192.11 299.058L203.886 290.726C204.459 290.317 205.133 290.56 205.673 291.013C205.839 291.156 206.082 291.531 206.126 291.586C206.512 292.127 206.876 292.745 206.678 293.683C206.291 295.526 205.707 297.159 205.398 299.036C205.375 299.179 205.254 299.367 205.133 299.455H205.155ZM204.128 278.796C203.819 279.017 203.753 279.447 203.974 279.756L208.543 286.212C208.697 286.422 208.642 286.72 208.432 286.863L208.377 286.907L207.185 287.746C206.335 288.342 206.137 289.523 206.722 290.384L207.34 291.244C207.616 291.631 208.167 292.26 208.642 292.337L214.447 292.867L215.319 292.26C215.197 292.337 214.977 292.392 214.833 292.37C212.957 292.039 211.224 292.05 209.359 291.796C208.41 291.664 207.958 291.189 207.594 290.637C207.417 290.362 207.196 290.075 207.119 289.887C206.865 289.225 206.92 288.585 207.494 288.177L208.642 287.36L219.336 279.789C220.395 281.279 221.157 282.36 222.216 283.85C223.242 285.307 222.999 286.83 221.565 287.845C219.38 289.39 217.195 290.935 215.01 292.491L214.248 292.999L205.994 298.837L207.417 293.187C207.505 292.712 207.086 291.995 206.81 291.597L206.203 290.726C205.585 289.876 204.404 289.677 203.565 290.284L202.374 291.123C202.065 291.344 201.645 291.267 201.425 290.958L197.363 285.219C197.099 284.855 197.187 284.347 197.551 284.082L198.412 283.475C199.946 282.427 199.35 281.125 199.074 280.716C198.699 280.176 198.07 279.315 197.805 278.939C197.717 278.818 197.595 278.752 197.452 278.741L191.669 278.156L199.372 272.704L199.648 272.495L198.29 278.09C198.257 278.288 198.235 278.399 198.346 278.564C198.919 279.37 199.913 280.772 200.111 281.047C200.31 281.323 200.707 281.014 200.52 280.749C200.321 280.474 199.317 279.116 198.908 278.564C198.853 278.487 198.831 278.377 198.853 278.289C199.35 276.126 199.88 274.161 200.365 271.987V271.965C202.583 270.387 204.802 268.831 207.009 267.264C208.421 266.271 209.944 266.546 210.96 267.981C212.074 269.548 212.637 270.354 213.773 271.954L204.095 278.807L204.128 278.796ZM214.116 272.417L219.027 279.359L209.591 286.035C209.381 286.179 209.094 286.135 208.94 285.925L204.559 279.734C204.415 279.524 204.459 279.249 204.669 279.094L214.116 272.406V272.417Z" fill="#150050"/>
<path d="M386.348 228.638L388.895 226.835C390.961 225.373 391.372 223.024 389.916 220.967C388.46 218.91 386.109 218.516 384.042 219.979L381.495 221.781L386.348 228.638ZM386.76 227.185L383.003 221.876L384.57 220.767C386.059 219.713 387.797 220.07 388.927 221.667C390.057 223.264 389.816 225.022 388.327 226.075L386.76 227.185ZM393.531 223.553L398.155 220.281L397.607 219.507L393.954 222.093L392.283 219.733L395.593 217.39L395.08 216.665L391.77 219.008L390.189 216.775L393.784 214.23L393.243 213.466L388.679 216.697L393.531 223.553ZM399.29 219.478L402.405 217.273C403.629 216.407 403.974 215.045 403.239 214.007C402.615 213.126 401.493 212.891 400.549 213.426C401.368 212.714 401.527 211.588 400.91 210.716C400.175 209.678 398.776 209.55 397.552 210.417L394.437 212.621L399.29 219.478ZM399.713 218.061L398.063 215.73L400.11 214.281C400.845 213.761 401.711 213.883 402.189 214.559C402.667 215.235 402.495 216.092 401.76 216.612L399.713 218.061ZM397.557 215.015L395.907 212.684L397.954 211.235C398.689 210.715 399.564 210.83 400.043 211.506C400.521 212.182 400.339 213.046 399.604 213.566L397.557 215.015ZM405.757 214.9L406.717 214.221L401.864 207.365L400.904 208.044L405.757 214.9ZM409.972 211.917L410.951 211.224L406.681 205.19L408.904 203.617L408.322 202.794L402.896 206.635L403.478 207.457L405.701 205.884L409.972 211.917Z" fill="#FFF6E8"/>
<path d="M186.548 129.858C186.217 128.688 186.647 127.606 186.714 126.503C186.934 122.188 186.945 117.862 186.195 113.591C185.312 108.515 183.602 103.857 179.452 100.425C175.38 97.0594 169.432 96.905 165.404 100.326C161.486 103.648 159.4 108.018 158.683 113.061C157.668 120.234 158.153 127.375 159.157 134.504C160.338 142.946 162.424 151.168 165.117 159.246C166.916 164.642 169.079 169.895 171.507 175.038C174.409 181.174 178.051 186.846 182.167 192.232C182.487 192.651 182.807 193.103 183.48 193.092C183.8 190.665 183.988 188.248 184.474 185.897C185.621 180.335 187.343 174.939 189.561 169.697C192.21 163.428 195.145 157.293 198.334 151.289C201.811 144.734 204.702 137.991 206.534 130.796C207.373 127.518 207.604 124.252 206.666 120.974C205.695 117.608 202.76 115.666 199.107 116.681C195.863 117.586 193.534 119.661 191.514 122.177C189.616 124.549 188.082 127.165 186.559 129.847L186.548 129.858Z" fill="#FA9BFA"/>
<path d="M186.548 129.858C188.071 127.176 189.605 124.549 191.504 122.188C193.512 119.682 195.852 117.597 199.096 116.692C202.749 115.676 205.695 117.619 206.656 120.985C207.605 124.262 207.373 127.529 206.523 130.807C204.68 138.002 201.8 144.745 198.324 151.3C195.134 157.303 192.21 163.439 189.55 169.708C187.332 174.95 185.611 180.346 184.463 185.908C183.977 188.259 183.801 190.675 183.469 193.103C182.796 193.103 182.487 192.662 182.156 192.242C178.04 186.857 174.398 181.185 171.496 175.049C169.068 169.906 166.905 164.664 165.106 159.257C162.413 151.179 160.327 142.946 159.147 134.515C158.153 127.386 157.668 120.234 158.672 113.072C159.378 108.04 161.475 103.659 165.393 100.337C169.421 96.9159 175.369 97.0702 179.442 100.436C183.602 103.868 185.301 108.525 186.184 113.602C186.935 117.873 186.924 122.199 186.703 126.514C186.648 127.617 186.217 128.71 186.537 129.869L186.548 129.858Z" fill="#FA9BFA"/>
<path d="M426.753 391.67C425.108 389.265 423.221 387.068 421.754 384.508C419.271 380.16 417.703 375.503 416.589 370.68C413.333 356.533 411.292 342.175 409.217 327.817C406.557 309.355 403.964 290.881 401.878 272.352C400.642 261.371 399.881 250.346 399.439 239.3C399.075 230.35 398.391 221.411 398.501 212.439C398.523 211.147 398.501 209.845 398.843 208.576C399.186 207.296 398.678 206.854 397.42 207.174C397.166 207.241 396.912 207.274 396.658 207.329C395.985 207.484 395.29 207.561 395.08 206.689C394.87 205.839 395.555 205.475 396.173 205.332C398.523 204.791 400.885 204.316 403.258 203.875C404.659 203.61 406.094 203.5 407.495 203.257C408.809 203.036 409.449 203.478 409.934 204.802C410.42 206.137 409.857 208.069 411.479 208.753C412.782 209.305 414.304 208.731 415.728 208.72C418.321 208.709 420.915 208.697 423.508 208.609C424.976 208.554 425.737 209.073 425.649 210.618C425.627 211.07 425.726 211.523 425.749 211.975C425.793 213.167 426.289 213.663 427.58 213.498C433.396 212.759 439.234 212.902 445.072 213.156C446.705 213.222 448.173 213.851 449.696 214.458C447.919 215.187 446.065 215.109 444.267 215.12C443.042 215.12 442.644 215.418 442.777 216.676C444.068 229.047 443.417 241.429 442.589 253.789C441.596 268.522 440.514 283.244 440.084 298.01C439.499 318.018 439.146 338.048 437.656 358.022C437.137 364.986 436.453 371.949 435.063 378.814C435.007 379.101 435.151 379.432 435.206 379.741L434.092 383.901C433.44 384.177 433.518 384.85 433.286 385.369C432.072 388.05 431.189 390.997 427.878 391.968L426.742 391.659L426.753 391.67Z" fill="#FFF6E8"/>
<path d="M427.889 391.979C431.2 391.019 432.083 388.061 433.297 385.38C433.529 384.872 433.451 384.188 434.103 383.912C433.396 386.561 432.635 389.198 431.995 391.858C431.763 392.818 431.454 393.061 430.527 392.697C429.677 392.366 428.772 392.2 427.889 391.968V391.979Z" fill="#FFF6E8"/>
<path d="M441.805 216.124C442.431 212.939 444.447 211.316 447.853 211.257C449.277 211.235 450.7 211.202 452.124 211.169C454.728 211.114 455.401 211.776 455.192 214.369C454.706 220.384 454.166 226.387 453.658 232.402C452.676 243.967 451.715 255.533 450.733 267.098C449.696 279.182 448.637 291.267 447.599 303.351C446.496 316.34 445.425 329.329 444.3 342.318C443.24 354.59 442.059 366.861 441.099 379.144C440.79 383.04 439.962 386.914 440.327 390.864L440.128 391.626C439.245 391.791 438.925 392.564 438.506 393.193C436.299 396.492 433.617 399.417 431.178 402.529C430.825 402.97 430.472 403.633 429.798 403.39C428.938 403.07 429.512 402.43 429.655 401.911C429.754 401.558 429.931 401.304 429.479 400.929C427.834 399.571 426.609 397.761 424.126 397.497C423.177 397.397 423.95 396.283 424.435 395.852C427.128 393.469 429.181 390.511 431.542 387.83C432.392 386.858 432.756 385.854 432.833 384.508C433.904 364.047 435.074 343.598 436.177 323.149C437.214 303.991 438.197 284.822 439.223 265.652C440.095 249.529 441.011 233.417 441.894 217.294C441.916 216.908 441.828 216.521 441.794 216.135L441.805 216.124Z" fill="#EF6051"/>
<path d="M395.863 201.414L397 201.723C398.247 203.533 399.329 205.343 399.693 207.638C402.54 225.626 405.531 243.581 408.4 261.559C415.827 308.008 423.751 354.38 430.77 400.896L430.163 403.17C429.412 403.876 428.463 403.975 427.481 404.086C417.085 405.266 406.69 406.469 396.305 407.672C348.322 413.223 300.338 418.796 252.355 424.325C233.307 426.521 214.248 428.629 195.2 430.759C178.095 432.679 160.99 434.544 143.895 436.542C140.916 436.895 137.616 435.063 137.759 431.951C137.803 430.991 137.505 430.019 137.384 429.059C129.626 368.694 121.879 308.339 114.132 247.974C113.536 243.316 115.114 241.297 119.926 240.602C183.282 231.486 246.627 222.282 310.005 213.31C338.621 209.26 367.126 204.438 395.885 201.414H395.863Z" fill="#EF6051"/>
<path d="M411.733 215.484C413.079 216.014 413.057 217.14 413.201 218.155C415.43 233.991 417.67 249.827 419.855 265.675C423.718 293.628 427.536 321.571 431.377 349.524C431.465 350.165 431.454 350.827 431.553 351.467C431.686 352.394 431.608 353.299 430.527 353.42C429.445 353.541 429.169 352.614 429.004 351.743C428.816 350.716 428.64 349.701 428.485 348.664C424.733 322.343 420.981 296.023 417.262 269.692C414.856 252.697 412.517 235.691 410.144 218.696C410.067 218.122 409.912 217.526 409.978 216.952C410.1 215.871 410.751 215.363 411.733 215.484Z" fill="#150050"/>
<path d="M433.186 326.074C432.866 327.001 432.535 327.552 431.73 327.508C430.902 327.453 430.394 326.934 430.284 326.162C430.074 324.617 429.931 323.061 429.82 321.505C427.47 288.696 425.13 255.886 422.791 223.066C422.791 223 422.78 222.933 422.78 222.867C422.736 221.598 422.283 219.91 424.159 219.788C425.991 219.667 425.859 221.366 425.947 222.647C428.319 256.173 430.681 289.7 433.054 323.227C433.131 324.264 433.142 325.301 433.175 326.063L433.186 326.074Z" fill="#150050"/>
<path d="M269.559 334.383C276.05 334.383 281.313 329.121 281.313 322.63C281.313 316.139 276.05 310.877 269.559 310.877C263.068 310.877 257.806 316.139 257.806 322.63C257.806 329.121 263.068 334.383 269.559 334.383Z" fill="#FFF6E8"/>
</svg>
