<svg width="550" height="550" viewBox="0 0 550 550" fill="none" xmlns="http://www.w3.org/2000/svg">
<g clip-path="url(#clip0_7261_20417)">
<path d="M274.56 550C426.196 550 549.12 426.878 549.12 275C549.12 123.122 426.196 0 274.56 0C122.925 0 0 123.122 0 275C0 426.878 122.925 550 274.56 550Z" fill="#FFF6E8"/>
<path d="M344.53 504.577C344.498 503.728 344.35 502.889 344.339 502.04C344.127 498.93 344.689 495.788 343.968 492.699C342.633 483.909 341.107 475.162 338.15 466.734C337.037 463.549 335.967 460.354 334.176 457.477C333.465 456.118 333.254 454.547 332.48 453.22C332.215 452.626 331.939 452.031 331.674 451.437C327.615 443.667 322.888 436.321 317.282 429.644C314.378 426.194 311.93 422.383 308.803 419.124C308.803 419.103 308.803 419.081 308.803 419.06C308.072 418.508 308.485 417.341 309.503 414.602C312.195 407.341 313.859 399.868 314.802 392.182C316.254 380.346 312.216 370.718 304.108 365.326C301.501 369.901 298.883 374.455 296.287 379.03C292.779 385.197 290.616 386.217 283.823 384.348C280.41 383.403 277.019 382.289 273.733 380.983C270.988 379.89 268.667 380.314 266.05 381.535C252.187 388.032 237.688 390.303 222.501 387.841C209.179 385.675 209.168 385.739 196.101 389.221C194.596 389.624 193.07 389.996 191.543 390.272C173.441 393.562 159.165 383.913 155.827 365.973C155.742 365.506 155.657 365.039 155.583 364.572C153.792 364.922 151.99 365.273 150.199 365.676C148.217 366.111 146.384 366.313 144.381 365.495C140.29 363.839 136.57 364.805 133.274 367.65C130.115 370.378 127.572 373.584 125.569 377.278C122.527 382.905 120.524 388.881 119.072 395.027C119.136 395.027 119.21 395.006 119.273 394.995L138.88 394.804C179.959 398.753 207.727 421.746 226.804 456.967C239.501 480.406 246.432 505.755 250.481 531.943C251.36 537.644 252.102 543.344 252.727 549.055C260.21 549.671 267.777 550 275.418 550C297.728 550 319.402 547.314 340.164 542.283C340.164 542.155 340.164 542.039 340.174 541.911C341.594 529.459 345.049 517.262 344.498 504.577H344.53Z" fill="#5E85FE"/>
<path d="M155.032 470.725C129.967 444.707 100.144 439.41 66.7376 451.235C66.2183 451.416 65.699 451.628 65.1797 451.819C97.8543 490.767 141.117 520.489 190.526 536.572C189.562 533.483 188.576 530.404 187.495 527.336C180.193 506.467 170.538 486.828 155.022 470.725H155.032Z" fill="#5E85FE"/>
<path d="M401.178 443.178C395.741 440.238 390.209 437.626 384.592 435.302C384.942 441.151 385.154 447 384.952 452.881C383.988 480.226 378.54 506.69 371.217 532.793C401.719 521.413 429.656 504.768 453.937 483.952C439.173 467.232 421.199 454.016 401.189 443.178H401.178Z" fill="#5E85FE"/>
<path d="M226.825 456.968C207.748 421.746 179.981 398.753 138.902 394.804L119.295 394.995C119.231 394.995 119.157 395.017 119.093 395.027C95.8936 397.968 74.2942 405.696 53.9242 417.065C50.5539 418.944 47.2155 420.886 43.9512 422.945C50.395 433.041 57.4958 442.679 65.169 451.819C65.6883 451.628 66.1971 451.426 66.727 451.235C100.133 439.41 129.957 444.707 155.022 470.725C170.527 486.828 180.182 506.456 187.495 527.336C188.565 530.404 189.562 533.483 190.526 536.572C210.377 543.026 231.202 547.293 252.749 549.055C252.123 543.355 251.382 537.644 250.502 531.943C246.453 505.745 239.522 480.406 226.825 456.968Z" fill="#150050"/>
<path d="M384.778 435.641C384.577 432.287 384.333 428.943 384.1 425.588C383.845 424.506 383.496 423.433 383.337 422.34C380.189 400.398 359.989 385.654 338.527 389.656C323.498 392.458 310.198 405.865 309 419.41C309 419.431 309 419.453 309 419.474C312.127 422.733 314.575 426.544 317.479 429.994C323.096 436.681 327.812 444.027 331.871 451.787C332.136 452.381 332.412 452.976 332.677 453.57C333.461 454.897 333.662 456.468 334.372 457.827C336.163 460.704 337.234 463.91 338.347 467.084C341.304 475.512 342.83 484.259 344.165 493.049C344.886 496.138 344.314 499.28 344.536 502.39C344.547 503.239 344.685 504.067 344.727 504.927C345.278 517.612 341.823 529.82 340.403 542.261C340.403 542.389 340.403 542.505 340.392 542.633C350.991 540.064 361.345 536.89 371.414 533.132C378.737 507.04 384.184 480.565 385.149 453.22C385.361 447.35 385.149 441.49 384.789 435.641H384.778Z" fill="#150050"/>
<path d="M215.994 242.05C217.424 248.196 217.52 254.396 216.333 260.584C215.962 262.516 215.994 263.504 218.506 263.1C223.858 262.251 228.553 263.939 232.919 267.75C236.47 261.317 240.91 255.67 246.464 251.02C255.08 243.802 265.435 240.649 275.726 240.84C268.731 228.261 264.386 214.546 262.679 199.907C261.747 191.946 261.81 183.73 263.771 175.758C264.015 174.781 264.566 173.571 263.718 172.966C262.436 172.053 261.694 173.528 261.005 174.282C252.261 183.846 241.907 191.224 230.164 196.585C212.284 204.737 193.663 208.442 173.929 205.799C167.135 204.886 160.564 203.506 154.28 200.767C153.411 200.385 152.457 200.194 151.492 200.024C149.956 202.71 148.525 205.459 147.03 208.177C145.133 211.616 143.522 215.215 141.933 219.004C142.717 218.272 143.522 217.539 144.37 216.849C169.488 196.15 208.501 209.907 216.004 242.05H215.994Z" fill="#FACF18"/>
<path d="M342.135 279.841C340.259 281.114 337.928 281.974 336.518 283.63C332.289 288.609 327.923 288.036 323.217 286.019C324.436 308.98 309.694 329.223 286.515 335.061C285.392 335.348 281.979 335.847 279.298 336.027C273.5 336.027 268.71 335.56 264.714 334.945C238.176 330.89 223.741 304.16 229.464 278.11C230.227 274.628 228.924 272.696 226.242 271.157C220.329 267.75 214.309 269.353 210.896 275.18C210.26 276.274 209.582 277.314 208.861 278.333C210.228 277.272 211.574 276.178 212.857 275H214.552C219.205 277.505 219.481 279.862 215.125 283.28C209.592 287.632 203.859 291.708 197.955 296.093C200.457 298.014 203.488 298.662 206.18 299.957C208.533 301.092 210.525 302.6 209.402 305.455C208.215 308.491 205.629 308.47 203.011 307.345C197.129 304.818 190.749 303.152 186.477 297.844V295.307C186.647 295.095 186.838 294.904 187.018 294.702C180.14 297.059 172.583 297.78 164.889 296.623C147.444 293.991 132.574 280.212 128.399 262.814C128.166 261.858 127.848 260.935 127.572 260.001C127.54 255.192 127.508 250.373 127.466 245.564C129.119 237.602 132.235 230.469 137.026 224.344C136.612 221.87 136.241 219.684 135.69 217.55C134.503 212.996 133.263 208.007 127.795 206.924C122.273 205.831 118.881 209.716 115.882 213.59C112.268 218.261 110.053 223.622 108.59 229.322C108.219 230.755 107.997 232.369 107.425 234.418C107.425 239.534 106.958 243.749 106.958 248.865C107.626 252.368 108.696 253.546 109.65 255.861C112.989 264.013 117.938 267.58 126.491 267.251C129.162 267.145 128.399 268.758 128.324 269.947C127.954 276.614 127.53 283.248 127.954 289.957C129.406 312.408 136.687 332.142 153.866 347.407C155.414 348.787 155.53 350.252 155.287 351.961C154.683 356.186 154.905 360.411 155.573 364.561C155.647 365.028 155.721 365.495 155.817 365.963C159.155 383.902 173.431 393.552 191.533 390.261C193.07 389.985 194.585 389.613 196.09 389.21C209.168 385.718 209.168 385.665 222.491 387.83C237.678 390.293 252.187 388.021 266.039 381.525C268.657 380.304 270.978 379.879 273.723 380.973C277.008 382.289 280.4 383.403 283.812 384.338C290.595 386.206 292.768 385.187 296.276 379.019C298.873 374.444 301.49 369.88 304.098 365.315C307.542 359.275 310.976 353.224 314.442 347.195C315.639 345.103 317.134 343.171 318.246 341.038C319.508 338.607 320.896 338.119 323.652 339.031C331.261 341.537 337.62 338.172 343.248 333.533C356.803 322.365 365.801 308.152 370.348 291.167C371.333 287.473 372.287 283.779 371.238 279.841C369.479 273.217 365.674 270.244 358.838 270.818C353.952 271.232 349.586 272.739 345.537 274.915C345.399 275.414 345.272 275.913 345.134 276.401C344.679 278.004 343.396 278.97 342.103 279.851L342.135 279.841ZM186.891 331.537C187.463 327.96 189.562 324.202 194.161 324.531C198.825 324.86 200.902 328.682 202.714 332.429C203.191 333.416 203.53 334.467 204.537 337.015C206.053 334.976 206.975 333.416 208.204 332.153C210.599 329.679 213.482 327.875 216.895 327.164C222.597 325.975 226.274 329.764 225.034 335.422C223.243 343.564 210.069 354.976 202.089 355.188C199.641 355.252 197.881 353.606 196.281 352.056C192.593 348.468 189.901 344.212 188.216 339.329C187.866 338.331 186.276 335.412 186.891 331.537ZM351.175 291.316C352.871 291.613 352.882 293.311 352.945 294.596C352.437 301.305 349.49 306.835 345.484 311.888C343.301 314.648 341.086 317.429 338.108 319.404C336.995 320.136 335.532 321.315 334.271 320.211C332.883 318.99 334.186 317.504 334.918 316.463C336.285 314.521 337.938 312.748 339.549 310.996C344.17 305.965 348.473 300.795 349.321 293.651C349.448 292.568 349.766 291.05 351.175 291.305V291.316Z" fill="#FACF18"/>
<path d="M332.215 284.766C331.558 285.403 330.71 285.881 329.936 285.361C329.163 284.84 329.47 283.906 329.682 283.046C333.72 266.253 335.734 249.226 335.638 231.955C335.532 213.283 333.328 194.791 329.851 176.479C326.153 157.053 317.112 148.497 297.516 144.835C296.711 144.687 295.778 144.814 295.29 143.901H270.575C263.951 145.929 256.999 145.971 250.247 147.319C217.742 153.848 188.099 166.628 161.889 187.137C157.353 190.693 154.237 195.226 151.482 200.024C152.446 200.194 153.4 200.385 154.269 200.767C160.564 203.506 167.125 204.886 173.918 205.799C193.642 208.442 212.263 204.737 230.153 196.585C241.896 191.235 252.24 183.846 260.994 174.282C261.683 173.528 262.425 172.063 263.707 172.966C264.555 173.571 264.004 174.781 263.76 175.758C261.8 183.73 261.736 191.935 262.669 199.907C264.375 214.546 268.72 228.261 275.715 240.84C297.018 241.222 317.981 255.988 322.38 279.151C322.814 281.454 323.09 283.747 323.206 286.019C327.912 288.025 332.279 288.609 336.507 283.63C337.917 281.974 340.248 281.114 342.124 279.841C343.417 278.959 344.71 277.993 345.155 276.391C345.293 275.892 345.42 275.393 345.558 274.904C341.478 277.091 337.715 279.947 334.059 283.015C333.413 283.566 332.808 284.172 332.194 284.766H332.215Z" fill="#FACF18"/>
<path d="M440.689 55.38C431.956 55.794 423.202 55.242 414.447 54.5945C406.552 54.0107 398.677 53.2994 390.781 52.7581C377.809 51.8664 364.837 50.4545 351.854 50.3802C338.744 50.3059 325.602 51.1127 312.809 54.828C300.261 58.4691 289.196 64.2969 280.601 74.339C274.316 81.6741 271.084 90.1876 270.056 99.8051C269.462 105.367 270.013 110.749 270.713 116.174C270.946 117.925 270.596 118.456 268.752 118.265C245.849 115.919 225.416 123.148 206.36 134.984C182.291 149.931 164.454 170.705 151.016 195.46C150.687 196.065 150.189 196.585 149.765 197.137V199.695C150.337 199.822 150.91 199.929 151.492 200.035C152.457 200.205 153.411 200.396 154.28 200.778C160.575 203.517 167.136 204.897 173.929 205.809C193.653 208.453 212.274 204.748 230.164 196.595C241.907 191.245 252.251 183.857 261.005 174.293C261.694 173.539 262.436 172.074 263.718 172.976C264.566 173.581 264.015 174.792 263.771 175.768C261.81 183.74 261.747 191.946 262.679 199.918C264.386 214.556 268.731 228.271 275.726 240.851C297.029 241.233 317.992 255.999 322.39 279.161C322.825 281.465 323.1 283.758 323.217 286.029C327.923 288.036 332.289 288.619 336.518 283.641C337.928 281.985 340.259 281.125 342.135 279.851C343.428 278.97 344.721 278.004 345.166 276.401C345.304 275.902 345.431 275.403 345.569 274.915C349.692 259.958 352.384 244.757 352.903 229.227C353.232 219.588 352.023 210.034 350.455 200.512C347.477 182.424 340.937 165.853 329.756 151.257C326.45 146.937 322.867 142.829 319.062 138.201C321.564 138.201 323.556 137.967 325.475 138.243C337.938 140.037 350.264 142.404 362.304 146.236C374.312 150.058 386.012 154.845 398.402 157.52C410.621 160.153 421.177 157.52 429.635 148.115C434.945 142.213 436.831 134.751 438.357 127.203C439.65 120.845 441.017 114.454 448.193 112.002C453.439 110.208 458.96 109.507 464.44 109.21C474.593 108.669 484.746 109.115 494.878 109.72C479.426 89.1792 461.175 70.8784 440.678 55.38H440.689Z" fill="#5E85FE"/>
<path d="M171.703 292.292C193.886 292.314 211.807 274.501 211.829 252.4C211.85 230.395 194.193 212.593 172.223 212.465C150.03 212.338 131.886 230.14 131.822 252.103C131.758 274.225 149.659 292.261 171.693 292.292H171.703ZM171.47 218.367C173.039 217.858 179.673 218.102 180.532 218.389C192.19 222.295 197.235 231.764 200.679 242.475C202.163 247.082 201.368 251.848 200.732 256.508C200.266 259.948 198.263 262.984 194.734 263.143C191.3 263.302 190.282 260.234 189.615 257.039C187.919 248.982 182.461 244.035 175.275 240.5C171.47 238.621 167.21 237.178 165.09 232.868C161.932 226.477 164.497 220.628 171.47 218.357V218.367Z" fill="#FACF18"/>
<path opacity="0.5" d="M171.703 292.292C193.886 292.314 211.807 274.501 211.829 252.4C211.85 230.395 194.193 212.593 172.223 212.465C150.03 212.338 131.886 230.14 131.822 252.103C131.758 274.225 149.659 292.261 171.693 292.292H171.703ZM171.47 218.367C173.039 217.858 179.673 218.102 180.532 218.389C192.19 222.295 197.235 231.764 200.679 242.475C202.163 247.082 201.368 251.848 200.732 256.508C200.266 259.948 198.263 262.984 194.734 263.143C191.3 263.302 190.282 260.234 189.615 257.039C187.919 248.982 182.461 244.035 175.275 240.5C171.47 238.621 167.21 237.178 165.09 232.868C161.932 226.477 164.497 220.628 171.47 218.357V218.367Z" fill="#FFF6E8"/>
<path d="M308.877 278.758C309.46 281.847 309.439 284.904 309.747 287.993C309.365 294.246 309.153 300.54 306.27 306.358C304.734 309.457 302.201 310.689 298.957 309.871C295.99 309.128 295.587 306.443 296.064 304.075C298.629 291.252 293.404 282.08 282.996 275.085C280.686 273.535 278.248 271.794 276.722 269.565C274.836 266.805 273.543 263.366 275.609 260.032C277.644 256.752 280.516 254.544 284.427 254.152C282.572 251.721 280.834 249.247 279.213 246.721C278.015 246.615 276.796 246.551 275.578 246.551C252.261 246.53 233.121 265.351 233.057 288.375C232.993 312.016 251.636 330.847 275.196 330.921C298.682 330.996 318.003 311.888 317.833 288.757C317.822 286.857 317.663 285 317.42 283.163C314.378 281.507 311.463 279.692 308.665 277.749C308.75 278.089 308.824 278.429 308.888 278.779L308.877 278.758Z" fill="#FACF18"/>
<path opacity="0.5" d="M308.877 278.758C309.46 281.847 309.439 284.904 309.747 287.993C309.365 294.246 309.153 300.54 306.27 306.358C304.734 309.457 302.201 310.689 298.957 309.871C295.99 309.128 295.587 306.443 296.064 304.075C298.629 291.252 293.404 282.08 282.996 275.085C280.686 273.535 278.248 271.794 276.722 269.565C274.836 266.805 273.543 263.366 275.609 260.032C277.644 256.752 280.516 254.544 284.427 254.152C282.572 251.721 280.834 249.247 279.213 246.721C278.015 246.615 276.796 246.551 275.578 246.551C252.261 246.53 233.121 265.351 233.057 288.375C232.993 312.016 251.636 330.847 275.196 330.921C298.682 330.996 318.003 311.888 317.833 288.757C317.822 286.857 317.663 285 317.42 283.163C314.378 281.507 311.463 279.692 308.665 277.749C308.75 278.089 308.824 278.429 308.888 278.779L308.877 278.758Z" fill="#FFF6E8"/>
<path d="M279.223 246.7C280.845 249.226 282.583 251.71 284.438 254.13C284.713 254.098 284.978 254.056 285.264 254.056C293.733 253.791 302.349 260.319 305.974 269.979C306.927 272.527 308.019 275.021 308.666 277.717C311.463 279.671 314.378 281.475 317.42 283.131C314.717 263.652 298.883 248.398 279.234 246.7H279.223Z" fill="#FACF18"/>
<path d="M279.223 246.7C280.845 249.226 282.583 251.71 284.438 254.13C284.713 254.098 284.978 254.056 285.264 254.056C293.733 253.791 302.349 260.319 305.974 269.979C306.927 272.527 308.019 275.021 308.666 277.717C311.463 279.671 314.378 281.475 317.42 283.131C314.717 263.652 298.883 248.398 279.234 246.7H279.223Z" fill="#5E85FE"/>
<path opacity="0.5" d="M279.223 246.7C280.845 249.226 282.583 251.71 284.438 254.13C284.713 254.098 284.978 254.056 285.264 254.056C293.733 253.791 302.349 260.319 305.974 269.979C306.927 272.527 308.019 275.021 308.666 277.717C311.463 279.671 314.378 281.475 317.42 283.131C314.717 263.652 298.883 248.398 279.234 246.7H279.223Z" fill="#FFF6E8"/>
<path d="M127.593 260.001C127.869 260.945 128.187 261.869 128.42 262.824C132.606 280.223 147.465 294.001 164.91 296.634C172.615 297.791 180.161 297.069 187.039 294.713C190.113 291.241 194.045 288.832 197.786 286.178C201.474 283.567 205.29 281.104 208.872 278.333C209.582 277.314 210.271 276.263 210.907 275.18C214.319 269.363 220.339 267.76 226.253 271.157C228.924 272.697 230.238 274.628 229.475 278.11C223.752 304.16 238.187 330.89 264.725 334.945C268.721 335.55 273.511 336.027 279.308 336.027C281.979 335.858 285.392 335.348 286.526 335.061C309.694 329.223 324.447 308.99 323.228 286.019C323.111 283.758 322.836 281.465 322.401 279.151C318.003 255.988 297.029 241.222 275.737 240.84C265.456 240.66 255.091 243.812 246.475 251.02C240.921 255.67 236.48 261.317 232.93 267.75C228.564 263.939 223.868 262.24 218.516 263.1C216.004 263.504 215.973 262.506 216.344 260.584C217.531 254.396 217.446 248.196 216.005 242.05C208.501 209.907 169.488 196.15 144.37 216.849C143.523 217.55 142.717 218.272 141.933 219.004C140.142 220.682 138.51 222.465 137.047 224.344C132.267 230.469 129.151 237.602 127.487 245.564C127.519 250.373 127.551 255.181 127.593 260.001ZM317.833 288.736C318.003 311.867 298.693 330.975 275.196 330.9C251.636 330.826 232.994 312.005 233.057 288.354C233.121 265.329 252.261 246.509 275.578 246.53C276.807 246.53 278.015 246.593 279.213 246.7C298.862 248.409 314.696 263.652 317.399 283.131C317.653 284.957 317.801 286.825 317.812 288.726L317.833 288.736ZM172.244 212.476C194.214 212.603 211.871 230.405 211.85 252.411C211.829 274.512 193.907 292.324 171.725 292.303C149.68 292.271 131.79 274.236 131.854 252.113C131.917 230.15 150.062 212.349 172.255 212.476H172.244Z" fill="#EF6051"/>
<path d="M175.286 240.511C182.482 244.056 187.94 248.993 189.625 257.05C190.293 260.234 191.3 263.302 194.744 263.153C198.273 262.994 200.266 259.958 200.743 256.519C201.379 251.859 202.174 247.103 200.69 242.485C197.245 231.775 192.201 222.306 180.542 218.399C179.684 218.113 173.039 217.868 171.481 218.378C164.507 220.65 161.953 226.488 165.101 232.889C167.22 237.199 171.481 238.643 175.286 240.522V240.511Z" fill="#FFF6E8"/>
<path d="M275.61 260.022C273.543 263.355 274.836 266.794 276.722 269.554C278.249 271.784 280.686 273.524 282.997 275.074C293.404 282.07 298.629 291.241 296.064 304.065C295.587 306.432 296.001 309.118 298.958 309.861C302.201 310.678 304.734 309.447 306.27 306.347C309.153 300.53 309.365 294.246 309.747 287.983C309.439 284.893 309.461 281.836 308.878 278.747C308.814 278.397 308.729 278.057 308.655 277.718C308.009 275.021 306.917 272.527 305.963 269.979C302.339 260.319 293.733 253.78 285.254 254.056C284.968 254.056 284.703 254.109 284.427 254.13C280.517 254.523 277.644 256.742 275.61 260.011V260.022Z" fill="#FFF6E8"/>
<path d="M196.281 352.067C197.881 353.628 199.63 355.273 202.089 355.199C210.069 354.986 223.243 343.575 225.034 335.433C226.274 329.775 222.597 325.985 216.895 327.174C213.482 327.885 210.599 329.69 208.204 332.163C206.975 333.427 206.053 334.987 204.537 337.025C203.53 334.478 203.191 333.427 202.714 332.439C200.902 328.692 198.825 324.86 194.161 324.542C189.562 324.223 187.463 327.97 186.891 331.548C186.276 335.422 187.866 338.342 188.216 339.339C189.901 344.212 192.593 348.468 196.281 352.067Z" fill="#150050"/>
<path d="M187.05 294.713C186.87 294.914 186.689 295.105 186.509 295.318V297.855C190.78 303.162 197.161 304.829 203.043 307.355C205.66 308.481 208.246 308.502 209.433 305.466C210.557 302.61 208.564 301.103 206.212 299.967C203.52 298.672 200.488 298.025 197.987 296.103C203.88 291.719 209.624 287.643 215.157 283.291C219.512 279.872 219.237 277.516 214.584 275.011H212.889C211.606 276.189 210.271 277.282 208.893 278.344C205.311 281.114 201.506 283.567 197.807 286.189C194.055 288.842 190.134 291.252 187.06 294.723L187.05 294.713Z" fill="#150050"/>
<path d="M334.918 316.485C334.186 317.514 332.893 319.011 334.271 320.232C335.532 321.336 336.995 320.158 338.108 319.425C341.086 317.451 343.29 314.669 345.484 311.909C349.49 306.857 352.437 301.326 352.945 294.617C352.871 293.333 352.871 291.634 351.175 291.337C349.766 291.093 349.448 292.6 349.321 293.683C348.483 300.827 344.17 305.997 339.549 311.028C337.928 312.79 336.285 314.553 334.918 316.495V316.485Z" fill="#150050"/>
</g>
<defs>
<clipPath id="clip0_7261_20417">
<rect width="550" height="550" fill="white"/>
</clipPath>
</defs>
</svg>
