<svg width="550" height="550" viewBox="0 0 550 550" fill="none" xmlns="http://www.w3.org/2000/svg">
<g clip-path="url(#clip0_7261_20411)">
<path d="M275 551C426.878 551 550 427.654 550 275.5C550 123.346 426.878 0 275 0C123.122 0 0 123.346 0 275.5C0 427.654 123.122 551 275 551Z" fill="#FFF6E8"/>
<path d="M168.637 463.72C170.961 454.752 168.555 446.37 163.262 444.998C157.969 443.626 151.794 449.785 149.47 458.753C147.146 467.721 149.552 476.103 154.845 477.475C160.138 478.847 166.312 472.689 168.637 463.72Z" fill="#150050"/>
<path d="M155.264 460.201C157.589 451.233 155.182 442.851 149.89 441.479C144.597 440.107 138.422 446.265 136.098 455.234C133.773 464.202 136.18 472.584 141.472 473.956C146.765 475.328 152.94 469.17 155.264 460.201Z" fill="#150050"/>
<path d="M311.575 314.6L394.9 69.85C394.9 69.85 399.025 57.475 378.95 51.7C358.875 45.925 337.7 41.25 295.625 37.4C295.625 37.4 282.975 36.575 275.55 62.15C268.125 87.725 191.125 291.775 191.125 291.775L210.65 292.6L297.825 60.225C297.825 60.225 349.525 66.825 366.3 68.75C366.3 68.75 370.425 77.275 365.2 94.6C359.975 111.925 288.2 314.6 288.2 314.6H311.3H311.575Z" fill="#150050"/>
<path d="M283.25 276.1C287.375 262.075 294.25 249.425 303.325 238.15C309.1 231 315.7 224.675 323.125 219.175C330.825 213.675 339.075 209.825 347.875 207.35C355.3 205.15 363 204.6 370.7 205.15C374 205.425 377.3 205.975 380.325 206.8C386.925 208.175 392.975 211.2 399.025 213.95C405.075 216.7 410.575 220.55 415.25 225.5C421.3 231.825 425.975 239.25 429.275 247.775C432.025 254.925 433.95 262.625 435.05 270.325C436.15 279.4 436.15 288.475 435.325 297.55C434.225 309.925 430.925 321.475 426.8 333.025C424.05 341 420.475 348.425 416.9 355.85C411.95 365.2 406.725 374.275 400.675 382.8C396.825 388.3 392.975 393.525 388.85 398.75C383.9 404.8 378.95 410.575 373.725 416.35C365.2 425.7 356.125 434.225 346.225 442.475C341.275 446.6 336.325 450.45 331.1 454.3C327.8 456.775 324.225 459.25 320.65 461.45C316.8 463.925 313.225 466.4 309.375 468.6C300.575 473.55 291.775 478.225 282.425 482.075C270.325 487.3 257.675 491.15 244.75 493.35C238.15 494.45 231.825 495 225.225 494.45C218.075 493.9 211.75 491.15 205.975 487.3C198.825 482.35 192.5 476.3 186.45 469.7C181.5 464.475 177.1 458.975 172.975 452.925C169.4 447.975 166.375 443.025 163.35 437.8C160.05 432.3 156.75 426.525 154 420.75C149.6 411.675 145.75 402.325 142.45 392.7C139.7 385 137.225 377.025 135.025 369.05C132.55 359.425 130.35 349.525 128.975 339.625C126.5 324.225 125.125 308.825 125.125 293.15C125.125 283.25 125.95 273.35 127.05 263.45C128.425 251.075 131.725 238.975 135.85 227.15C139.7 215.875 145.2 205.425 152.35 195.8C157.85 188.1 164.175 181.225 171.6 175.725C183.975 165.825 198 160.6 213.125 161.15C218.075 161.15 223.025 161.975 227.975 162.8C237.05 164.45 245.025 168.3 252.45 173.525C259.325 178.2 264.825 184.25 269.5 191.4C276.1 201.3 280.225 212.3 282.975 224.125C284.625 231.275 285.175 238.425 285.45 245.85C285.45 253.55 285.45 261.25 283.8 268.95C283.25 271.425 282.975 273.9 282.7 276.375C282.7 277.475 281.875 278.575 282.15 280.5C283.25 279.125 283.25 277.75 283.8 276.65L283.25 276.1Z" fill="#150050"/>
<path d="M283.25 276.1C283.25 276.1 282.7 278.575 281.6 279.95C281.325 278.3 281.875 277.2 282.15 275.825H282.975L283.25 276.1Z" fill="#150050"/>
<path d="M259.875 265.925C264 251.9 270.875 239.25 279.95 227.975C285.725 220.825 292.325 214.5 299.75 209C307.45 203.5 315.7 199.65 324.5 197.175C331.925 194.975 339.625 194.425 347.325 194.975C350.625 195.25 353.925 195.8 356.95 196.625C363.55 198 369.6 201.025 375.65 203.775C381.7 206.525 387.2 210.375 391.875 215.325C397.925 221.65 402.6 229.075 405.9 237.6C408.65 244.75 410.575 252.45 411.675 260.15C412.775 269.225 412.775 278.3 411.95 287.375C410.85 299.75 407.55 311.3 403.425 322.85C400.675 330.825 397.1 338.25 393.525 345.675C388.575 355.025 383.35 364.1 377.3 372.625C373.45 378.125 369.6 383.35 365.475 388.575C360.525 394.625 355.575 400.4 350.35 406.175C341.825 415.525 332.75 424.05 322.85 432.3C317.9 436.425 312.95 440.275 307.725 444.125C304.425 446.6 300.85 449.075 297.275 451.275C293.425 453.75 289.85 456.225 286 458.425C277.2 463.375 268.4 468.05 259.05 471.9C246.95 477.125 234.3 480.975 221.375 483.175C214.775 484.275 208.45 484.825 201.85 484.275C194.7 483.725 188.375 480.975 182.6 477.125C175.45 472.175 169.125 466.125 163.075 459.525C158.125 454.3 153.725 448.8 149.6 442.75C146.025 437.8 143 432.85 139.975 427.625C136.675 422.125 133.375 416.35 130.625 410.575C126.225 401.5 122.375 392.15 119.075 382.525C116.325 374.825 113.85 366.85 111.65 358.875C109.175 349.25 106.975 339.35 105.6 329.45C103.125 314.05 101.75 298.65 101.75 282.975C101.75 273.075 102.575 263.175 103.675 253.275C105.05 240.9 108.35 228.8 112.475 216.975C116.325 205.7 121.825 195.25 128.975 185.625C134.475 177.925 140.8 171.05 148.225 165.55C160.6 155.65 174.625 150.425 189.75 150.975C194.7 150.975 199.65 151.8 204.6 152.625C213.675 154.275 221.65 158.125 229.075 163.35C235.95 168.025 241.45 174.075 246.125 181.225C252.725 191.125 256.85 202.125 259.6 213.95C261.25 221.1 261.8 228.25 262.075 235.675C262.075 243.375 262.075 251.075 260.425 258.775C259.875 261.25 259.6 263.725 259.325 266.2C259.325 267.3 258.5 268.4 258.775 270.325C259.875 268.95 259.875 267.575 260.425 266.475L259.875 265.925Z" fill="#FA9BFA"/>
<path d="M259.875 265.925C259.875 265.925 259.325 268.4 258.225 269.775C257.95 268.125 258.5 267.025 258.775 265.65H259.6L259.875 265.925Z" fill="#FA9BFA"/>
<path d="M257.4 345.95C257.4 345.95 257.675 344.3 257.95 343.475C262.075 331.65 266.2 319.825 270.05 308C271.425 303.6 271.425 303.325 267.025 301.95C257.675 298.65 248.05 295.35 238.7 292.05C238.15 292.05 237.6 291.775 237.05 291.5C235.95 291.5 235.4 291.5 235.125 292.6C235.125 293.15 234.85 293.7 234.575 294.25L222.475 328.625C222.475 328.625 221.65 330.825 221.375 331.925C221.1 333.3 220.275 333.575 219.175 333.025C218.9 333.025 218.625 333.025 218.35 332.75L182.325 320.375L180.95 319.825C180.95 319.825 179.025 319.825 178.475 320.65C177.925 321.75 177.65 322.575 177.1 323.675C173.8 333.025 170.5 342.375 167.2 351.725C167.2 352.275 166.65 353.1 166.65 353.65C166.65 354.475 166.65 355.025 167.475 355.575C168.025 355.575 168.3 355.85 168.85 356.125C180.95 360.25 193.325 364.65 205.425 368.775L208.45 369.875C208.45 369.875 208.175 371.525 207.9 372.075C203.775 383.9 199.65 395.725 195.8 407.55C194.425 411.95 194.425 412.225 198.825 413.6C208.175 416.9 217.8 420.2 227.15 423.5C227.7 423.5 228.25 423.775 228.8 424.05C229.9 424.05 230.45 424.05 230.725 422.95C230.725 422.4 231 421.85 231.275 421.3L243.375 386.925C243.375 386.925 244.2 384.725 244.475 383.625C244.75 382.25 245.575 381.975 246.675 382.525C246.95 382.525 247.225 382.525 247.5 382.8C259.325 386.925 271.425 391.05 283.25 395.175C286.825 396.275 287.1 396.275 288.475 392.7C292.05 382.525 295.35 372.9 298.65 363C299.475 360.525 299.2 360.25 297 359.425C283.8 354.75 270.6 350.075 257.4 345.675V345.95Z" fill="#4967E5"/>
<path d="M257.4 345.95C270.6 350.625 283.8 355.3 297 359.7C299.475 360.525 299.475 360.8 298.65 363.275C295.35 373.175 291.775 383.075 288.475 392.7C287.1 396.275 286.825 396.55 283.25 395.45C271.425 391.325 259.325 387.2 247.5 383.075C247.225 383.075 246.95 383.075 246.675 382.8C245.575 382.25 244.75 382.525 244.475 383.9C244.2 385 243.65 386.1 243.375 387.2L231.275 421.575C231.275 421.575 231 422.675 230.725 423.225C230.45 424.05 229.625 424.6 228.8 424.325C228.25 424.325 227.7 424.05 227.15 423.775C217.8 420.475 208.175 417.175 198.825 413.875C194.425 412.225 194.15 412.225 195.8 407.825C199.925 396 204.05 384.175 207.9 372.35C207.9 371.525 208.45 370.975 208.45 370.15L205.425 369.05C193.325 364.925 180.95 360.525 168.85 356.4C168.3 356.4 167.75 356.125 167.475 355.85C166.65 355.575 166.375 354.75 166.65 353.925C166.65 353.375 166.925 352.55 167.2 352C170.5 342.65 173.8 333.3 177.1 323.95C177.375 322.85 177.925 322.025 178.475 320.925C179.025 319.825 179.85 319.55 180.95 320.1L182.325 320.65L218.35 333.025C218.35 333.025 218.9 333.025 219.175 333.3C220.275 333.85 221.1 333.575 221.375 332.2C221.65 331.1 222.2 330 222.475 328.9L234.575 294.525C234.575 294.525 234.85 293.425 235.125 292.875C235.4 292.05 236.225 291.5 237.05 291.775C237.6 291.775 238.15 292.05 238.7 292.325C248.05 295.625 257.675 298.925 267.025 302.225C271.425 303.875 271.7 303.875 270.05 308.275C265.925 320.1 261.8 331.925 257.95 343.75C257.95 344.575 257.4 345.125 257.4 346.225V345.95Z" fill="#4967E5"/>
<path d="M411.125 342.925C411.125 342.925 400.4 380.05 358.6 417.175L352.275 414.425C352.275 414.425 401.225 368.5 399.575 344.575L411.125 343.2V342.925Z" fill="#FFF6E8"/>
<path d="M296.045 495.899C299.097 487.151 297.385 478.6 292.223 476.799C287.06 474.998 280.402 480.629 277.35 489.377C274.299 498.125 276.01 506.676 281.173 508.477C286.335 510.278 292.994 504.646 296.045 495.899Z" fill="#150050"/>
<path d="M282.822 492.61C285.874 483.862 284.162 475.311 279 473.51C273.837 471.709 267.178 477.341 264.127 486.088C261.076 494.836 262.787 503.387 267.95 505.188C273.112 506.989 279.771 501.357 282.822 492.61Z" fill="#150050"/>
</g>
<defs>
<clipPath id="clip0_7261_20411">
<rect width="550" height="550" fill="white"/>
</clipPath>
</defs>
</svg>
