<svg width="0" height="0" class="hidden">
  <symbol fill="inherit" xmlns="http://www.w3.org/2000/svg" viewBox="0 0 24 24" id="arrow-left">
    <path d="M2 11.7946C2 12.096 2.13058 12.3973 2.36161 12.6183L8.99107 19.2377C9.23214 19.4687 9.4933 19.5792 9.7846 19.5792C10.4174 19.5792 10.8795 19.1272 10.8795 18.5145C10.8795 18.1931 10.7589 17.9219 10.548 17.721L8.28795 15.4308L5.375 12.769L7.7154 12.9096H19.8895C20.5525 12.9096 21.0145 12.4475 21.0145 11.7946C21.0145 11.1317 20.5525 10.6696 19.8895 10.6696H7.7154L5.38504 10.8103L8.28795 8.14844L10.548 5.85826C10.7589 5.65737 10.8795 5.38616 10.8795 5.06473C10.8795 4.45201 10.4174 4 9.7846 4C9.4933 4 9.2221 4.11049 8.96094 4.36161L2.36161 10.9609C2.13058 11.1819 2 11.4833 2 11.7946Z" fill="currentColor"></path>
  </symbol>
  <symbol fill="inherit" xmlns="http://www.w3.org/2000/svg" viewBox="0 0 24 24" id="arrow-right">
    <path d="M21.0145 11.7946C21.0145 11.4833 20.8839 11.1819 20.6529 10.9609L14.0536 4.36161C13.7924 4.11049 13.5212 4 13.24 4C12.5971 4 12.135 4.45201 12.135 5.06473C12.135 5.38616 12.2656 5.65737 12.4665 5.85826L14.7266 8.14844L17.6395 10.8103L15.3092 10.6696H3.13504C2.46205 10.6696 2 11.1317 2 11.7946C2 12.4475 2.46205 12.9096 3.13504 12.9096H15.3092L17.6395 12.769L14.7266 15.4308L12.4665 17.721C12.2656 17.9219 12.135 18.1931 12.135 18.5145C12.135 19.1272 12.5971 19.5792 13.24 19.5792C13.5212 19.5792 13.7924 19.4687 14.0335 19.2377L20.6529 12.6183C20.8839 12.3973 21.0145 12.096 21.0145 11.7946Z" fill="currentColor"></path>
  </symbol>
  <symbol fill="inherit" xmlns="http://www.w3.org/2000/svg" viewBox="0 0 24 24" id="arrow-top-right">
    <path d="M19.1775 15.2701L19.1674 5.18527C19.1674 4.48214 18.7054 4 17.9821 4H7.88728C7.20424 4 6.73214 4.51228 6.73214 5.11496C6.73214 5.70759 7.24442 6.19978 7.85714 6.19978H11.4632L15.7221 6.05915L13.894 7.66629L4.36161 17.2087C4.13058 17.4498 4 17.731 4 18.0123C4 18.6049 4.54241 19.1674 5.15513 19.1674C5.43638 19.1674 5.71763 19.0469 5.95871 18.8158L15.5011 9.27344L17.1283 7.44531L16.9576 11.5234V15.3002C16.9576 15.923 17.4498 16.4453 18.0625 16.4453C18.6652 16.4453 19.1775 15.933 19.1775 15.2701Z" fill="currentColor"></path>
  </symbol>
  <symbol fill="inherit" xmlns="http://www.w3.org/2000/svg" viewBox="0 0 24 24" id="back">
    <path d="M12.4696 11.376C12.9066 11.376 13.2546 11.028 13.2546 10.5829C13.2546 10.3644 13.1737 10.1864 13.028 10.0407L10.8268 7.85566C11.2476 7.78282 11.7332 7.74236 12.2592 7.74236C15.3749 7.74236 17.8594 10.2349 17.8594 13.383C17.8594 16.5068 15.3587 19.0156 12.2349 19.0156C9.11922 19.0156 6.61046 16.5068 6.61046 13.383C6.61046 12.8975 6.29484 12.5495 5.82546 12.5495C5.3399 12.5495 5 12.8975 5 13.383C5 17.397 8.22901 20.626 12.2349 20.626C16.2489 20.626 19.4699 17.397 19.4699 13.383C19.4699 9.36901 16.2651 6.16427 12.2592 6.16427C11.8789 6.16427 11.4904 6.19664 11.1019 6.25329L13.0361 4.35958C13.1737 4.20582 13.2546 4.02778 13.2546 3.80928C13.2546 3.36417 12.9147 3 12.4696 3C12.2349 3 12.0488 3.08093 11.9031 3.24278L8.5851 6.61747C8.41515 6.77932 8.33422 6.98973 8.33422 7.20824C8.33422 7.43484 8.40705 7.62906 8.5851 7.8071L11.9112 11.1494C12.0488 11.3032 12.2349 11.376 12.4696 11.376Z" fill="currentColor"></path>
  </symbol>
  <symbol fill="inherit" xmlns="http://www.w3.org/2000/svg" viewBox="0 0 24 24" id="bank">
    <path d="M2 17.9255C2 18.3097 2.25614 18.5734 2.64788 18.5734H21.2254C21.6172 18.5734 21.8733 18.3097 21.8733 17.9255V6.64788C21.8733 6.25614 21.6172 6 21.2254 6H2.64788C2.25614 6 2 6.25614 2 6.64788V17.9255ZM3.49916 16.8557V7.71763C3.49916 7.56696 3.56696 7.49916 3.71763 7.49916H20.1632C20.3139 7.49916 20.3742 7.56696 20.3742 7.71763V16.8557C20.3742 17.0064 20.3139 17.0667 20.1632 17.0667H3.71763C3.56696 17.0667 3.49916 17.0064 3.49916 16.8557ZM4.23744 15.9367C4.23744 16.1928 4.38058 16.3359 4.62919 16.3359H19.2517C19.5003 16.3359 19.6434 16.1928 19.6434 15.9367V8.63672C19.6434 8.38058 19.5003 8.23744 19.2517 8.23744H4.62919C4.38058 8.23744 4.23744 8.38058 4.23744 8.63672V15.9367ZM5.03599 15.3792V9.1942C5.03599 9.08873 5.08873 9.03599 5.1942 9.03599H10.1814C9.54855 9.73661 9.14174 10.8591 9.14174 12.2754C9.14174 13.6992 9.54855 14.8292 10.1889 15.5374H5.1942C5.08873 15.5374 5.03599 15.4771 5.03599 15.3792ZM14.7391 12.2754C14.7391 10.8591 14.3323 9.73661 13.6769 9.03599H18.6867C18.7846 9.03599 18.8449 9.08873 18.8449 9.1942V15.3792C18.8449 15.4771 18.7846 15.5374 18.6867 15.5374H13.6694C14.3248 14.8292 14.7391 13.6992 14.7391 12.2754ZM11.9065 15.3867C10.9046 15.3867 10.0533 14.1889 10.0533 12.2754C10.0533 10.377 10.9046 9.18666 11.9065 9.18666C12.9537 9.18666 13.8276 10.377 13.8276 12.2754C13.8276 14.1889 12.9537 15.3867 11.9065 15.3867Z" fill="currentColor"></path>
  </symbol>
  <symbol fill="inherit" xmlns="http://www.w3.org/2000/svg" viewBox="0 0 24 24" id="calendar">
    <path d="M5.23183 21.7734H18.7584C20.89 21.7734 22 20.6484 22 18.4989V6.27455C22 4.125 20.89 3 18.7584 3H5.23183C3.11002 3 2 4.11496 2 6.27455V18.4989C2 20.6484 3.11002 21.7734 5.23183 21.7734ZM5.222 19.7746C4.40668 19.7746 3.95481 19.3426 3.95481 18.4587V9.21763C3.95481 8.33371 4.40668 7.90179 5.222 7.90179H18.7682C19.5835 7.90179 20.0354 8.33371 20.0354 9.21763V18.4587C20.0354 19.3426 19.5835 19.7746 18.7682 19.7746H5.222ZM10.1041 11.3672H10.6837C11.0373 11.3672 11.1552 11.2567 11.1552 10.9051V10.3125C11.1552 9.95089 11.0373 9.8404 10.6837 9.8404H10.1041C9.75049 9.8404 9.63261 9.95089 9.63261 10.3125V10.9051C9.63261 11.2567 9.75049 11.3672 10.1041 11.3672ZM13.3163 11.3672H13.8959C14.2397 11.3672 14.3576 11.2567 14.3576 10.9051V10.3125C14.3576 9.95089 14.2397 9.8404 13.8959 9.8404H13.3163C12.9627 9.8404 12.8448 9.95089 12.8448 10.3125V10.9051C12.8448 11.2567 12.9627 11.3672 13.3163 11.3672ZM16.5187 11.3672H17.0982C17.4519 11.3672 17.5697 11.2567 17.5697 10.9051V10.3125C17.5697 9.95089 17.4519 9.8404 17.0982 9.8404H16.5187C16.1749 9.8404 16.057 9.95089 16.057 10.3125V10.9051C16.057 11.2567 16.1749 11.3672 16.5187 11.3672ZM6.90177 14.6016H7.47151C7.82515 14.6016 7.94303 14.4911 7.94303 14.1295V13.5368C7.94303 13.1853 7.82515 13.0748 7.47151 13.0748H6.90177C6.54813 13.0748 6.43026 13.1853 6.43026 13.5368V14.1295C6.43026 14.4911 6.54813 14.6016 6.90177 14.6016ZM10.1041 14.6016H10.6837C11.0373 14.6016 11.1552 14.4911 11.1552 14.1295V13.5368C11.1552 13.1853 11.0373 13.0748 10.6837 13.0748H10.1041C9.75049 13.0748 9.63261 13.1853 9.63261 13.5368V14.1295C9.63261 14.4911 9.75049 14.6016 10.1041 14.6016ZM13.3163 14.6016H13.8959C14.2397 14.6016 14.3576 14.4911 14.3576 14.1295V13.5368C14.3576 13.1853 14.2397 13.0748 13.8959 13.0748H13.3163C12.9627 13.0748 12.8448 13.1853 12.8448 13.5368V14.1295C12.8448 14.4911 12.9627 14.6016 13.3163 14.6016ZM16.5187 14.6016H17.0982C17.4519 14.6016 17.5697 14.4911 17.5697 14.1295V13.5368C17.5697 13.1853 17.4519 13.0748 17.0982 13.0748H16.5187C16.1749 13.0748 16.057 13.1853 16.057 13.5368V14.1295C16.057 14.4911 16.1749 14.6016 16.5187 14.6016ZM6.90177 17.8259H7.47151C7.82515 17.8259 7.94303 17.7154 7.94303 17.3638V16.7712C7.94303 16.4096 7.82515 16.2991 7.47151 16.2991H6.90177C6.54813 16.2991 6.43026 16.4096 6.43026 16.7712V17.3638C6.43026 17.7154 6.54813 17.8259 6.90177 17.8259ZM10.1041 17.8259H10.6837C11.0373 17.8259 11.1552 17.7154 11.1552 17.3638V16.7712C11.1552 16.4096 11.0373 16.2991 10.6837 16.2991H10.1041C9.75049 16.2991 9.63261 16.4096 9.63261 16.7712V17.3638C9.63261 17.7154 9.75049 17.8259 10.1041 17.8259ZM13.3163 17.8259H13.8959C14.2397 17.8259 14.3576 17.7154 14.3576 17.3638V16.7712C14.3576 16.4096 14.2397 16.2991 13.8959 16.2991H13.3163C12.9627 16.2991 12.8448 16.4096 12.8448 16.7712V17.3638C12.8448 17.7154 12.9627 17.8259 13.3163 17.8259Z" fill="currentColor"></path>
  </symbol>
  <symbol fill="inherit" xmlns="http://www.w3.org/2000/svg" viewBox="0 0 24 24" id="camera">
    <path d="M3.8916 20.9893H19.835C21.7334 20.9893 22.7354 20.0049 22.7354 18.124V8.89551C22.7354 7.01465 21.7334 6.03027 19.835 6.03027H17.4355C16.75 6.03027 16.5303 5.91602 16.0996 5.46777L15.4053 4.7207C14.9482 4.2373 14.4824 4 13.5859 4H10.0967C9.2002 4 8.74316 4.2373 8.27734 4.7207L7.58301 5.46777C7.16113 5.90723 6.93262 6.03027 6.24707 6.03027H3.8916C1.99316 6.03027 1 7.01465 1 8.89551V18.124C1 20.0049 1.99316 20.9893 3.8916 20.9893ZM4.00586 19.2402C3.20605 19.2402 2.74902 18.8184 2.74902 17.9658V9.05371C2.74902 8.20996 3.20605 7.78809 4.00586 7.78809H6.75684C7.54785 7.78809 7.95215 7.64746 8.40039 7.16406L9.06836 6.42578C9.56055 5.88965 9.82422 5.74902 10.5977 5.74902H13.085C13.8584 5.74902 14.1221 5.88965 14.6055 6.41699L15.2822 7.16406C15.7305 7.64746 16.1348 7.78809 16.9258 7.78809H19.7207C20.5293 7.78809 20.9775 8.20996 20.9775 9.05371V17.9658C20.9775 18.8184 20.5293 19.2402 19.7207 19.2402H4.00586ZM11.8633 18.0801C14.5 18.0801 16.6094 15.9707 16.6094 13.3252C16.6094 10.6797 14.5 8.57031 11.8633 8.57031C9.23535 8.57031 7.12598 10.6797 7.12598 13.3252C7.12598 15.9707 9.23535 18.0801 11.8633 18.0801ZM16.9082 10.1787C16.9082 10.8203 17.4268 11.3213 18.0596 11.3125C18.6748 11.3125 19.1934 10.8115 19.1934 10.1787C19.1934 9.56348 18.666 9.03613 18.0596 9.03613C17.4268 9.03613 16.9082 9.56348 16.9082 10.1787ZM11.8633 16.4805C10.1318 16.4805 8.7168 15.0742 8.7168 13.3252C8.7168 11.5674 10.123 10.1699 11.8633 10.1699C13.6123 10.1699 15.0186 11.5674 15.0186 13.3252C15.0186 15.0742 13.6123 16.4805 11.8633 16.4805Z" fill="currentColor"></path>
  </symbol>
  <symbol fill="inherit" xmlns="http://www.w3.org/2000/svg" viewBox="0 0 24 24" id="cancel">
    <path d="M11.9952 22C17.4761 22 22 17.4739 22 12C22 6.52611 17.4664 2 11.9855 2C6.51426 2 2 6.52611 2 12C2 17.4739 6.52392 22 11.9952 22ZM11.9952 20.0077C7.55824 20.0077 4.01063 16.4391 4.01063 12C4.01063 7.56093 7.55824 4.00193 11.9855 4.00193C16.4224 4.00193 19.9894 7.56093 19.999 12C20.0087 16.4391 16.4321 20.0077 11.9952 20.0077ZM8.82455 16.0619C9.07588 16.0619 9.29821 15.9749 9.46254 15.8008L11.9952 13.2669L14.5278 15.8008C14.6921 15.9652 14.9048 16.0619 15.1658 16.0619C15.6588 16.0619 16.0454 15.675 16.0454 15.1818C16.0454 14.94 15.9488 14.7273 15.7844 14.5629L13.2421 12.0193L15.7844 9.46615C15.9681 9.2824 16.0551 9.08897 16.0551 8.85687C16.0551 8.36364 15.6684 7.97679 15.1754 7.97679C14.9338 7.97679 14.7308 8.05416 14.5471 8.23791L11.9952 10.7814L9.44321 8.24758C9.27888 8.0735 9.07588 7.98646 8.82455 7.98646C8.33156 7.98646 7.9449 8.36364 7.9449 8.85687C7.9449 9.09865 8.04157 9.31141 8.21556 9.47582L10.7482 12.0193L8.21556 14.5725C8.04157 14.7273 7.9449 14.9497 7.9449 15.1818C7.9449 15.675 8.33156 16.0619 8.82455 16.0619Z" fill="currentColor"></path>
  </symbol>
  <symbol fill="inherit" xmlns="http://www.w3.org/2000/svg" viewBox="0 0 24 24" id="caret-dwn">
    <path fill-rule="evenodd" clip-rule="evenodd" d="M18.6198 7C19.3821 7 20 7.5745 20 8.28318C20 8.59399 19.8787 8.89424 19.6585 9.12816L13.0387 16.1618C12.5368 16.6951 11.6648 16.7492 11.0911 16.2825C11.045 16.245 11.0016 16.2047 10.9613 16.1618L4.34151 9.12816C3.83956 8.59482 3.89769 7.78416 4.47135 7.31749C4.72295 7.11281 5.04591 7 5.38022 7H18.6198Z" fill="#22222D"></path>
  </symbol>
  <symbol fill="inherit" xmlns="http://www.w3.org/2000/svg" viewBox="0 0 24 24" id="caret-right">
    <path fill-rule="evenodd" clip-rule="evenodd" d="M7 5.3802C7 4.61794 7.5745 4 8.28318 4C8.59399 4 8.89424 4.12134 9.12816 4.34149L16.1618 10.9613C16.6951 11.4632 16.7492 12.3352 16.2825 12.9089C16.245 12.955 16.2047 12.9984 16.1618 13.0387L9.12816 19.6585C8.59482 20.1604 7.78416 20.1023 7.31749 19.5286C7.11281 19.277 7 18.9541 7 18.6198L7 5.3802Z" fill="#22222D"></path>
  </symbol>
  <symbol fill="inherit" xmlns="http://www.w3.org/2000/svg" viewBox="0 0 24 24" id="caret-up">
    <path fill-rule="evenodd" clip-rule="evenodd" d="M18.6198 17C19.3821 17 20 16.4255 20 15.7168C20 15.406 19.8787 15.1058 19.6585 14.8718L13.0387 7.83822C12.5368 7.30488 11.6648 7.25084 11.0911 7.71751C11.045 7.75502 11.0016 7.79535 10.9613 7.83822L4.34151 14.8718C3.83956 15.4052 3.89769 16.2158 4.47135 16.6825C4.72295 16.8872 5.04591 17 5.38022 17H18.6198Z" fill="#22222D"></path>
  </symbol>
  <symbol fill="inherit" xmlns="http://www.w3.org/2000/svg" viewBox="0 0 24 24" id="check-circle-filled">
    <path d="M12 22C13.3709 22 14.6583 21.739 15.8622 21.2171C17.0661 20.6952 18.1273 19.9749 19.0459 19.0564C19.9715 18.1378 20.6952 17.0765 21.2171 15.8727C21.739 14.6618 22 13.3709 22 12C22 10.636 21.7356 9.35212 21.2067 8.14823C20.6848 6.93737 19.961 5.87265 19.0355 4.95407C18.1169 4.02853 17.0557 3.3048 15.8518 2.78288C14.6479 2.26096 13.3605 2 11.9896 2C10.6256 2 9.34168 2.26096 8.13779 2.78288C6.93389 3.3048 5.86917 4.02853 4.94363 4.95407C4.02505 5.87265 3.3048 6.93737 2.78288 8.14823C2.26096 9.35212 2 10.636 2 12C2 13.3709 2.26096 14.6618 2.78288 15.8727C3.31176 17.0765 4.03549 18.1378 4.95407 19.0564C5.87265 19.9749 6.93389 20.6952 8.13779 21.2171C9.34168 21.739 10.6291 22 12 22ZM10.9144 16.8017C10.7543 16.8017 10.6117 16.7669 10.4864 16.6973C10.3612 16.6277 10.2394 16.5198 10.1211 16.3737L7.56367 13.2526C7.41754 13.0717 7.34447 12.8803 7.34447 12.6785C7.34447 12.4697 7.41406 12.2958 7.55324 12.1566C7.69241 12.0104 7.86291 11.9374 8.06472 11.9374C8.18998 11.9374 8.3048 11.9652 8.40919 12.0209C8.52053 12.0696 8.62839 12.167 8.73278 12.3132L10.8727 15.0063L15.215 8.06472C15.382 7.79332 15.5943 7.65762 15.8518 7.65762C16.0466 7.65762 16.2206 7.72025 16.3737 7.84551C16.5268 7.97077 16.6033 8.13779 16.6033 8.34656C16.6033 8.44398 16.579 8.54489 16.5303 8.64927C16.4885 8.74669 16.4398 8.84064 16.3841 8.93111L11.6555 16.3737C11.4676 16.659 11.2206 16.8017 10.9144 16.8017Z" fill="currentColor"></path>
  </symbol>
  <symbol fill="inherit" xmlns="http://www.w3.org/2000/svg" viewBox="0 0 24 24" id="check-circle">
    <path d="M12 22C13.3709 22 14.6583 21.739 15.8622 21.2171C17.0661 20.6952 18.1273 19.9749 19.0459 19.0564C19.9715 18.1378 20.6952 17.0765 21.2171 15.8727C21.739 14.6618 22 13.3709 22 12C22 10.636 21.7356 9.35212 21.2067 8.14823C20.6848 6.93737 19.961 5.87265 19.0355 4.95407C18.1169 4.02853 17.0557 3.3048 15.8518 2.78288C14.6479 2.26096 13.3605 2 11.9896 2C10.6256 2 9.34168 2.26096 8.13779 2.78288C6.93389 3.3048 5.86917 4.02853 4.94363 4.95407C4.02505 5.87265 3.3048 6.93737 2.78288 8.14823C2.26096 9.35212 2 10.636 2 12C2 13.3709 2.26096 14.6618 2.78288 15.8727C3.31176 17.0765 4.03549 18.1378 4.95407 19.0564C5.87265 19.9749 6.93389 20.6952 8.13779 21.2171C9.34168 21.739 10.6291 22 12 22ZM12 20.4864C10.8239 20.4864 9.72095 20.2672 8.69102 19.8288C7.66806 19.3904 6.77036 18.785 5.99791 18.0125C5.22547 17.2331 4.62004 16.3319 4.18163 15.309C3.74322 14.2791 3.52401 13.1761 3.52401 12C3.52401 10.8309 3.74322 9.73486 4.18163 8.7119C4.62004 7.68198 5.22547 6.78079 5.99791 6.00835C6.77036 5.22895 7.66806 4.62004 8.69102 4.18163C9.71399 3.74322 10.8135 3.52401 11.9896 3.52401C13.1726 3.52401 14.2756 3.74322 15.2985 4.18163C16.3215 4.62004 17.2192 5.22895 17.9916 6.00835C18.7711 6.78079 19.38 7.68198 19.8184 8.7119C20.2568 9.73486 20.476 10.8309 20.476 12C20.483 13.1761 20.2672 14.2791 19.8288 15.309C19.3904 16.3319 18.7815 17.2331 18.0021 18.0125C17.2296 18.785 16.3285 19.3904 15.2985 19.8288C14.2756 20.2672 13.1761 20.4864 12 20.4864ZM10.9144 16.6868C11.2136 16.6868 11.4537 16.5442 11.6347 16.2589L16.2589 9.01461C16.3145 8.92415 16.3633 8.8302 16.405 8.73278C16.4537 8.63535 16.4781 8.53793 16.4781 8.4405C16.4781 8.24565 16.4015 8.08907 16.2484 7.97077C16.0953 7.84551 15.9283 7.78288 15.7474 7.78288C15.5038 7.78288 15.2951 7.91858 15.1211 8.18998L10.8831 14.9436L8.80585 12.3132C8.70146 12.174 8.59708 12.08 8.49269 12.0313C8.38831 11.9826 8.27001 11.9582 8.13779 11.9582C7.94294 11.9582 7.7794 12.0278 7.64718 12.167C7.51496 12.2992 7.44885 12.4662 7.44885 12.6681C7.44885 12.856 7.51844 13.0438 7.65762 13.2317L10.1524 16.2589C10.2707 16.412 10.389 16.5233 10.5073 16.5929C10.6256 16.6555 10.7613 16.6868 10.9144 16.6868Z" fill="currentColor"></path>
  </symbol>
  <symbol fill="inherit" xmlns="http://www.w3.org/2000/svg" viewBox="0 0 24 24" id="check">
    <path d="M9.93116 21.4677C10.338 21.4677 10.6604 21.2912 10.8983 20.9381L21.295 4.63493C21.3795 4.48909 21.4409 4.3586 21.4793 4.24346C21.5176 4.12833 21.5368 4.01703 21.5368 3.90957C21.5368 3.64092 21.4524 3.42216 21.2835 3.2533C21.1223 3.08443 20.9074 3 20.6388 3C20.4469 3 20.2895 3.03838 20.1667 3.11514C20.0439 3.19189 19.9211 3.32238 19.7983 3.5066L9.88511 19.2341L4.7846 12.6829C4.55433 12.3605 4.27417 12.1993 3.94411 12.1993C3.66779 12.1993 3.44135 12.2876 3.26481 12.4641C3.08827 12.633 3 12.8518 3 13.1204C3 13.2432 3.02303 13.366 3.06908 13.4889C3.12281 13.604 3.19573 13.723 3.28784 13.8458L8.90646 20.9151C9.19813 21.2835 9.5397 21.4677 9.93116 21.4677Z" fill="currentColor"></path>
  </symbol>
  <symbol fill="inherit" xmlns="http://www.w3.org/2000/svg" viewBox="0 0 24 24" id="chevron-down">
    <path d="M11.9096 17.2656C12.2612 17.2556 12.5826 17.125 12.8437 16.8438L20.4777 9.02902C20.6987 8.80804 20.8192 8.52679 20.8192 8.19531C20.8192 7.53237 20.2969 7 19.6339 7C19.3125 7 19.0011 7.13058 18.7701 7.36161L11.9196 14.4029L5.04911 7.36161C4.81808 7.14062 4.51674 7 4.18527 7C3.52232 7 3 7.53237 3 8.19531C3 8.52679 3.12054 8.80804 3.34152 9.02902L10.9855 16.8438C11.2567 17.125 11.558 17.2656 11.9096 17.2656Z" fill="currentColor"></path>
  </symbol>
  <symbol fill="inherit" xmlns="http://www.w3.org/2000/svg" viewBox="0 0 24 24" id="chevron-left">
    <path d="M7 11.9096C7 12.2612 7.13058 12.5625 7.41183 12.8237L15.2266 20.4777C15.4475 20.6987 15.7288 20.8192 16.0603 20.8192C16.7232 20.8192 17.2556 20.2969 17.2556 19.6239C17.2556 19.2924 17.115 19.0011 16.894 18.7701L9.85268 11.9096L16.894 5.04911C17.115 4.81808 17.2556 4.51674 17.2556 4.19531C17.2556 3.52232 16.7232 3 16.0603 3C15.7288 3 15.4475 3.12054 15.2266 3.34152L7.41183 10.9855C7.13058 11.2567 7 11.558 7 11.9096Z" fill="currentColor"></path>
  </symbol>
  <symbol fill="inherit" xmlns="http://www.w3.org/2000/svg" viewBox="0 0 24 24" id="chevron-right">
    <path d="M17.2556 11.9096C17.2455 11.558 17.115 11.2567 16.8438 10.9855L9.02902 3.34152C8.79799 3.12054 8.52679 3 8.19531 3C7.52232 3 7 3.52232 7 4.19531C7 4.51674 7.13058 4.81808 7.36161 5.04911L14.3929 11.9096L7.36161 18.7701C7.13058 19.0011 7 19.2924 7 19.6239C7 20.2969 7.52232 20.8192 8.19531 20.8192C8.51674 20.8192 8.79799 20.6987 9.02902 20.4777L16.8438 12.8237C17.125 12.5625 17.2556 12.2612 17.2556 11.9096Z" fill="currentColor"></path>
  </symbol>
  <symbol fill="inherit" xmlns="http://www.w3.org/2000/svg" viewBox="0 0 24 24" id="chevron-up">
    <path d="M3.34152 15.2266L10.9855 7.41183C11.2467 7.13058 11.558 7 11.9096 7C12.2612 7 12.5826 7.14062 12.8437 7.41183L20.4777 15.2266C20.6987 15.4475 20.8192 15.7288 20.8192 16.0603C20.8192 16.7333 20.2969 17.2556 19.6339 17.2556C19.3125 17.2556 19.0011 17.135 18.7701 16.894L11.9196 9.85268L5.04911 16.894C4.82812 17.125 4.51674 17.2556 4.18527 17.2556C3.52232 17.2556 3 16.7333 3 16.0603C3 15.7388 3.12054 15.4475 3.34152 15.2266Z" fill="currentColor"></path>
  </symbol>
  <symbol fill="inherit" xmlns="http://www.w3.org/2000/svg" viewBox="0 0 24 24" id="circle">
    <path d="M12 22C13.3709 22 14.6583 21.739 15.8622 21.2171C17.0661 20.6952 18.1273 19.9749 19.0459 19.0564C19.9715 18.1378 20.6952 17.0765 21.2171 15.8727C21.739 14.6618 22 13.3709 22 12C22 10.636 21.7356 9.35212 21.2067 8.14823C20.6848 6.93737 19.961 5.87265 19.0355 4.95407C18.1169 4.02853 17.0557 3.3048 15.8518 2.78288C14.6479 2.26096 13.3605 2 11.9896 2C10.6256 2 9.34168 2.26096 8.13779 2.78288C6.93389 3.3048 5.86917 4.02853 4.94363 4.95407C4.02505 5.87265 3.3048 6.93737 2.78288 8.14823C2.26096 9.35212 2 10.636 2 12C2 13.3709 2.26096 14.6618 2.78288 15.8727C3.31176 17.0765 4.03549 18.1378 4.95407 19.0564C5.87265 19.9749 6.93389 20.6952 8.13779 21.2171C9.34168 21.739 10.6291 22 12 22ZM12 20.4864C10.8239 20.4864 9.72095 20.2672 8.69102 19.8288C7.66806 19.3904 6.77035 18.785 5.99791 18.0125C5.22547 17.2331 4.62004 16.3319 4.18163 15.309C3.74321 14.2791 3.52401 13.1761 3.52401 12C3.52401 10.8309 3.74321 9.73486 4.18163 8.7119C4.62004 7.68198 5.22547 6.78079 5.99791 6.00835C6.77035 5.22895 7.66806 4.62004 8.69102 4.18163C9.71399 3.74321 10.8135 3.52401 11.9896 3.52401C13.1726 3.52401 14.2756 3.74321 15.2985 4.18163C16.3215 4.62004 17.2192 5.22895 17.9916 6.00835C18.771 6.78079 19.38 7.68198 19.8184 8.7119C20.2568 9.73486 20.476 10.8309 20.476 12C20.483 13.1761 20.2672 14.2791 19.8288 15.309C19.3904 16.3319 18.7815 17.2331 18.0021 18.0125C17.2296 18.785 16.3285 19.3904 15.2985 19.8288C14.2756 20.2672 13.1761 20.4864 12 20.4864Z" fill="currentColor"></path>
  </symbol>
  <symbol fill="inherit" xmlns="http://www.w3.org/2000/svg" viewBox="0 0 24 24" id="clipboard">
    <path d="M3 19.7894C3 21.6286 3.94922 22.5778 5.7629 22.5778H13.6957C15.5093 22.5778 16.4586 21.6201 16.4586 19.7894V18.2215H17.8993C19.713 18.2215 20.6622 17.2638 20.6622 15.4332V3.7968C20.6622 1.95769 19.713 1 17.8993 1H9.96659C8.1529 1 7.20368 1.95769 7.20368 3.7968V5.35624H5.7629C3.94922 5.35624 3 6.3224 3 8.15304V19.7894ZM11.9328 4.04258C11.5599 4.04258 11.3565 3.78833 11.3565 3.50865V3.31372C11.3565 3.05947 11.543 2.77131 11.9328 2.77131H15.9246C16.323 2.77131 16.5009 3.05947 16.5009 3.31372V3.50865C16.5009 3.78833 16.306 4.04258 15.9246 4.04258H11.9328ZM4.68656 19.6793V8.26322C4.68656 7.4835 5.09337 7.05127 5.91546 7.05127H8.50038V11.6618C8.50038 12.8907 9.10212 13.4839 10.3225 13.4839H14.772V19.6793C14.772 20.459 14.3652 20.8912 13.5431 20.8912H5.90698C5.09337 20.8912 4.68656 20.459 4.68656 19.6793ZM10.4836 12.0008C10.1361 12.0008 9.98354 11.8567 9.98354 11.5007V7.37333L14.5432 12.0008H10.4836Z" fill="currentColor"></path>
  </symbol>
  <symbol fill="inherit" xmlns="http://www.w3.org/2000/svg" viewBox="0 0 24 24" id="close">
    <path d="M5.33129 17.0052C4.89818 17.4381 4.87755 18.2113 5.3416 18.6546C5.78502 19.1186 6.56874 19.0979 7.00185 18.6649L12.0032 13.6649L17.0046 18.6649C17.448 19.1082 18.2111 19.1186 18.6545 18.6546C19.1186 18.2113 19.1083 17.4381 18.6649 16.9948L13.6635 11.9948L18.6649 7.00515C19.1083 6.55155 19.1186 5.78866 18.6545 5.34536C18.2111 4.88144 17.448 4.89175 17.0046 5.33505L12.0032 10.3351L7.00185 5.33505C6.56874 4.90206 5.78502 4.88144 5.3416 5.34536C4.87755 5.78866 4.89818 6.56186 5.33129 6.99485L10.3327 11.9948L5.33129 17.0052Z" fill="currentColor"></path>
  </symbol>
  <symbol fill="inherit" xmlns="http://www.w3.org/2000/svg" viewBox="0 0 24 24" id="compare">
    <path d="M3.30762 5.71973C2.89453 6.11523 2.90332 6.73047 3.30762 7.11719L7.84277 11.5469C8.01855 11.7227 8.29102 11.8369 8.52832 11.8369C9.08203 11.8369 9.45996 11.4502 9.45996 10.9053C9.45996 10.6416 9.37207 10.4307 9.1875 10.2549L7.30664 8.44434L5.9707 7.28418L7.83398 7.35449H19.2422C19.7871 7.35449 20.1826 6.95898 20.1826 6.41406C20.1826 5.86914 19.7871 5.48242 19.2422 5.48242H7.83398L5.9707 5.54395L7.30664 4.39258L9.1875 2.58203C9.37207 2.40625 9.45996 2.18652 9.45996 1.92285C9.45996 1.38672 9.08203 1 8.52832 1C8.29102 1 8.01855 1.11426 7.84277 1.29004L3.30762 5.71973ZM19.875 17.3564C20.2881 16.9609 20.2793 16.3457 19.875 15.959L15.3486 11.5293C15.1641 11.3535 14.8916 11.2393 14.6543 11.2393C14.1094 11.2393 13.7314 11.626 13.7314 12.1709C13.7314 12.4258 13.8193 12.6455 13.9951 12.8213L15.876 14.6318L17.2119 15.7832L15.3486 15.7217H3.94043C3.4043 15.7217 3 16.1172 3 16.6621C3 17.1982 3.4043 17.5938 3.94043 17.5938H15.3486L17.2119 17.5322L15.876 18.6836L13.9951 20.4941C13.8193 20.6699 13.7314 20.8896 13.7314 21.1445C13.7314 21.6895 14.1094 22.0762 14.6543 22.0762C14.8916 22.0762 15.1641 21.9619 15.3486 21.7861L19.875 17.3564Z" fill="currentColor"></path>
  </symbol>
  <symbol fill="inherit" xmlns="http://www.w3.org/2000/svg" viewBox="0 0 24 24" id="config">
    <path d="M11.5424 21.2913C12.0748 21.2913 12.5067 20.8694 12.5067 20.3371V11.5279C13.4609 11.1462 14.144 10.202 14.144 9.11719C14.144 8.03237 13.4609 7.08817 12.5067 6.70647V3.92411C12.5067 3.42187 12.0748 3 11.5424 3C11.0201 3 10.5781 3.42187 10.5781 3.92411V6.70647C9.62388 7.08817 8.94085 8.02232 8.94085 9.11719C8.94085 10.202 9.62388 11.1462 10.5781 11.5279V20.3371C10.5781 20.8694 11.01 21.2913 11.5424 21.2913ZM15.8917 15.0636C15.8917 16.1484 16.5647 17.0826 17.519 17.4743V20.3672C17.519 20.8694 17.9509 21.2913 18.4833 21.2913C19.0257 21.2913 19.4475 20.8694 19.4475 20.3672V17.4743C20.4118 17.0926 21.0848 16.1484 21.0848 15.0636C21.0848 13.9687 20.4118 13.0346 19.4475 12.6429V3.95424C19.4475 3.42187 19.0156 3 18.4833 3C17.9609 3 17.519 3.42187 17.519 3.95424V12.6529C16.5647 13.0346 15.8917 13.9687 15.8917 15.0636ZM4.60156 21.2913C5.13393 21.2913 5.56585 20.8694 5.56585 20.3672V17.4743C6.52009 17.0826 7.19308 16.1484 7.19308 15.0636C7.19308 13.9687 6.52009 13.0346 5.56585 12.6529V3.95424C5.56585 3.42187 5.13393 3 4.60156 3C4.07924 3 3.63728 3.42187 3.63728 3.95424V12.6429C2.68304 13.0346 2 13.9687 2 15.0636C2 16.1484 2.68304 17.0926 3.63728 17.4743V20.3672C3.63728 20.8694 4.0692 21.2913 4.60156 21.2913ZM10.3069 9.11719C10.3069 8.42411 10.8493 7.8817 11.5424 7.8817C12.2455 7.8817 12.7779 8.42411 12.7779 9.11719C12.7779 9.82031 12.2455 10.3527 11.5424 10.3527C10.8493 10.3527 10.3069 9.82031 10.3069 9.11719ZM17.2478 15.0636C17.2478 14.3705 17.8002 13.8181 18.4933 13.8181C19.1964 13.8181 19.7288 14.3705 19.7288 15.0636C19.7288 15.7667 19.1964 16.2991 18.4933 16.2991C17.8002 16.2991 17.2478 15.7667 17.2478 15.0636ZM3.36607 15.0636C3.36607 14.3705 3.90848 13.8181 4.60156 13.8181C5.30469 13.8181 5.83705 14.3705 5.83705 15.0636C5.83705 15.7667 5.30469 16.2991 4.60156 16.2991C3.90848 16.2991 3.36607 15.7667 3.36607 15.0636Z" fill="currentColor"></path>
  </symbol>
  <symbol fill="inherit" xmlns="http://www.w3.org/2000/svg" viewBox="0 0 24 24" id="credit-card">
    <path d="M4.8916 19.2314H19.9121C21.8193 19.2314 22.8037 18.2383 22.8037 16.3574V6.86523C22.8037 4.98438 21.8193 4 19.9121 4H4.8916C2.99316 4 2 4.98438 2 6.86523V16.3574C2 18.2471 2.99316 19.2314 4.8916 19.2314ZM3.74902 7.02344C3.74902 6.17969 4.19727 5.75781 5.00586 5.75781H19.7979C20.6064 5.75781 21.0547 6.17969 21.0547 7.02344V7.65625H3.74902V7.02344ZM5.00586 17.4736C4.19727 17.4736 3.74902 17.0518 3.74902 16.208V9.72168H21.0547V16.208C21.0547 17.0518 20.6064 17.4736 19.7979 17.4736H5.00586ZM6.20117 15.8828H8.35449C8.87305 15.8828 9.22461 15.54 9.22461 15.0479V13.4131C9.22461 12.9209 8.87305 12.5781 8.35449 12.5781H6.20117C5.69141 12.5781 5.33984 12.9209 5.33984 13.4131V15.0479C5.33984 15.54 5.69141 15.8828 6.20117 15.8828Z" fill="currentColor"></path>
  </symbol>
  <symbol fill="inherit" xmlns="http://www.w3.org/2000/svg" viewBox="0 0 24 24" id="custom-attributes">
    <path d="M16.1228 8.20312C17.2076 8.20312 18.1417 7.52009 18.5335 6.57589H21.8382C22.3404 6.57589 22.7623 6.13393 22.7623 5.60156C22.7623 5.0692 22.3404 4.63728 21.8382 4.63728H18.5335C18.1518 3.68304 17.2176 3 16.1228 3C15.0279 3 14.0938 3.68304 13.7121 4.63728H2.95424C2.42188 4.63728 2 5.0692 2 5.60156C2 6.13393 2.42188 6.57589 2.95424 6.57589H13.7121C14.1038 7.52009 15.0379 8.20312 16.1228 8.20312ZM16.1228 6.83705C15.4297 6.83705 14.8873 6.2846 14.8873 5.60156C14.8873 4.89844 15.4297 4.35603 16.1228 4.35603C16.8259 4.35603 17.3583 4.89844 17.3583 5.60156C17.3583 6.2846 16.8259 6.83705 16.1228 6.83705ZM2.92411 10.9051C2.42188 10.9051 2 11.3371 2 11.8694C2 12.3917 2.42188 12.8337 2.92411 12.8337H6.33929C6.73103 13.798 7.66518 14.471 8.76005 14.471C9.84487 14.471 10.779 13.798 11.1708 12.8337H21.808C22.3404 12.8337 22.7623 12.4018 22.7623 11.8694C22.7623 11.3371 22.3404 10.9051 21.808 10.9051H11.1708C10.779 9.95089 9.84487 9.2779 8.76005 9.2779C7.66518 9.2779 6.73103 9.95089 6.33929 10.9051H2.92411ZM8.76005 13.115C8.06696 13.115 7.51451 12.5625 7.51451 11.8694C7.51451 11.1663 8.06696 10.6339 8.76005 10.6339C9.45313 10.6339 9.99554 11.1663 9.99554 11.8694C9.99554 12.5625 9.45313 13.115 8.76005 13.115ZM16.1228 20.7388C17.2176 20.7388 18.1518 20.0558 18.5335 19.1016H21.8382C22.3404 19.1016 22.7623 18.6696 22.7623 18.1373C22.7623 17.5949 22.3404 17.173 21.8382 17.173H18.5335C18.1518 16.2188 17.2176 15.5357 16.1228 15.5357C15.0379 15.5357 14.0938 16.2188 13.7121 17.173H2.95424C2.42188 17.173 2 17.6049 2 18.1373C2 18.6596 2.42188 19.1016 2.95424 19.1016H13.7121C14.0938 20.0558 15.0279 20.7388 16.1228 20.7388ZM16.1228 19.3728C15.4297 19.3728 14.8873 18.8203 14.8873 18.1373C14.8873 17.4342 15.4297 16.9018 16.1228 16.9018C16.8259 16.9018 17.3583 17.4342 17.3583 18.1373C17.3583 18.8203 16.8259 19.3728 16.1228 19.3728Z" fill="currentColor"></path>
  </symbol>
  <symbol fill="inherit" xmlns="http://www.w3.org/2000/svg" viewBox="0 0 24 24" id="dashboard">
    <path fill-rule="evenodd" clip-rule="evenodd" d="M4.752 2C3.23211 2 2 3.23211 2 4.752V8.27396C2 9.79384 3.23211 11.026 4.752 11.026H8.27397C9.79386 11.026 11.026 9.79384 11.026 8.27396V4.752C11.026 3.23211 9.79386 2 8.27397 2H4.752ZM3.664 4.752C3.664 4.15111 4.15112 3.664 4.752 3.664H8.27397C8.87485 3.664 9.36197 4.15111 9.36197 4.752V8.27396C9.36197 8.87484 8.87485 9.36196 8.27397 9.36196H4.752C4.15111 9.36196 3.664 8.87484 3.664 8.27396V4.752ZM15.7949 13.043C14.2751 13.043 13.0429 14.2751 13.0429 15.795V19.3169C13.0429 20.8368 14.2751 22.0689 15.7949 22.0689H19.3169C20.8368 22.0689 22.0689 20.8368 22.0689 19.3169V15.795C22.0689 14.2751 20.8368 13.043 19.3169 13.043H15.7949ZM14.7069 15.795C14.7069 15.1941 15.1941 14.707 15.7949 14.707H19.3169C19.9178 14.707 20.4049 15.1941 20.4049 15.795V19.3169C20.4049 19.9178 19.9178 20.4049 19.3169 20.4049H15.7949C15.1941 20.4049 14.7069 19.9178 14.7069 19.3169V15.795ZM2 15.795C2 14.2751 3.23211 13.043 4.752 13.043H8.27397C9.79386 13.043 11.026 14.2751 11.026 15.795V19.3169C11.026 20.8368 9.79386 22.0689 8.27397 22.0689H4.752C3.23211 22.0689 2 20.8368 2 19.3169V15.795ZM4.752 14.707C4.15112 14.707 3.664 15.1941 3.664 15.795V19.3169C3.664 19.9178 4.15111 20.4049 4.752 20.4049H8.27397C8.87485 20.4049 9.36197 19.9178 9.36197 19.3169V15.795C9.36197 15.1941 8.87485 14.707 8.27397 14.707H4.752ZM15.7949 2C14.2751 2 13.0429 3.23211 13.0429 4.752V8.27396C13.0429 9.79384 14.2751 11.026 15.7949 11.026H19.3169C20.8368 11.026 22.0689 9.79384 22.0689 8.27396V4.752C22.0689 3.23211 20.8368 2 19.3169 2H15.7949ZM14.7069 4.752C14.7069 4.15111 15.1941 3.664 15.7949 3.664H19.3169C19.9178 3.664 20.4049 4.15111 20.4049 4.752V8.27396C20.4049 8.87484 19.9178 9.36196 19.3169 9.36196H15.7949C15.1941 9.36196 14.7069 8.87484 14.7069 8.27396V4.752Z" fill="currentColor"></path>
  </symbol>
  <symbol fill="inherit" xmlns="http://www.w3.org/2000/svg" viewBox="0 0 24 24" id="document">
    <path d="M6.27455 22.7667H16.9821C19.1417 22.7667 20.2567 21.6317 20.2567 19.4621V10.3415C20.2567 8.93527 20.0759 8.29241 19.202 7.39844L13.9487 2.06473C13.0949 1.20089 12.3917 1 11.1261 1H6.27455C4.125 1 3 2.13504 3 4.31473V19.4621C3 21.6317 4.125 22.7667 6.27455 22.7667ZM6.44531 20.7578C5.48103 20.7578 4.99888 20.2556 4.99888 19.3315V4.43527C4.99888 3.52121 5.48103 3.00893 6.45536 3.00893H10.7143V8.47321C10.7143 9.92969 11.4275 10.6328 12.8739 10.6328H18.2578V19.3315C18.2578 20.2556 17.7757 20.7578 16.8013 20.7578H6.44531ZM13.0647 8.875C12.6429 8.875 12.4621 8.6942 12.4621 8.28237V3.27009L17.9866 8.875H13.0647ZM15.1641 13.2645H7.91183C7.53013 13.2645 7.25893 13.5357 7.25893 13.8873C7.25893 14.2489 7.53013 14.5301 7.91183 14.5301H15.1641C15.5257 14.5301 15.7969 14.2489 15.7969 13.8873C15.7969 13.5357 15.5257 13.2645 15.1641 13.2645ZM15.1641 16.6194H7.91183C7.53013 16.6194 7.25893 16.9007 7.25893 17.2623C7.25893 17.6138 7.53013 17.885 7.91183 17.885H15.1641C15.5257 17.885 15.7969 17.6138 15.7969 17.2623C15.7969 16.9007 15.5257 16.6194 15.1641 16.6194Z" fill="currentColor"></path>
  </symbol>
  <symbol fill="inherit" xmlns="http://www.w3.org/2000/svg" viewBox="0 0 24 24" id="documents">
    <path d="M6.25446 22.7567H19.3225C19.8549 22.7567 20.2667 22.3449 20.2667 21.8125C20.2667 21.3605 19.9554 21.029 19.5737 20.8482C18.3382 20.2958 18.0971 18.5882 19.3527 17.3929C19.865 16.9408 20.2567 16.4386 20.2567 15.4241V4.30469C20.2567 2.13504 19.1417 1 16.9821 1H6.27455C4.125 1 3 2.125 3 4.30469V19.4821C3 21.6317 4.125 22.7567 6.25446 22.7567ZM16.8013 2.99888C17.7757 2.99888 18.2578 3.51116 18.2578 4.43527V15.1127C18.2578 15.6049 17.9766 15.8761 17.4743 15.8761H7.61049V2.99888H16.8013ZM4.99888 16.2277V4.43527C4.99888 3.60156 5.39062 3.10938 6.18415 3.01897V15.8862C5.73214 15.9263 5.3404 16.0469 4.99888 16.2277ZM9.40848 7.59933H16.4297C16.8214 7.59933 17.1429 7.2779 17.1429 6.88616C17.1429 6.49442 16.8214 6.17299 16.4297 6.17299H9.40848C9.01674 6.17299 8.69531 6.49442 8.69531 6.88616C8.69531 7.2779 9.01674 7.59933 9.40848 7.59933ZM9.40848 10.4018H14.7321C15.1239 10.4018 15.4453 10.0804 15.4453 9.68862C15.4453 9.29688 15.1239 8.97545 14.7321 8.97545H9.40848C9.01674 8.97545 8.69531 9.29688 8.69531 9.68862C8.69531 10.0804 9.01674 10.4018 9.40848 10.4018ZM6.52567 20.8683C5.45089 20.8683 4.88839 20.2556 4.88839 19.3114C4.88839 18.3973 5.53125 17.7645 6.59598 17.7645H16.6205C16.731 17.7645 16.8415 17.7545 16.942 17.7344C16.4397 18.7991 16.5 19.9542 17.0424 20.8683H6.52567Z" fill="currentColor"></path>
  </symbol>
  <symbol fill="inherit" xmlns="http://www.w3.org/2000/svg" viewBox="0 0 24 24" id="dots">
    <path fill-rule="evenodd" clip-rule="evenodd" d="M14 12.4C14 13.7255 12.9254 14.8 11.6 14.8C10.2745 14.8 9.19995 13.7255 9.19995 12.4C9.19995 11.0745 10.2745 10 11.6 10C12.9254 10 14 11.0745 14 12.4ZM6.8 12.4C6.8 13.7255 5.72548 14.8 4.4 14.8C3.07452 14.8 2 13.7255 2 12.4C2 11.0745 3.07452 10 4.4 10C5.72548 10 6.8 11.0745 6.8 12.4ZM18.8 14.8C20.1254 14.8 21.2 13.7255 21.2 12.4C21.2 11.0745 20.1254 10 18.8 10C17.4745 10 16.4 11.0745 16.4 12.4C16.4 13.7255 17.4745 14.8 18.8 14.8Z" fill="currentColor"></path>
  </symbol>
  <symbol fill="inherit" xmlns="http://www.w3.org/2000/svg" viewBox="0 0 24 24" id="download">
    <path d="M19.5893 21.1797C19.5893 20.5569 19.1373 20.0848 18.5145 20.0848H11.8951C12.1663 20.0547 12.4275 19.9342 12.6283 19.7232L19.2377 13.1038C19.4788 12.8627 19.5893 12.5915 19.5893 12.2902C19.5893 11.6674 19.1272 11.2054 18.5145 11.2054C18.2031 11.2054 17.9219 11.3359 17.721 11.5368L15.4308 13.7969L12.8292 16.7098L12.9096 14.5402V2.13504C12.9096 1.46205 12.4576 1 11.7946 1C11.1317 1 10.6797 1.46205 10.6797 2.13504V14.5402L10.76 16.6998L8.15848 13.7969L5.8683 11.5368C5.66741 11.3359 5.38616 11.2054 5.06473 11.2054C4.45201 11.2054 4 11.6674 4 12.2902C4 12.5915 4.11049 12.8627 4.35156 13.1038L10.9609 19.7232C11.1618 19.9342 11.423 20.0547 11.6942 20.0848H5.09487C4.46205 20.0848 4 20.5569 4 21.1797C4 21.8025 4.46205 22.2746 5.09487 22.2746H18.5145C19.1373 22.2746 19.5893 21.8025 19.5893 21.1797Z" fill="currentColor"></path>
  </symbol>
  <symbol fill="inherit" xmlns="http://www.w3.org/2000/svg" viewBox="0 0 24 24" id="edit">
    <path d="M19.2605 7.4647L20.3554 6.37988C20.8978 5.83747 20.9179 5.24483 20.4257 4.7426L20.0339 4.34081C19.5418 3.84863 18.929 3.89885 18.3967 4.43122L17.3018 5.50599L19.2605 7.4647ZM6.95582 19.7493L18.2962 8.40889L16.3476 6.47028L5.00716 17.7906L4.02279 20.1611C3.9123 20.4625 4.22368 20.7939 4.52502 20.6834L6.95582 19.7493Z" fill="currentColor"></path>
  </symbol>
  <symbol fill="inherit" xmlns="http://www.w3.org/2000/svg" viewBox="0 0 24 24" id="email">
    <path d="M4.89194 19.4442H19.0703C20.7668 19.4442 21.7513 18.4597 21.7513 16.5786V6.86557C21.7513 4.98449 20.758 4 18.8594 4H4.68098C2.98449 4 2 4.9757 2 6.86557V16.5786C2 18.4597 2.99328 19.4442 4.89194 19.4442ZM10.8868 12.0253L4.48759 5.69649C4.61066 5.67012 4.7513 5.65254 4.90073 5.65254H18.8506C19.0088 5.65254 19.1495 5.67012 19.2813 5.70528L12.8909 12.0253C12.5217 12.3857 12.2141 12.544 11.8888 12.544C11.5636 12.544 11.256 12.377 10.8868 12.0253ZM3.64375 6.98863L8.42555 11.6913L3.64375 16.4204V6.98863ZM15.3521 11.6913L20.1076 7.015V16.4028L15.3521 11.6913ZM4.90073 17.7829C4.74251 17.7829 4.59308 17.7653 4.46122 17.7389L9.49794 12.7461L9.97261 13.2208C10.6143 13.8449 11.2296 14.1086 11.8888 14.1086C12.5393 14.1086 13.1634 13.8449 13.7963 13.2208L14.2798 12.7461L19.3077 17.7301C19.167 17.7653 19.0176 17.7829 18.8506 17.7829H4.90073Z" fill="currentColor"></path>
  </symbol>
  <symbol fill="inherit" xmlns="http://www.w3.org/2000/svg" viewBox="0 0 24 24" id="exclamation">
    <path d="M11.9952 22C17.4761 22 22 17.4739 22 12C22 6.52611 17.4664 2 11.9855 2C6.51426 2 2 6.52611 2 12C2 17.4739 6.52392 22 11.9952 22ZM11.9952 20.0077C7.55824 20.0077 4.01063 16.4391 4.01063 12C4.01063 7.56093 7.55824 4.00193 11.9855 4.00193C16.4224 4.00193 19.9894 7.56093 19.999 12C20.0087 16.4391 16.4321 20.0077 11.9952 20.0077ZM11.9855 13.6054C12.5172 13.6054 12.8265 13.3056 12.8362 12.7447L12.9811 8.09284C13.0005 7.52224 12.5752 7.10638 11.9758 7.10638C11.3765 7.10638 10.9609 7.51257 10.9802 8.08317L11.1155 12.7447C11.1348 13.2959 11.4442 13.6054 11.9855 13.6054ZM11.9855 16.8162C12.6138 16.8162 13.1261 16.3617 13.1261 15.7427C13.1261 15.1335 12.6235 14.6789 11.9855 14.6789C11.3572 14.6789 10.8449 15.1335 10.8449 15.7427C10.8449 16.352 11.3668 16.8162 11.9855 16.8162Z" fill="currentColor"></path>
  </symbol>
  <symbol fill="inherit" xmlns="http://www.w3.org/2000/svg" viewBox="0 0 24 24" id="exit">
    <path d="M4.68408 20.8801H13.4796C15.247 20.8801 16.1637 19.9552 16.1637 18.1713V14.4548H14.545V18.0722C14.545 18.8402 14.1403 19.2614 13.3392 19.2614H4.81622C4.01513 19.2614 3.61871 18.8402 3.61871 18.0722V5.80796C3.61871 5.0399 4.01513 4.61871 4.81622 4.61871H13.3392C14.1403 4.61871 14.545 5.0399 14.545 5.80796V9.43354H16.1637V5.70886C16.1637 3.93324 15.247 3 13.4796 3H4.68408C2.91672 3 2 3.93324 2 5.70886V18.1713C2 19.9552 2.91672 20.8801 4.68408 20.8801ZM10.0027 12.6957H18.3275L19.5498 12.6379L18.9469 13.15L17.7163 14.3062C17.5677 14.4383 17.4851 14.6283 17.4851 14.8182C17.4851 15.1899 17.7659 15.5037 18.1458 15.5037C18.344 15.5037 18.4927 15.4211 18.6331 15.2807L21.3089 12.514C21.4988 12.3158 21.5649 12.1341 21.5649 11.9359C21.5649 11.7377 21.4988 11.556 21.3089 11.3578L18.6331 8.58289C18.4927 8.4425 18.344 8.36817 18.1458 8.36817C17.7659 8.36817 17.4851 8.66548 17.4851 9.04538C17.4851 9.22708 17.5677 9.42528 17.7163 9.55742L18.9469 10.7219L19.558 11.2339L18.3275 11.1679H10.0027C9.59802 11.1679 9.25116 11.5147 9.25116 11.9359C9.25116 12.3571 9.59802 12.6957 10.0027 12.6957Z" fill="currentColor"></path>
  </symbol>
  <symbol fill="inherit" xmlns="http://www.w3.org/2000/svg" viewBox="0 0 24 24" id="filters">
    <path d="M3.07363 7.98459H19.9426C20.2571 7.98459 20.512 7.89241 20.7072 7.70805C20.9024 7.52369 21 7.2851 21 6.99229C21 6.68864 20.9024 6.45006 20.7072 6.27654C20.512 6.09218 20.2571 6 19.9426 6H3.07363C2.74829 6 2.48801 6.09218 2.29281 6.27654C2.0976 6.45006 2 6.68864 2 6.99229C2 7.2851 2.0976 7.52369 2.29281 7.70805C2.48801 7.89241 2.74829 7.98459 3.07363 7.98459ZM5.33476 13.0599H17.6652C17.9797 13.0599 18.2346 12.9732 18.4298 12.7997C18.6358 12.6153 18.7389 12.3713 18.7389 12.0676C18.7389 11.7748 18.6358 11.5417 18.4298 11.3682C18.2346 11.1838 17.9797 11.0916 17.6652 11.0916H5.33476C5.03111 11.0916 4.77626 11.1838 4.57021 11.3682C4.36416 11.5417 4.26113 11.7748 4.26113 12.0676C4.26113 12.3713 4.36416 12.6153 4.57021 12.7997C4.77626 12.9732 5.03111 13.0599 5.33476 13.0599ZM7.69349 18.1678H15.3065C15.6102 18.1678 15.8596 18.0756 16.0548 17.8913C16.2608 17.7069 16.3639 17.4683 16.3639 17.1755C16.3639 16.8719 16.2608 16.6333 16.0548 16.4598C15.8596 16.2862 15.6102 16.1995 15.3065 16.1995H7.69349C7.38984 16.1995 7.14041 16.2862 6.94521 16.4598C6.75 16.6333 6.6524 16.8719 6.6524 17.1755C6.6524 17.4683 6.75 17.7069 6.94521 17.8913C7.14041 18.0756 7.38984 18.1678 7.69349 18.1678Z" fill="currentColor"></path>
  </symbol>
  <symbol fill="inherit" xmlns="http://www.w3.org/2000/svg" viewBox="0 0 24 24" id="folder">
    <path d="M6.27455 22.7667H16.9821C19.1417 22.7667 20.2567 21.6317 20.2567 19.4621V10.3415C20.2567 8.93527 20.0759 8.29241 19.202 7.39844L13.9487 2.06473C13.0949 1.20089 12.3917 1 11.1261 1H6.27455C4.125 1 3 2.13504 3 4.31473V19.4621C3 21.6317 4.125 22.7667 6.27455 22.7667ZM6.44531 20.7578C5.48103 20.7578 4.99888 20.2556 4.99888 19.3315V4.43527C4.99888 3.52121 5.48103 3.00893 6.45536 3.00893H10.7143V8.47321C10.7143 9.92969 11.4275 10.6328 12.8739 10.6328H18.2578V19.3315C18.2578 20.2556 17.7757 20.7578 16.8013 20.7578H6.44531ZM13.0647 8.875C12.6429 8.875 12.4621 8.6942 12.4621 8.28237V3.27009L17.9866 8.875H13.0647ZM12.5123 18.6987V15.6652L12.4319 14.1083L13.2054 14.9219L13.9587 15.6953C14.1094 15.856 14.3404 15.9565 14.5513 15.9565C15.0134 15.9565 15.3549 15.635 15.3549 15.1931C15.3549 14.9319 15.2545 14.7511 15.0636 14.5804L12.3013 12.0491C12.0703 11.8382 11.8795 11.7377 11.6283 11.7377C11.3772 11.7377 11.1864 11.8382 10.9554 12.0491L8.19308 14.5804C8.00223 14.7511 7.90179 14.9319 7.90179 15.1931C7.90179 15.635 8.2433 15.9565 8.70536 15.9565C8.9163 15.9565 9.14732 15.856 9.29799 15.6953L10.0513 14.9219L10.8248 14.1083L10.7444 15.6652V18.6987C10.7444 19.1808 11.1462 19.5525 11.6283 19.5525C12.1105 19.5525 12.5123 19.1808 12.5123 18.6987Z" fill="currentColor"></path>
  </symbol>
  <symbol fill="inherit" xmlns="http://www.w3.org/2000/svg" viewBox="0 0 24 24" id="hamburger">
    <path d="M3.20254 5.40508H20.2135C20.8899 5.40508 21.4286 4.87897 21.4286 4.20254C21.4286 3.52611 20.9025 3 20.2135 3H3.20254C2.53864 3 2 3.52611 2 4.20254C2 4.87897 2.52611 5.40508 3.20254 5.40508ZM3.20254 13.1089H20.2135C20.8899 13.1089 21.4286 12.5828 21.4286 11.9063C21.4286 11.2299 20.9025 10.7038 20.2135 10.7038H3.20254C2.53864 10.7038 2 11.2299 2 11.9063C2 12.5828 2.52611 13.1089 3.20254 13.1089ZM3.20254 20.8127H20.2135C20.8899 20.8127 21.4286 20.2865 21.4286 19.6101C21.4286 18.9337 20.9025 18.4076 20.2135 18.4076H3.20254C2.53864 18.4076 2 18.9337 2 19.6101C2 20.2865 2.52611 20.8127 3.20254 20.8127Z" fill="currentColor"></path>
  </symbol>
  <symbol fill="inherit" xmlns="http://www.w3.org/2000/svg" viewBox="0 0 24 24" id="heart">
    <path d="M2 9.2779C2 13.567 5.60603 17.8058 11.2109 21.4219C11.5223 21.6228 11.904 21.8237 12.1652 21.8237C12.4263 21.8237 12.808 21.6228 13.1194 21.4219C18.7344 17.8058 22.3304 13.567 22.3304 9.2779C22.3304 5.57143 19.769 3 16.4844 3C14.5658 3 13.0692 3.87388 12.1652 5.19978C11.2812 3.88393 9.77455 3 7.85603 3C4.56138 3 2 5.57143 2 9.2779ZM4.0692 9.26786C4.0692 6.73661 5.73661 5.01897 7.97656 5.01897C9.7846 5.01897 10.7991 6.11384 11.4319 7.06808C11.7132 7.47991 11.904 7.61049 12.1652 7.61049C12.4364 7.61049 12.6071 7.46987 12.8984 7.06808C13.5815 6.13393 14.5558 5.01897 16.3538 5.01897C18.6038 5.01897 20.2712 6.73661 20.2712 9.26786C20.2712 12.8036 16.5949 16.721 12.356 19.5335C12.2656 19.5937 12.2054 19.6339 12.1652 19.6339C12.125 19.6339 12.0647 19.5937 11.9844 19.5335C7.74554 16.721 4.0692 12.8036 4.0692 9.26786Z" fill="currentColor"></path>
  </symbol>
  <symbol fill="inherit" xmlns="http://www.w3.org/2000/svg" viewBox="0 0 24 24" id="help">
    <path d="M11.9952 22C17.4761 22 22 17.4739 22 12C22 6.52611 17.4664 2 11.9855 2C6.51426 2 2 6.52611 2 12C2 17.4739 6.52392 22 11.9952 22ZM11.9952 20.0077C7.55824 20.0077 4.01063 16.4391 4.01063 12C4.01063 7.56093 7.55824 4.00193 11.9855 4.00193C16.4224 4.00193 19.9894 7.56093 19.999 12C20.0087 16.4391 16.4321 20.0077 11.9952 20.0077ZM11.7825 13.9246C12.3142 13.9246 12.6525 13.6151 12.6815 13.2186C12.6815 13.1896 12.6815 13.1412 12.6912 13.1025C12.7202 12.6093 13.0585 12.2805 13.6868 11.8646C14.6438 11.2456 15.2528 10.6847 15.2528 9.57253C15.2528 7.96712 13.8028 7.03868 12.0822 7.03868C10.4292 7.03868 9.29821 7.79304 8.99855 8.70213C8.94055 8.86654 8.90188 9.03095 8.90188 9.20503C8.90188 9.67892 9.26921 9.96905 9.71387 9.96905C10.2842 9.96905 10.4099 9.67892 10.7095 9.3501C11.0188 8.86654 11.4248 8.58607 11.9952 8.58607C12.7588 8.58607 13.2615 9.02128 13.2615 9.66925C13.2615 10.2592 12.8555 10.5783 12.0338 11.1393C11.3475 11.6228 10.8449 12.1161 10.8449 12.9865V13.0928C10.8449 13.6441 11.1832 13.9246 11.7825 13.9246ZM11.7632 16.8936C12.3818 16.8936 12.8942 16.4487 12.8942 15.8298C12.8942 15.2205 12.3915 14.766 11.7632 14.766C11.1348 14.766 10.6225 15.2205 10.6225 15.8298C10.6225 16.4391 11.1348 16.8936 11.7632 16.8936Z" fill="currentColor"></path>
  </symbol>
  <symbol fill="inherit" xmlns="http://www.w3.org/2000/svg" viewBox="0 0 24 24" id="home">
    <path d="M1 11.2086C1 11.6823 1.36443 12.0923 1.94751 12.0923C2.22994 12.0923 2.48503 11.9374 2.7128 11.7552L3.75141 10.8806V19.3535C3.75141 20.7019 4.56226 21.5036 5.95618 21.5036H18.2829C19.6677 21.5036 20.4876 20.7019 20.4876 19.3535V10.835L21.5809 11.7552C21.7996 11.9374 22.0547 12.0923 22.3371 12.0923C22.8746 12.0923 23.2846 11.7552 23.2846 11.2268C23.2846 10.917 23.1662 10.671 22.9293 10.4706L20.4876 8.41161V4.53048C20.4876 4.1205 20.2234 3.8654 19.8135 3.8654H18.5562C18.1553 3.8654 17.882 4.1205 17.882 4.53048V6.22506L13.4451 2.49881C12.6525 1.83373 11.6503 1.83373 10.8577 2.49881L1.36443 10.4706C1.11844 10.671 1 10.9444 1 11.2086ZM14.7662 13.7231C14.7662 13.2949 14.4928 13.0216 14.0646 13.0216H10.2382C9.80998 13.0216 9.52755 13.2949 9.52755 13.7231V19.6906H6.43905C5.87419 19.6906 5.56443 19.3717 5.56443 18.7977V9.35911L11.7505 4.16605C12.0056 3.9474 12.2972 3.9474 12.5523 4.16605L18.6655 9.30445V18.7977C18.6655 19.3717 18.3558 19.6906 17.7909 19.6906H14.7662V13.7231Z" fill="currentColor"></path>
  </symbol>
  <symbol fill="inherit" xmlns="http://www.w3.org/2000/svg" viewBox="0 0 24 24" id="invisible">
    <path d="M17.9739 19.3735C18.225 19.6167 18.6095 19.6324 18.8606 19.3735C19.1196 19.1067 19.1039 18.73 18.8606 18.4867L5.55148 5.18541C5.30821 4.94214 4.90015 4.93429 4.65688 5.18541C4.42146 5.42083 4.42146 5.82889 4.65688 6.06431L17.9739 19.3735ZM11.7901 5.63271C10.4169 5.63271 9.17697 5.86813 8.0234 6.25265L9.29468 7.52392C10.0873 7.3042 10.9034 7.17079 11.7901 7.17079C16.7811 7.17079 20.744 11.5104 20.744 12.4285C20.744 13.0485 19.4884 14.6415 17.4873 15.8971L18.6644 17.082C21.1285 15.4655 22.5646 13.3545 22.5646 12.4285C22.5646 10.8198 18.2328 5.63271 11.7901 5.63271ZM11.7901 19.2322C13.2341 19.2322 14.5603 18.9811 15.7609 18.5652L14.4896 17.2939C13.6421 17.545 12.7475 17.6941 11.7901 17.6941C6.78352 17.6941 2.82059 13.5272 2.82059 12.4285C2.82059 11.9028 4.1468 10.2156 6.27344 8.89722L5.07279 7.69657C2.51454 9.32882 1 11.4947 1 12.4285C1 14.0372 5.42592 19.2322 11.7901 19.2322ZM15.6903 13.9274C15.8943 13.4722 16.0042 12.9543 16.0042 12.4285C16.0042 10.0822 14.1287 8.22234 11.7901 8.22234C11.2487 8.22234 10.7464 8.3322 10.2834 8.52054L15.6903 13.9274ZM11.7901 16.6426C12.3865 16.6426 12.9516 16.5013 13.4616 16.2581L7.94493 10.7413C7.69381 11.2514 7.56041 11.8243 7.56041 12.4364C7.56825 14.72 9.43593 16.6426 11.7901 16.6426Z" fill="currentColor"></path>
  </symbol>
  <symbol fill="inherit" xmlns="http://www.w3.org/2000/svg" viewBox="0 0 24 24" id="link">
    <path d="M5.50913 14.3619H6.06235C6.00172 13.8675 5.96383 13.3339 6.03961 12.8709H5.60007C3.79642 12.8709 2.51567 11.5604 2.51567 9.67704C2.51567 7.80936 3.79642 6.48315 5.60007 6.48315H12.2918C14.0954 6.48315 15.3762 7.80936 15.3762 9.67704C15.3762 11.5604 14.0954 12.8709 12.2918 12.8709H9.97279C9.60903 13.122 9.63934 14.0637 10.1092 14.3619H12.3827C15.0124 14.3619 16.8918 12.4393 16.8918 9.67704C16.8918 6.92261 15.0124 5 12.3827 5H5.50913C2.87944 5 1 6.92261 1 9.67704C1 12.4393 2.87944 14.3619 5.50913 14.3619ZM11.6173 18.0737H18.4833C21.1206 18.0737 23 16.1511 23 13.3967C23 10.6344 21.1206 8.71181 18.4833 8.71181H17.9377C17.9983 9.20619 18.0362 9.73982 17.9604 10.2028H18.3999C20.2036 10.2028 21.4843 11.5133 21.4843 13.3967C21.4843 15.2644 20.2036 16.5906 18.3999 16.5906H11.7082C9.90458 16.5906 8.62384 15.2644 8.62384 13.3967C8.62384 11.5133 9.90458 10.2028 11.7082 10.2028H14.0272C14.391 9.95169 14.3607 9.01001 13.8908 8.71181H11.6173C8.98002 8.71181 7.10816 10.6344 7.10816 13.3967C7.10816 16.1511 8.98002 18.0737 11.6173 18.0737Z" fill="currentColor"></path>
  </symbol>
  <symbol fill="inherit" xmlns="http://www.w3.org/2000/svg" viewBox="0 0 24 24" id="location">
    <path d="M2.9854 9.86729C1.44857 10.5704 1.77 12.72 3.52781 12.73L11.001 12.7601C11.1517 12.7601 11.2019 12.8204 11.2019 12.9711L11.222 20.3941C11.222 22.1218 13.3816 22.5135 14.145 20.8461L21.7488 4.39296C22.5624 2.63515 21.1963 1.46997 19.5189 2.24341L2.9854 9.86729ZM5.37603 10.922C5.29567 10.922 5.26554 10.8316 5.35594 10.7814L19.5189 4.30256C19.6394 4.25234 19.7097 4.32265 19.6495 4.44319L13.1606 18.566C13.1204 18.6664 13.02 18.6463 13.02 18.5559L13.0602 11.7959C13.0602 11.1831 12.7689 10.8818 12.1361 10.8818L5.37603 10.922Z" fill="currentColor"></path>
  </symbol>
  <symbol fill="inherit" xmlns="http://www.w3.org/2000/svg" viewBox="0 0 24 24" id="lock">
    <path d="M7.32031 22.029H16.7623C18.3192 22.029 19.0826 21.2556 19.0826 19.5681V12.4263C19.0826 10.9297 18.4799 10.1562 17.2545 9.99554V7.65513C17.2545 3.83817 14.7132 2 12.0413 2C9.36942 2 6.82812 3.83817 6.82812 7.65513V9.99554C5.60268 10.1562 5 10.9297 5 12.4263V19.5681C5 21.2556 5.76339 22.029 7.32031 22.029ZM8.7567 7.47433C8.7567 5.13393 10.2433 3.84821 12.0413 3.84821C13.8292 3.84821 15.3259 5.13393 15.3259 7.47433V9.9654H8.7567V7.47433ZM7.64174 20.2109C7.19978 20.2109 6.97879 20 6.97879 19.4777V12.5167C6.97879 11.9844 7.19978 11.7935 7.64174 11.7935H16.4509C16.8929 11.7935 17.1038 11.9844 17.1038 12.5167V19.4777C17.1038 20 16.8929 20.2109 16.4509 20.2109H7.64174Z" fill="currentColor"></path>
  </symbol>
  <symbol fill="inherit" xmlns="http://www.w3.org/2000/svg" viewBox="0 0 24 24" id="map-1">
    <path d="M12.2154 19.5826C12.6574 19.5826 13.2701 17.9051 13.2701 15.1931V8.86495C14.9676 8.4029 16.2031 6.84598 16.2031 5.00781C16.2031 2.79799 14.4353 1 12.2154 1C10.0056 1 8.23772 2.79799 8.23772 5.00781C8.23772 6.83594 9.46317 8.39286 11.1607 8.85491V15.1931C11.1607 17.8951 11.7835 19.5826 12.2154 19.5826ZM11.0904 5.22879C10.3672 5.22879 9.72433 4.59598 9.72433 3.85268C9.72433 3.11942 10.3672 2.49665 11.0904 2.49665C11.8437 2.49665 12.4565 3.11942 12.4565 3.85268C12.4565 4.59598 11.8437 5.22879 11.0904 5.22879ZM12.2154 23.5402C18.6038 23.5402 22.4308 21.3906 22.4308 18.9196C22.4308 16.2176 18.2924 14.4699 14.9877 14.3292V16.1272C17.2377 16.2277 20.1406 17.2623 20.1406 18.7187C20.1406 20.4464 16.8058 21.6417 12.2154 21.6417C7.625 21.6417 4.30022 20.4565 4.30022 18.7187C4.30022 17.2623 7.20312 16.2277 9.44308 16.1272V14.3292C6.13839 14.4699 2 16.2176 2 18.9196C2 21.3906 5.82701 23.5402 12.2154 23.5402Z" fill="currentColor"></path>
  </symbol>
  <symbol fill="inherit" xmlns="http://www.w3.org/2000/svg" viewBox="0 0 24 24" id="map">
    <path d="M2.36607 21.6875C2.69754 21.6875 2.99888 21.577 3.40067 21.346L8.28237 18.7143L13.606 21.6975C14.0279 21.9286 14.4699 22.0391 14.9018 22.0391C15.3237 22.0391 15.7355 21.9386 16.1071 21.7176L21.0993 18.9051C21.7924 18.5134 22.0938 17.9609 22.0938 17.1975V3.70759C22.0938 2.85379 21.5815 2.34152 20.7377 2.34152C20.4062 2.34152 20.1049 2.4721 19.6931 2.69308L14.6306 5.50558L9.36719 2.33147C8.98549 2.11049 8.57366 2 8.15179 2C7.73996 2 7.32813 2.10045 6.96652 2.31138L2.00446 5.13393C1.31138 5.52567 1 6.05804 1 6.82143V20.3315C1 21.1853 1.51228 21.6875 2.36607 21.6875ZM7.37835 16.9163L3.25 19.1864C3.17969 19.2165 3.11942 19.2467 3.0692 19.2467C2.94866 19.2467 2.88839 19.1562 2.88839 19.0156V7.34375C2.88839 7.0625 2.98884 6.8817 3.25 6.73103L7.04688 4.53125C7.15737 4.46094 7.25781 4.41071 7.37835 4.35045V16.9163ZM9.28683 16.9665V4.59152C9.38728 4.64174 9.49777 4.70201 9.59822 4.76228L13.8069 7.30357V19.4978C13.6763 19.4275 13.5458 19.3571 13.4051 19.2768L9.28683 16.9665ZM15.7254 19.6384V7.11272L19.8538 4.86272C19.904 4.83259 19.9643 4.8125 20.0145 4.8125C20.135 4.8125 20.2154 4.9029 20.2154 5.03348V16.6451C20.2154 16.9364 20.115 17.1172 19.8438 17.2679L16.1875 19.3873C16.0368 19.4777 15.8761 19.5681 15.7254 19.6384Z" fill="currentColor"></path>
  </symbol>
  <symbol fill="inherit" xmlns="http://www.w3.org/2000/svg" viewBox="0 0 24 24" id="megaphone">
    <path d="M1 11.8146C1 14.0203 2.08953 15.3313 4.12687 15.6147L6.13763 20.0437C6.65139 21.1864 7.36889 21.7444 8.4407 21.7444C9.8314 21.7444 10.8324 20.7435 10.5312 19.1756L9.91112 15.9336C12.4179 16.4208 14.9425 17.3332 17.2721 18.6707C17.591 19.6274 18.4502 20.2474 19.5752 20.2474C21.0013 20.2474 22.0023 19.2465 22.0023 17.8115V4.43594C22.0023 3.00095 21.0013 2 19.5752 2C18.4236 2 17.5467 2.65549 17.2455 3.65644C14.5084 5.27745 11.0095 6.34041 8.21925 6.64158H4.98609C2.39956 6.64158 1 7.99685 1 10.4948V11.8146ZM18.8222 17.8115V4.43594C18.8222 3.99304 19.1234 3.68302 19.5752 3.68302C20.0181 3.68302 20.3192 3.99304 20.3192 4.43594V17.8115C20.3192 18.2544 20.0181 18.5644 19.5752 18.5644C19.1234 18.5644 18.8222 18.2544 18.8222 17.8115ZM8.49385 14.0291V8.2803C11.603 7.90827 14.5527 7.02247 17.1392 5.56976V16.7485C14.4996 15.2604 11.5764 14.4012 8.49385 14.0291ZM4.98609 13.9848C3.33851 13.9848 2.68302 13.3648 2.68302 11.8146V10.4948C2.68302 8.94465 3.33851 8.32459 4.98609 8.32459H6.81083V13.9848H4.98609ZM7.71435 19.5742L5.87189 15.6679H8.1661C8.19268 15.6679 8.22811 15.6767 8.26354 15.6767L8.98989 19.3882C9.08733 19.8577 8.82159 20.1588 8.42298 20.1588C8.06867 20.1588 7.90036 19.9728 7.71435 19.5742Z" fill="currentColor"></path>
  </symbol>
  <symbol fill="inherit" xmlns="http://www.w3.org/2000/svg" viewBox="0 0 24 24" id="minus-circle">
    <path d="M11.9952 22C17.4761 22 22 17.4739 22 12C22 6.52611 17.4664 2 11.9855 2C6.51426 2 2 6.52611 2 12C2 17.4739 6.52392 22 11.9952 22ZM11.9952 20.0077C7.55824 20.0077 4.01063 16.4391 4.01063 12C4.01063 7.56093 7.55824 4.00193 11.9855 4.00193C16.4224 4.00193 19.9894 7.56093 19.999 12C20.0087 16.4391 16.4321 20.0077 11.9952 20.0077ZM8.33156 12.9284H15.6491C16.2291 12.9284 16.6448 12.5899 16.6448 12.029C16.6448 11.4584 16.2484 11.1103 15.6491 11.1103H8.33156C7.7419 11.1103 7.33591 11.4584 7.33591 12.029C7.33591 12.5899 7.75157 12.9284 8.33156 12.9284Z" fill="currentColor"></path>
  </symbol>
  <symbol fill="inherit" xmlns="http://www.w3.org/2000/svg" viewBox="0 0 24 24" id="minus">
    <path d="M5.08005 13.2902H18.92C19.503 13.2902 20 12.7779 20 12.1451C20 11.5223 19.503 11 18.92 11H5.08005C4.51613 11 4 11.5223 4 12.1451C4 12.7779 4.51613 13.2902 5.08005 13.2902Z" fill="currentColor"></path>
  </symbol>
  <symbol fill="inherit" xmlns="http://www.w3.org/2000/svg" viewBox="0 0 24 24" id="mobile">
    <path d="M7.89286 22.9777H15.7879C17.4955 22.9777 18.6306 21.8627 18.6306 20.2054V3.77232C18.6306 2.11496 17.4955 1 15.7879 1H7.89286C6.16518 1 5 2.11496 5 3.77232V20.2054C5 21.8627 6.16518 22.9777 7.89286 22.9777ZM8.22433 20.9587C7.4308 20.9587 6.96875 20.5167 6.96875 19.7533V4.22433C6.96875 3.46094 7.4308 3.02902 8.22433 3.02902H15.4163C16.2098 3.02902 16.6719 3.46094 16.6719 4.22433V19.7533C16.6719 20.5167 16.2098 20.9587 15.4163 20.9587H13.4475V20.6071C13.4475 20.1652 13.1562 19.8739 12.7243 19.8739H10.9263C10.4844 19.8739 10.2031 20.1652 10.2031 20.6071V20.9587H8.22433Z" fill="currentColor"></path>
  </symbol>
  <symbol fill="inherit" xmlns="http://www.w3.org/2000/svg" viewBox="0 0 24 24" id="money">
    <path d="M11.9952 22C17.4761 22 22 17.4739 22 12C22 6.52611 17.4664 2 11.9855 2C6.51426 2 2 6.52611 2 12C2 17.4739 6.52392 22 11.9952 22ZM11.9952 20.0077C7.55824 20.0077 4.01063 16.4391 4.01063 12C4.01063 7.56093 7.55824 4.00193 11.9855 4.00193C16.4224 4.00193 19.9894 7.56093 19.999 12C20.0087 16.4391 16.4321 20.0077 11.9952 20.0077ZM11.9855 17.4352C12.2368 17.4352 12.4302 17.2515 12.4302 16.9903V16.3424C13.9961 16.1973 15.1754 15.2979 15.1754 13.8279C15.1754 12.5126 14.3248 11.7389 12.6428 11.4294L12.4302 11.381V8.98259C13.0488 9.08897 13.4741 9.45648 13.6578 10.0271C13.8028 10.3462 14.0058 10.53 14.3538 10.53C14.7405 10.53 15.0111 10.2689 15.0111 9.90135C15.0111 9.7853 14.9821 9.67892 14.9628 9.56286C14.7018 8.56673 13.7255 7.85106 12.4302 7.71567V7.0677C12.4302 6.80658 12.2368 6.62282 11.9855 6.62282C11.7342 6.62282 11.5505 6.80658 11.5505 7.0677V7.71567C10.0232 7.87041 8.94055 8.79884 8.94055 10.1431C8.94055 11.4004 9.78154 12.1354 11.3862 12.5029L11.5505 12.5416V15.0948C10.7675 14.9787 10.3132 14.5629 10.1585 13.9923C10.0232 13.6441 9.80087 13.47 9.47221 13.47C9.06622 13.47 8.80522 13.7408 8.80522 14.1277C8.80522 14.234 8.83422 14.3404 8.86322 14.4662C9.14355 15.4913 10.1682 16.207 11.5505 16.3327V16.9903C11.5505 17.2611 11.7342 17.4352 11.9855 17.4352ZM11.5505 11.1586L11.4828 11.1393C10.7095 10.9168 10.3519 10.5783 10.3519 10.0561C10.3519 9.52418 10.8062 9.08897 11.5505 8.97292V11.1586ZM12.4302 12.764L12.6138 12.8027C13.4548 13.0348 13.7545 13.383 13.7545 13.9342C13.7545 14.5435 13.3098 14.9884 12.4302 15.0948V12.764Z" fill="currentColor"></path>
  </symbol>
  <symbol fill="inherit" xmlns="http://www.w3.org/2000/svg" viewBox="0 0 24 24" id="notification">
    <path d="M4.47656 18.2314H8.09766C8.15918 19.9014 9.53027 21.4482 11.5518 21.4482C13.5645 21.4482 14.9443 19.9189 15.0146 18.2314H18.627C19.541 18.2314 20.1035 17.7305 20.1035 16.9746C20.1035 16.0342 19.251 15.2344 18.4512 14.4697C17.8271 13.8633 17.6777 12.6504 17.5635 11.4111C17.4404 8.09766 16.4648 5.88281 14.1797 5.05664C13.8369 3.8877 12.8613 3 11.5518 3C10.2422 3 9.2666 3.8877 8.93262 5.05664C6.63867 5.88281 5.67188 8.09766 5.54004 11.4111C5.42578 12.6504 5.27637 13.8633 4.65234 14.4697C3.85254 15.2344 3 16.0342 3 16.9746C3 17.7305 3.5625 18.2314 4.47656 18.2314ZM5.14453 16.5967V16.4912C5.37305 16.2363 5.88281 15.7705 6.31348 15.2783C6.91992 14.584 7.20117 13.3008 7.28906 11.6309C7.39453 8.10645 8.48438 6.91992 9.89062 6.54199C10.1104 6.48047 10.2246 6.375 10.2422 6.1377C10.2861 5.25 10.7871 4.65234 11.5518 4.65234C12.3252 4.65234 12.8174 5.25 12.8613 6.1377C12.8789 6.375 13.002 6.48047 13.2129 6.54199C14.6279 6.91992 15.709 8.10645 15.8145 11.6309C15.9111 13.3008 16.1924 14.584 16.79 15.2783C17.2207 15.7705 17.7129 16.2363 17.9414 16.4912V16.5967H5.14453ZM11.5518 20.0332C10.5586 20.0332 9.84668 19.3213 9.78516 18.2314H13.3271C13.2744 19.3125 12.5537 20.0332 11.5518 20.0332Z" fill="currentColor"></path>
  </symbol>
  <symbol fill="inherit" xmlns="http://www.w3.org/2000/svg" viewBox="0 0 24 24" id="pause">
    <path d="M8.125 20.9353C8.75781 20.9353 9.25 20.4632 9.25 19.8404V5.09487C9.25 4.4721 8.75781 4 8.125 4C7.49219 4 7 4.4721 7 5.09487V19.8404C7 20.4632 7.49219 20.9353 8.125 20.9353ZM15.1462 20.9353C15.779 20.9353 16.2712 20.4632 16.2712 19.8404V5.09487C16.2712 4.4721 15.779 4 15.1462 4C14.5134 4 14.0212 4.4721 14.0212 5.09487V19.8404C14.0212 20.4632 14.5134 20.9353 15.1462 20.9353Z" fill="currentColor"></path>
  </symbol>
  <symbol fill="inherit" xmlns="http://www.w3.org/2000/svg" viewBox="0 0 24 24" id="plus-circle">
    <path d="M11.9952 22C17.4761 22 22 17.4739 22 12C22 6.52611 17.4664 2 11.9855 2C6.51426 2 2 6.52611 2 12C2 17.4739 6.52392 22 11.9952 22ZM11.9952 20.0077C7.55824 20.0077 4.01063 16.4391 4.01063 12C4.01063 7.56093 7.55824 4.00193 11.9855 4.00193C16.4224 4.00193 19.9894 7.56093 19.999 12C20.0087 16.4391 16.4321 20.0077 11.9952 20.0077ZM8.42823 12.9188H11.0768V15.5783C11.0768 16.1103 11.4538 16.4874 11.9758 16.4874C12.5172 16.4874 12.9038 16.1103 12.9038 15.5783V12.9188H15.5621C16.0938 12.9188 16.4804 12.5416 16.4804 12.0097C16.4804 11.4778 16.1034 11.0909 15.5621 11.0909H12.9038V8.43133C12.9038 7.88975 12.5172 7.51257 11.9758 7.51257C11.4538 7.51257 11.0768 7.88975 11.0768 8.43133V11.0909H8.42823C7.87724 11.0909 7.50024 11.4778 7.50024 12.0097C7.50024 12.5416 7.8869 12.9188 8.42823 12.9188Z" fill="currentColor"></path>
  </symbol>
  <symbol fill="inherit" xmlns="http://www.w3.org/2000/svg" viewBox="0 0 24 24" id="plus">
    <path d="M5.08831 13.0883H10.9117V18.9117C10.9117 19.5036 11.3986 20 12 20C12.6014 20 13.0883 19.5036 13.0883 18.9117V13.0883H18.9117C19.5036 13.0883 20 12.6014 20 12C20 11.3986 19.5036 10.9117 18.9117 10.9117H13.0883V5.08831C13.0883 4.49642 12.6014 4 12 4C11.3986 4 10.9117 4.49642 10.9117 5.08831V10.9117H5.08831C4.49642 10.9117 4 11.3986 4 12C4 12.6014 4.49642 13.0883 5.08831 13.0883Z" fill="currentColor"></path>
  </symbol>
  <symbol fill="inherit" xmlns="http://www.w3.org/2000/svg" viewBox="0 0 24 24" id="revision">
    <path fill-rule="evenodd" clip-rule="evenodd" d="M3.87293 21.61C4.42526 22.1934 5.1976 22.56 6.06571 22.56H9.49429C9.92507 22.56 10.2743 22.2108 10.2743 21.78C10.2743 21.3492 9.92507 21 9.49429 21H6.06571C6.05476 21 6.04382 20.9999 6.0329 20.9996C5.65281 20.9908 5.29585 20.8283 5.02856 20.5609C4.74318 20.2754 4.56 19.8703 4.56 19.405V5.155C4.56 4.69102 4.74277 4.28527 5.02856 3.99913C5.30288 3.72447 5.6721 3.56 6.06571 3.56H17.4943C17.8879 3.56 18.2571 3.72447 18.5314 3.99913C18.8172 4.28527 19 4.69102 19 5.155V9.905C19 10.3358 19.3492 10.685 19.78 10.685C20.2108 10.685 20.56 10.3358 20.56 9.905V5.155C20.56 5.13654 20.5598 5.11812 20.5595 5.09973C20.5456 4.26913 20.2172 3.50941 19.6871 2.94999C19.1347 2.36662 18.3624 2 17.4943 2H6.06571C4.34467 2 3 3.44098 3 5.155V19.405C3 20.2545 3.33027 21.0368 3.87293 21.61ZM20.0687 11.8766C19.8811 11.8122 19.6849 11.78 19.4887 11.78C19.4139 11.78 19.339 11.7847 19.2647 11.7941C18.8864 11.8417 18.5205 12.0107 18.23 12.301L13.5186 17.0091L12.8239 17.7034L12.4899 18.0372L12.4152 18.1118L12.4649 18.1616L12.4649 18.1616L12.397 18.5002L12.2401 19.2831L12.1123 19.9204L11.78 21.5774L13.4373 21.2468L13.4776 21.2388L14.0388 21.1268L14.0748 21.1196L14.8475 20.9655L15.2004 20.8951L15.2446 20.9393L15.3108 20.8731L15.3169 20.8719L15.3144 20.8695L15.316 20.8679L15.3161 20.8678L15.645 20.5391L16.4179 19.7668L21.0595 15.1284C21.6677 14.5206 21.7437 13.5824 21.2875 12.8919L21.2763 12.8751C21.2137 12.7827 21.1414 12.6948 21.0595 12.6129L20.7473 12.301L20.7473 12.3009L20.747 12.3007C20.5492 12.1031 20.3165 11.9618 20.0687 11.8766ZM19.9567 13.7164L19.6446 13.4045L19.6444 13.4043C19.5591 13.3192 19.4208 13.3186 19.3347 13.4025L19.3328 13.4044L18.5089 14.2277L14.3354 18.3983L13.9266 18.8069L13.9245 18.8174L13.7696 19.5898L14.5423 19.4356L14.5486 19.4293L14.9635 19.0148L19.1299 14.8513L19.9548 14.0269L19.9567 14.025C19.9674 14.0143 19.9768 14.0028 19.9848 13.9907C20.0408 13.906 20.0315 13.791 19.9567 13.7164ZM13.7801 10.5006L6.78014 10.4994C6.34936 10.4993 6.00008 10.8484 6 11.2792C5.99992 11.71 6.34908 12.0593 6.77986 12.0594L13.7799 12.0606C14.2106 12.0607 14.5599 11.7115 14.56 11.2808C14.5601 10.85 14.2109 10.5007 13.7801 10.5006ZM6.78 6.5C6.34922 6.5 6 6.84922 6 7.28C6 7.71078 6.34922 8.06 6.78 8.06H6.78044H16.7796H16.78C17.2108 8.06 17.56 7.71078 17.56 7.28C17.56 6.84922 17.2108 6.5 16.78 6.5H6.78ZM9.78038 14.5007L6.78038 14.4993C6.34959 14.4991 6.00021 14.8481 6 15.2789C5.99979 15.7097 6.34884 16.0591 6.77962 16.0593L9.77962 16.0607C10.2104 16.0609 10.5598 15.7119 10.56 15.2811C10.5602 14.8503 10.2112 14.5009 9.78038 14.5007Z" fill="#22222D"></path>
  </symbol>
  <symbol fill="inherit" xmlns="http://www.w3.org/2000/svg" viewBox="0 0 24 24" id="search">
    <path d="M9.90513 17.8103C11.5022 17.8103 12.9989 17.3281 14.2444 16.5045L18.644 20.9141C18.9353 21.1953 19.3069 21.3359 19.7087 21.3359C20.5424 21.3359 21.1551 20.683 21.1551 19.8594C21.1551 19.4777 21.0246 19.106 20.7433 18.8248L16.3739 14.4353C17.2779 13.1496 17.8103 11.5926 17.8103 9.90513C17.8103 5.5558 14.2545 2 9.90513 2C5.56585 2 2 5.5558 2 9.90513C2 14.2545 5.5558 17.8103 9.90513 17.8103ZM9.90513 15.7009C6.72098 15.7009 4.10937 13.0893 4.10937 9.90513C4.10937 6.72098 6.72098 4.10938 9.90513 4.10938C13.0893 4.10938 15.7009 6.72098 15.7009 9.90513C15.7009 13.0893 13.0893 15.7009 9.90513 15.7009Z" fill="currentColor"></path>
  </symbol>
  <symbol fill="inherit" xmlns="http://www.w3.org/2000/svg" viewBox="0 0 24 24" id="settings">
    <path d="M10.904 22.827H12.9431C13.7768 22.827 14.4297 22.3047 14.6306 21.5011L15.0324 19.7433L15.2935 19.6429L16.8304 20.5971C17.5335 21.0391 18.3672 20.9185 18.9598 20.3259L20.3661 18.9196C20.9688 18.317 21.0692 17.4933 20.6272 16.8002L19.673 15.2634L19.7734 15.0223L21.5312 14.6105C22.3248 14.4096 22.8471 13.7567 22.8471 12.923V10.9442C22.8471 10.1105 22.3348 9.45759 21.5312 9.2567L19.7835 8.83482L19.683 8.57366L20.6373 7.04688C21.0792 6.3538 20.9788 5.53013 20.3761 4.91741L18.9699 3.51116C18.3873 2.91853 17.5536 2.80804 16.8504 3.23996L15.3136 4.18415L15.0324 4.08371L14.6306 2.31585C14.4297 1.51228 13.7768 1 12.9431 1H10.904C10.0603 1 9.40737 1.51228 9.21652 2.31585L8.81473 4.08371L8.53348 4.18415L6.99665 3.23996C6.28348 2.80804 5.45982 2.91853 4.87723 3.51116L3.46094 4.91741C2.8683 5.53013 2.75781 6.3538 3.19978 7.04688L4.15402 8.57366L4.05357 8.83482L2.31585 9.2567C1.51228 9.45759 1 10.1105 1 10.9442V12.923C1 13.7567 1.52232 14.4096 2.31585 14.6105L4.07366 15.0223L4.16406 15.2634L3.20982 16.8002C2.76786 17.4933 2.87835 18.317 3.47098 18.9196L4.88728 20.3259C5.46987 20.9185 6.30357 21.0391 7.0067 20.5971L8.54353 19.6429L8.81473 19.7433L9.21652 21.5011C9.40737 22.3047 10.0603 22.827 10.904 22.827ZM11.1652 20.9788C10.9944 20.9788 10.904 20.9085 10.8839 20.7578L10.2812 18.2868C9.64844 18.1362 9.03572 17.875 8.54353 17.5636L6.37388 18.8996C6.2433 18.9799 6.12277 18.9699 6.00223 18.8493L4.94754 17.7946C4.82701 17.6842 4.82701 17.5636 4.90737 17.433L6.2433 15.2634C5.96205 14.7813 5.70089 14.1786 5.55022 13.5458L3.0692 12.9531C2.91853 12.933 2.83817 12.8426 2.83817 12.6719V11.1853C2.83817 11.0045 2.90848 10.9342 3.0692 10.894L5.54018 10.3114C5.69085 9.63839 5.98214 9.01562 6.23326 8.56362L4.89732 6.41406C4.81696 6.27344 4.81696 6.1529 4.92746 6.03237L5.99219 4.98772C6.11272 4.87723 6.22321 4.85714 6.37388 4.94754L8.52344 6.26339C8.97545 5.98214 9.64844 5.70089 10.2913 5.54018L10.8839 3.0692C10.904 2.91853 10.9944 2.83817 11.1652 2.83817H12.6819C12.8527 2.83817 12.933 2.90848 12.9632 3.0692L13.5658 5.55022C14.2188 5.71094 14.8114 5.98214 15.3136 6.26339L17.4632 4.94754C17.6138 4.86719 17.7243 4.87723 17.8449 4.99777L18.9096 6.04241C19.0301 6.1529 19.0301 6.27344 18.9397 6.41406L17.6138 8.56362C17.8549 9.01562 18.1562 9.63839 18.3069 10.3114L20.7779 10.894C20.9386 10.9342 20.9989 11.0045 20.9989 11.1853V12.6719C20.9989 12.8426 20.9286 12.933 20.7779 12.9531L18.2969 13.5458C18.1462 14.1786 17.875 14.7913 17.5938 15.2634L18.9297 17.423C19.01 17.5636 19.01 17.6741 18.8895 17.7846L17.8348 18.8493C17.7143 18.9699 17.5938 18.9799 17.4632 18.8996L15.3036 17.5636C14.8013 17.875 14.2288 18.1261 13.5658 18.2868L12.9632 20.7578C12.933 20.9085 12.8527 20.9788 12.6819 20.9788H11.1652ZM11.9286 15.7254C14.0179 15.7254 15.7355 14.0078 15.7355 11.9085C15.7355 9.82924 14.0179 8.11161 11.9286 8.11161C9.82924 8.11161 8.10156 9.82924 8.10156 11.9085C8.10156 14.0078 9.82924 15.7254 11.9286 15.7254ZM11.9286 13.9877C10.7835 13.9877 9.84933 13.0536 9.84933 11.9085C9.84933 10.7835 10.7935 9.84933 11.9286 9.84933C13.0435 9.84933 13.9777 10.7835 13.9777 11.9085C13.9777 13.0435 13.0435 13.9877 11.9286 13.9877Z" fill="currentColor"></path>
  </symbol>
  <symbol fill="inherit" xmlns="http://www.w3.org/2000/svg" viewBox="0 0 24 24" id="star">
    <path d="M5.84313 20.9143C6.3452 21.3038 6.97712 21.1913 7.65232 20.6892L11.9978 17.495L16.3434 20.6892C17.0272 21.1913 17.6505 21.3038 18.1612 20.9143C18.6633 20.5334 18.7672 19.9015 18.4988 19.1224L16.7762 14.0238L21.165 10.8815C21.8402 10.3967 22.1432 9.83405 21.9354 9.2281C21.7363 8.63081 21.165 8.33649 20.334 8.34515L14.967 8.38843L13.3309 3.25518C13.0712 2.45013 12.6298 2 11.9978 2C11.3746 2 10.9331 2.45013 10.6734 3.25518L9.03735 8.38843L3.66172 8.34515C2.8307 8.33649 2.26803 8.63081 2.06894 9.21945C1.85253 9.83405 2.1555 10.3967 2.83936 10.8815L7.2195 14.0238L5.50553 19.1224C5.23718 19.9015 5.34106 20.5334 5.84313 20.9143ZM7.92067 18.0663C7.90336 18.049 7.90336 18.0403 7.91201 17.997L9.40092 13.9718C9.60867 13.3745 9.59136 13.1235 9.01138 12.7513L5.45359 10.3621C5.41897 10.3361 5.41031 10.3188 5.41031 10.3015C5.41897 10.2842 5.43628 10.2842 5.47956 10.2842L9.76449 10.44C10.3964 10.4573 10.6388 10.3188 10.8033 9.70421L11.9632 5.5751C11.9719 5.54047 11.9805 5.52316 11.9978 5.52316C12.0152 5.52316 12.0325 5.54047 12.0411 5.5751L13.2011 9.70421C13.3656 10.3188 13.6079 10.4573 14.2485 10.44L18.5248 10.2842C18.5681 10.2842 18.594 10.2842 18.594 10.3015C18.6027 10.3188 18.5854 10.3361 18.5594 10.3621L14.9843 12.7513C14.4216 13.1235 14.3957 13.3745 14.6034 13.9718L16.0923 17.997C16.101 18.0403 16.101 18.049 16.0837 18.0663C16.075 18.0836 16.0577 18.0663 16.0231 18.049L12.6557 15.3915C12.145 14.9933 11.8593 14.9933 11.3486 15.3915L7.98127 18.049C7.94664 18.0663 7.92933 18.0836 7.92067 18.0663Z" fill="currentColor"></path>
  </symbol>
  <symbol fill="inherit" xmlns="http://www.w3.org/2000/svg" viewBox="0 0 24 24" id="stethoscope">
    <path d="M1 6.37708C1 7.05915 1.11091 7.78558 1.33272 8.55638C1.56007 9.32163 1.87061 10.0758 2.26433 10.8189C2.65804 11.5564 3.10721 12.2274 3.61183 12.8318C4.122 13.4362 4.66266 13.9187 5.23383 14.2791C5.80499 14.6396 6.37893 14.8198 6.95564 14.8198H7.33826C7.91497 14.8198 8.48891 14.6396 9.06007 14.2791C9.63124 13.9187 10.1691 13.4362 10.6738 12.8318C11.1839 12.2274 11.6359 11.5564 12.0296 10.8189C12.4233 10.0758 12.7311 9.32163 12.9529 8.55638C13.1802 7.78558 13.2939 7.05915 13.2939 6.37708C13.2939 5.45656 13.0693 4.7634 12.6201 4.2976C12.1765 3.83179 11.5166 3.59889 10.6405 3.59889H9.75878V4.93808H10.707C11.1285 4.93808 11.4418 5.06007 11.6469 5.30407C11.8521 5.54806 11.9547 5.90018 11.9547 6.36044C11.9547 6.88725 11.866 7.4695 11.6885 8.10721C11.5111 8.73937 11.2643 9.37153 10.9482 10.0037C10.6322 10.6359 10.2689 11.2153 9.85859 11.7421C9.45379 12.2634 9.01848 12.6848 8.55268 13.0065C8.09242 13.3226 7.62384 13.4806 7.14695 13.4806C6.6756 13.4806 6.20702 13.3226 5.74122 13.0065C5.27542 12.6848 4.83734 12.2634 4.42699 11.7421C4.02218 11.2153 3.66174 10.6359 3.34566 10.0037C3.03512 9.37153 2.78835 8.73937 2.60536 8.10721C2.42791 7.4695 2.33919 6.88725 2.33919 6.36044C2.33919 5.90018 2.44177 5.54806 2.64695 5.30407C2.85767 5.06007 3.17098 4.93808 3.58688 4.93808H4.53512V3.59889H3.65342C2.77726 3.59889 2.1146 3.83179 1.66543 4.2976C1.22181 4.7634 1 5.45656 1 6.37708ZM4.9427 5.51201C5.1756 5.51201 5.38632 5.45656 5.57486 5.34566C5.7634 5.22921 5.91312 5.07671 6.02403 4.88817C6.14048 4.69409 6.19871 4.48336 6.19871 4.25601C6.19871 4.02865 6.14048 3.8207 6.02403 3.63216C5.91312 3.43808 5.7634 3.28558 5.57486 3.17468C5.38632 3.05823 5.1756 3 4.9427 3C4.71534 3 4.50462 3.05823 4.31054 3.17468C4.122 3.28558 3.97227 3.43808 3.86137 3.63216C3.75046 3.8207 3.69501 4.02865 3.69501 4.25601C3.69501 4.48336 3.75046 4.69409 3.86137 4.88817C3.97227 5.07671 4.122 5.22921 4.31054 5.34566C4.50462 5.45656 4.71534 5.51201 4.9427 5.51201ZM9.33457 5.51201C9.56192 5.51201 9.76987 5.45656 9.95841 5.34566C10.1525 5.22921 10.305 5.07671 10.4159 4.88817C10.5323 4.69409 10.5906 4.48336 10.5906 4.25601C10.5906 4.02865 10.5323 3.8207 10.4159 3.63216C10.305 3.43808 10.1525 3.28558 9.95841 3.17468C9.76987 3.05823 9.56192 3 9.33457 3C9.10721 3 8.89649 3.05823 8.7024 3.17468C8.51386 3.28558 8.36137 3.43808 8.24492 3.63216C8.13401 3.8207 8.07856 4.02865 8.07856 4.25601C8.07856 4.48336 8.13401 4.69409 8.24492 4.88817C8.36137 5.07671 8.51386 5.22921 8.7024 5.34566C8.89649 5.45656 9.10721 5.51201 9.33457 5.51201ZM10.6904 21C11.5333 21 12.2486 20.7754 12.8364 20.3262C13.4298 19.8771 13.9177 19.2033 14.3004 18.305C14.6885 17.4067 14.9991 16.281 15.232 14.9279C15.4094 13.9187 15.6118 13.1257 15.8392 12.549C16.0665 11.9667 16.3327 11.5564 16.6377 11.3179C16.9482 11.0739 17.3031 10.9519 17.7024 10.9519C18.1738 10.9519 18.5647 11.11 18.8752 11.4261C19.1858 11.7421 19.4242 12.219 19.5906 12.8567C19.7625 13.4945 19.8678 14.2957 19.9067 15.2606H21.2458C21.1627 14.0074 20.9852 12.9621 20.7135 12.1248C20.4418 11.2874 20.0591 10.6608 19.5656 10.2449C19.0776 9.82347 18.4566 9.61275 17.7024 9.61275C17.0314 9.61275 16.4547 9.77911 15.9723 10.1118C15.4898 10.4445 15.0823 10.9797 14.7495 11.7172C14.4168 12.4492 14.1396 13.4196 13.9177 14.6285C13.768 15.4436 13.6017 16.1645 13.4187 16.7911C13.2412 17.4177 13.0277 17.9418 12.7782 18.3632C12.5342 18.7902 12.2347 19.1118 11.8799 19.3281C11.525 19.5499 11.1007 19.6608 10.6072 19.6608C9.70333 19.6608 9.00739 19.1922 8.51941 18.2551C8.03697 17.3235 7.79575 15.9982 7.79575 14.2791H6.45656C6.45656 16.4362 6.82255 18.0943 7.55453 19.2532C8.29205 20.4177 9.33734 21 10.6904 21ZM20.6303 19.8937C21.1128 19.8937 21.5508 19.7745 21.9445 19.536C22.3438 19.3031 22.6599 18.9871 22.8928 18.5878C23.1312 18.1885 23.2505 17.7449 23.2505 17.2569C23.2505 16.7745 23.1312 16.3364 22.8928 15.9427C22.6599 15.5434 22.3438 15.2274 21.9445 14.9945C21.5508 14.756 21.1128 14.634 20.6303 14.6285C20.1423 14.6285 19.6987 14.7477 19.2994 14.9861C18.9002 15.219 18.5813 15.5351 18.3429 15.9344C18.11 16.3336 17.9935 16.7745 17.9935 17.2569C17.9935 17.7449 18.11 18.1885 18.3429 18.5878C18.5813 18.9871 18.9002 19.3031 19.2994 19.536C19.6987 19.7745 20.1423 19.8937 20.6303 19.8937ZM20.6303 18.7209C20.3586 18.7209 20.1118 18.6543 19.89 18.5213C19.6682 18.3937 19.4908 18.2163 19.3577 17.9889C19.2246 17.7671 19.158 17.5231 19.158 17.2569C19.158 16.9852 19.2246 16.7384 19.3577 16.5166C19.4908 16.2948 19.6682 16.1201 19.89 15.9926C20.1118 15.8595 20.3586 15.793 20.6303 15.793C20.8965 15.793 21.1405 15.8595 21.3623 15.9926C21.5841 16.1201 21.7588 16.2948 21.8863 16.5166C22.0194 16.7384 22.086 16.9852 22.086 17.2569C22.086 17.5231 22.0194 17.7671 21.8863 17.9889C21.7588 18.2163 21.5841 18.3937 21.3623 18.5213C21.1405 18.6543 20.8965 18.7209 20.6303 18.7209Z" fill="currentColor"></path>
  </symbol>
  <symbol fill="inherit" xmlns="http://www.w3.org/2000/svg" viewBox="0 0 24 24" id="subscriptions">
    <path d="M10.3408 21.0583L9.254 22.2L7.54051 20.4L5.82701 22.2L4.11352 20.4L2.40002 22.2V20.4V4.19996V2.39996L4.11352 4.19996L5.82701 2.39996L7.54051 4.19996L9.254 2.39996L10.9675 4.19996L12.681 2.39996L14.3945 4.19996L16.108 2.39996L17.8215 4.19996L19.535 2.39996V4.19996V10.8859" stroke="#020224" stroke-width="1.56" stroke-linecap="round" stroke-linejoin="round"></path>
    <path d="M5.79437 7.53198H15.6944" stroke="#020224" stroke-width="1.56" stroke-linecap="round"></path>
    <path d="M5.79437 11.736H12" stroke="#020224" stroke-width="1.56" stroke-linecap="round" stroke-linejoin="round"></path>
    <path d="M5.79437 15.932H8.45361" stroke="#020224" stroke-width="1.56" stroke-linecap="round" stroke-linejoin="round"></path>
    <path d="M13.8309 19.2188C14.4903 20.6276 15.892 21.6 17.5145 21.6C19.7709 21.6 21.6 19.7196 21.6 17.4C21.6 15.0804 19.7709 13.2 17.5145 13.2C15.7536 13.2 14.2528 14.3453 13.6787 15.9508" stroke="#020224" stroke-width="1.56" stroke-linecap="round" stroke-linejoin="round"></path>
    <path fill-rule="evenodd" clip-rule="evenodd" d="M15.6879 15.4282L13.2 16.4553L13.2 13.7118L15.6879 15.4282Z" stroke="#020224" stroke-width="1.56" stroke-linecap="round" stroke-linejoin="round"></path>
  </symbol>
  <symbol fill="inherit" xmlns="http://www.w3.org/2000/svg" viewBox="0 0 24 24" id="store">
    <path d="M6.30468 22.0636H18.1171C20.0557 22.0636 21.1807 20.9386 21.1807 18.789V8.39285C21.1807 6.2433 20.0457 5.1183 17.8761 5.1183H16.4598C16.4096 2.8683 14.491 1 12.0904 1C9.69975 1 7.77119 2.8683 7.72097 5.1183H6.30468C4.13504 5.1183 3 6.2433 3 8.39285V18.789C3 20.9386 4.13504 22.0636 6.30468 22.0636ZM12.0904 2.7779C13.4665 2.7779 14.481 3.8125 14.5212 5.1183H9.65958C9.69975 3.8125 10.7143 2.7779 12.0904 2.7779ZM6.43526 20.0647C5.51115 20.0647 4.99888 19.5826 4.99888 18.6082V8.57365C4.99888 7.60937 5.51115 7.12722 6.43526 7.12722H17.7455C18.6595 7.12722 19.1819 7.60937 19.1819 8.57365V18.6082C19.1819 19.5826 18.6595 20.0647 17.9866 20.0647H6.43526Z" fill="currentColor"></path>
  </symbol>
  <symbol fill="inherit" xmlns="http://www.w3.org/2000/svg" viewBox="0 0 24 24" id="sync">
    <path d="M23.2616 10.7607H21.9132C21.3449 5.90111 17.1069 2 12.0021 2C9.18005 2 6.61801 3.22689 4.84578 5.14389C4.37383 5.60398 4.39309 6.21742 4.77836 6.57206C5.17326 6.9363 5.74153 6.9363 6.22311 6.49538C7.65824 4.95219 9.71942 3.9841 12.0021 3.9841C16.0667 3.9841 19.3511 6.94588 19.9001 10.7607H18.4265C17.6848 10.7607 17.4826 11.3071 17.916 11.9013L20.218 15.1411C20.5743 15.6203 21.1137 15.6299 21.4605 15.1411L23.7721 11.9109C24.2055 11.3071 24.0129 10.7607 23.2616 10.7607ZM0.742676 13.0707H2.10075C2.66902 17.9303 6.90697 21.8314 12.0021 21.8314C14.8435 21.8314 17.4055 20.595 19.1778 18.678C19.6401 18.2179 19.6208 17.6044 19.2355 17.2498C18.8406 16.8856 18.282 16.8856 17.7908 17.3361C16.3749 18.8793 14.3137 19.8473 12.0021 19.8473C7.94719 19.8473 4.66278 16.8856 4.11377 13.0707H5.57779C6.3098 13.0707 6.5217 12.5244 6.08827 11.9301L3.77666 8.69036C3.42992 8.21111 2.89055 8.20152 2.5438 8.69036L0.232196 11.9205C-0.210862 12.5244 -0.00859633 13.0707 0.742676 13.0707Z" fill="currentColor"></path>
  </symbol>
  <symbol fill="inherit" xmlns="http://www.w3.org/2000/svg" viewBox="0 0 24 24" id="timer">
    <path d="M12.3862 22.7824C18.1016 22.7824 22.7824 18.1016 22.7824 12.3862C22.7824 6.6808 18.1116 2 12.3962 2C11.7734 2 11.4219 2.37165 11.4219 2.97433V6.67076C11.4219 7.18304 11.7835 7.58482 12.2958 7.58482C12.808 7.58482 13.1696 7.18304 13.1696 6.67076V4.08929C17.4185 4.48103 20.6931 8.03683 20.6931 12.3862C20.6931 16.9866 17.0067 20.7031 12.3862 20.7031C7.77567 20.7031 4.0692 16.9866 4.07924 12.3862C4.08929 10.4074 4.78237 8.5692 5.94754 7.1529C6.32924 6.63058 6.38951 6.07812 5.95759 5.64621C5.52567 5.21429 4.83259 5.25446 4.38058 5.8471C2.90402 7.63504 2 9.91518 2 12.3862C2 18.1016 6.6808 22.7824 12.3862 22.7824ZM14.0033 13.933C14.827 13.0592 14.6562 11.8739 13.6719 11.2009L8.5692 7.69531C7.96652 7.29353 7.38393 7.88616 7.78571 8.48884L11.2913 13.5815C11.9643 14.5759 13.1496 14.7567 14.0033 13.933Z" fill="currentColor"></path>
  </symbol>
  <symbol fill="inherit" xmlns="http://www.w3.org/2000/svg" viewBox="0 0 24 24" id="transactions">
    <path fill-rule="evenodd" clip-rule="evenodd" d="M20 3V4.63636V19.3636V21L18.4 19.3636L16.8 21L15.2 19.3636L13.6 21L12 19.3636L10.4 21L8.8 19.3636L7.2 21L5.6 19.3636L4 21V19.3636V4.63636V3L5.6 4.63636L7.2 3L8.8 4.63636L10.4 3L12 4.63636L13.6 3L15.2 4.63636L16.8 3L18.4 4.63636L20 3Z" stroke="#020224" stroke-width="1.67143" stroke-linecap="round" stroke-linejoin="round"></path>
    <path d="M7.42859 8.08919H16.5714" stroke="#020224" stroke-width="1.67143" stroke-linecap="round"></path>
    <path d="M7.42859 11.5396H15.4286" stroke="#020224" stroke-width="1.67143" stroke-linecap="round" stroke-linejoin="round"></path>
    <path d="M7.42859 14.9832H12" stroke="#020224" stroke-width="1.67143" stroke-linecap="round" stroke-linejoin="round"></path>
  </symbol>
  <symbol fill="inherit" xmlns="http://www.w3.org/2000/svg" viewBox="0 0 24 24" id="trash">
    <path d="M7.38948 23.0212H16.6205C18.1674 23.0212 19.1618 22.087 19.2422 20.5402L19.9152 6.07589H21.0201C21.5323 6.07589 21.9241 5.6741 21.9241 5.17187C21.9241 4.66964 21.5223 4.28794 21.0201 4.28794H16.5602V2.78125C16.5602 1.23437 15.5759 0.330353 13.8984 0.330353H10.0814C8.40399 0.330353 7.41962 1.23437 7.41962 2.78125V4.28794H2.97988C2.47765 4.28794 2.07587 4.67968 2.07587 5.17187C2.07587 5.68415 2.47765 6.07589 2.97988 6.07589H4.0848L4.75779 20.5402C4.83814 22.0971 5.82252 23.0212 7.38948 23.0212ZM9.29796 2.87165C9.29796 2.35937 9.65957 2.0279 10.212 2.0279H13.7678C14.3203 2.0279 14.6819 2.35937 14.6819 2.87165V4.28794H9.29796V2.87165ZM7.59038 21.2232C7.03792 21.2232 6.63613 20.8114 6.606 20.2187L5.93301 6.07589H18.0368L17.3839 20.2187C17.3638 20.8214 16.9721 21.2232 16.3995 21.2232H7.59038ZM9.0368 19.606C9.46872 19.606 9.73993 19.3348 9.72988 18.933L9.42854 8.42634C9.4185 8.02455 9.13725 7.76339 8.72542 7.76339C8.30354 7.76339 8.03234 8.03459 8.04238 8.43638L8.34372 18.9431C8.35377 19.3449 8.63502 19.606 9.0368 19.606ZM12 19.606C12.4218 19.606 12.7131 19.3449 12.7131 18.9431V8.43638C12.7131 8.03459 12.4218 7.76339 12 7.76339C11.5781 7.76339 11.2968 8.03459 11.2968 8.43638V18.9431C11.2968 19.3449 11.5781 19.606 12 19.606ZM14.9631 19.6161C15.3649 19.6161 15.6462 19.3449 15.6562 18.9431L15.9576 8.43638C15.9676 8.03459 15.6964 7.77343 15.2745 7.77343C14.8627 7.77343 14.5814 8.03459 14.5714 8.43638L14.2701 18.9431C14.26 19.3348 14.5312 19.6161 14.9631 19.6161Z" fill="currentColor"></path>
  </symbol>
  <symbol fill="inherit" xmlns="http://www.w3.org/2000/svg" viewBox="0 0 24 24" id="unlock">
    <path d="M4.32031 22.029H13.7623C15.3192 22.029 16.0926 21.2556 16.0926 19.5681V12.4263C16.0926 10.9699 15.51 10.1964 14.3549 10.0156V7.47433C14.3549 5.13393 15.8415 3.84821 17.6295 3.84821C19.4275 3.84821 20.9141 5.13393 20.9141 7.47433V9.59375C20.9141 10.3069 21.3359 10.6786 21.8884 10.6786C22.4208 10.6786 22.8527 10.327 22.8527 9.59375V7.65513C22.8527 3.83817 20.3013 2 17.6295 2C14.9676 2 12.4163 3.83817 12.4163 7.65513V9.9654H4.32031C2.77344 9.9654 2 10.7388 2 12.4263V19.5681C2 21.2556 2.77344 22.029 4.32031 22.029ZM4.64174 20.2109C4.19978 20.2109 3.97879 20 3.97879 19.4777V12.5167C3.97879 11.9844 4.19978 11.7935 4.64174 11.7935H13.4509C13.9029 11.7935 14.1138 11.9844 14.1138 12.5167V19.4777C14.1138 20 13.9029 20.2109 13.4509 20.2109H4.64174Z" fill="currentColor"></path>
  </symbol>
  <symbol fill="inherit" xmlns="http://www.w3.org/2000/svg" viewBox="0 0 24 24" id="upload">
    <path d="M19.5893 10.9844C19.5893 10.6931 19.4788 10.4219 19.2377 10.1808L12.6283 3.55134C12.4275 3.35045 12.1663 3.21987 11.8951 3.19978H18.5145C19.1373 3.19978 19.5893 2.72768 19.5893 2.09487C19.5893 1.4721 19.1373 1 18.5145 1H5.09487C4.46205 1 4 1.4721 4 2.09487C4 2.72768 4.46205 3.19978 5.09487 3.19978H11.6942C11.423 3.21987 11.1618 3.35045 10.9609 3.55134L4.35156 10.1808C4.11049 10.4219 4 10.6931 4 10.9844C4 11.6071 4.45201 12.0692 5.06473 12.0692C5.38616 12.0692 5.66741 11.9487 5.8683 11.7478L8.15848 9.47768L10.76 6.57478L10.6797 8.73438V21.1496C10.6797 21.8225 11.1317 22.2846 11.7946 22.2846C12.4576 22.2846 12.9096 21.8225 12.9096 21.1496V8.73438L12.8292 6.56473L15.4308 9.47768L17.721 11.7478C17.9219 11.9487 18.2031 12.0692 18.5145 12.0692C19.1272 12.0692 19.5893 11.6071 19.5893 10.9844Z" fill="currentColor"></path>
  </symbol>
  <symbol fill="inherit" xmlns="http://www.w3.org/2000/svg" viewBox="0 0 24 24" id="user-plus">
    <path d="M14.731 10.4319C17.1618 10.4319 19.1306 8.28237 19.1306 5.65067C19.1306 3.05915 17.1618 1 14.731 1C12.3203 1 10.3315 3.08929 10.3315 5.67076C10.3415 8.29241 12.3002 10.4319 14.731 10.4319ZM14.731 8.67411C13.3449 8.67411 12.1696 7.35826 12.1696 5.67076C12.1696 4.02344 13.3348 2.75781 14.731 2.75781C16.1373 2.75781 17.2924 4.00335 17.2924 5.65067C17.2924 7.33817 16.1272 8.67411 14.731 8.67411ZM14.731 11.5971C12.9732 11.5971 11.4364 11.9888 10.1607 12.6317C10.6529 13.0134 11.0848 13.4754 11.4364 14.0078C12.3605 13.606 13.4654 13.3549 14.731 13.3549C19.1507 13.3549 21.6317 16.2176 21.6317 17.7545C21.6317 17.9353 21.5413 18.0156 21.3002 18.0156H12.7723C12.7623 18.6384 12.6819 19.1808 12.4911 19.7734H20.9888C22.7266 19.7734 23.5603 19.221 23.5603 18.0357C23.5603 15.2734 20.115 11.5971 14.731 11.5971ZM6.17299 23.058C8.98549 23.058 11.356 20.7076 11.356 17.875C11.356 15.0424 9.01562 12.702 6.17299 12.702C3.3404 12.702 1 15.0424 1 17.875C1 20.7176 3.3404 23.058 6.17299 23.058ZM2.89844 17.875C2.88839 17.4632 3.16964 17.192 3.58147 17.192H5.48996V15.2935C5.48996 14.8817 5.76116 14.6004 6.17299 14.6004C6.59487 14.6004 6.86607 14.8817 6.86607 15.2935V17.192H8.77455C9.17634 17.192 9.45759 17.4632 9.45759 17.875C9.45759 18.2969 9.17634 18.5681 8.77455 18.5681H6.86607V20.4766C6.86607 20.8884 6.59487 21.1596 6.17299 21.1596C5.76116 21.1596 5.48996 20.8884 5.48996 20.4766V18.5681H3.58147C3.17969 18.5681 2.89844 18.2969 2.89844 17.875Z" fill="currentColor"></path>
  </symbol>
  <symbol fill="inherit" xmlns="http://www.w3.org/2000/svg" viewBox="0 0 24 24" id="users">
    <path d="M16.7105 11.6634C18.6855 11.6634 20.2851 9.92508 20.2851 7.78683C20.2851 5.68122 18.6936 4 16.7105 4C14.7517 4 13.1358 5.70571 13.1358 7.80315C13.144 9.93324 14.7436 11.6634 16.7105 11.6634ZM7.25153 11.8511C8.97356 11.8511 10.361 10.325 10.361 8.43973C10.361 6.60345 8.97356 5.11809 7.25153 5.11809C5.54583 5.11809 4.13393 6.62793 4.14209 8.44789C4.14209 10.3331 5.53767 11.8511 7.25153 11.8511ZM16.7105 10.2352C15.5842 10.2352 14.6293 9.17425 14.6293 7.79499C14.6293 6.4647 15.576 5.42822 16.7105 5.42822C17.853 5.42822 18.7916 6.44838 18.7916 7.78683C18.7916 9.15792 17.8449 10.2352 16.7105 10.2352ZM7.25153 10.4392C6.32931 10.4392 5.54583 9.55783 5.54583 8.44789C5.54583 7.38693 6.32115 6.52183 7.25153 6.52183C8.19824 6.52183 8.9654 7.37061 8.9654 8.43973C8.9654 9.55783 8.18192 10.4392 7.25153 10.4392ZM2.76283 19.3514H9.10414C8.65527 19.0902 8.35331 18.4944 8.41044 17.9558H2.68938C2.53432 17.9558 2.46903 17.8823 2.46903 17.7436C2.46903 15.8747 4.65625 14.0955 7.24337 14.0955C8.15744 14.0955 9.0715 14.324 9.77337 14.7158C10.0509 14.3158 10.3936 13.9731 10.8425 13.6793C9.80601 13.0427 8.51653 12.6999 7.24337 12.6999C3.79116 12.6999 1 15.1646 1 17.8742C1 18.8535 1.58761 19.3514 2.76283 19.3514ZM11.626 19.3514H21.7949C23.2068 19.3514 23.8924 18.9025 23.8924 17.9395C23.8924 15.6951 21.0849 12.7081 16.7105 12.7081C12.336 12.7081 9.52853 15.6951 9.52853 17.9395C9.52853 18.9025 10.2141 19.3514 11.626 19.3514ZM11.3648 17.9231C11.1771 17.9231 11.1037 17.8578 11.1037 17.7109C11.1037 16.4623 13.1195 14.1363 16.7105 14.1363C20.3014 14.1363 22.3172 16.4623 22.3172 17.7109C22.3172 17.8578 22.2438 17.9231 22.0479 17.9231H11.3648Z" fill="currentColor"></path>
  </symbol>
  <symbol fill="inherit" xmlns="http://www.w3.org/2000/svg" viewBox="0 0 24 24" id="user">
    <path d="M11.8393 12.4319C14.2701 12.4319 16.2388 10.2824 16.2388 7.65067C16.2388 5.05915 14.2701 3 11.8393 3C9.41853 3 7.42969 5.08929 7.43973 7.67076C7.44978 10.2924 9.40848 12.4319 11.8393 12.4319ZM11.8393 10.6741C10.4531 10.6741 9.2779 9.35826 9.2779 7.67076C9.26786 6.02344 10.4431 4.75781 11.8393 4.75781C13.2455 4.75781 14.4007 6.00335 14.4007 7.65067C14.4007 9.33817 13.2355 10.6741 11.8393 10.6741ZM5.57143 21.7734H18.0971C19.8348 21.7734 20.6685 21.221 20.6685 20.0357C20.6685 17.2734 17.2232 13.5971 11.8393 13.5971C6.45536 13.5971 3 17.2734 3 20.0357C3 21.221 3.83371 21.7734 5.57143 21.7734ZM5.26004 20.0156C5.01897 20.0156 4.92857 19.9353 4.92857 19.7545C4.92857 18.2176 7.4096 15.3549 11.8393 15.3549C16.2589 15.3549 18.74 18.2176 18.74 19.7545C18.74 19.9353 18.6496 20.0156 18.4085 20.0156H5.26004Z" fill="currentColor"></path>
  </symbol>
  <symbol fill="inherit" xmlns="http://www.w3.org/2000/svg" viewBox="0 0 24 24" id="visible">
    <path d="M11.7901 18.5995C18.2328 18.5995 22.5646 13.4045 22.5646 11.7958C22.5646 10.1871 18.2171 5 11.7901 5C5.44162 5 1 10.1871 1 11.7958C1 13.4045 5.42592 18.5995 11.7901 18.5995ZM11.7901 17.0614C6.78352 17.0614 2.82059 12.8945 2.82059 11.7958C2.82059 10.8777 6.78352 6.53809 11.7901 6.53809C16.7732 6.53809 20.744 10.8777 20.744 11.7958C20.744 12.8945 16.7732 17.0614 11.7901 17.0614ZM11.7901 16.0099C14.1287 16.0099 16.0042 14.0873 16.0042 11.7958C16.0042 9.44946 14.1287 7.58963 11.7901 7.58963C9.43593 7.58963 7.55256 9.44946 7.56041 11.7958C7.5761 14.0873 9.43593 16.0099 11.7901 16.0099ZM11.7823 13.1534C11.0289 13.1534 10.4169 12.5413 10.4169 11.7958C10.4169 11.0503 11.0289 10.4382 11.7823 10.4382C12.5356 10.4382 13.1477 11.0503 13.1477 11.7958C13.1477 12.5413 12.5356 13.1534 11.7823 13.1534Z" fill="currentColor"></path>
  </symbol>
  <symbol fill="inherit" xmlns="http://www.w3.org/2000/svg" viewBox="0 0 24 24" id="wallet">
    <path fill-rule="evenodd" clip-rule="evenodd" d="M20.5 5.89374C21.3284 5.89374 22 6.56531 22 7.39374V19.3937C22 20.2222 21.3284 20.8937 20.5 20.8937H2.5C1.67157 20.8937 1 20.2222 1 19.3937V7.39374C1 6.56531 1.67157 5.89374 2.5 5.89374H20.5Z" stroke="#22222D" stroke-width="1.56" stroke-linecap="round" stroke-linejoin="round"></path>
    <path fill-rule="evenodd" clip-rule="evenodd" d="M20.4921 3.50303C20.4973 3.53511 20.5 3.56758 20.5 3.60009V5.89372H2.49996C2.4951 5.89372 2.49026 5.89375 2.48541 5.89379C2.54958 5.85264 2.62334 5.82432 2.70289 5.81127L19.8029 3.008C20.1299 2.95439 20.4384 3.17602 20.4921 3.50303Z" stroke="#22222D" stroke-width="1.56" stroke-linecap="round" stroke-linejoin="round"></path>
    <path d="M21.25 9.74194H19.15C18.7357 9.74194 18.4 10.0777 18.4 10.4919V16.1919C18.4 16.6062 18.7357 16.9419 19.15 16.9419H21.25C21.6642 16.9419 22 16.6062 22 16.1919V10.4919C22 10.0777 21.6642 9.74194 21.25 9.74194Z" stroke="#22222D" stroke-width="1.56" stroke-linecap="round" stroke-linejoin="round"></path>
  </symbol>
  <symbol fill="inherit" xmlns="http://www.w3.org/2000/svg" viewBox="0 0 24 24" id="web">
    <path d="M12.3862 22.7723C18.0815 22.7723 22.7824 18.0714 22.7824 12.3862C22.7824 6.70089 18.0714 2 12.3761 2C6.69085 2 2 6.70089 2 12.3862C2 18.0714 6.70089 22.7723 12.3862 22.7723ZM9.73437 10.3371C9.68415 9.95536 9.51339 9.61384 9.25223 9.35268C10.106 7.20312 11.452 5.26451 13.1998 3.66741C13.3103 3.67746 13.4308 3.69754 13.5513 3.70759C12.3158 5.86719 11.5725 8.26786 11.3817 10.7589C10.8192 10.6585 10.2667 10.5179 9.73437 10.3371ZM5.15402 7.49442C6.53013 5.48549 8.70982 4.05915 11.2109 3.70759C9.81473 5.23438 8.70982 6.98214 7.96652 8.88058C7.67522 8.90067 7.41406 8.99107 7.19308 9.1317C6.45982 8.66964 5.77679 8.11719 5.15402 7.49442ZM15.6004 7.55469C15.5904 6.5 15.721 5.44531 16.0123 4.4308C17.8705 5.29464 19.3973 6.7913 20.2812 8.63951C19.3069 9.38281 18.2221 9.94531 17.077 10.3371C16.7757 9.97545 16.3337 9.74442 15.8415 9.73438C15.6908 9.02121 15.6105 8.29799 15.6004 7.55469ZM14.2243 7.55469C14.2344 8.48884 14.3449 9.41295 14.5558 10.2969C14.4051 10.4676 14.2846 10.6786 14.2243 10.8996C13.9632 10.9196 13.7121 10.9297 13.4509 10.9297C13.2199 10.9297 12.9788 10.9297 12.7478 10.9096C12.9085 8.77009 13.5011 6.70089 14.4955 4.84263C14.3047 5.71652 14.2143 6.63058 14.2243 7.55469ZM3.63728 12.3862C3.63728 11.0904 3.91853 9.86496 4.44085 8.75C5.05357 9.33259 5.72656 9.85491 6.43973 10.2969C6.42969 10.3772 6.41964 10.4475 6.41964 10.5279C6.41964 11.0703 6.6808 11.5625 7.09263 11.8638C6.90179 12.8382 6.80134 13.8426 6.79129 14.8471C5.67634 14.3047 4.62165 13.6116 3.64732 12.7879C3.63728 12.6574 3.63728 12.5167 3.63728 12.3862ZM21.1451 12.3862C21.1451 13.1797 21.0346 13.9531 20.8337 14.6864C20.2712 14.9877 19.6987 15.2489 19.1161 15.4699C18.2121 14.6362 17.4687 13.6719 16.8962 12.6071C17.1574 12.3661 17.3482 12.0446 17.4185 11.673C18.6239 11.2812 19.7589 10.7188 20.8036 9.98549C21.0246 10.7489 21.1451 11.5525 21.1451 12.3862ZM8.16741 15.4498C8.13728 14.3348 8.22768 13.2299 8.42857 12.1551C8.77009 12.0848 9.08147 11.904 9.3125 11.6529C9.9654 11.8638 10.6384 12.0346 11.3315 12.1451C11.3415 13.3806 11.4821 14.596 11.7433 15.7813C11.5725 15.9219 11.4319 16.0926 11.3315 16.2835C10.2567 16.1228 9.19196 15.8415 8.16741 15.4498ZM13.4509 12.3058C13.7723 12.3058 14.0937 12.2958 14.4152 12.2656C14.6663 12.6574 15.0781 12.9286 15.5502 13.0089C16.1027 14.0837 16.8058 15.0681 17.6496 15.942C16.5647 16.2333 15.4498 16.404 14.3348 16.4542C14.1239 15.9219 13.6518 15.5301 13.0893 15.4397C12.8583 14.4152 12.7277 13.3605 12.7176 12.2857C12.9587 12.3058 13.2098 12.3058 13.4509 12.3058ZM3.97879 14.7868C4.87277 15.4196 5.83705 15.952 6.82143 16.394C6.8817 17.4386 7.04241 18.4732 7.31362 19.4877C5.72656 18.3527 4.53125 16.6953 3.97879 14.7868ZM12.3862 21.1451C11.221 21.1451 10.106 20.904 9.08147 20.4821C8.64955 19.3471 8.3683 18.1618 8.24777 16.9464C9.2221 17.2779 10.2266 17.519 11.231 17.6596C11.4621 18.2723 12.0346 18.7042 12.7176 18.7344C13.0491 19.5179 13.4509 20.2812 13.9129 21.0045C13.4208 21.0949 12.9085 21.1451 12.3862 21.1451ZM14.0033 18.2221C14.1138 18.1116 14.2042 17.971 14.2746 17.8304C15.8214 17.7701 17.3482 17.5089 18.8348 17.0268C19.0458 17.1975 19.2567 17.3482 19.4676 17.4989C18.433 18.9252 16.9866 20.0301 15.3092 20.6328C14.7969 19.8694 14.365 19.0658 14.0033 18.2221Z" fill="currentColor"></path>
  </symbol>
</svg>