<?xml version="1.0" encoding="utf-8"?>
<!-- Generator: Adobe Illustrator 26.5.0, SVG Export Plug-In . SVG Version: 6.00 Build 0)  -->
<svg version="1.1" id="Layer_1" xmlns="http://www.w3.org/2000/svg" xmlns:xlink="http://www.w3.org/1999/xlink" x="0px" y="0px"
	 viewBox="0 0 666.5 170.7" style="enable-background:new 0 0 666.5 170.7;" xml:space="preserve">
<style type="text/css">
	.st0{fill:#150050;}
	.st1{fill:#5E85FE;}
	.st2{fill:#EF6051;}
	.st3{fill:#FACF18;}
	.st4{fill:#FA9BFA;}
</style>
<path class="st0" d="M268.9,28.5c-15.6,0-27.3,12.1-27.3,28.1v5h-14.2v17.1h14.2v63.6h21.3V78.6h16.2V61.6h-16.2v-5
	c0-6.9,3.3-10.3,9.9-10.3c1.9,0,3.8,0.2,5.7,0.6l1.3,0.3V29.6l-0.8-0.2C275.7,28.7,272.3,28.4,268.9,28.5z"/>
<path class="st0" d="M325.8,59.2c-24.4,0-42.8,18.4-42.8,42.8s18.4,42.6,42.8,42.6s42.9-18.3,42.9-42.6S350.2,59.2,325.8,59.2z
	 M347,102c0,14.5-8.5,24.2-21.3,24.2c-12.5,0-21.3-10-21.3-24.2s8.7-24.3,21.3-24.3S347,87.6,347,102z"/>
<path class="st0" d="M424.1,60.6c-14.3,0-24.7,10.8-26.2,21.4l2.8-20.5h-20.2v80.7h21.3v-37.6c0-15.2,7.3-23.9,20.2-23.9
	c2.7-0.1,5.3,0.3,7.9,0.9l1.3,0.3V61.6l-0.8-0.2C428.3,60.9,426.2,60.7,424.1,60.6z"/>
<path class="st0" d="M645.8,61.6l2.4,11.6c-0.7-1.1-1.4-2.1-2.3-3.1c-0.7-0.8-1.5-1.5-2.3-2.2l-0.1-0.1c-0.3-0.2-0.6-0.5-0.9-0.7
	c-1.6-1.2-3.3-2.3-5.2-3.2c-5.5-2.8-11.6-4.2-17.7-4.2c-23,0-39,17.3-39,42c0,25,16,42.5,39,42.5c9.5,0,18.8-3.6,24.9-9.4
	c1.4-1.3,2.6-2.9,3.6-4.5l-2.8,12h21.1V61.6H645.8z M623.6,126c-12.6,0-21.4-10-21.4-24.4s8.6-23.9,21.4-23.9s21.6,9.6,21.6,23.9
	S636.3,126,623.6,126z"/>
<path class="st0" d="M488,59.7"/>
<path class="st0" d="M465,61.6h-21.1v80.7h21.3V99.2c0-14,5.8-21.7,16.3-21.7c9.8,0,15.2,6.5,15.2,18.3v46.5H518V99.2
	c0-14,5.6-21.7,15.7-21.7c9.3,0,14.4,6.5,14.4,18.3v46.5h21.3V93.1c0-20.3-11.5-33.4-29.3-33.4h-1.2c-4.4-0.1-8.8,0.9-12.7,2.8
	c-6.1,2.6-11,7.5-13.6,13.6c-4.8-11-12.7-16.4-24.1-16.5c-14.3,0-24.7,11.7-26.2,22.3L465,61.6z"/>
<path class="st0" d="M462.2,82"/>
<circle class="st1" cx="53.8" cy="22.3" r="22.3"/>
<circle class="st2" cx="85.3" cy="53.8" r="22.3"/>
<circle class="st1" cx="116.9" cy="22.3" r="22.3"/>
<ellipse transform="matrix(8.248056e-02 -0.9966 0.9966 8.248056e-02 -40.6531 252.6034)" class="st3" cx="116.9" cy="148.4" rx="22.3" ry="22.3"/>
<circle class="st4" cx="85.3" cy="116.9" r="22.3"/>
<circle class="st3" cx="53.8" cy="148.4" r="22.3"/>
<circle class="st1" cx="148.4" cy="53.8" r="22.3"/>
<circle class="st4" cx="116.9" cy="85.3" r="22.3"/>
<ellipse transform="matrix(8.248050e-02 -0.9966 0.9966 8.248050e-02 19.6797 255.0957)" class="st3" cx="148.4" cy="116.9" rx="22.3" ry="22.3"/>
<circle class="st3" cx="22.3" cy="116.9" r="22.3"/>
<circle class="st2" cx="53.8" cy="85.3" r="22.3"/>
<circle class="st1" cx="22.3" cy="53.8" r="22.3"/>
</svg>
