<?xml version="1.0" encoding="utf-8"?>
<!-- Generator: Adobe Illustrator 26.5.0, SVG Export Plug-In . SVG Version: 6.00 Build 0)  -->
<svg version="1.1" id="Layer_1" xmlns="http://www.w3.org/2000/svg" xmlns:xlink="http://www.w3.org/1999/xlink" x="0px" y="0px"
	 viewBox="0 0 439.13 116.13" style="enable-background:new 0 0 439.13 116.13;" xml:space="preserve">
<style type="text/css">
	.st0{fill:#1B1550;}
</style>
<g>
	<path class="st0" d="M41.51,0.01c-15.56,0-27.3,12.07-27.3,28.08v5H0v17.1h14.21v63.6h21.34v-63.6h16.24V33.11H35.55v-5
		c0-6.86,3.32-10.34,9.86-10.34c1.92,0,3.83,0.2,5.71,0.6l1.3,0.28V1.19l-0.81-0.21C48.29,0.26,44.9-0.06,41.51,0.01z"/>
	<path class="st0" d="M98.38,30.77c-24.37,0-42.76,18.38-42.76,42.76s18.39,42.6,42.76,42.6s42.92-18.32,42.92-42.6
		S122.85,30.77,98.38,30.77z M119.64,73.53c0,14.49-8.54,24.23-21.26,24.23c-12.52,0-21.26-10-21.26-24.23s8.74-24.34,21.26-24.34
		S119.64,59.19,119.64,73.53z"/>
	<path class="st0" d="M196.76,32.19c-14.29,0-24.7,10.81-26.25,21.4l2.81-20.46h-20.25v80.66h21.34v-37.6
		c0-15.2,7.35-23.92,20.17-23.92c2.65-0.05,5.3,0.25,7.87,0.91l1.32,0.31v-20.3l-0.85-0.18C200.9,32.51,198.84,32.23,196.76,32.19z"
		/>
	<path class="st0" d="M418.43,33.11l2.42,11.62c-0.66-1.11-1.43-2.15-2.31-3.09c-0.74-0.77-1.51-1.5-2.33-2.18l-0.11-0.09
		c-0.3-0.25-0.61-0.49-0.92-0.73c-1.63-1.21-3.35-2.29-5.15-3.22c-5.5-2.77-11.57-4.22-17.73-4.23c-23,0-39,17.26-39,42
		c0,25,16,42.45,39,42.45c9.53,0,18.77-3.56,24.92-9.35c1.4-1.34,2.62-2.86,3.63-4.52l-2.81,12h21.09V33.11H418.43z M396.21,97.6
		c-12.61,0-21.42-10-21.42-24.39s8.61-23.92,21.42-23.92s21.57,9.62,21.57,23.92S408.91,97.6,396.21,97.6z"/>
	<path class="st0" d="M260.67,31.24"/>
	<path class="st0" d="M237.62,33.11h-21.11v80.68h21.34V70.72c0-14,5.77-21.74,16.26-21.74c9.79,0,15.17,6.5,15.17,18.3v46.51h21.34
		V70.72c0-14,5.56-21.74,15.65-21.74c9.28,0,14.39,6.5,14.39,18.3v46.51H342V64.63c0-20.29-11.52-33.39-29.33-33.39h-1.16
		c-4.41-0.07-8.77,0.9-12.74,2.82c-6.12,2.63-10.98,7.52-13.59,13.64c-4.8-11-12.72-16.36-24.13-16.47
		c-14.29,0-24.69,11.73-26.25,22.32L237.62,33.11z"/>
	<path class="st0" d="M234.81,53.57"/>
</g>
</svg>
